<?xml version="1.0" encoding="utf-8"?><!-- Uploaded to: SVG Repo, www.svgrepo.com, Generator: SVG Repo Mixer Tools -->
<svg fill="#000000" width="800px" height="800px" viewBox="0 0 24 24" id="curve-arrow-up-6" data-name="Flat Line" xmlns="http://www.w3.org/2000/svg" class="icon flat-line"><path id="secondary" d="M14,3.43,9.5,10h3C12.27,14.61,8,17.06,8,17.06c4.4,0,8.79-1.71,9-7.06h3L15.53,3.43A1,1,0,0,0,14,3.43Z" style="fill: rgb(44, 169, 188); stroke-width: 2;"></path><path id="primary" d="M20,15v5a1,1,0,0,1-1,1H5a1,1,0,0,1-1-1V4A1,1,0,0,1,5,3H9" style="fill: none; stroke: rgb(0, 0, 0); stroke-linecap: round; stroke-linejoin: round; stroke-width: 2;"></path><path id="primary-2" data-name="primary" d="M14,3.43,9.5,10h3C12.27,14.61,8,17.06,8,17.06c4.4,0,8.79-1.71,9-7.06h3L15.53,3.43A1,1,0,0,0,14,3.43Z" style="fill: none; stroke: rgb(0, 0, 0); stroke-linecap: round; stroke-linejoin: round; stroke-width: 2;"></path></svg>