<svg xmlns:dc="http://purl.org/dc/elements/1.1/" 
xmlns:cc="http://creativecommons.org/ns#" 
xmlns:rdf="http://www.w3.org/1999/02/22-rdf-syntax-ns#" xmlns:svg="http://www.w3.org/2000/svg" xmlns="http://www.w3.org/2000/svg" xmlns:sodipodi="http://sodipodi.sourceforge.net/DTD/sodipodi-0.dtd" xmlns:inkscape="http://www.inkscape.org/namespaces/inkscape" version="1.1" x="0px" y="0px" viewBox="0 0 100 125"><g transform="translate(0,-952.36218)"><path style="font-size:medium;font-style:normal;font-variant:normal;font-weight:normal;font-stretch:normal;text-indent:0;text-align:start;text-decoration:none;line-height:normal;letter-spacing:normal;word-spacing:normal;text-transform:none;direction:ltr;block-progression:tb;writing-mode:lr-tb;text-anchor:start;baseline-shift:baseline;opacity:1;color:#000000;fill:#000000;fill-opacity:1;stroke:none;stroke-width:4.04761887000000000;marker:none;visibility:visible;display:inline;overflow:visible;enable-background:accumulate;font-family:Sans;-inkscape-font-specification:Sans" d="M 50 6 C 25.72316 6 6 25.72315 6 50 C 6 74.2768 25.72316 94 50 94 C 74.27684 94 94 74.2768 94 50 C 94 25.72315 74.27684 6 50 6 z M 50 10 C 72.115079 10 90 27.88491 90 50 C 90 72.1151 72.115079 90 50 90 C 27.884921 90 10 72.1151 10 50 C 10 27.88491 27.884921 10 50 10 z M 33.8125 39 A 2.0021961 2.0021961 0 1 0 34 43 L 57 43 L 57 59 A 2.0002 2.0002 0 1 0 61 59 L 61 41 A 2.0002 2.0002 0 0 0 59 39 L 34 39 A 2.0002 2.0002 0 0 0 33.8125 39 z M 59 64 C 57.895431 64 57 64.895431 57 66 C 57 67.104569 57.895431 68 59 68 C 60.104569 68 61 67.104569 61 66 C 61 64.895431 60.104569 64 59 64 z " transform="translate(0,952.36218)"/></g><text x="0" y="115" fill="#000000" font-size="5px" font-weight="bold" font-family="'Helvetica Neue', Helvetica, Arial-Unicode, Arial, Sans-serif">Created by cathy moser</text><text x="0" y="120" fill="#000000" font-size="5px" font-weight="bold" font-family="'Helvetica Neue', Helvetica, Arial-Unicode, Arial, Sans-serif">from the Noun Project</text>
</svg>