<?xml version="1.0" encoding="utf-8"?><!-- Uploaded to: SVG Repo, www.svgrepo.com, Generator: SVG Repo Mixer Tools -->
<svg fill="#000000" width="800px" height="800px" viewBox="0 0 24 24" id="curve-arrow-right-6" data-name="Flat Line" xmlns="http://www.w3.org/2000/svg" class="icon flat-line"><path id="secondary" d="M20.57,14,14,9.5v3C9.39,12.27,6.94,8,6.94,8c0,4.4,1.71,8.79,7.06,9v3l6.57-4.47A1,1,0,0,0,20.57,14Z" style="fill: rgb(44, 169, 188); stroke-width: 2;"></path><path id="primary" d="M9,20H4a1,1,0,0,1-1-1V5A1,1,0,0,1,4,4H20a1,1,0,0,1,1,1V9" style="fill: none; stroke: rgb(0, 0, 0); stroke-linecap: round; stroke-linejoin: round; stroke-width: 2;"></path><path id="primary-2" data-name="primary" d="M20.57,14,14,9.5v3C9.39,12.27,6.94,8,6.94,8c0,4.4,1.71,8.79,7.06,9v3l6.57-4.47A1,1,0,0,0,20.57,14Z" style="fill: none; stroke: rgb(0, 0, 0); stroke-linecap: round; stroke-linejoin: round; stroke-width: 2;"></path></svg>