<?xml version="1.0" encoding="iso-8859-1"?>
<!-- Uploaded to: SVG Repo, www.svgrepo.com, Generator: SVG Repo Mixer Tools -->
<svg height="800px" width="800px" version="1.1" id="Layer_1" xmlns="http://www.w3.org/2000/svg" xmlns:xlink="http://www.w3.org/1999/xlink" 
	 viewBox="0 0 512 512" xml:space="preserve">
<path style="fill:currentColor;" d="M488.727,232.727H79.458l18.454-18.454c9.089-9.089,9.089-23.824,0-32.912
	c-9.087-9.089-23.824-9.089-32.912,0L6.82,239.54c-0.545,0.545-1.06,1.116-1.547,1.711c-0.213,0.259-0.397,0.534-0.597,0.799
	c-0.256,0.341-0.52,0.675-0.757,1.03c-0.217,0.324-0.405,0.661-0.604,0.995c-0.191,0.318-0.391,0.63-0.566,0.959
	c-0.183,0.34-0.337,0.69-0.5,1.038c-0.163,0.341-0.332,0.676-0.478,1.027c-0.14,0.338-0.251,0.683-0.375,1.026
	c-0.133,0.374-0.278,0.742-0.393,1.123c-0.102,0.343-0.178,0.692-0.267,1.04c-0.098,0.389-0.208,0.774-0.285,1.17
	c-0.079,0.397-0.124,0.799-0.183,1.199c-0.051,0.351-0.116,0.695-0.152,1.05c-0.073,0.739-0.11,1.482-0.113,2.225
	C0.003,255.955,0,255.976,0,256s0.003,0.045,0.003,0.068c0.003,0.743,0.04,1.486,0.113,2.225c0.036,0.355,0.101,0.7,0.152,1.05
	c0.059,0.4,0.104,0.802,0.183,1.199c0.078,0.396,0.188,0.78,0.285,1.17c0.088,0.348,0.164,0.697,0.267,1.04
	c0.116,0.382,0.259,0.749,0.393,1.123c0.124,0.343,0.236,0.687,0.375,1.026c0.146,0.351,0.315,0.686,0.478,1.027
	c0.163,0.348,0.318,0.698,0.5,1.038c0.175,0.329,0.375,0.641,0.566,0.959c0.199,0.332,0.386,0.67,0.604,0.995
	c0.237,0.355,0.501,0.689,0.757,1.03c0.2,0.265,0.385,0.54,0.597,0.799c0.489,0.596,1.004,1.167,1.547,1.711l58.179,58.179
	c4.544,4.544,10.501,6.817,16.455,6.817c5.956,0,11.913-2.271,16.455-6.817c9.089-9.089,9.089-23.823,0-32.912l-18.452-18.454
	h409.27C501.58,279.272,512,268.852,512,256C512,243.147,501.58,232.727,488.727,232.727z" fill="currentColor"/>
</svg>