<?xml version="1.0" encoding="iso-8859-1"?>
<!-- Uploaded to: SVG Repo, www.svgrepo.com, Generator: SVG Repo Mixer Tools -->
<svg fill="#000000" height="800px" width="800px" version="1.1" id="Layer_1" xmlns="http://www.w3.org/2000/svg" xmlns:xlink="http://www.w3.org/1999/xlink" 
	 viewBox="0 0 282.192 282.192" xml:space="preserve">
<g>
	<g>
		<g>
			<path d="M276.78,170.96h-29.312l4.836-91.744c2.496-0.792,4.356-1.656,5.368-2.592c0.604-0.644,0.952-1.224,1.04-1.736
				l0.096-0.224l-0.02-0.276c-0.024-0.3-0.532-7.408-1.12-10.94l-0.216-1.3l0.012-0.004c-0.944-2.204-3.104-3.716-5.424-4.012
				l-3.748-9.5c-1.804-5.06-34.048-5.476-44.156-5.476c-10.396,0-44.328,0.428-44.328,5.912c0,0.068-4.584,11.176-4.584,11.176
				c-2.152-0.124-4.32,0.8-5.628,2.424l-0.5,1.164c-0.552,3.416-1.04,10.272-1.064,10.64c0,0.34,0,0.364,0.98,1.98l0.196,0.24
				c1.056,0.972,3.052,1.872,5.76,2.692l4.704,91.584h-32.648l4.836-91.744c2.5-0.792,4.36-1.66,5.372-2.592
				c0.6-0.644,0.948-1.224,1.036-1.736l0.096-0.224l-0.02-0.276c-0.024-0.3-0.532-7.408-1.12-10.94l-0.216-1.3l0.012-0.004
				c-0.94-2.204-3.108-3.716-5.424-4.012l-3.748-9.5c-1.804-5.06-34.048-5.476-44.156-5.476c-10.4,0-44.328,0.428-44.328,5.912
				c0,0.068-4.584,11.176-4.584,11.176c-2.16-0.124-4.324,0.8-5.628,2.428c0,0-1.544,11.432-1.568,11.8c0,0.34,0,0.364,0.98,1.98
				l0.196,0.24c1.056,0.972,3.052,1.872,5.76,2.692l4.704,91.584H12.96c-2.876,0-4.316,2.168-5.388,5.1l-7.144,19.54
				c-0.004,0.008-0.004,0.016-0.008,0.024l-0.38,1.04c0,0.124,0.024,0.212,0.032,0.324C0.04,197.244,0,197.484,0,197.736
				c0,2.996,2.44,5.436,5.436,5.436H36.62l8.908,23.46c2.66,8.396,19.792,11.736,39.344,11.736s37.832-3.844,39.34-11.64
				l8.828-23.556h19.616l9.128,24.036c2.684,8.464,19.952,11.828,39.664,11.828c19.712,0,38.14-3.876,39.66-11.736l9.044-24.132
				h19.108c2.372,0,4.368-1.532,5.116-3.648c0.024-0.024,0.044-0.032,0.068-0.06l7.636-22.568l0.112-0.532
				C282.176,173.38,279.752,170.96,276.78,170.96z M255.344,62.868c-0.456,0.148-0.924,0.292-1.432,0.436l-0.948-2.624
				C253.984,61.128,254.872,61.884,255.344,62.868z M204.132,45.904c22.228,0,36.884,1.704,40.812,3.156
				c-3.928,1.456-18.584,3.156-40.812,3.156s-36.884-1.7-40.812-3.156C167.252,47.608,181.908,45.904,204.132,45.904z
				 M161.968,51.38h0.44c8.068,3.28,33.052,3.592,41.724,3.592s33.656-0.308,41.724-3.592h0.804l4.56,12.596
				c-10.436,2.356-28.44,3.82-48.376,3.82c-18.488,0-35.676-1.296-46.396-3.396L161.968,51.38z M154.256,62.512l-0.548,1.296
				c-0.608-0.144-1.196-0.288-1.744-0.44C152.616,62.888,153.416,62.612,154.256,62.512z M150.804,75.156
				c-0.132-0.22-0.392-0.652-0.552-0.928c0.092-1.22,0.436-5.74,0.84-8.808c10.036,2.796,30.056,4.58,51.756,4.58
				c22.784,0,43.192-1.916,52.836-4.912c0.448,3.352,0.828,8.376,0.892,9.248c-0.008,0.036-0.016,0.076-0.016,0.12
				c-0.048,0.12-0.288,0.444-0.44,0.608c-3.54,3.26-23.22,6.72-52.712,6.72C174.208,81.784,154.624,78.388,150.804,75.156z
				 M158.776,80.368c9.968,2.232,26.152,3.62,44.632,3.62c18.752,0,35.156-1.424,45.104-3.732l-1.036,19.656
				c-1.304,0.98-4.98,2.068-10.748,2.988c-0.064,0.864-0.124,1.724-0.18,2.588c4.436-0.688,8.276-1.608,10.784-2.82l-3.748,71.132
				c-0.012,0.044-0.024,0.056-0.036,0.124c-0.044,0.064-0.104,0.144-0.096,0.144h0.004c-2.752,2.652-19.332,7.812-39.904,7.812
				c-20.176,0-36.504-4.964-39.728-7.656c-0.032-0.06-0.072-0.128-0.112-0.196l-3.788-71.848c8.736,5.312,42.54,5.388,44.184,5.388
				c0.564,0,4.916-0.012,10.728-0.236c0.032-0.84,0.068-1.684,0.112-2.524c-3.412,0.128-6.972,0.216-10.84,0.216
				c-26.768,0-43.388-3.348-44.328-5.58L158.776,80.368z M134.9,62.868c-0.456,0.148-0.924,0.292-1.432,0.436l-0.948-2.62
				C133.536,61.128,134.428,61.888,134.9,62.868z M83.688,45.904c22.228,0,36.884,1.704,40.812,3.156
				c-3.928,1.456-18.584,3.156-40.812,3.156c-22.228,0-36.884-1.7-40.812-3.156C46.804,47.608,61.46,45.904,83.688,45.904z
				 M41.524,51.38h0.356c0-0.016-0.004-0.028-0.008-0.04c7.964,3.32,33.108,3.632,41.82,3.632c8.672,0,33.656-0.308,41.724-3.592
				h0.804l4.56,12.596c-10.432,2.356-28.44,3.816-48.376,3.816c-18.488,0-35.676-1.296-46.396-3.396L41.524,51.38z M33.812,62.512
				l-0.548,1.292c-0.608-0.144-1.192-0.288-1.744-0.44C32.168,62.888,32.968,62.612,33.812,62.512z M30.356,75.156
				c-0.132-0.22-0.392-0.652-0.552-0.928c0.092-1.22,0.436-5.74,0.84-8.808C40.68,68.216,60.7,70,82.4,70
				c22.788,0,43.196-1.916,52.836-4.912c0.448,3.352,0.828,8.376,0.892,9.248c-0.008,0.036-0.016,0.08-0.016,0.12
				c-0.048,0.12-0.288,0.444-0.432,0.608c-3.544,3.26-23.224,6.72-52.72,6.72C53.76,81.784,34.18,78.388,30.356,75.156z
				 M38.328,80.368c9.968,2.232,26.152,3.62,44.632,3.62c18.752,0,35.156-1.424,45.104-3.732l-1.036,19.656
				c-1.308,0.98-4.98,2.068-10.752,2.988c-0.064,0.864-0.124,1.724-0.18,2.588c4.436-0.688,8.276-1.608,10.784-2.82l-3.748,71.132
				c-0.012,0.044-0.024,0.056-0.036,0.124c-0.044,0.064-0.104,0.144-0.096,0.144h0.004c-2.752,2.652-19.332,7.812-39.904,7.812
				c-20.176,0-36.508-4.964-39.728-7.656c-0.032-0.06-0.072-0.128-0.112-0.196l-3.788-71.848c8.736,5.312,42.54,5.388,44.184,5.388
				c0.564,0,4.916-0.012,10.728-0.236c0.032-0.84,0.068-1.684,0.112-2.524c-3.412,0.128-6.972,0.216-10.84,0.216
				c-26.768,0-43.388-3.348-44.328-5.58L38.328,80.368z M49.104,226.528l-9.08-23.368h7.344l-2.304,9.42l2.14,0.524l2.432-9.944
				h4.684l-2.448,8.752l2.124,0.592l2.612-9.344h5.916l8.308,30.856C56.884,232.416,49.964,228.648,49.104,226.528z M84.868,234.776
				c-4.076,0-7.756-0.176-11.104-0.464l-8.388-31.152h7.628l-2.648,9.732l2.124,0.58l2.804-10.312h5.488l-2.672,9.136l2.116,0.62
				l2.856-9.756h5.096l-2.308,9.42l2.14,0.524l2.436-9.944h4.68l-2.444,8.752l2.124,0.592l2.608-9.344h5.436l-8.44,31.32
				C91.488,234.664,88.332,234.776,84.868,234.776z M120.628,226.624c-1.324,2.8-8.444,6.348-23.316,7.644l8.38-31.104h7.556
				l-2.308,9.42l2.14,0.524l2.436-9.944h4.68l-2.444,8.752l2.124,0.592l2.608-9.344h6.82L120.628,226.624z M165.384,227.104
				l-9.304-23.94h8.776l-2.304,9.42l2.14,0.524l2.432-9.944h4.68l-2.448,8.752l2.124,0.592l2.612-9.344h4.724l8.484,31.492
				C173.232,233.04,166.256,229.24,165.384,227.104z M201.44,235.416c-4.116,0-7.828-0.176-11.208-0.468l-8.564-31.788h8.82
				l-2.648,9.732l2.124,0.58l2.804-10.312h5.488l-2.672,9.136l2.116,0.62l2.856-9.756h5.092l-2.304,9.42l2.14,0.524l2.432-9.944
				h4.68l-2.448,8.752l2.124,0.592l2.612-9.344h4.78l-8.608,31.956C208.124,235.304,204.94,235.416,201.44,235.416z
				 M237.492,227.196c-1.336,2.824-8.516,6.4-23.516,7.708l8.552-31.744h8.208l-2.304,9.42l2.14,0.524l2.432-9.944h4.684
				l-2.448,8.752l2.124,0.592l2.612-9.344h6.408L237.492,227.196z M269.252,200.404H5.432c-1.48,0-2.684-1.204-2.684-2.684
				s1.204-2.684,2.684-2.684l28.12,0.064c1.152,0.02,235.696-0.064,235.696-0.064c1.48,0,2.688,1.204,2.688,2.684
				S270.732,200.404,269.252,200.404z M273.092,193.872c-0.984-0.98-2.344-1.592-3.84-1.592H5.432c-0.364,0-0.716,0.04-1.056,0.108
				l5.856-16.032c0.392-1.388,1.224-2.728,2.728-2.728h26.404l0.032,0.64c0,0.544,0.116,0.748,0.88,2.068l0.32,0.408
				c3.76,3.624,21.056,8.864,42.504,8.864s38.748-5.24,42.608-8.968c0.972-1.088,1.056-1.848,1.06-2.184l0.024-0.108
				c0.016-0.016,0.036-0.028,0.052-0.044l0.036-0.68h32.924l0.032,0.64c0,0.544,0.12,0.748,0.88,2.068l0.32,0.408
				c3.76,3.624,21.056,8.864,42.504,8.864s38.748-5.24,42.608-8.968c0.972-1.088,1.056-1.848,1.06-2.184l0.024-0.108
				c0.016-0.016,0.036-0.028,0.052-0.044l0.036-0.68h29.452c1.42,0,2.588,1.088,2.716,2.476L273.092,193.872z"/>
			<path d="M112.064,103.496c-3.812,0.472-8.312,0.86-13.376,1.132c-0.044,0.836-0.08,1.672-0.112,2.508
				c4.244-0.224,8.904-0.56,13.308-1.08C111.94,105.204,112.004,104.348,112.064,103.496z"/>
			<path d="M90.16,122.208c-5.708,0.664-11.736,3.388-16.984,7.672c-5.248,4.288-9.12,9.656-10.904,15.116
				c-1.884,5.764-1.256,10.976,1.776,14.68c2.572,3.148,6.556,4.816,11.396,4.816c0.852,0,1.732-0.052,2.632-0.156
				c5.708-0.664,11.736-3.388,16.984-7.676c5.248-4.288,9.12-9.656,10.904-15.116c1.884-5.764,1.256-10.976-1.776-14.68
				C101.164,123.164,96.172,121.508,90.16,122.208z M65.94,146.2c1.56-4.772,4.996-9.504,9.676-13.328
				c4.684-3.824,10.008-6.252,14.988-6.828c0.752-0.088,1.476-0.132,2.18-0.132c3.268,0,5.912,0.984,7.748,2.768
				c-6.384-1.48-13.596,1.204-16.972,6.948c-1.624,2.776-2.328,5.928-3.004,8.98c-0.332,1.468-0.656,2.94-1.088,4.368
				c-1.172,3.872-3.856,8.144-7.852,8.524c-1.616,0.16-3.332-0.336-5.256-1.428C64.88,153.492,64.668,150.08,65.94,146.2z
				 M102.304,140.352c-1.56,4.772-4.996,9.504-9.676,13.328c-4.684,3.828-10.008,6.252-14.988,6.832
				c-2.736,0.316-5.104-0.016-7.08-0.824c0.148,0.008,0.304,0.044,0.452,0.044c0.268,0,0.54-0.012,0.804-0.04
				c4.32-0.408,7.964-4.176,9.756-10.08c0.448-1.48,0.788-3.004,1.128-4.528c0.676-3.016,1.308-5.868,2.76-8.348
				c3.344-5.708,11.124-7.9,17.076-5.052C103.432,134.092,103.38,137.068,102.304,140.352z"/>
			<path d="M232.508,103.496c-3.812,0.472-8.312,0.86-13.376,1.132c-0.044,0.836-0.08,1.672-0.112,2.508
				c4.244-0.224,8.904-0.56,13.308-1.08C232.384,105.204,232.448,104.348,232.508,103.496z"/>
			<path d="M210.604,122.208c-5.708,0.664-11.736,3.388-16.98,7.672c-11.26,9.2-15.268,22.288-9.132,29.796
				c2.672,3.268,6.764,4.864,11.46,4.864c6.092,0,13.204-2.684,19.556-7.876c5.244-4.288,9.12-9.656,10.904-15.116
				c1.884-5.764,1.252-10.976-1.776-14.68S216.624,121.508,210.604,122.208z M196.06,132.868c4.684-3.824,10.004-6.252,14.988-6.828
				c0.748-0.088,1.476-0.132,2.18-0.132c3.264,0,5.912,0.988,7.748,2.768c-6.384-1.484-13.6,1.192-16.976,6.948
				c-1.62,2.772-2.328,5.92-3.004,8.968c-0.332,1.472-0.656,2.948-1.092,4.38c-1.172,3.872-3.848,8.144-7.848,8.524
				c-1.612,0.16-3.32-0.332-5.232-1.412C183.468,150.192,187.368,139.976,196.06,132.868z M222.748,140.352
				c-1.56,4.772-4.996,9.504-9.672,13.328c-7.396,6.044-16.296,8.228-21.96,6.016c0.112,0.004,0.232,0.032,0.344,0.032
				c0.268,0,0.54-0.012,0.804-0.04c4.324-0.408,7.964-4.176,9.752-10.076c0.448-1.484,0.792-3.012,1.136-4.54
				c0.672-3.012,1.308-5.86,2.756-8.336c3.348-5.708,11.12-7.904,17.076-5.048C223.876,134.092,223.82,137.072,222.748,140.352z"/>
		</g>
	</g>
</g>
</svg>