<?xml version="1.0" standalone="no"?>
<!DOCTYPE svg PUBLIC "-//W3C//DTD SVG 20010904//EN"
 "http://www.w3.org/TR/2001/REC-SVG-20010904/DTD/svg10.dtd">
<svg version="1.0" xmlns="http://www.w3.org/2000/svg"
 width="3480.000000pt" height="3480.000000pt" viewBox="0 0 3480.000000 3480.000000"
 preserveAspectRatio="xMidYMid meet">

<g transform="translate(0.000000,3480.000000) scale(0.100000,-0.100000)"
fill="#000000" stroke="none">
<path d="M19010 30697 c0 -2 42 -39 94 -81 283 -230 446 -508 472 -801 17
-204 -84 -512 -234 -711 -175 -231 -377 -398 -649 -536 -306 -156 -631 -238
-1263 -318 -307 -39 -383 -52 -546 -94 -261 -68 -568 -201 -770 -336 -116 -77
-285 -236 -369 -348 -78 -104 -166 -276 -197 -387 -18 -65 -22 -105 -22 -215
0 -121 3 -144 28 -220 24 -72 30 -109 36 -240 5 -108 16 -191 34 -274 15 -66
23 -123 19 -127 -19 -17 -94 -30 -303 -54 -608 -69 -1469 -202 -2075 -319
-1546 -299 -2765 -671 -3718 -1134 -795 -387 -1175 -712 -1423 -1217 -108
-221 -150 -406 -141 -625 7 -162 30 -273 97 -470 l49 -145 4 -455 c7 -687 44
-1312 102 -1760 8 -58 17 -132 20 -165 7 -66 46 -340 75 -537 11 -70 27 -176
35 -235 66 -454 230 -1305 351 -1818 199 -849 381 -1445 711 -2333 89 -241
103 -286 92 -298 -8 -7 -147 -58 -309 -113 -518 -174 -970 -351 -1425 -558
-961 -437 -1799 -993 -2208 -1466 -314 -364 -551 -854 -626 -1296 -42 -247
-38 -650 9 -911 93 -511 379 -1170 803 -1845 299 -476 823 -1068 1333 -1505
169 -145 793 -642 897 -714 437 -304 1645 -949 2397 -1281 390 -172 985 -374
1555 -529 304 -82 912 -224 1315 -307 177 -36 851 -150 1050 -178 605 -84
1527 -177 1935 -196 72 -3 218 -12 325 -20 107 -8 317 -19 465 -25 149 -6 347
-15 440 -20 220 -12 1212 -12 1420 0 88 5 286 14 440 20 154 5 327 15 385 20
58 5 193 14 300 20 107 6 267 17 355 25 88 8 288 26 445 40 278 25 664 65 805
85 39 5 140 19 225 30 323 43 697 99 1110 166 832 134 2177 447 3465 805 790
220 2428 744 3181 1017 682 248 1209 491 1527 704 433 290 649 604 687 998 10
104 -4 267 -31 375 -91 356 -445 727 -1029 1077 -303 182 -744 399 -1094 539
-109 44 -212 89 -227 100 -36 25 -36 23 43 228 76 200 111 306 153 466 61 237
67 304 63 682 -4 316 -6 346 -31 466 -51 249 -101 400 -207 623 -129 272 -261
471 -504 764 -163 197 -492 550 -513 550 -7 0 38 73 100 163 186 268 238 356
339 572 186 396 292 760 355 1215 26 192 24 526 -5 750 -85 649 -270 1120
-601 1528 -119 148 -397 457 -492 547 -143 136 -346 301 -514 417 -219 152
-658 389 -971 526 -78 34 -198 94 -265 132 -68 39 -137 74 -152 77 -21 4 -26
10 -21 22 14 32 55 209 80 341 53 286 91 681 123 1295 12 209 25 452 31 540
25 385 41 678 50 925 5 146 16 337 26 425 10 100 14 195 11 255 -7 113 -46
314 -82 425 -36 110 -132 303 -202 407 -263 391 -801 777 -1508 1083 -741 321
-1452 543 -2485 774 -909 203 -1933 349 -2880 412 -96 6 -178 13 -182 15 -4 3
-197 9 -430 14 -454 10 -1434 -2 -1618 -19 -58 -6 -177 -15 -265 -20 -88 -6
-277 -20 -420 -31 -374 -30 -374 -30 -345 5 7 9 24 48 37 88 67 199 255 427
443 537 180 105 468 208 870 310 809 205 1345 471 1753 869 318 309 508 642
593 1038 35 162 45 452 20 605 -44 270 -144 513 -302 736 -71 99 -215 239
-329 319 -101 71 -195 129 -195 120z m-40 -4787 c745 -23 1631 -116 2420 -255
80 -14 222 -39 315 -55 1243 -213 2667 -682 3476 -1145 310 -178 517 -333 709
-531 189 -196 275 -345 351 -614 90 -320 38 -798 -122 -1110 -64 -125 -151
-233 -307 -377 -159 -148 -241 -215 -412 -334 -696 -487 -1296 -741 -2495
-1058 -652 -172 -1630 -377 -2298 -481 -398 -62 -1198 -147 -1607 -170 -96 -6
-254 -17 -350 -25 -594 -49 -2015 -68 -2630 -34 -209 11 -707 47 -760 54 -19
3 -100 9 -180 15 -145 10 -215 17 -665 66 -454 49 -1257 168 -1585 235 -107
22 -253 51 -325 64 -830 159 -1735 425 -2375 697 -303 129 -720 347 -920 481
-354 238 -603 485 -785 778 -114 183 -166 332 -185 530 -13 122 -3 230 35 382
81 320 416 718 835 989 215 140 388 230 825 432 519 241 1646 604 2475 800
816 193 1570 333 2150 401 168 20 393 47 500 60 152 19 866 95 890 95 3 0 6
-37 8 -82 2 -44 9 -99 17 -122 8 -22 11 -44 7 -47 -4 -4 -113 -19 -242 -33
-1496 -170 -2938 -425 -3859 -681 -888 -247 -1330 -398 -1891 -648 -791 -352
-1208 -673 -1419 -1094 -87 -173 -107 -365 -56 -538 36 -124 111 -273 192
-380 83 -110 268 -297 383 -389 213 -168 547 -380 770 -487 186 -91 639 -281
844 -356 761 -277 1749 -513 2941 -702 167 -26 410 -65 600 -96 237 -38 524
-76 835 -110 286 -30 639 -60 990 -82 325 -20 1107 -22 1560 -4 252 10 393 19
975 62 522 37 1255 111 1640 164 802 111 2111 398 3176 696 753 210 1271 437
1814 794 169 111 257 178 404 309 120 107 174 166 241 265 183 272 237 658
138 996 -11 39 -42 114 -68 168 -144 292 -401 530 -845 782 -723 411 -1707
756 -2906 1019 -781 171 -1956 332 -2914 398 -292 20 -395 22 -1180 22 -539 0
-929 -5 -1045 -12 -336 -21 -859 -46 -863 -42 -6 7 10 261 17 267 6 6 137 15
661 44 614 34 1517 47 2095 29z m-220 -510 c712 -34 1931 -170 2645 -294 344
-60 376 -66 555 -102 925 -187 1686 -409 2315 -677 392 -167 819 -398 1035
-559 116 -87 274 -240 340 -328 178 -240 237 -518 170 -797 -48 -202 -221
-446 -450 -637 -132 -110 -409 -293 -627 -414 -113 -63 -136 -71 -149 -51 -3
6 -32 22 -62 36 -42 18 -88 56 -182 147 -188 183 -250 230 -479 361 -322 184
-503 267 -827 380 -656 229 -1393 399 -2384 550 -299 45 -821 110 -1085 135
-656 62 -983 73 -1865 67 -807 -6 -913 -10 -1535 -57 -521 -40 -751 -65 -1420
-155 -646 -87 -1650 -301 -2360 -504 -533 -152 -649 -194 -1055 -386 -289
-136 -463 -239 -721 -429 -53 -39 -139 -102 -193 -141 -53 -38 -125 -91 -160
-117 l-63 -46 -96 38 c-53 20 -115 49 -139 63 -60 35 -180 125 -242 182 -6 6
-28 19 -49 30 -21 11 -48 30 -59 43 -12 12 -27 22 -35 22 -7 0 -13 3 -13 8 -1
4 -25 23 -55 42 -30 19 -55 39 -55 43 0 5 -4 5 -10 2 -5 -3 -10 -1 -10 4 0 6
-7 11 -15 11 -7 0 -18 7 -23 16 -5 9 -12 15 -16 14 -4 -1 -48 27 -99 61 -176
120 -380 353 -442 504 -12 30 -25 58 -29 62 -3 3 -6 15 -6 25 0 10 -4 26 -10
36 -14 26 -40 144 -40 183 0 56 27 163 55 223 89 189 325 431 585 602 460 301
1177 609 2045 877 357 111 959 273 1170 317 91 18 573 120 615 129 643 145
2304 376 2825 393 88 3 89 3 96 -22 4 -14 7 -42 8 -62 1 -20 5 -40 11 -43 5
-3 42 -9 81 -12 l71 -6 -4 80 -3 80 275 17 c151 10 372 24 490 32 118 8 221
14 228 14 6 0 12 -12 12 -27 0 -37 14 -60 25 -42 5 7 11 26 14 43 l7 31 314 5
c580 10 874 10 1080 0z m1380 -3050 c160 -14 202 -21 208 -38 3 -9 -39 -12
-176 -12 -308 0 -791 -47 -1298 -126 -197 -30 -533 -67 -542 -59 -13 12 19 52
71 89 137 97 245 130 477 146 91 6 188 12 215 14 109 8 918 -3 1045 -14z m555
-260 c226 -12 427 -35 510 -57 138 -37 265 -136 265 -207 0 -34 -18 -86 -29
-86 -3 0 -64 11 -136 25 -372 73 -707 119 -1040 146 -252 20 -650 0 -1145 -57
-153 -17 -466 -44 -522 -44 -34 0 -38 3 -38 25 0 13 8 29 19 34 28 16 454 86
881 146 332 46 459 61 675 78 96 8 385 6 560 -3z m-2153 -250 c-1 -13 -4 -26
-7 -28 -2 -2 -79 -6 -171 -10 -140 -4 -166 -3 -162 9 3 9 29 17 74 22 38 5
107 14 154 22 108 16 116 15 112 -15z m-472 -25 c0 -8 -3 -15 -7 -16 -33 -5
-109 -7 -393 -12 -312 -5 -320 -4 -190 8 74 7 202 16 285 20 82 3 152 8 154
11 2 2 37 4 78 4 58 0 73 -3 73 -15z m-9624 -90 c340 -380 859 -745 1424
-1000 841 -381 1728 -634 3240 -924 201 -39 518 -87 865 -131 344 -44 1169
-120 1640 -150 803 -51 2271 -59 2995 -15 574 34 1079 78 1491 130 246 31 370
42 316 28 -13 -3 -16 -10 -12 -21 4 -10 16 -57 26 -107 41 -192 43 -333 31
-1735 -14 -1559 -19 -1689 -83 -2370 -51 -543 -85 -780 -175 -1230 -103 -514
-173 -710 -346 -976 -166 -255 -340 -455 -651 -745 -595 -556 -1406 -1044
-2187 -1317 -222 -78 -376 -122 -470 -134 -125 -16 -1129 -16 -1490 1 -851 38
-1458 117 -2409 310 -324 66 -491 92 -491 77 0 -4 24 -44 54 -89 30 -45 89
-145 131 -222 43 -77 143 -255 223 -395 79 -140 156 -275 170 -300 14 -25 31
-54 38 -65 12 -19 11 -20 -31 -21 -24 -1 -43 2 -42 5 1 3 -5 15 -13 26 -16 21
-41 26 -52 10 -4 -5 -14 -2 -25 7 -18 16 -19 16 -30 -1 -6 -10 -8 -22 -3 -27
12 -13 30 -85 19 -79 -15 10 -10 -7 9 -28 16 -19 16 -20 -3 -9 -11 6 -62 54
-114 107 -51 53 -97 95 -102 93 -19 -7 323 -373 436 -466 49 -41 94 -81 99
-90 16 -29 56 -64 56 -50 0 10 2 10 9 0 7 -11 11 -11 24 2 24 25 33 20 67 -36
18 -29 44 -66 59 -82 20 -22 8 -17 -52 23 -47 32 -75 56 -71 63 5 8 1 9 -9 5
-10 -3 -17 -2 -17 4 0 6 -4 8 -8 5 -13 -8 -167 119 -286 233 -129 126 -354
369 -495 536 -332 392 -392 466 -386 475 4 6 1 9 -7 8 -7 -2 -12 3 -10 10 1 6
-2 11 -7 10 -14 -4 -184 204 -259 317 -37 56 -85 140 -107 187 -25 56 -47 90
-62 97 -61 28 -404 509 -643 900 -404 664 -712 1319 -1082 2301 -320 850 -497
1447 -733 2470 -138 601 -242 1186 -360 2040 -38 269 -89 693 -100 820 -3 41
-12 136 -20 210 -24 222 -43 544 -55 910 -6 190 -12 378 -14 418 -2 40 0 71 4
70 3 -2 42 -43 86 -93z m8864 55 c0 -6 -35 -9 -87 -8 -73 1 -80 2 -43 8 70 11
130 11 130 0z m4650 -186 c430 -115 903 -228 1057 -253 262 -43 463 -92 463
-113 0 -7 -12 -8 -32 -4 -18 4 -143 27 -278 52 -135 24 -353 71 -485 103 -132
32 -318 77 -413 100 -192 46 -404 109 -472 140 l-45 21 40 -7 c22 -3 96 -21
165 -39z m-1265 -144 c295 -22 484 -57 785 -149 274 -83 607 -178 755 -215
147 -36 471 -100 565 -111 61 -7 202 8 288 30 60 16 94 12 86 -9 -14 -36 -160
-69 -744 -167 -401 -68 -713 -142 -813 -194 -51 -26 -103 -42 -200 -61 -73
-14 -220 -45 -327 -69 -269 -61 -377 -78 -990 -161 -490 -66 -603 -79 -1040
-123 -603 -62 -757 -73 -1370 -101 -281 -13 -1246 -13 -1520 0 -881 42 -2015
206 -2224 323 -74 41 -75 41 234 159 286 109 393 140 770 222 113 25 255 57
315 71 307 73 1454 289 1776 334 274 39 572 65 934 81 127 5 295 14 375 20 80
5 222 14 315 20 385 24 613 42 850 65 138 14 300 29 360 34 158 12 655 13 820
1z m-5575 -259 c-14 -4 -85 -11 -159 -15 -426 -22 -916 -96 -1481 -222 -298
-67 -406 -84 -530 -84 -88 1 -94 2 -75 16 52 41 238 106 429 149 313 70 812
138 1141 154 208 10 707 12 675 2z m10320 -2000 c118 -30 454 -136 630 -198
208 -74 794 -366 1125 -561 147 -87 398 -258 515 -350 230 -183 557 -500 682
-662 65 -85 99 -138 80 -126 -19 11 -18 -28 1 -79 47 -125 -13 -216 -214 -324
-103 -56 -366 -142 -449 -148 -84 -6 -195 17 -280 59 -57 28 -77 46 -160 147
-421 511 -851 874 -1309 1105 -282 142 -709 319 -871 361 -100 26 -200 29
-239 8 -62 -33 -71 -55 -91 -229 -22 -193 -37 -277 -100 -585 -68 -327 -101
-471 -111 -489 -12 -22 -11 1067 2 1235 5 77 13 195 18 261 l7 122 43 57 c142
188 341 335 531 392 76 23 110 24 190 4z m-1940 -798 c-1 -948 -81 -1896 -226
-2668 -106 -563 -206 -947 -387 -1495 -122 -366 -214 -598 -392 -985 -246
-535 -429 -862 -652 -1166 -98 -134 -207 -223 -123 -101 21 32 66 114 98 183
61 127 165 322 337 629 288 513 550 1168 800 1995 36 121 75 254 85 295 10 41
44 174 75 295 66 255 94 391 135 638 55 334 126 972 160 1442 39 531 45 664
45 957 l0 318 23 0 22 0 0 -337z m2595 -640 c118 -49 296 -178 550 -399 480
-418 908 -1003 1080 -1479 76 -210 135 -519 135 -705 -1 -372 -171 -797 -468
-1166 -135 -168 -229 -237 -360 -265 -99 -20 -267 -6 -412 35 -311 88 -1332
466 -1550 574 -31 16 -35 22 -33 52 1 19 70 258 153 530 187 612 239 792 329
1135 39 149 87 329 105 400 19 72 56 220 81 330 25 110 62 263 81 339 19 77
55 234 79 351 24 116 50 228 59 248 25 62 59 66 171 20z m1925 -1876 c12 -31
27 -60 32 -63 5 -3 18 -28 30 -55 12 -27 25 -49 30 -49 4 0 8 -7 8 -15 0 -9
14 -43 32 -77 17 -33 31 -66 32 -72 0 -12 36 -51 36 -39 0 4 7 -2 15 -13 12
-16 14 -16 15 -3 0 9 7 23 17 30 14 12 17 12 21 0 3 -10 6 -10 12 -2 10 17 40
-221 40 -321 0 -334 -138 -765 -355 -1113 -124 -199 -326 -499 -382 -568 -79
-97 -245 -252 -349 -326 -204 -145 -345 -213 -544 -262 -323 -80 -596 -57
-1238 107 -485 123 -834 231 -969 299 -89 44 -141 84 -112 86 42 3 109 -5 244
-27 231 -38 319 -58 761 -170 737 -186 909 -209 1201 -158 183 31 376 114 520
223 133 100 310 299 505 566 392 538 511 819 525 1237 8 242 -28 453 -126 743
-41 121 -42 146 -1 42z m277 -329 c-3 -7 -5 -2 -5 12 0 14 2 19 5 13 2 -7 2
-19 0 -25z m-18649 -1363 c13 -36 28 -67 33 -71 19 -12 7 -34 -23 -43 -71 -20
-209 -72 -311 -115 -59 -26 -185 -78 -280 -116 -95 -38 -239 -98 -321 -134
-82 -36 -153 -63 -158 -60 -4 3 -8 0 -8 -6 0 -6 -4 -8 -10 -5 -5 3 -10 2 -10
-3 0 -6 -7 -13 -16 -16 -8 -3 -12 -2 -9 4 3 6 -1 13 -11 17 -15 6 -15 7 2 21
11 8 13 12 4 9 -295 -111 -772 -327 -722 -327 7 0 24 7 38 16 13 9 27 14 30
11 3 -3 22 6 42 19 22 15 38 21 40 14 3 -7 8 -7 16 -1 7 6 20 4 36 -5 25 -15
25 -15 1 -8 -18 5 -22 3 -15 -7 6 -10 3 -10 -11 1 -17 14 -18 13 -12 -5 7 -18
6 -19 -6 -3 -8 10 -17 15 -20 11 -4 -3 -3 -11 3 -18 11 -13 -135 -89 -152 -79
-6 4 -8 3 -5 -3 7 -11 -187 -116 -197 -106 -3 3 -6 2 -6 -4 0 -10 -173 -115
-186 -113 -4 1 -10 -3 -13 -9 -12 -18 -183 -121 -192 -115 -5 3 -8 1 -7 -5 2
-6 -13 -21 -32 -32 l-35 -22 29 25 c22 19 26 27 16 33 -8 5 -11 4 -7 -2 4 -6
0 -13 -8 -17 -8 -3 -14 0 -12 7 1 7 23 22 50 34 26 12 47 27 47 32 0 6 6 11
14 11 8 0 17 8 20 18 3 10 15 18 27 19 11 1 33 10 47 20 15 9 31 16 35 15 14
-4 54 33 49 46 -4 14 -148 -56 -252 -123 -36 -23 -104 -68 -152 -98 -49 -31
-88 -61 -88 -66 0 -12 -46 -41 -72 -46 -22 -5 -108 -88 -108 -105 0 -6 -7 -10
-15 -10 -8 0 -15 -5 -15 -11 0 -5 6 -7 13 -4 6 4 4 0 -5 -8 -10 -8 -15 -17
-11 -20 3 -4 1 -7 -7 -7 -10 0 -10 -3 0 -15 11 -13 10 -14 -3 -10 -8 4 -18 1
-23 -6 -5 -8 -3 -10 7 -4 8 5 5 -1 -5 -13 -20 -24 -42 -30 -30 -9 5 8 3 8 -9
-2 -9 -7 -15 -17 -12 -21 3 -4 -12 -20 -33 -36 l-37 -27 25 28 25 29 -35 -25
c-19 -13 -66 -54 -105 -90 -38 -36 -76 -68 -82 -70 -49 -16 -283 -267 -409
-439 -141 -193 -294 -488 -384 -740 -53 -150 -80 -342 -80 -565 0 -476 103
-879 322 -1264 72 -126 314 -500 387 -597 71 -96 164 -178 169 -150 2 9 7 16
12 16 5 0 49 -37 98 -82 323 -302 611 -511 1032 -750 113 -64 567 -286 773
-377 789 -350 1712 -648 2652 -855 88 -20 210 -47 270 -61 1211 -284 2493
-463 4075 -570 124 -8 261 -17 305 -20 561 -38 1803 -58 2300 -36 1248 54
2262 160 3508 367 1428 236 3047 687 4096 1140 866 374 1440 694 2005 1118
273 205 419 331 601 517 88 90 164 162 168 161 5 -1 6 1 3 6 -3 4 13 28 35 53
22 24 35 34 30 23 -6 -12 -7 -24 -4 -28 3 -3 0 -6 -7 -6 -7 0 -10 -3 -7 -7 8
-7 -30 -62 -84 -118 -161 -170 -386 -395 -470 -470 -56 -49 -108 -96 -115
-102 -7 -7 -17 -13 -23 -13 -6 0 -11 -4 -11 -10 0 -5 -19 -22 -42 -37 -50 -33
-84 -59 -114 -90 -12 -13 -27 -23 -33 -23 -7 0 -34 -18 -60 -40 -26 -22 -52
-40 -59 -40 -6 0 -15 -6 -19 -13 -7 -11 -23 -23 -88 -67 -13 -8 -44 -30 -69
-47 -26 -18 -51 -33 -55 -33 -5 0 -14 -7 -21 -16 -8 -8 -27 -22 -44 -30 -41
-19 -72 -38 -93 -55 -10 -8 -34 -22 -54 -32 -19 -10 -48 -30 -65 -44 -16 -14
-69 -45 -118 -69 -49 -25 -101 -54 -116 -64 -16 -11 -33 -20 -39 -20 -6 0 -11
-3 -11 -7 0 -9 -49 -33 -67 -33 -7 0 -13 -4 -13 -8 0 -5 -35 -26 -77 -48 -43
-21 -81 -43 -84 -47 -3 -5 -8 -8 -10 -7 -5 2 -62 -23 -69 -30 -14 -14 -134
-69 -141 -64 -5 3 -9 -2 -9 -10 0 -10 -15 -17 -44 -21 -25 -4 -47 -14 -50 -22
-3 -8 -10 -12 -15 -8 -5 3 -12 1 -16 -5 -4 -6 -10 -8 -14 -5 -5 2 -16 -4 -26
-15 -10 -11 -23 -20 -29 -20 -6 0 -50 -20 -98 -44 -49 -25 -88 -42 -88 -40 0
3 -15 -5 -32 -18 -30 -21 -43 -25 -87 -30 -8 -1 -23 -10 -34 -21 -10 -10 -27
-17 -37 -14 -10 2 -30 -6 -46 -20 -15 -13 -34 -21 -42 -18 -8 3 -23 -2 -34
-12 -10 -9 -26 -18 -36 -20 -49 -8 -59 -11 -85 -23 -15 -8 -26 -18 -24 -24 3
-7 -11 -12 -33 -12 -21 -1 -49 -9 -63 -19 -14 -9 -40 -18 -57 -20 -18 -3 -44
-12 -59 -22 -14 -10 -37 -18 -51 -19 -14 0 -41 -9 -60 -20 -19 -10 -45 -19
-58 -19 -13 0 -27 -7 -31 -14 -5 -8 -14 -10 -20 -7 -6 4 -11 2 -11 -3 0 -6
-10 -11 -21 -11 -12 0 -28 -8 -36 -17 -7 -10 -12 -13 -11 -6 4 15 -12 13 -39
-4 -12 -8 -26 -12 -31 -9 -5 3 -20 -6 -32 -19 l-23 -25 27 0 c14 0 42 7 62 15
20 8 48 12 64 8 25 -5 30 -2 30 15 0 11 8 23 18 27 14 5 15 4 5 -6 -19 -19
-16 -28 7 -22 11 3 18 9 15 13 -3 4 6 10 20 12 13 3 22 1 19 -3 -3 -5 -1 -9 4
-9 12 0 24 29 16 41 -3 5 0 9 5 9 6 0 12 -12 12 -27 1 -17 3 -21 6 -10 3 13
15 17 49 17 24 0 44 5 44 10 0 6 -19 9 -47 6 -27 -2 -42 -1 -35 1 10 4 10 8 1
19 -10 12 -7 12 16 0 30 -16 53 -12 73 12 6 9 12 11 12 5 0 -7 -5 -15 -10 -18
-14 -8 -3 -25 16 -25 8 0 13 4 9 9 -3 5 -1 12 4 15 5 4 12 2 16 -4 4 -7 12 -7
26 0 14 8 19 7 19 -3 0 -7 -10 -13 -21 -14 -26 -2 -43 -17 -38 -32 3 -6 21 -3
48 9 24 11 54 20 67 20 12 0 25 4 28 9 4 5 25 12 49 16 23 4 47 11 52 15 6 5
22 11 35 13 14 2 32 6 40 9 23 9 200 36 239 37 38 0 71 -23 46 -33 -8 -3 -15
-12 -15 -21 0 -11 10 -15 36 -15 32 0 35 2 29 23 -7 21 -7 21 8 2 11 -14 18
-17 28 -8 8 6 30 13 49 17 29 5 349 154 425 198 11 7 148 76 304 155 157 79
294 151 304 161 11 9 20 15 21 13 0 -3 26 13 56 35 30 21 55 37 56 34 1 -3 13
5 26 16 30 29 204 144 216 144 5 0 15 7 22 16 8 8 28 21 47 29 18 8 33 18 33
23 0 5 19 22 43 38 23 16 60 43 81 61 22 18 44 33 49 33 5 0 32 20 59 45 28
25 64 52 82 60 17 8 49 32 71 52 22 21 61 51 86 68 55 38 119 86 137 103 8 7
17 10 22 7 9 -5 28 14 29 30 1 6 5 10 9 10 4 0 26 17 47 37 22 21 89 84 150
140 129 121 314 308 313 317 -3 28 5 32 18 9 8 -16 17 -28 20 -28 3 0 3 4 -1
9 -7 12 65 81 85 81 8 0 -11 -26 -42 -58 -30 -31 -66 -69 -79 -84 -12 -16 -29
-28 -36 -28 -7 0 -12 -5 -10 -12 1 -7 -8 -17 -21 -23 -12 -5 -20 -15 -18 -21
6 -16 -14 -34 -30 -27 -13 5 -19 -8 -15 -30 1 -5 -3 -6 -9 -2 -10 6 -120 -98
-120 -115 0 -5 -8 -10 -17 -11 -12 0 -13 -2 -5 -6 10 -4 9 -9 -4 -24 -9 -10
-21 -16 -27 -12 -5 3 -7 2 -4 -4 4 -5 -8 -23 -26 -39 -18 -16 -89 -81 -158
-144 -194 -179 -297 -263 -312 -253 -6 3 -7 1 -3 -5 4 -7 -4 -17 -21 -24 -15
-7 -34 -21 -42 -31 -7 -11 -21 -17 -31 -14 -10 2 -24 1 -31 -4 -11 -7 -9 -9 6
-9 18 0 18 -1 2 -17 -15 -15 -19 -16 -27 -3 -5 8 -6 18 -3 23 3 5 -9 2 -25 -7
-46 -24 -48 -36 -5 -36 l37 0 -99 -73 c-190 -139 -233 -168 -240 -157 -3 5 1
10 10 10 9 0 13 4 10 10 -3 5 -2 10 2 10 5 0 10 12 11 27 2 26 2 26 -19 7 -23
-20 -43 -62 -40 -81 1 -10 -45 -47 -96 -77 -29 -17 -10 14 20 33 30 18 48 61
26 61 -17 0 -60 -44 -54 -57 2 -8 -2 -16 -10 -19 -7 -3 -12 -11 -9 -18 6 -14
-115 -94 -406 -268 -246 -147 -271 -161 -277 -154 -4 3 -2 6 3 6 6 0 18 17 27
38 11 25 24 38 37 39 11 1 18 -2 15 -8 -4 -5 -2 -9 3 -9 6 0 13 11 16 24 3 14
15 28 26 31 11 3 20 11 20 16 0 17 -21 9 -44 -16 -24 -25 -43 -34 -30 -14 4 7
2 9 -7 5 -8 -3 -21 -9 -31 -12 -9 -3 -18 -14 -21 -25 -3 -10 -12 -19 -21 -19
-9 0 -16 -5 -16 -11 0 -5 -5 -7 -11 -3 -6 3 -21 2 -32 -4 -66 -31 -123 -57
-127 -57 -3 0 -21 -10 -41 -23 -20 -12 -41 -22 -47 -22 -6 0 -23 -10 -39 -23
-15 -13 -42 -29 -59 -36 -17 -7 -37 -23 -44 -37 -8 -13 -16 -20 -20 -15 -3 6
-11 6 -20 1 -8 -6 -13 -10 -10 -11 6 -1 31 -6 45 -9 18 -4 35 0 34 8 -4 26 3
34 28 29 36 -7 53 1 53 25 0 17 5 20 30 15 29 -6 66 15 55 33 -7 12 32 19 43
8 6 -6 17 0 31 18 11 15 21 22 21 16 0 -6 8 -12 18 -14 11 -3 -9 -17 -55 -41
-40 -21 -73 -35 -73 -31 0 3 -7 -2 -16 -11 -9 -9 -98 -57 -197 -106 -169 -85
-181 -89 -196 -73 -15 16 -15 16 1 11 10 -4 17 -3 17 1 -4 22 3 32 21 32 17 0
19 3 11 18 -8 15 -5 20 19 29 20 8 31 8 39 0 8 -8 11 -8 11 1 0 12 -15 17 -35
12 -5 -1 -14 -3 -20 -4 -30 -5 -74 -30 -68 -39 4 -7 0 -8 -12 -4 -18 7 -48 -9
-41 -22 3 -4 -4 -12 -15 -19 -16 -10 -19 -9 -19 3 0 18 -9 19 -34 0 -10 -7
-15 -18 -12 -23 3 -5 -3 -12 -14 -15 -14 -4 -19 -13 -18 -31 3 -31 18 -34 25
-5 4 13 11 18 21 14 10 -3 24 4 38 20 16 19 30 26 50 23 15 -2 29 -8 31 -14 4
-13 -45 -37 -59 -28 -6 4 -8 3 -5 -3 8 -12 -81 -56 -95 -47 -6 4 -8 3 -5 -2
12 -20 -618 -279 -1093 -448 -698 -250 -1365 -438 -2300 -651 -256 -58 -989
-189 -1260 -225 -80 -10 -228 -30 -330 -44 -523 -71 -1202 -138 -1690 -166
-96 -6 -233 -15 -305 -20 -442 -33 -1304 -53 -2007 -47 -1221 10 -2314 97
-3553 282 -597 89 -1446 267 -2110 441 -533 140 -1092 319 -1485 476 -512 205
-1268 563 -1620 769 -443 258 -723 465 -1143 843 -308 278 -674 693 -876 991
-317 469 -467 844 -538 1345 -21 153 -24 542 -5 665 43 271 93 436 197 650
166 342 376 609 702 895 426 374 1094 774 1903 1140 381 173 515 224 1080 415
217 74 420 143 450 154 30 11 60 20 65 21 6 0 21 -29 33 -65z m292 -620 c67
-142 100 -215 100 -220 0 -3 -10 -5 -22 -5 -64 0 -328 -87 -532 -175 -673
-289 -1365 -766 -1807 -1247 -369 -402 -566 -824 -611 -1304 -31 -346 78 -801
279 -1159 416 -741 1047 -1327 1883 -1745 678 -340 1406 -574 2425 -779 751
-151 1576 -293 2150 -370 1218 -165 1691 -199 2880 -208 1364 -10 2445 40
3260 153 99 14 279 38 400 55 237 33 693 104 920 143 77 14 241 41 365 61 606
97 1271 243 1939 426 343 93 795 259 1141 417 210 96 606 298 740 377 244 144
534 346 739 514 271 221 445 399 638 654 l89 117 124 5 c147 6 249 19 380 47
150 32 207 33 326 8 86 -18 114 -20 147 -12 23 6 60 14 82 17 22 4 50 9 63 12
12 3 22 0 22 -5 0 -28 -343 -358 -525 -504 -299 -241 -807 -567 -1245 -798
-96 -51 -215 -114 -265 -140 -214 -113 -746 -342 -1130 -487 -269 -101 -911
-309 -1285 -417 -299 -86 -1352 -335 -1715 -406 -685 -133 -1781 -294 -2490
-365 -1319 -131 -3003 -141 -4325 -24 -853 75 -1523 158 -2300 285 -438 72
-1072 199 -1665 335 -939 215 -1355 327 -1945 527 -519 176 -751 270 -1144
462 -533 260 -816 439 -1124 712 -144 128 -392 395 -503 543 -294 390 -473
812 -539 1273 -24 172 -25 243 -3 472 8 96 15 193 15 215 -1 48 41 214 75 299
183 452 548 842 1208 1289 348 235 581 368 1095 625 434 217 811 377 1295 547
l260 91 46 -110 c26 -61 66 -151 89 -201z m18638 -741 c251 -283 487 -643 695
-1060 158 -316 214 -815 141 -1244 -8 -47 -19 -86 -23 -88 -4 -1 -6 -14 -3
-28 3 -17 0 -24 -8 -22 -9 2 -17 -17 -25 -55 -16 -75 -27 -85 -23 -20 2 28 6
49 11 46 4 -2 8 6 8 19 1 13 3 35 5 51 4 39 -12 24 -20 -18 -4 -21 -15 -39
-29 -46 -12 -7 -25 -17 -29 -22 -4 -6 -4 9 -1 33 4 31 3 41 -6 36 -16 -10 -11
-114 6 -120 14 -6 17 -54 5 -72 -4 -6 -15 -14 -26 -17 -16 -6 -17 -4 -11 20 8
33 8 32 6 62 -1 21 -3 22 -22 10 -11 -8 -19 -17 -17 -20 2 -4 -5 -16 -15 -27
-11 -12 -16 -26 -12 -31 3 -6 -1 -11 -9 -11 -20 0 -20 -2 4 48 13 27 18 53 15
73 -7 41 -8 43 -5 49 7 19 7 41 0 45 -17 11 16 65 39 65 25 0 24 104 -2 140
-14 20 -14 19 -38 -6 -28 -30 -42 -122 -22 -139 9 -7 10 -14 2 -25 -9 -13 -10
-12 -5 3 3 11 2 16 -4 12 -6 -4 -8 -22 -5 -43 5 -30 4 -34 -5 -19 -11 17 -13
17 -41 0 -25 -15 -35 -36 -30 -65 0 -4 -6 -5 -14 -2 -8 4 -15 1 -15 -7 0 -7
-3 -10 -6 -6 -7 7 -28 -12 -37 -33 -3 -8 -3 19 0 60 7 117 10 139 27 237 20
115 35 301 29 373 -12 156 -37 336 -59 430 -62 258 -204 617 -309 780 -59 93
-105 170 -105 179 0 4 -6 14 -14 20 -7 6 -21 33 -31 59 -37 97 -113 193 -288
364 l-171 167 44 38 c25 21 70 61 100 90 l55 53 93 -97 c51 -54 141 -152 200
-219z m-18408 228 c0 -14 187 -366 285 -537 250 -434 430 -700 863 -1275 443
-588 604 -784 990 -1207 230 -252 343 -359 526 -495 311 -233 539 -359 922
-511 793 -315 1109 -420 1784 -591 728 -184 1179 -275 1915 -385 509 -77 701
-100 1155 -140 532 -48 684 -55 1260 -54 635 0 1183 20 1745 63 1198 92 2106
265 3090 587 708 232 980 358 1305 604 74 56 85 61 85 42 0 -14 -4 -18 -11
-12 -7 5 -11 4 -11 -5 0 -17 50 -13 100 7 38 16 169 120 254 203 29 28 53 48
53 44 0 -12 -142 -170 -231 -256 -443 -429 -1078 -818 -2028 -1238 -574 -255
-1065 -411 -1956 -621 -669 -158 -1474 -300 -2195 -389 -940 -116 -1698 -161
-2880 -173 -1143 -11 -2168 44 -3190 173 -1075 135 -1763 261 -2558 468 -653
170 -1228 360 -1742 574 -513 213 -969 500 -1362 857 -441 402 -739 886 -832
1355 -83 415 -46 738 123 1085 200 411 548 775 1085 1135 286 192 700 410
1071 563 293 121 385 152 385 129z m17849 -342 c204 -245 322 -417 439 -640
226 -432 322 -795 322 -1219 0 -131 -5 -192 -21 -272 -23 -114 -24 -119 -43
-119 -23 0 -53 109 -58 205 -1 22 -6 46 -11 53 -7 9 -86 12 -326 13 -174 1
-471 5 -660 8 l-343 6 -28 95 c-38 132 -71 212 -157 382 -198 389 -472 717
-776 926 -51 35 -113 75 -139 88 -27 13 -48 25 -48 27 0 1 96 2 213 2 261 1
376 19 647 102 279 85 517 204 785 392 55 39 101 70 102 71 1 0 47 -54 102
-120z m-3314 -51 c197 -87 447 -181 665 -249 91 -29 208 -65 260 -82 52 -16
115 -41 138 -55 109 -63 437 -366 587 -543 178 -211 372 -526 460 -748 37 -94
89 -281 81 -290 -12 -11 -34 9 -39 35 -9 41 -92 139 -142 168 -28 17 -70 29
-122 36 -126 16 -1299 23 -1768 10 -231 -6 -793 -20 -1250 -31 -456 -11 -847
-24 -867 -29 -21 -5 -38 -8 -38 -6 0 2 24 43 53 92 28 49 102 176 162 282 152
266 169 285 345 392 157 95 507 344 709 504 131 103 338 305 494 482 50 57 95
103 101 103 6 0 83 -32 171 -71z m4502 -2076 c-3 -10 -5 -4 -5 12 0 17 2 24 5
18 2 -7 2 -21 0 -30z m10 -395 c-3 -7 -5 -2 -5 12 0 14 2 19 5 13 2 -7 2 -19
0 -25z m29 -94 c-3 -8 -10 -12 -16 -9 -7 4 -6 14 2 28 12 24 24 8 14 -19z
m-2726 -658 c0 -2 -8 -10 -17 -17 -16 -13 -17 -12 -4 4 13 16 21 21 21 13z
m2205 -266 c-5 -16 -10 -19 -18 -11 -7 7 -6 15 3 26 17 20 24 13 15 -15z m63
-12 c-18 -23 -50 -60 -70 -81 -20 -21 -39 -45 -42 -53 -7 -19 -36 -6 -36 16 0
15 82 99 98 100 4 1 23 14 42 30 19 17 36 30 38 30 2 0 -11 -19 -30 -42z
m-148 -182 c0 -2 -8 -10 -17 -17 -16 -13 -17 -12 -4 4 13 16 21 21 21 13z
m-113 -38 c-3 -8 -6 -5 -6 6 -1 11 2 17 5 13 3 -3 4 -12 1 -19z m-2223 -1787
c3 -5 -1 -11 -9 -14 -9 -4 -12 -1 -8 9 6 16 10 17 17 5z m-614 -261 c0 -5 -7
-7 -15 -4 -8 4 -15 8 -15 10 0 2 7 4 15 4 8 0 15 -4 15 -10z"/>
<path d="M16658 25320 c-65 -8 -88 -31 -88 -91 0 -39 4 -51 26 -68 46 -36 138
-20 164 28 22 43 4 112 -34 128 -11 5 -42 6 -68 3z"/>
<path d="M16401 25079 c-36 -21 -70 -39 -77 -39 -18 0 -28 -428 -14 -625 14
-201 20 -231 45 -228 53 5 95 13 148 30 43 14 57 23 58 38 9 126 -38 735 -62
812 -17 53 -28 55 -98 12z"/>
<path d="M13022 24759 c-12 -5 -29 -6 -37 -3 -8 4 -15 2 -15 -3 0 -5 -18 -9
-40 -9 -22 1 -41 -2 -43 -5 -1 -4 -33 -9 -72 -13 -38 -3 -88 -11 -110 -16 -22
-6 -49 -13 -60 -15 -23 -5 -324 -88 -400 -110 -27 -8 -66 -18 -85 -21 -54 -10
-209 -64 -271 -95 -31 -15 -59 -25 -63 -22 -3 4 -6 1 -6 -4 0 -18 -90 -63
-129 -64 l-36 -1 33 -10 c17 -6 32 -14 32 -19 0 -4 17 -6 38 -3 37 5 36 4 -13
-16 -48 -21 -79 -40 -42 -27 9 4 17 3 17 -1 0 -4 27 -27 61 -52 33 -24 74 -61
91 -82 16 -21 36 -38 44 -38 8 0 17 -6 20 -14 3 -7 23 -21 45 -31 21 -10 39
-23 39 -29 0 -11 -56 -61 -94 -83 -24 -14 -24 -15 27 -17 41 -2 57 -17 57 -53
0 -13 5 -23 10 -23 6 0 -3 -13 -20 -30 -34 -33 -38 -43 -12 -36 59 16 67 17
52 7 -25 -18 -1 -12 71 16 37 14 66 29 65 32 -2 3 8 6 24 7 40 1 140 45 133
58 -3 6 0 6 7 -1 10 -9 24 -7 64 9 28 11 58 21 67 23 20 4 104 31 174 55 54
19 174 53 243 70 23 6 41 14 38 18 -2 4 15 8 38 9 22 2 68 12 101 23 33 11 87
25 120 31 55 11 57 13 30 19 -17 4 -40 12 -50 18 -18 10 -17 12 10 13 38 2 36
2 58 -6 13 -5 16 -3 12 8 -5 11 3 16 27 20 18 2 35 1 38 -3 3 -4 14 -10 25
-12 18 -5 18 -6 -5 -16 -38 -17 -7 -14 88 8 122 27 242 50 342 65 49 7 70 13
49 14 -20 1 -108 -12 -195 -29 -168 -32 -181 -33 -172 -24 3 3 -7 19 -23 35
-34 35 -36 50 -9 67 11 7 20 18 20 25 0 8 -4 7 -10 -3 -8 -13 -10 -12 -10 3 0
25 19 21 32 -8 13 -28 30 -32 52 -10 17 18 30 20 20 3 -5 -7 -3 -8 5 -4 7 5
10 11 7 14 -8 7 15 33 24 27 14 -8 33 24 25 42 -13 31 -12 54 3 69 12 13 12
17 -3 34 -10 11 -24 20 -32 20 -8 0 -12 4 -8 9 3 5 1 12 -4 15 -5 3 -12 -1
-15 -10 -4 -11 -14 -15 -31 -11 -14 2 -29 -1 -33 -8 -5 -8 -17 0 -37 24 -16
19 -24 32 -17 27 7 -4 15 -1 18 9 5 13 9 13 22 3 13 -12 14 -10 3 10 -7 14
-18 21 -27 18 -7 -3 -18 3 -24 14 -6 11 -16 20 -23 20 -7 0 -25 7 -41 15 -15
8 -32 13 -36 10 -4 -2 -16 5 -26 16 -32 35 -73 52 -90 38 -11 -9 -18 -9 -22
-2 -8 13 -97 14 -130 2z m333 -89 c3 -5 -1 -10 -10 -10 -9 0 -13 5 -10 10 3 6
8 10 10 10 2 0 7 -4 10 -10z m129 -222 c-3 -4 -9 -8 -15 -8 -5 0 -9 4 -9 8 0
5 7 9 15 9 8 0 12 -4 9 -9z m-1629 -28 c-3 -5 -12 -10 -18 -10 -7 0 -6 4 3 10
19 12 23 12 15 0z m1625 -25 c0 -2 -9 -3 -19 -2 -11 0 -18 5 -15 9 4 6 34 0
34 -7z m-110 -70 c14 -19 14 -19 -2 -6 -10 7 -18 18 -18 24 0 6 1 8 3 6 1 -2
9 -13 17 -24z m-29 -7 c11 -11 19 -25 19 -29 0 -4 7 -14 15 -22 13 -13 11 -16
-11 -21 -29 -8 -45 1 -26 13 9 5 7 16 -8 44 -22 41 -17 48 11 15z m-176 -138
c-3 -5 -14 -10 -23 -10 -15 0 -15 2 -2 10 20 13 33 13 25 0z m-855 -254 c0 -2
-7 -7 -16 -10 -8 -3 -12 -2 -9 4 6 10 25 14 25 6z m-252 -73 c-10 -2 -26 -2
-35 0 -10 3 -2 5 17 5 19 0 27 -2 18 -5z m32 -13 c-8 -5 -19 -10 -25 -10 -5 0
-3 5 5 10 8 5 20 10 25 10 6 0 3 -5 -5 -10z"/>
<path d="M13466 24593 c-6 -14 -5 -15 5 -6 7 7 10 15 7 18 -3 3 -9 -2 -12 -12z"/>
<path d="M13425 24580 c10 -11 20 -20 23 -20 3 0 -3 9 -13 20 -10 11 -20 20
-23 20 -3 0 3 -9 13 -20z"/>
<path d="M13587 24493 c-4 -3 -7 -11 -7 -17 0 -6 5 -5 12 2 6 6 9 14 7 17 -3
3 -9 2 -12 -2z"/>
<path d="M13635 24420 c3 -5 8 -10 11 -10 2 0 4 5 4 10 0 6 -5 10 -11 10 -5 0
-7 -4 -4 -10z"/>
<path d="M14315 24400 c-3 -6 1 -7 9 -4 18 7 21 14 7 14 -6 0 -13 -4 -16 -10z"/>
<path d="M14267 24380 c-16 -5 -34 -13 -41 -19 -7 -6 -37 -17 -67 -25 -48 -13
-50 -15 -20 -15 30 -1 161 51 161 64 0 3 -1 5 -2 4 -2 0 -16 -5 -31 -9z"/>
<path d="M13420 24329 c0 -5 4 -9 9 -9 5 0 12 -10 16 -22 5 -18 8 -19 12 -8 3
8 10 17 14 20 5 3 -5 11 -21 17 -17 6 -30 7 -30 2z"/>
<path d="M13988 24313 c7 -3 16 -2 19 1 4 3 -2 6 -13 5 -11 0 -14 -3 -6 -6z"/>
<path d="M14043 24313 c9 -2 23 -2 30 0 6 3 -1 5 -18 5 -16 0 -22 -2 -12 -5z"/>
<path d="M11901 23797 c-8 -11 -4 -13 22 -10 25 4 29 2 17 -6 -17 -12 -1 -15
18 -3 9 6 5 12 -13 20 -32 15 -30 15 -44 -1z"/>
<path d="M11986 23801 c-4 -5 3 -7 14 -4 23 6 26 13 6 13 -8 0 -17 -4 -20 -9z"/>
<path d="M11260 23540 c-9 -6 -10 -10 -3 -10 6 0 15 5 18 10 8 12 4 12 -15 0z"/>
<path d="M11015 23410 c-3 -6 1 -7 9 -4 18 7 21 14 7 14 -6 0 -13 -4 -16 -10z"/>
<path d="M10895 23339 c-69 -40 -322 -169 -380 -194 -74 -31 -90 -40 -175 -97
-65 -44 -171 -148 -150 -148 9 0 3 -8 -12 -18 -36 -24 -118 -114 -118 -130 0
-7 4 -10 10 -7 5 3 12 -6 16 -20 3 -14 10 -25 16 -25 5 0 -3 -17 -18 -37 -16
-23 -1 -11 35 27 90 96 121 130 121 134 0 7 121 120 193 180 61 51 459 325
525 361 15 8 22 14 17 15 -6 0 -42 -18 -80 -41z"/>
<path d="M9640 21782 c0 -10 43 -52 53 -52 14 0 6 20 -15 40 -23 21 -38 26
-38 12z"/>
<path d="M13175 18749 c-107 -16 -235 -58 -339 -111 -87 -45 -115 -66 -201
-152 -110 -111 -172 -204 -229 -346 -82 -202 -113 -379 -96 -546 16 -149 53
-239 125 -303 30 -26 44 -31 88 -31 33 0 70 9 102 24 94 43 142 98 215 245 35
70 45 107 81 303 23 123 50 239 60 260 26 51 94 103 173 133 161 61 283 8 332
-143 15 -47 18 -80 14 -192 -2 -74 -4 -196 -5 -270 0 -127 1 -137 24 -170 36
-52 50 -60 105 -60 233 1 398 381 331 763 -26 148 -79 266 -167 373 -78 94
-208 179 -320 208 -74 19 -219 27 -293 15z"/>
<path d="M17324 18435 c-87 -15 -218 -76 -300 -138 -214 -163 -393 -469 -450
-772 -34 -185 14 -412 106 -500 27 -26 29 -26 59 -10 47 24 97 76 109 115 6
19 16 70 21 113 14 98 42 183 93 277 119 217 275 360 396 360 111 0 217 -93
272 -238 l20 -51 -60 -115 c-42 -81 -60 -127 -60 -153 0 -87 93 -199 219 -261
64 -32 86 -37 155 -40 77 -3 84 -1 136 30 102 62 129 132 137 354 4 94 1 183
-6 233 -39 266 -166 508 -346 662 -82 71 -167 113 -267 133 -90 19 -137 19
-234 1z"/>
<path d="M18428 16767 c-58 -49 -65 -126 -19 -199 52 -81 104 -99 159 -53 44
37 65 96 52 145 -18 68 -86 130 -142 130 -13 0 -35 -10 -50 -23z"/>
<path d="M12970 16691 c0 -5 5 -11 11 -13 14 -5 13 -140 -1 -203 -6 -26 -19
-64 -30 -86 -23 -43 -77 -109 -91 -109 -6 0 -22 -9 -37 -19 -15 -11 -55 -29
-90 -41 -82 -27 -268 -29 -352 -4 -115 34 -240 109 -348 208 -80 73 -117 90
-139 61 -32 -44 -6 -112 74 -197 49 -51 178 -143 366 -261 l28 -18 -26 -31
c-19 -22 -25 -38 -21 -54 6 -21 -5 -31 -91 -87 -114 -74 -131 -91 -116 -115
24 -39 143 -18 224 39 l27 19 6 -38 c21 -117 59 -172 121 -172 41 0 72 33 96
102 10 29 18 44 19 33 0 -30 60 -150 114 -229 232 -337 869 -985 1241 -1261
545 -406 1201 -607 1773 -544 572 63 1012 270 1547 731 151 129 549 526 726
722 378 421 439 495 439 534 0 12 4 22 8 22 5 0 60 -27 123 -59 63 -33 188
-92 279 -131 91 -39 193 -87 228 -106 34 -19 69 -34 77 -34 21 0 19 48 -4 86
-26 43 -58 61 -266 149 -250 107 -401 182 -424 211 -23 29 -20 61 13 137 22
50 37 59 126 72 96 15 267 100 354 176 73 64 114 175 82 224 -30 45 -58 35
-178 -64 -85 -70 -239 -130 -335 -131 -21 0 -85 27 -175 72 -131 66 -150 79
-227 157 -128 130 -159 145 -181 91 -18 -44 -5 -104 43 -195 42 -78 45 -81
133 -132 111 -65 144 -100 144 -151 0 -44 -25 -72 -79 -91 -55 -18 -79 -13
-137 30 -64 47 -136 140 -171 219 -49 112 -76 162 -89 167 -34 13 -62 -54 -43
-104 35 -92 164 -242 287 -332 39 -30 72 -59 71 -65 -1 -21 -108 -102 -236
-178 -323 -193 -610 -317 -1023 -443 -576 -175 -1157 -243 -1843 -216 -757 30
-1200 128 -1789 396 -321 146 -426 226 -520 396 -27 47 -48 90 -48 96 0 6 21
19 48 30 55 23 240 149 295 202 97 91 173 297 146 394 -15 56 -159 180 -159
138z"/>
<path d="M12632 16653 c-17 -6 -48 -69 -56 -113 -7 -40 14 -80 76 -149 48 -52
70 -53 91 -3 40 92 30 166 -30 223 -41 39 -60 49 -81 42z"/>
<path d="M12290 10524 c0 -8 5 -12 10 -9 6 4 8 11 5 16 -9 14 -15 11 -15 -7z"/>
<path d="M12320 10485 c7 -9 15 -13 17 -11 7 7 -7 26 -19 26 -6 0 -6 -6 2 -15z"/>
<path d="M12351 10454 c0 -11 3 -14 6 -6 3 7 2 16 -1 19 -3 4 -6 -2 -5 -13z"/>
<path d="M7875 13337 l-20 -20 25 13 c32 16 33 17 23 23 -4 2 -17 -5 -28 -16z"/>
<path d="M7825 13310 c-3 -6 1 -7 9 -4 18 7 21 14 7 14 -6 0 -13 -4 -16 -10z"/>
<path d="M7549 13211 l-24 -20 23 6 c23 5 38 20 29 29 -2 2 -15 -4 -28 -15z"/>
<path d="M7475 13171 c-3 -5 -1 -12 4 -15 5 -3 11 1 15 9 6 16 -9 21 -19 6z"/>
<path d="M28539 8893 l-24 -28 28 24 c15 14 27 26 27 28 0 8 -8 1 -31 -24z"/>
<path d="M27121 7711 c-10 -7 -10 -10 -1 -16 6 -4 16 -3 22 3 13 13 -4 23 -21
13z"/>
<path d="M27120 7670 c-9 -6 -10 -10 -3 -10 6 0 15 5 18 10 8 12 4 12 -15 0z"/>
<path d="M26540 7339 c0 -5 5 -7 10 -4 6 3 10 8 10 11 0 2 -4 4 -10 4 -5 0
-10 -5 -10 -11z"/>
<path d="M25570 6990 c-8 -5 -12 -11 -10 -14 3 -2 14 2 24 10 22 15 10 19 -14
4z"/>
<path d="M25507 6963 c-4 -3 -7 -11 -7 -17 0 -6 5 -5 12 2 6 6 9 14 7 17 -3 3
-9 2 -12 -2z"/>
<path d="M25841 6956 c-9 -11 -9 -16 0 -22 8 -5 9 -3 4 6 -6 10 -4 12 8 7 11
-4 14 -2 10 9 -6 17 -8 17 -22 0z"/>
<path d="M24879 6915 c-26 -13 -49 -21 -53 -18 -3 4 -6 -1 -6 -10 0 -22 5 -21
44 8 18 13 41 23 52 21 13 -3 21 1 21 10 0 19 -5 18 -58 -11z"/>
<path d="M24560 6892 c0 -4 -14 -12 -32 -17 -17 -6 -33 -16 -36 -22 -6 -19 12
-16 52 10 35 22 45 37 26 37 -5 0 -10 -4 -10 -8z"/>
<path d="M24578 6853 c7 -3 16 -2 19 1 4 3 -2 6 -13 5 -11 0 -14 -3 -6 -6z"/>
<path d="M24400 6820 c0 -11 5 -20 11 -20 5 0 7 5 4 10 -3 6 -1 10 4 10 6 0
11 5 11 10 0 6 -7 10 -15 10 -8 0 -15 -9 -15 -20z"/>
<path d="M24445 6830 c-3 -5 -1 -10 4 -10 6 0 11 5 11 10 0 6 -2 10 -4 10 -3
0 -8 -4 -11 -10z"/>
<path d="M25482 6824 c-7 -7 -13 -17 -15 -21 -1 -5 -10 -8 -19 -7 -9 0 -15 -3
-12 -8 3 -4 16 -8 30 -8 21 0 26 5 23 26 0 4 5 10 11 14 7 4 8 10 4 13 -5 3
-15 -1 -22 -9z"/>
<path d="M24360 6795 c0 -9 6 -12 15 -9 8 4 15 10 15 15 0 5 -7 9 -15 9 -8 0
-15 -7 -15 -15z"/>
<path d="M24268 6783 c-6 -7 -18 -13 -27 -13 -9 0 -50 -11 -91 -24 -123 -39
-215 -66 -226 -66 -5 0 -43 -12 -84 -26 -41 -14 -106 -34 -145 -45 -113 -33
-196 -57 -253 -73 -29 -8 -59 -21 -66 -29 -22 -22 92 -9 132 15 17 11 32 17
32 14 0 -16 -69 -46 -105 -46 -22 0 -57 -9 -78 -20 -20 -11 -50 -20 -66 -20
-42 0 -61 -10 -61 -31 0 -20 15 -26 24 -10 4 5 0 12 -6 14 -8 3 -6 6 5 6 9 1
17 -4 17 -10 0 -8 4 -8 14 0 7 6 24 10 37 8 13 -2 42 2 64 10 22 8 64 19 93
24 30 6 69 19 88 30 19 10 49 21 66 24 39 7 50 15 20 15 -11 0 -24 5 -28 11
-4 8 0 9 15 4 11 -3 21 -2 21 3 0 5 6 9 13 10 6 1 23 3 37 6 14 2 31 4 38 5 7
0 10 6 7 11 -4 6 15 20 41 31 57 26 214 40 214 19 0 -8 8 -10 28 -5 15 4 34 9
42 11 8 2 65 23 125 48 109 43 110 44 113 79 3 31 0 36 -18 34 -12 -1 -26 -7
-32 -14z m-659 -262 c-6 -2 -16 2 -22 9 -9 10 -9 11 1 6 7 -4 12 -2 12 6 0 9
3 9 10 -2 6 -10 6 -16 -1 -19z"/>
<path d="M23055 6400 c-8 -13 15 -13 35 0 12 8 11 10 -7 10 -12 0 -25 -4 -28
-10z"/>
<path d="M22780 6369 c-30 -4 -66 -10 -80 -12 -45 -7 -100 -31 -100 -43 0 -14
79 -10 140 6 19 6 45 10 58 10 23 0 65 34 55 44 -4 3 -9 5 -12 5 -3 -1 -31 -5
-61 -10z"/>
<path d="M6735 11904 c-11 -2 -47 -6 -80 -9 -55 -6 -64 -11 -105 -53 -25 -26
-62 -82 -83 -124 -45 -90 -81 -249 -73 -320 6 -55 40 -128 61 -128 14 0 76 84
109 148 25 48 126 172 141 172 21 0 123 117 151 172 29 57 27 81 -10 121 -24
26 -48 31 -111 21z"/>
<path d="M6937 11561 c-122 -64 -210 -146 -276 -256 -38 -62 -36 -77 12 -105
24 -13 30 -12 99 23 131 67 205 147 247 270 19 55 14 97 -13 97 -8 0 -39 -13
-69 -29z"/>
<path d="M6364 10755 c-41 -18 -89 -72 -114 -128 -26 -59 -28 -153 -5 -217 13
-36 15 -66 10 -156 -6 -105 -6 -113 14 -131 25 -23 85 -43 131 -43 47 0 95 53
103 115 4 27 22 71 43 106 21 33 43 83 50 111 14 53 19 193 8 222 -3 8 -28 22
-55 31 -35 12 -54 25 -64 45 -24 47 -74 65 -121 45z"/>
<path d="M6684 9639 c-58 -22 -101 -60 -110 -96 -10 -37 4 -112 25 -147 26
-42 86 -75 133 -73 21 0 40 -2 44 -6 4 -4 -13 -24 -38 -46 -51 -45 -73 -100
-59 -148 29 -99 94 -125 215 -83 80 27 111 52 142 115 32 67 47 222 23 251
-24 30 -111 12 -180 -36 -31 -22 -60 -36 -63 -32 -3 5 10 47 28 93 50 123 54
158 21 197 -24 29 -32 32 -78 31 -29 0 -75 -9 -103 -20z"/>
<path d="M29186 10733 c-6 -14 -5 -15 5 -6 7 7 10 15 7 18 -3 3 -9 -2 -12 -12z"/>
<path d="M29250 10435 c0 -8 4 -15 8 -15 5 0 9 7 9 15 0 8 -4 15 -9 15 -4 0
-8 -7 -8 -15z"/>
<path d="M16895 30269 c-144 -21 -283 -81 -391 -168 -34 -27 -104 -103 -158
-169 -113 -140 -131 -151 -207 -123 -27 11 -85 42 -130 71 -256 164 -431 190
-629 93 -154 -75 -260 -221 -296 -408 -24 -128 -21 -213 10 -318 52 -176 147
-321 325 -497 219 -217 481 -365 736 -417 95 -20 137 -24 200 -19 230 17 454
137 689 369 309 305 450 589 463 932 6 166 -8 250 -62 363 -69 146 -229 267
-385 292 -73 11 -81 11 -165 -1z"/>
</g>
</svg>
