<?xml version="1.0" standalone="no"?>
<!DOCTYPE svg PUBLIC "-//W3C//DTD SVG 20010904//EN"
 "http://www.w3.org/TR/2001/REC-SVG-20010904/DTD/svg10.dtd">
<svg version="1.0" xmlns="http://www.w3.org/2000/svg"
 width="2452.000000pt" height="2344.000000pt" viewBox="0 0 2452.000000 2344.000000"
 preserveAspectRatio="xMidYMid meet">

<g transform="translate(0.000000,2344.000000) scale(0.100000,-0.100000)"
fill="#000000" stroke="none">
<path d="M14615 22199 c-107 -9 -298 -57 -400 -100 -405 -168 -573 -522 -359
-758 50 -56 99 -83 243 -136 280 -101 389 -173 646 -426 202 -198 242 -227
350 -249 127 -26 319 15 437 94 114 75 241 234 314 391 74 161 97 381 53 516
-42 128 -104 224 -209 323 -205 193 -493 313 -828 346 -109 11 -120 11 -247
-1z m323 -234 c146 -22 235 -50 367 -114 236 -116 362 -245 399 -411 13 -56
13 -76 1 -140 -53 -299 -287 -560 -505 -563 -83 -1 -126 27 -305 202 -88 86
-187 177 -221 203 -135 104 -291 187 -482 257 -161 60 -201 91 -209 165 -8 70
17 125 88 190 190 176 538 261 867 211z"/>
<path d="M9935 21153 c-442 -35 -890 -328 -1196 -782 -126 -186 -200 -361
-220 -520 -26 -199 47 -360 193 -427 58 -27 72 -29 178 -29 213 1 279 46 539
370 236 294 427 472 711 660 79 52 182 165 220 240 32 63 35 77 35 154 0 98
-19 147 -83 214 -84 88 -223 132 -377 120z m162 -234 c18 -6 44 -24 58 -40 64
-77 9 -170 -175 -297 -347 -241 -472 -359 -763 -720 -53 -65 -117 -138 -144
-163 -100 -94 -203 -118 -281 -67 -100 67 -96 211 14 432 99 198 234 374 398
516 293 254 684 403 893 339z"/>
<path d="M12960 20623 c-484 -52 -923 -165 -1355 -348 -183 -77 -520 -248
-697 -354 -451 -268 -834 -566 -1199 -933 -159 -161 -235 -251 -375 -450 -146
-206 -205 -306 -314 -532 -108 -224 -152 -364 -180 -569 -7 -49 -17 -90 -24
-92 -6 -3 -141 -18 -301 -35 -711 -75 -1331 -184 -2205 -384 -450 -104 -1197
-314 -1570 -441 -475 -163 -1121 -450 -1453 -647 -481 -283 -820 -592 -954
-869 -65 -133 -84 -207 -90 -345 -8 -180 16 -291 99 -458 147 -294 400 -546
849 -847 235 -157 313 -201 634 -363 838 -423 1849 -764 3105 -1050 1089 -247
2108 -392 3215 -457 290 -17 1168 -23 1460 -10 671 29 1114 70 1885 171 1496
197 3020 604 4176 1116 926 409 1539 849 1837 1317 102 159 150 289 167 452
28 260 -60 495 -292 770 -148 176 -338 339 -593 509 -420 280 -1047 576 -1655
782 -694 235 -1120 350 -2010 543 -433 94 -659 135 -1136 206 -127 19 -256 40
-285 46 l-54 12 132 126 c139 133 191 172 197 149 25 -97 29 -102 86 -121 30
-10 204 -41 385 -68 1150 -171 1867 -326 2789 -604 328 -99 744 -244 1046
-365 167 -67 602 -274 739 -352 442 -251 705 -500 856 -813 116 -240 174 -518
221 -1065 31 -365 28 -1391 -7 -2050 -69 -1329 -295 -2721 -634 -3903 -161
-564 -482 -1311 -766 -1784 -97 -162 -358 -553 -449 -674 -248 -328 -708 -815
-1041 -1100 -294 -253 -330 -281 -539 -431 -361 -259 -816 -526 -1190 -699
-179 -82 -602 -251 -820 -328 -477 -166 -947 -284 -1635 -410 -381 -70 -878
-135 -1235 -161 -435 -32 -1212 -42 -1535 -20 -381 26 -462 32 -645 51 -664
67 -1417 213 -2066 399 -435 125 -954 333 -1414 566 -577 292 -1021 587 -1516
1008 -182 154 -648 625 -800 808 -222 266 -521 683 -674 938 -427 715 -720
1451 -949 2390 -146 598 -313 1522 -385 2140 -130 1110 -139 2538 -20 3460 92
720 272 1064 742 1417 242 183 527 334 1009 537 806 338 2034 666 3343 891
445 76 769 120 1479 200 222 25 416 51 430 58 27 13 30 24 46 150 4 26 10 45
16 42 19 -12 8 32 -21 82 -38 66 -49 68 -270 60 -301 -11 -857 -80 -1590 -197
-1556 -248 -3051 -669 -3995 -1126 -622 -301 -998 -588 -1230 -940 -281 -425
-410 -1031 -460 -2154 -47 -1061 19 -2279 176 -3250 203 -1260 494 -2341 845
-3137 201 -458 495 -978 760 -1349 768 -1072 1766 -1923 2924 -2491 162 -80
304 -152 314 -161 11 -10 16 -11 12 -4 -9 15 -5 15 31 1 l28 -11 -35 -12 c-35
-12 -65 -5 -82 19 -4 5 -10 6 -14 3 -3 -4 5 -18 19 -32 27 -27 57 -104 57
-146 0 -22 26 -52 123 -146 67 -65 176 -165 242 -221 106 -89 127 -112 177
-195 l56 -93 103 -5 c120 -6 128 -10 341 -128 522 -291 1063 -492 1813 -672
623 -151 1317 -217 1990 -191 682 26 1121 89 1760 251 574 146 963 290 1484
548 l254 126 90 6 c101 7 88 -1 171 116 36 50 69 78 193 162 82 56 190 137
240 179 50 43 112 94 139 113 36 26 51 45 60 76 6 22 19 55 28 72 16 30 15 32
-16 79 -17 26 -39 57 -49 68 -10 11 -15 25 -11 30 10 14 140 83 347 184 285
139 386 196 725 414 605 389 1133 832 1581 1327 271 299 588 717 792 1045 31
50 65 100 75 113 l18 23 83 -27 c79 -26 86 -27 153 -16 500 86 1456 805 2323
1747 528 574 906 1103 1189 1665 296 585 432 1065 477 1675 29 403 -40 894
-178 1265 -114 305 -297 603 -513 833 -206 220 -524 422 -796 506 -360 112
-673 106 -1056 -21 -98 -32 -129 -47 -134 -62 -7 -20 -7 -20 -14 -1 -4 11 -13
90 -19 175 -50 676 -101 995 -212 1318 -127 368 -360 677 -704 933 -356 264
-911 543 -1570 789 -811 303 -1986 608 -2960 769 -376 62 -849 130 -930 133
-23 1 -30 5 -23 12 31 36 210 338 263 444 239 479 287 959 143 1412 -112 351
-399 646 -763 783 -230 87 -598 135 -835 110z m408 -238 c329 -43 548 -140
733 -324 213 -212 312 -483 313 -856 1 -274 -43 -454 -179 -730 -159 -325
-329 -542 -785 -1005 -220 -223 -299 -319 -350 -425 -63 -130 -84 -226 -84
-390 0 -160 10 -209 95 -448 169 -474 199 -585 214 -782 16 -206 -62 -457
-203 -654 -137 -194 -414 -424 -701 -585 -246 -137 -612 -258 -986 -325 -313
-56 -819 -73 -1115 -38 -476 57 -888 187 -1137 359 -156 108 -215 242 -173
393 16 58 89 139 134 151 18 4 100 -2 200 -16 194 -26 295 -23 435 10 166 40
274 119 332 244 59 127 47 265 -41 441 -67 136 -151 237 -343 413 -239 220
-383 373 -459 487 -167 251 -238 487 -238 792 0 520 196 993 625 1508 374 449
976 923 1570 1236 392 207 870 387 1270 478 329 75 631 98 873 66z m392 -3285
c373 -48 1062 -169 1455 -256 281 -62 1065 -259 1195 -299 214 -66 596 -195
805 -270 571 -207 1130 -482 1490 -732 50 -34 118 -82 152 -105 34 -24 58 -45
53 -46 -6 -2 -40 18 -78 45 -118 84 -187 126 -204 125 -10 0 -23 8 -28 18 -6
11 -16 17 -24 14 -7 -3 -23 7 -34 21 -11 14 -23 26 -26 26 -24 -3 -38 3 -84
33 -28 19 -52 32 -52 29 0 -3 -6 0 -14 6 -15 13 -116 41 -146 41 -11 0 -20 3
-20 8 0 4 -12 8 -27 8 -16 1 -55 4 -88 7 -63 5 -95 -4 -95 -28 0 -8 -5 -15
-11 -15 -6 0 -4 -7 5 -15 8 -8 18 -15 23 -15 5 0 33 -25 63 -55 30 -30 60 -55
66 -55 7 0 43 -30 80 -66 38 -36 102 -93 142 -127 39 -34 72 -65 72 -69 0 -4
6 -8 13 -8 8 0 24 -11 37 -25 13 -14 28 -25 33 -25 8 0 76 -61 146 -131 72
-72 154 -196 190 -289 50 -126 74 -227 66 -279 -7 -47 -8 -203 -1 -256 2 -16
-1 -41 -6 -55 -13 -33 -26 -112 -33 -206 -5 -56 -13 -84 -31 -111 -13 -20 -24
-40 -24 -45 0 -20 -57 -87 -154 -181 -61 -60 -104 -110 -111 -130 -12 -37 -77
-85 -270 -198 -66 -39 -127 -74 -135 -79 -8 -5 -44 -26 -80 -47 -36 -20 -74
-43 -85 -51 -19 -13 -19 -14 5 -6 22 6 23 5 11 -10 -10 -11 -10 -16 -1 -16 6
0 27 18 46 39 24 26 41 37 53 34 12 -3 28 6 44 23 17 18 32 25 46 21 14 -3 25
2 35 18 9 13 30 25 51 29 21 4 34 10 31 13 -6 7 57 53 73 53 5 0 22 10 38 23
43 34 73 48 85 41 6 -4 8 -3 5 3 -8 13 51 51 88 57 13 3 39 15 57 29 49 36 59
40 52 23 -16 -42 -591 -384 -849 -504 -318 -149 -394 -181 -735 -317 -514
-204 -510 -203 -1080 -369 -472 -138 -728 -200 -1300 -316 -685 -140 -991
-189 -1590 -259 -537 -62 -705 -76 -1385 -113 -319 -17 -1427 -18 -1665 0 -96
7 -249 17 -340 23 -442 28 -1177 113 -1679 195 -347 56 -649 117 -1056 211
-132 30 -285 66 -340 78 -285 66 -688 173 -718 192 -6 3 -22 7 -36 8 -13 0
-26 6 -28 12 -3 7 -10 10 -17 7 -7 -3 -23 0 -37 5 -21 8 -19 9 14 7 21 -2 40
-6 44 -10 10 -9 25 -7 19 3 -3 5 6 12 21 16 21 5 24 8 13 15 -8 5 -25 7 -37 3
-13 -3 -23 -1 -23 4 0 11 -66 33 -99 33 -11 0 -21 5 -21 11 0 5 -5 7 -10 4 -6
-4 -17 -1 -25 5 -8 7 -15 9 -15 5 0 -4 -7 -2 -15 5 -10 9 -32 10 -72 5 -55 -7
-56 -8 -33 -21 27 -14 19 -18 -17 -8 -13 4 -21 10 -18 14 2 4 -8 7 -23 8 -40
0 -85 13 -103 28 -9 8 -18 11 -21 8 -10 -9 -118 29 -111 39 3 6 1 7 -6 3 -6
-4 -55 7 -109 25 -102 33 -135 51 -89 47 15 -1 27 -6 27 -10 0 -4 8 -8 18 -8
10 0 24 -6 32 -12 8 -7 6 -3 -4 9 l-19 23 49 -17 c55 -18 244 -25 256 -8 4 5
15 2 27 -9 11 -10 25 -15 30 -11 6 3 11 1 11 -6 0 -8 4 -8 15 1 17 14 20 50 5
50 -5 0 -10 5 -10 10 0 14 -62 69 -77 70 -7 0 -17 9 -23 20 -6 11 -21 20 -35
20 -15 0 -26 7 -30 20 -4 11 -10 18 -15 15 -4 -2 -20 5 -36 17 -15 12 -41 29
-58 38 -19 9 -30 22 -28 32 1 10 -6 19 -20 23 -13 4 -53 22 -89 40 -36 18 -79
36 -96 39 -18 4 -37 13 -43 21 -6 7 -23 16 -37 20 -15 3 -38 15 -51 26 -14 10
-32 19 -42 19 -30 0 -269 97 -288 117 -7 8 -7 9 0 3 7 -6 19 -10 27 -10 26 0
-3 21 -35 24 -16 2 -32 4 -36 5 -4 0 -5 8 -2 16 6 16 -2 18 -49 15 -21 -1 -37
8 -62 35 -18 21 -38 34 -44 31 -5 -4 -27 3 -48 14 -21 11 -45 20 -53 20 -9 0
-21 5 -28 12 -7 7 -12 8 -12 4 0 -5 -12 -1 -26 9 -15 9 -23 12 -19 5 4 -7 -5
-4 -21 6 -15 11 -25 13 -21 7 5 -7 4 -13 -2 -13 -5 0 -13 5 -17 11 -3 6 -16 8
-27 5 -15 -4 -30 5 -54 29 -36 37 -60 43 -82 23 -10 -11 -11 -9 -5 5 3 10 2
17 -3 15 -13 -4 -73 58 -73 76 0 8 -10 21 -22 27 -13 7 -27 18 -31 26 -5 7
-13 10 -19 7 -6 -4 -8 -3 -5 3 8 13 -12 73 -30 91 -7 7 -13 21 -13 30 0 9 -16
37 -35 61 -19 24 -35 47 -35 52 0 4 -35 52 -78 106 -93 116 -148 196 -191 278
-18 33 -36 67 -41 75 -127 220 -186 554 -129 737 11 38 26 77 32 88 5 11 11
29 13 40 1 11 5 33 9 49 6 21 5 27 -4 22 -8 -6 -8 -1 0 18 7 14 16 23 21 20 5
-4 8 2 7 12 -2 11 8 32 21 48 53 63 142 146 157 146 8 0 30 12 48 28 69 58 75
62 93 62 5 0 17 8 28 19 28 26 102 72 123 76 27 5 214 105 249 133 139 112
212 150 431 226 224 78 232 81 381 125 239 70 460 154 460 174 0 5 -6 5 -12 1
-10 -5 -10 -4 -1 6 9 10 9 18 1 33 -9 17 -8 19 10 15 12 -3 22 -2 24 4 4 12
86 30 100 22 6 -4 8 -3 5 3 -4 6 3 13 16 16 12 2 60 16 107 30 564 168 1274
328 1960 442 465 77 761 117 1065 145 66 6 136 13 156 16 l35 5 12 -153 c13
-165 37 -270 98 -435 95 -258 271 -493 580 -775 183 -166 265 -252 326 -343
60 -89 83 -141 65 -151 -6 -4 -9 -4 -5 0 3 4 0 15 -9 24 -8 9 -27 36 -43 58
-36 52 -89 78 -270 132 -275 82 -523 123 -750 125 -108 0 -136 -3 -212 -27
-88 -27 -119 -46 -76 -46 13 -1 37 -7 53 -15 17 -8 21 -13 10 -11 -11 2 -42 9
-70 15 -93 19 -280 33 -360 26 -114 -9 -242 -41 -300 -74 -48 -27 -86 -74 -72
-87 4 -4 66 -2 139 5 260 22 354 15 638 -51 207 -47 387 -105 471 -149 34 -18
80 -55 105 -83 46 -51 79 -104 71 -112 -2 -2 -30 -11 -61 -19 -150 -39 -248
-120 -319 -263 -42 -85 -42 -86 -42 -196 1 -89 5 -124 24 -176 92 -261 368
-453 851 -590 256 -72 503 -116 805 -141 175 -14 602 -6 775 15 738 91 1282
301 1749 674 91 73 98 76 204 103 169 43 487 96 747 124 297 32 333 37 337 52
2 6 -8 20 -23 30 -26 17 -57 18 -389 17 -283 0 -381 -4 -460 -16 -55 -9 -108
-20 -118 -23 -29 -12 -20 8 37 79 98 123 187 338 221 532 19 110 19 291 0 419
-22 144 -55 258 -155 531 -152 416 -174 550 -116 719 31 90 83 190 129 249
l31 39 90 -7 c50 -4 161 -15 246 -26z m-8460 -700 c0 -5 -2 -10 -4 -10 -3 0
-8 5 -11 10 -3 6 -1 10 4 10 6 0 11 -4 11 -10z m-33 -6 c-3 -3 -12 -4 -19 -1
-8 3 -5 6 6 6 11 1 17 -2 13 -5z m-167 -54 c-8 -5 -22 -9 -30 -9 -10 0 -8 3 5
9 27 12 43 12 25 0z m-60 -19 c-8 -5 -28 -11 -45 -14 l-30 -6 30 14 c34 16 72
21 45 6z m-155 -51 c-27 -12 -43 -12 -25 0 8 5 22 9 30 9 10 0 8 -3 -5 -9z
m-108 -36 c-3 -3 -12 -4 -19 -1 -8 3 -5 6 6 6 11 1 17 -2 13 -5z m-1497 -684
c0 -5 -5 -10 -11 -10 -5 0 -7 5 -4 10 3 6 8 10 11 10 2 0 4 -4 4 -10z m-40
-25 c0 -8 -91 -67 -96 -62 -3 3 8 13 25 23 17 10 31 22 31 25 0 4 8 10 18 12
9 3 18 5 20 6 1 0 2 -1 2 -4z m5433 -62 c-7 -2 -19 -2 -25 0 -7 3 -2 5 12 5
14 0 19 -2 13 -5z m-5549 -18 c-3 -8 -14 -17 -25 -20 -11 -4 -36 -26 -56 -51
-21 -24 -43 -44 -51 -44 -7 0 -10 -4 -7 -10 4 -6 -1 -7 -11 -3 -13 5 -16 2
-12 -9 4 -10 -8 -24 -40 -44 -49 -30 -216 -195 -265 -261 -93 -124 -117 -159
-117 -169 0 -21 -27 -64 -35 -56 -5 4 -6 3 -3 -3 9 -18 -16 -168 -29 -173 -9
-2 -13 7 -13 26 0 40 11 93 19 88 3 -2 7 11 8 29 5 109 183 352 372 509 69 58
262 206 268 206 1 0 0 -7 -3 -15z m5621 5 c13 -6 15 -9 5 -9 -8 0 -22 4 -30 9
-18 12 -2 12 25 0z m82 -26 c-3 -3 -12 -4 -19 -1 -8 3 -5 6 6 6 11 1 17 -2 13
-5z m10124 -61 c13 -17 13 -17 -6 -3 -11 8 -22 16 -24 17 -2 2 0 3 6 3 6 0 17
-8 24 -17z m-9520 -390 c16 -10 29 -21 29 -25 0 -5 10 -13 23 -19 17 -7 10 -8
-28 -4 -54 6 -59 9 -70 43 -8 27 6 29 46 5z m9947 -112 c53 -101 82 -202 82
-285 0 -36 -4 -66 -8 -66 -5 0 -7 -15 -5 -32 2 -23 -1 -17 -11 17 -8 28 -17
84 -21 125 -4 41 -14 91 -22 110 -8 19 -16 51 -18 71 -2 21 -20 68 -40 105
-27 50 -32 64 -17 50 12 -10 39 -52 60 -95z m-9665 62 c-7 -2 -21 -2 -30 0
-10 3 -4 5 12 5 17 0 24 -2 18 -5z m-7219 -504 c9 -29 14 -54 12 -56 -11 -11
-37 89 -41 155 l-4 77 9 -61 c5 -34 16 -85 24 -115z m16926 -46 c-11 -17 -11
-17 -6 0 3 10 6 24 7 30 0 9 2 9 5 0 3 -7 0 -20 -6 -30z m-17 -53 c-3 -10 -12
-25 -21 -32 -13 -11 -12 -8 2 20 19 36 27 41 19 12z m-48 -91 c-9 -17 -19 -28
-22 -25 -6 6 23 56 32 56 3 0 -2 -14 -10 -31z m-45 -69 c-27 -39 -34 -39 -12
0 9 16 21 30 25 30 5 0 -1 -13 -13 -30z m-16649 -57 c13 -16 12 -17 -3 -4 -10
7 -18 15 -18 17 0 8 8 3 21 -13z m40 -50 c13 -16 12 -17 -3 -4 -10 7 -18 15
-18 17 0 8 8 3 21 -13z m44 -43 c0 -6 4 -10 8 -9 5 0 27 -17 51 -38 78 -70
111 -98 114 -95 6 6 162 -153 162 -165 0 -7 5 -13 10 -13 6 0 10 -5 10 -11 0
-14 -62 35 -144 115 -36 34 -62 58 -59 52 3 -6 -33 27 -80 73 -48 47 -84 87
-82 90 3 2 -1 11 -7 20 -10 14 -10 14 2 3 8 -7 15 -17 15 -22z m399 -337 c3
-8 10 -12 15 -9 13 9 44 -31 35 -46 -4 -7 -3 -10 1 -5 5 4 18 -2 29 -12 12
-11 26 -21 31 -23 6 -2 9 -7 7 -11 -1 -4 5 -7 15 -5 10 2 19 -5 21 -16 3 -14
-20 -2 -89 46 -51 35 -93 71 -95 80 -2 19 23 20 30 1z m216 -175 c0 -5 -11 -1
-25 8 -14 9 -25 18 -25 20 0 2 11 -2 25 -8 14 -6 25 -15 25 -20z m18200 -6
c349 -82 617 -269 882 -617 109 -143 240 -401 306 -600 97 -292 145 -679 123
-990 -53 -726 -288 -1369 -766 -2095 -380 -578 -1037 -1305 -1640 -1816 -290
-246 -572 -459 -787 -594 -114 -71 -315 -177 -396 -209 l-52 -21 109 213 c60
116 159 329 221 472 61 143 117 275 125 293 10 21 22 32 36 32 16 0 19 -4 14
-17 -4 -10 -13 -38 -20 -63 -7 -25 -19 -62 -28 -82 -9 -21 -12 -38 -8 -38 11
0 64 119 67 150 1 14 2 32 3 41 0 10 36 38 79 65 412 255 566 398 996 924 186
227 249 312 350 474 202 323 347 591 446 821 262 610 361 1304 260 1820 -72
368 -258 623 -519 710 -89 29 -243 45 -341 35 -53 -5 -67 -3 -78 9 -11 14 -11
14 -6 -1 5 -14 1 -18 -15 -18 -33 0 -224 -47 -307 -76 -42 -14 -77 -24 -78
-22 -2 1 1 46 5 98 12 139 29 600 29 787 l0 162 33 17 c47 25 263 103 330 120
191 48 460 55 627 16z m-18142 -31 c3 -8 -5 -7 -22 4 -32 21 -33 27 -4 16 12
-4 24 -14 26 -20z m52 -37 c0 -2 -9 0 -20 6 -11 6 -20 13 -20 16 0 2 9 0 20
-6 11 -6 20 -13 20 -16z m200 -120 c0 -2 -9 0 -20 6 -11 6 -20 13 -20 16 0 2
9 0 20 -6 11 -6 20 -13 20 -16z m785 -372 c-3 -3 -11 0 -18 7 -9 10 -8 11 6 5
10 -3 15 -9 12 -12z m150 -52 c8 -13 -5 -13 -25 0 -13 8 -13 10 2 10 9 0 20
-4 23 -10z m90 -48 c-3 -3 -11 0 -18 7 -9 10 -8 11 6 5 10 -3 15 -9 12 -12z
m320 -112 c8 -13 -5 -13 -25 0 -13 8 -13 10 2 10 9 0 20 -4 23 -10z m50 -20
c8 -13 -5 -13 -25 0 -13 8 -13 10 2 10 9 0 20 -4 23 -10z m591 -177 c-3 -4 4
-13 16 -20 14 -8 17 -12 8 -12 -23 -1 -43 15 -36 28 4 6 10 11 13 11 4 0 3 -3
-1 -7z m79 -43 c13 -6 15 -9 5 -9 -8 0 -22 4 -30 9 -18 12 -2 12 25 0z m15520
-500 c27 -8 61 -34 106 -80 55 -56 72 -81 97 -146 117 -307 96 -835 -54 -1356
-155 -537 -577 -1254 -1053 -1788 -125 -140 -352 -369 -417 -421 -62 -49 -104
-67 -71 -31 28 30 45 84 101 309 287 1145 439 2056 516 3083 5 74 13 161 16
193 l6 57 67 0 c66 0 70 2 162 61 115 75 184 107 269 125 73 15 194 12 255 -6z
m-6261 -9095 c-36 -33 -330 -228 -489 -325 -245 -150 -753 -377 -1125 -503
-159 -54 -507 -152 -734 -207 -574 -138 -939 -179 -1648 -187 -432 -5 -638 2
-873 28 -356 40 -764 118 -1152 220 -655 172 -1323 465 -1828 802 -215 143
-214 142 -100 96 55 -22 145 -53 200 -69 55 -16 134 -41 175 -55 100 -34 586
-157 835 -210 66 -14 139 -30 163 -35 579 -135 1386 -216 2260 -227 1093 -14
2215 114 3274 372 303 74 785 221 978 299 47 19 87 33 89 31 2 -2 -10 -16 -25
-30z"/>
<path d="M7007 15310 c-34 -27 -35 -58 -3 -66 39 -10 68 12 64 49 -4 39 -25
45 -61 17z"/>
<path d="M6427 15232 c-10 -10 -17 -24 -17 -30 0 -18 45 -43 64 -36 23 9 21
61 -3 74 -25 13 -25 13 -44 -8z"/>
<path d="M14952 14568 c-28 -28 -7 -78 34 -78 50 0 56 62 7 81 -30 11 -27 11
-41 -3z"/>
<path d="M15462 14318 c-21 -21 -13 -47 18 -63 72 -37 109 -1 49 49 -34 29
-49 32 -67 14z"/>
<path d="M18727 14199 c-19 -41 -71 -134 -116 -206 -45 -73 -90 -151 -101
-175 -17 -38 -17 -43 -4 -46 22 -5 58 31 114 113 54 80 94 155 114 217 18 52
38 160 31 166 -2 3 -19 -29 -38 -69z"/>
<path d="M4677 13199 c7 -7 15 -10 18 -7 3 3 -2 9 -12 12 -14 6 -15 5 -6 -5z"/>
<path d="M2775 13970 c10 -11 20 -20 23 -20 3 0 -3 9 -13 20 -10 11 -20 20
-23 20 -3 0 3 -9 13 -20z"/>
<path d="M2810 13936 c0 -2 8 -10 18 -17 15 -13 16 -12 3 4 -13 16 -21 21 -21
13z"/>
<path d="M2850 13896 c0 -2 8 -10 18 -17 15 -13 16 -12 3 4 -13 16 -21 21 -21
13z"/>
<path d="M20873 13140 c0 -25 2 -35 4 -22 2 12 2 32 0 45 -2 12 -4 2 -4 -23z"/>
<path d="M20912 12715 c0 -16 2 -22 5 -12 2 9 2 23 0 30 -3 6 -5 -1 -5 -18z"/>
<path d="M20922 12595 c0 -16 2 -22 5 -12 2 9 2 23 0 30 -3 6 -5 -1 -5 -18z"/>
<path d="M20325 7938 l-40 -43 43 40 c39 36 47 45 39 45 -2 0 -21 -19 -42 -42z"/>
<path d="M20238 7748 c-68 -81 -148 -198 -135 -198 8 0 188 242 184 247 -3 2
-25 -20 -49 -49z"/>
<path d="M19772 7361 c-17 -27 -62 -114 -100 -193 -39 -78 -88 -170 -109 -203
-49 -75 -102 -137 -113 -130 -4 3 -13 -1 -19 -9 -9 -11 -8 -15 5 -20 10 -4 23
3 38 21 11 15 38 47 58 71 50 57 107 155 162 277 25 55 61 130 81 168 41 79
40 88 -3 18z"/>
<path d="M19415 6790 c-3 -5 -2 -10 4 -10 5 0 13 5 16 10 3 6 2 10 -4 10 -5 0
-13 -4 -16 -10z"/>
<path d="M7274 2675 c11 -8 24 -15 30 -15 5 0 1 7 -10 15 -10 8 -23 14 -29 14
-5 0 -1 -6 9 -14z"/>
<path d="M8763 2303 c9 -2 23 -2 30 0 6 3 -1 5 -18 5 -16 0 -22 -2 -12 -5z"/>
<path d="M8480 2118 c14 -6 48 -21 75 -34 44 -19 177 -62 369 -119 71 -21 326
-85 338 -85 4 0 8 3 8 8 0 4 -30 15 -67 26 -209 56 -330 91 -518 151 -93 29
-183 56 -200 59 -29 5 -29 5 -5 -6z"/>
<path d="M9284 1878 c-3 -4 2 -8 10 -8 8 0 17 4 20 8 3 5 -2 9 -10 9 -8 0 -17
-4 -20 -9z"/>
<path d="M15387 20176 c-88 -33 -144 -102 -173 -216 -35 -136 20 -270 137
-335 49 -27 62 -30 144 -30 72 1 98 5 131 23 53 27 97 71 132 130 24 42 27 56
27 142 0 83 -3 100 -25 134 -68 111 -142 157 -260 163 -48 2 -89 -2 -113 -11z
m195 -236 c29 -35 23 -77 -16 -116 -46 -46 -93 -47 -130 -3 -14 17 -26 39 -26
50 0 27 26 76 47 89 29 17 105 5 125 -20z"/>
<path d="M7000 8090 c-385 -40 -723 -205 -1016 -495 -123 -122 -159 -178 -158
-251 1 -60 41 -141 88 -181 27 -22 35 -24 85 -18 127 15 134 19 276 155 141
134 220 193 350 258 178 88 334 125 535 124 185 0 350 -41 535 -134 145 -73
215 -127 355 -269 168 -172 217 -198 320 -169 43 12 103 71 125 122 19 46 19
118 1 161 -19 44 -80 111 -215 235 -190 173 -341 273 -521 346 -232 93 -534
139 -760 116z"/>
<path d="M15295 8094 c-168 -16 -331 -52 -467 -100 -85 -31 -249 -112 -328
-162 -85 -53 -235 -176 -341 -279 -131 -127 -172 -207 -150 -291 23 -85 83
-139 169 -152 88 -14 113 1 272 154 155 151 239 212 390 287 187 93 354 133
550 133 364 -1 664 -145 906 -436 59 -70 71 -80 121 -94 35 -10 78 -15 115
-12 52 4 63 9 98 43 76 74 88 177 31 266 -40 64 -159 188 -265 276 -225 189
-454 297 -727 342 -125 20 -300 32 -374 25z"/>
<path d="M3404 6977 c-21 -55 193 -488 377 -763 236 -353 650 -751 1199 -1155
882 -648 1847 -1123 2748 -1355 162 -42 164 -42 160 -7 -3 24 -23 34 -283 144
-384 162 -1132 534 -1527 761 -330 188 -748 458 -1038 668 -691 502 -1128 955
-1456 1509 -72 122 -142 211 -165 211 -6 0 -12 -6 -15 -13z"/>
<path d="M18614 6638 c-4 -7 -14 -24 -22 -38 -14 -24 -13 -24 3 -5 20 24 37
55 31 55 -3 0 -8 -6 -12 -12z"/>
<path d="M18627 6535 c-25 -41 -41 -75 -36 -75 5 0 13 8 16 18 4 9 15 26 25
36 9 10 15 23 12 28 -3 4 -1 8 5 8 5 0 13 10 17 23 4 12 12 25 18 29 8 6 8 8
0 8 -6 0 -32 -34 -57 -75z"/>
<path d="M18564 6558 c-4 -7 -14 -24 -22 -38 -14 -24 -13 -24 3 -5 20 24 37
55 31 55 -3 0 -8 -6 -12 -12z"/>
<path d="M8932 6434 c-45 -23 -100 -90 -108 -131 -17 -91 126 -301 376 -553
337 -341 736 -571 1246 -720 644 -188 1320 -173 1929 45 257 91 585 272 785
432 319 255 634 672 605 802 -16 73 -126 151 -195 138 -52 -11 -77 -36 -169
-170 -212 -310 -448 -521 -816 -725 -387 -215 -981 -342 -1420 -303 -681 61
-1217 288 -1700 718 -73 65 -188 197 -302 348 -37 49 -81 97 -98 106 -47 27
-95 32 -133 13z"/>
<path d="M18532 6380 c-17 -27 -27 -50 -23 -50 5 0 20 17 32 38 13 20 27 43
32 50 4 6 4 12 -1 12 -5 0 -23 -22 -40 -50z"/>
<path d="M18439 6238 c-71 -106 -74 -112 -60 -104 22 14 130 186 117 186 -1 0
-27 -37 -57 -82z"/>
<path d="M18320 6194 c-44 -64 -92 -132 -107 -150 -14 -19 -23 -34 -20 -34 2
0 22 24 44 53 63 84 175 247 170 247 -3 0 -42 -52 -87 -116z"/>
<path d="M18350 6105 c-8 -9 -8 -15 -2 -15 12 0 26 19 19 26 -2 2 -10 -2 -17
-11z"/>
<path d="M18312 6049 c-19 -30 -8 -34 12 -4 9 14 13 25 9 25 -5 0 -14 -9 -21
-21z"/>
<path d="M18275 6000 c-3 -5 -2 -10 4 -10 5 0 13 5 16 10 3 6 2 10 -4 10 -5 0
-13 -4 -16 -10z"/>
<path d="M18136 5938 c-26 -35 -33 -47 -16 -28 36 40 73 90 67 90 -2 0 -25
-28 -51 -62z"/>
<path d="M17464 5933 c-102 -167 -240 -334 -362 -439 -407 -348 -910 -636
-1537 -879 -502 -196 -1219 -393 -1850 -509 -238 -44 -682 -115 -850 -135
-399 -50 -1073 -101 -1322 -101 -110 0 -194 -4 -198 -9 -25 -41 905 -59 1455
-28 891 51 1634 192 2462 467 590 196 1164 473 1538 742 211 152 452 382 558
533 121 172 190 324 166 363 -18 27 -41 25 -60 -5z"/>
<path d="M18235 5932 c-13 -9 -57 -72 -51 -72 2 0 19 18 36 40 31 39 35 47 15
32z"/>
<path d="M18069 5853 c-13 -16 -12 -17 4 -4 9 7 17 15 17 17 0 8 -8 3 -21 -13z"/>
<path d="M18039 5813 c-13 -16 -12 -17 4 -4 9 7 17 15 17 17 0 8 -8 3 -21 -13z"/>
<path d="M8018 3712 c-43 -9 -7 -34 150 -106 92 -42 170 -76 175 -76 37 0 -51
92 -121 125 -64 31 -178 63 -204 57z"/>
</g>
</svg>
