<?xml version="1.0" encoding="utf-8"?><!-- Uploaded to: SVG Repo, www.svgrepo.com, Generator: SVG Repo Mixer Tools -->
<svg width="800px" height="800px" viewBox="0 0 960 960" fill="none" xmlns="http://www.w3.org/2000/svg">
<path d="M293.965 286.091C210.141 262.623 238.254 139.565 314.917 128.016C380.449 112.669 418.195 184.515 395.11 240.544C518.639 213.303 680.562 247.034 732.087 375.173C804.084 523.422 748.494 717.422 593.47 785.885C268.903 921.855 4.75628 508.761 293.965 286.091ZM484.332 261.675C292.204 249.063 139.491 457.918 225.879 630.745C274.033 718.614 367.807 781.276 469.491 780.071C582.958 779.98 674.808 710.099 715.137 605.701C745.561 533.549 735.858 450.751 702.475 381.447C669.225 296.695 561.52 264.441 484.332 261.675ZM315.795 249.189C316.045 249.884 316.295 250.578 316.545 251.273C356.752 235.626 373.588 242.093 368.243 190.477C358.852 136.342 284.979 160.25 280.372 204.959C276.209 226.442 285.848 250.001 315.795 249.189Z" fill="#000000"/>
<path d="M677.669 69.7786C664.06 114.962 648.516 161.242 630.574 205.053C620.647 225.743 589.836 214.468 596.124 192.362C607.682 149.947 620.095 107.76 632.129 65.4736C637.943 37.7966 677.672 36.2546 677.669 69.7786Z" fill="#000000"/>
<path d="M181.539 891.078C193.991 859.305 215.948 829.591 232.185 799.296C252.145 764.106 295.249 792.074 271.136 824.665C257.541 846.858 243.957 869.061 230.089 891.083C222.252 903.915 210.495 921.563 193.251 912.572C185.46 908.798 181.676 902.346 181.539 891.078Z" fill="#000000"/>
<path d="M892.039 681.218C865.333 675.261 838.167 665.46 811.76 657.662C806.603 656.023 801.38 653.24 797.362 649.663C782.057 637.55 792.48 610.263 811.973 611.011C816.962 610.95 822.132 611.532 826.935 612.858C853.543 621.283 881.818 626.083 907.229 637.627C929.363 651.222 919.917 683.259 892.039 681.218Z" fill="#000000"/>
<path d="M823.291 284.885C819.453 290.827 816.849 298.431 811.532 302.381C795.502 312.479 779.81 326.427 761.139 330.873C743.521 333.89 730.528 311.717 742.106 297.969C753.683 285.388 769.497 277.196 783.059 266.876C798.968 254.417 820.691 264.352 823.291 284.885Z" fill="#000000"/>
<path d="M79.6597 519.837C63.0817 520.953 41.4147 520.587 40.5047 499.081C40.2727 488.195 48.7047 478.017 59.7747 477.477C80.1267 478.108 119.267 469.09 120.414 498.877C120.126 520.04 96.2947 521.107 79.6587 519.811C79.6597 519.82 79.6597 519.829 79.6597 519.837Z" fill="#000000"/>
<path d="M579.123 847.038C597.003 846.25 602.703 866.372 603.848 881.136C604.893 891.382 598.439 900.467 589.117 903.216C567.676 909.716 559.706 883.698 558.734 867.013C558.035 855.895 568.034 847.14 579.123 847.038Z" fill="#000000"/>
<path d="M484.332 261.676C561.5 264.427 669.252 296.698 702.474 381.449C735.864 450.747 745.559 533.553 715.142 605.706C674.804 710.061 582.95 780.024 469.489 780.068C367.814 781.298 274.022 718.602 225.878 630.74C139.536 457.893 292.171 249.089 484.332 261.676ZM470.43 284.33C199.589 295.268 142.491 588.619 359.64 731.289C402.257 761.727 453.43 768.354 504.387 762.266C532.516 759.888 560.277 752.63 583.56 735.96C785.091 600.701 741.835 278.81 470.43 284.33Z" fill="white"/>
<path d="M470.431 284.331C741.827 278.838 785.113 600.72 583.554 735.963C560.278 752.63 532.516 759.888 504.387 762.27C453.432 768.318 402.253 761.765 359.638 731.285C142.435 588.559 199.678 295.225 470.431 284.331ZM648.208 408.651C595.258 319.932 471.467 308.508 401.521 333.919C406.394 349.405 428.598 374.828 408.478 386.563C387.725 395.74 377.397 360.279 366.445 347.702C274.508 394.896 230.82 499.896 292.195 595.571C306.334 589.192 330.453 566.23 343.137 582.876C347.987 589.836 346.587 597.66 337.839 605.644C329.414 613.333 321.539 622.309 308.538 622.777C365.74 711.694 460.929 743.991 540.444 705.169C536.817 697.96 532.979 690.85 529.62 683.522C520.022 663.249 548.437 647.463 560.231 666.501C565.134 676.899 567.616 688.119 571.56 699.127C645.376 646.912 696.9 527.483 661.963 438.237C648.883 443.41 629.999 458.323 618.985 442.665C606.28 422.579 633.277 413.908 648.208 408.651Z" fill="#000000"/>
<path d="M648.207 408.651C633.289 413.893 606.267 422.593 618.984 442.666C630.012 458.322 648.864 443.409 661.961 438.237C696.898 527.483 645.374 646.911 571.558 699.127C567.615 688.12 565.132 676.898 560.229 666.5C548.435 647.465 520.016 663.251 529.618 683.523C532.977 690.851 536.815 697.961 540.442 705.17C460.928 743.992 365.738 711.696 308.536 622.778C321.537 622.31 329.412 613.334 337.837 605.645C346.585 597.661 347.985 589.837 343.135 582.878C330.425 566.236 306.363 589.185 292.198 595.582C230.817 499.897 274.505 394.897 366.442 347.703C377.381 360.264 387.725 395.741 408.472 386.565C428.595 374.805 406.39 349.437 401.518 333.92C471.466 308.509 595.257 319.933 648.207 408.651ZM402.25 577.359C401.421 577.368 400.592 577.377 399.763 577.386C400.502 610.94 402.281 644.502 402.317 678.06C402.538 694.007 421.218 695.233 428.002 682.482C447.78 655.559 467.448 628.553 487.031 601.486C502.764 579.434 522.18 557.699 526.565 530.151C534.799 475.375 540.677 420.217 543.785 364.897C545.946 348.582 525.658 341.363 515.902 354.233C482.003 394.778 445.741 433.52 413.942 475.765C393.635 505.163 404.963 543.813 402.25 577.359Z" fill="white"/>
<path d="M402.252 577.359C404.956 543.819 393.645 505.159 413.943 475.766C445.745 433.52 482.006 394.779 515.905 354.232C525.586 341.513 545.998 348.421 543.789 364.898C540.681 420.217 534.803 475.375 526.569 530.151C522.18 557.704 502.769 579.428 487.035 601.486C467.452 628.553 447.784 655.559 428.006 682.484C421.308 695.036 402.502 694.207 402.319 678.059C402.283 644.502 400.504 610.94 399.766 577.386C400.594 577.377 401.423 577.368 402.252 577.359ZM435.549 491.842C458.791 504.349 479.941 515.731 502.392 527.813C507.506 483.226 512.37 440.827 517.354 397.372C489.975 428.991 463.419 459.658 435.549 491.842ZM426.039 640.253C448.443 610.451 470.517 581.09 492.532 551.805C471.413 541.148 451.275 530.986 430.417 520.461C428.962 560.28 427.516 599.848 426.039 640.253Z" fill="#000000"/>
<path d="M435.547 491.841C463.416 459.657 489.972 428.99 517.352 397.371C512.368 440.825 507.504 483.224 502.39 527.812C479.939 515.73 458.789 504.348 435.547 491.841Z" fill="white"/>
<path d="M426.039 640.25C427.516 599.845 428.962 560.277 430.417 520.457C451.275 530.982 471.414 541.145 492.532 551.801C470.516 581.087 448.443 610.448 426.039 640.25Z" fill="white"/>
</svg>