<?xml version="1.0" standalone="no"?>
<!DOCTYPE svg PUBLIC "-//W3C//DTD SVG 20010904//EN"
 "http://www.w3.org/TR/2001/REC-SVG-20010904/DTD/svg10.dtd">
<svg version="1.0" xmlns="http://www.w3.org/2000/svg"
 width="358.000000pt" height="800.000000pt" viewBox="0 0 358.000000 800.000000"
 preserveAspectRatio="xMidYMid meet">

<g transform="translate(0.000000,800.000000) scale(0.100000,-0.100000)"
fill="#000000" stroke="none">
<path d="M2108 7230 c-11 -102 -53 -235 -117 -365 -55 -115 -115 -208 -285
-450 -152 -214 -206 -335 -206 -457 0 -65 20 -148 47 -201 21 -41 25 -29 8 28
-18 57 -19 177 -4 243 21 89 106 248 236 442 72 108 153 236 181 285 97 174
157 368 150 486 l-3 54 -7 -65z"/>
<path d="M2361 5544 c0 -11 3 -14 6 -6 3 7 2 16 -1 19 -3 4 -6 -2 -5 -13z"/>
<path d="M2378 5422 c12 -251 -79 -374 -460 -625 -242 -159 -342 -238 -415
-326 -56 -68 -116 -167 -127 -211 -4 -14 10 7 32 47 89 164 206 273 505 471
220 145 320 223 376 293 82 103 119 219 107 334 -12 113 -23 124 -18 17z"/>
<path d="M2485 5400 c37 -216 -9 -355 -205 -620 -251 -341 -309 -463 -310
-646 0 -60 25 -177 51 -242 l14 -33 0 58 c0 53 7 73 64 184 57 114 63 130 60
177 -5 62 13 54 30 -13 14 -57 2 -116 -51 -243 -42 -100 -53 -180 -35 -246 8
-27 7 -28 -9 -15 -10 8 -5 -5 11 -28 15 -24 29 -43 30 -43 6 0 -8 40 -14 45
-4 2 -4 33 0 69 5 52 16 82 53 147 59 105 79 164 72 212 -4 20 -4 37 -1 37 13
0 35 -72 36 -117 l1 -48 10 50 c17 93 58 212 142 417 130 313 140 350 140 543
0 149 -2 166 -27 238 -15 44 -37 95 -48 115 l-20 37 6 -35z m-197 -889 c-3
-38 -2 -39 23 -34 15 3 35 1 45 -5 16 -9 16 -10 -2 -20 -48 -28 -49 -29 -32
-49 16 -18 33 -63 24 -63 -3 0 -20 9 -38 20 l-33 19 -13 -28 c-21 -47 -42 -48
-42 -1 0 38 -1 39 -29 34 -16 -3 -37 -2 -46 3 -15 9 -12 13 18 32 36 22 36 22
16 42 -10 10 -19 28 -19 40 l0 21 36 -21 c41 -25 44 -25 44 -8 0 17 29 57 42
57 6 0 9 -16 6 -39z"/>
<path d="M2232 4433 c2 -10 13 -19 25 -21 17 -3 20 1 16 17 -7 26 -46 29 -41
4z"/>
<path d="M2605 5190 c3 -14 8 -70 11 -125 11 -173 -16 -284 -156 -640 -121
-308 -152 -457 -130 -623 17 -128 80 -299 135 -367 9 -11 0 12 -18 50 -82 167
-117 349 -98 507 15 129 47 232 147 473 91 219 128 342 139 465 7 76 -7 222
-26 263 -9 21 -9 20 -4 -3z"/>
<path d="M1769 4323 c-13 -16 -12 -17 4 -4 9 7 17 15 17 17 0 8 -8 3 -21 -13z"/>
<path d="M1637 4249 c7 -7 15 -10 18 -7 3 3 -2 9 -12 12 -14 6 -15 5 -6 -5z"/>
<path d="M1725 4051 c-3 -5 -1 -12 5 -16 5 -3 10 1 10 9 0 18 -6 21 -15 7z"/>
<path d="M2272 4022 c-1 -7 -22 -64 -47 -126 -49 -124 -55 -177 -32 -263 10
-41 32 -67 166 -203 84 -85 145 -141 135 -125 -164 270 -201 371 -213 595 -4
74 -9 129 -9 122z"/>
<path d="M1741 3994 c0 -11 3 -14 6 -6 3 7 2 16 -1 19 -3 4 -6 -2 -5 -13z"/>
<path d="M1642 3955 c0 -16 2 -22 5 -12 2 9 2 23 0 30 -3 6 -5 -1 -5 -18z"/>
<path d="M1550 3870 c-9 -6 -10 -10 -3 -10 6 0 15 5 18 10 8 12 4 12 -15 0z"/>
<path d="M1508 3863 c7 -3 16 -2 19 1 4 3 -2 6 -13 5 -11 0 -14 -3 -6 -6z"/>
<path d="M1621 3794 c0 -11 3 -14 6 -6 3 7 2 16 -1 19 -3 4 -6 -2 -5 -13z"/>
<path d="M1692 3774 c10 -10 20 -16 22 -13 3 3 -5 11 -17 18 -21 13 -21 12 -5
-5z"/>
<path d="M1784 3768 l-19 -23 23 19 c21 18 27 26 19 26 -2 0 -12 -10 -23 -22z"/>
<path d="M1108 3625 c-14 -289 -118 -501 -454 -926 -323 -407 -408 -549 -471
-787 -21 -80 -26 -119 -26 -227 0 -145 16 -235 65 -373 28 -81 103 -242 112
-242 3 0 -11 39 -30 86 -82 202 -112 446 -80 634 46 264 153 463 470 883 349
462 438 650 435 920 -2 162 -14 180 -21 32z"/>
<path d="M1661 3727 c2 -1 13 -9 24 -17 19 -14 19 -14 6 3 -7 9 -18 17 -24 17
-6 0 -8 -1 -6 -3z"/>
<path d="M1436 3505 c57 -154 71 -250 55 -374 -14 -114 -43 -221 -90 -340 -21
-53 -37 -97 -36 -99 1 -1 15 4 31 13 36 19 61 20 47 3 -6 -7 -16 -31 -23 -53
-7 -22 -17 -46 -23 -52 -7 -10 -2 -13 22 -13 34 0 80 -20 99 -43 9 -11 0 -16
-53 -26 l-64 -13 14 -29 c15 -29 19 -76 9 -103 -4 -11 -15 -4 -45 30 -21 25
-39 50 -39 55 0 5 -17 -8 -38 -31 -22 -23 -52 -43 -70 -46 -28 -6 -42 -26
-165 -243 -176 -311 -216 -385 -272 -511 -54 -121 -110 -284 -120 -352 -7 -46
-7 -47 21 -50 21 -2 30 -9 32 -26 3 -18 -1 -22 -22 -22 -14 0 -30 8 -35 17 -9
15 -10 14 -11 -10 0 -16 4 -26 10 -22 5 3 19 -4 31 -16 26 -26 13 -47 -19 -30
-28 15 -32 14 -32 -9 0 -16 7 -20 30 -20 17 0 30 -5 30 -11 0 -6 -13 -16 -30
-22 -38 -14 -39 -26 -2 -24 33 2 38 -26 5 -31 -27 -4 -28 -18 -8 -95 15 -59
90 -213 81 -166 -3 15 -11 60 -17 102 -10 66 -13 74 -30 70 -11 -3 -19 0 -19
7 0 6 9 14 20 17 33 9 23 23 -11 16 -25 -5 -31 -3 -27 8 2 8 16 15 30 17 25 3
26 6 27 69 0 37 5 91 12 122 13 63 60 174 78 186 7 4 4 -10 -7 -31 -11 -22
-22 -49 -26 -61 -7 -20 -5 -21 23 -10 24 9 34 8 43 -1 17 -17 -19 -43 -54 -39
-21 3 -28 -2 -33 -21 -3 -13 -4 -27 0 -30 3 -3 5 0 5 7 0 14 48 34 61 25 15
-9 -11 -35 -48 -51 -18 -7 -33 -20 -33 -29 0 -13 5 -12 26 5 15 12 33 21 41
21 24 0 -5 -41 -38 -53 -28 -11 -29 -14 -29 -78 0 -79 22 -218 50 -310 17 -59
28 -74 85 -128 177 -165 447 -296 845 -410 57 -17 105 -29 107 -27 2 1 -32 27
-75 56 -268 186 -453 378 -532 554 -39 86 -54 158 -55 253 0 74 -2 82 -17 77
-47 -14 -92 38 -113 130 -11 50 -11 51 19 71 39 26 45 60 15 91 -22 23 -22 24
-5 63 10 21 35 64 56 95 36 56 37 56 52 35 l14 -22 30 22 c32 23 134 45 134
28 0 -20 -143 -248 -153 -244 -6 2 -16 19 -23 38 l-12 34 -7 -28 c-4 -16 -5
-51 -2 -78 5 -37 1 -60 -13 -91 -26 -57 -25 -71 7 -85 15 -7 27 -12 28 -10 1
1 9 31 19 67 23 85 82 211 157 332 33 54 58 102 55 107 -3 5 4 35 15 67 26 74
36 214 19 282 -6 28 -40 99 -75 158 -77 129 -83 149 -56 206 16 35 19 38 20
19 1 -37 35 -81 101 -136 l62 -50 -7 -70 c-8 -77 -2 -82 18 -14 13 43 14 43
26 21 10 -19 9 -33 -4 -79 -19 -64 -15 -77 11 -34 17 29 19 30 26 12 10 -29
-8 -125 -35 -184 -13 -29 -45 -83 -71 -121 -25 -38 -45 -71 -42 -73 2 -2 49
66 105 152 88 134 103 162 106 205 6 66 -7 96 -63 150 -26 25 -55 62 -65 82
-31 66 -28 86 69 448 63 238 58 406 -16 555 -20 40 -24 52 -10 35 39 -49 72
-129 87 -217 21 -118 6 -254 -53 -496 -63 -260 -58 -337 21 -337 41 0 70 35
63 75 -6 31 7 23 29 -18 20 -40 20 -127 -1 -184 -8 -24 -13 -43 -11 -43 9 0
65 121 60 130 -3 4 -14 68 -25 142 -24 159 -44 233 -72 272 -13 18 -16 27 -7
24 8 -2 24 -24 37 -48 19 -38 22 -41 23 -20 1 20 4 17 14 -15 l13 -40 -1 52
c-2 47 1 55 32 85 l34 33 -7 -45 c-4 -24 -4 -41 -1 -38 4 3 10 28 15 55 l8 48
1 -60 c1 -48 -5 -73 -29 -123 -17 -35 -30 -69 -30 -75 0 -13 58 76 76 118 13
29 13 28 15 -35 l1 -65 10 45 c16 77 4 304 -21 395 -44 158 -151 351 -285 513
-93 113 -119 140 -110 117z m251 -343 c54 -87 100 -213 108 -297 l5 -60 -19
80 c-30 127 -82 246 -149 340 -22 31 -27 43 -13 30 12 -10 43 -52 68 -93z
m-486 -1214 c27 -23 41 -47 49 -83 4 -19 6 -35 3 -35 -3 0 -23 16 -44 35 -33
30 -46 35 -88 35 -34 0 -56 -6 -75 -21 -35 -28 -33 -8 4 29 41 42 123 63 151
40z m141 -65 c54 -56 69 -129 47 -218 -10 -41 -13 -43 -57 -50 -26 -4 -66 -15
-89 -25 -40 -18 -41 -17 -46 0 -3 10 2 29 11 41 70 100 90 205 52 280 l-21 40
38 -20 c21 -10 50 -32 65 -48z m-274 -79 c4 -25 -24 -40 -44 -23 -8 6 -14 20
-14 31 0 29 54 21 58 -8z m-173 -174 c-3 -15 2 -20 20 -20 31 0 41 -17 15 -25
-22 -7 -26 -20 -10 -30 6 -3 10 -13 10 -21 0 -12 -4 -13 -21 -3 -21 11 -38 0
-39 -23 0 -5 -4 -8 -10 -8 -5 0 -10 12 -10 26 0 14 -4 23 -10 19 -6 -3 -20 -3
-31 0 l-21 7 21 15 c17 12 19 18 10 34 -13 26 -6 34 18 21 15 -8 22 -6 31 9
16 25 32 24 27 -1z m19 -171 c-22 -36 -44 -49 -44 -24 0 18 48 70 57 62 3 -4
-3 -21 -13 -38z m-58 -35 c-5 -19 -10 -24 -17 -17 -8 8 -7 18 1 33 15 28 24
19 16 -16z m-36 -36 c0 -16 -3 -19 -11 -11 -6 6 -8 16 -5 22 11 17 16 13 16
-11z m80 12 c0 -12 -40 -33 -48 -25 -4 4 2 13 12 21 23 16 36 18 36 4z m-110
-51 c0 -10 -4 -19 -10 -19 -5 0 -10 12 -10 26 0 14 4 23 10 19 6 -3 10 -15 10
-26z m90 1 c0 -12 -40 -34 -47 -26 -9 8 17 36 33 36 8 0 14 -4 14 -10z m-112
-38 c4 -25 -13 -30 -22 -6 -9 25 -7 36 7 32 6 -3 13 -14 15 -26z m-30 -14 c14
-14 16 -58 3 -58 -12 0 -27 20 -35 48 -8 25 11 31 32 10z m142 4 c0 -5 -11
-14 -25 -20 -46 -21 -71 -12 -43 16 14 14 68 16 68 4z m-69 -241 c-10 -19 -40
-35 -48 -27 -10 10 19 46 38 46 16 0 18 -3 10 -19z m-5 -49 c-4 -11 -13 -23
-21 -26 -22 -8 -19 31 2 43 22 12 27 8 19 -17z m268 -182 c-3 -56 -2 -59 16
-50 25 13 53 13 84 -2 l26 -11 -25 -14 c-14 -7 -36 -19 -50 -27 -25 -13 -25
-13 -5 -31 18 -17 44 -84 36 -93 -2 -2 -26 10 -52 27 l-49 30 -7 -26 c-7 -24
-45 -73 -57 -73 -3 0 -5 24 -4 53 l2 54 -53 -5 c-30 -2 -56 0 -60 6 -3 6 14
23 38 39 l45 30 -24 24 c-14 13 -27 39 -31 57 l-7 33 39 -22 c22 -12 47 -29
57 -37 16 -14 17 -13 17 12 0 23 46 86 62 86 3 0 3 -27 2 -60z"/>
<path d="M862 1581 c4 -13 18 -16 19 -4 0 4 -5 9 -11 12 -7 2 -11 -2 -8 -8z"/>
<path d="M994 737 c8 -14 8 -20 -4 -28 -13 -9 -12 -10 2 -5 10 3 22 -2 27 -12
6 -10 11 -12 11 -4 0 6 7 12 15 12 18 0 20 36 3 46 -6 4 -24 8 -38 8 -23 1
-26 -1 -16 -17z"/>
<path d="M2925 3451 c-102 -46 -177 -193 -131 -256 12 -17 14 -15 20 26 4 24
18 64 31 89 28 52 31 49 10 -10 -16 -46 -20 -140 -6 -140 5 0 22 15 39 34 32
36 52 106 52 179 0 23 7 54 14 70 8 15 14 27 13 27 -1 0 -20 -9 -42 -19z"/>
<path d="M2570 3362 c0 -118 73 -222 155 -222 l30 0 -30 20 c-33 22 -59 52
-81 95 -14 28 -13 27 18 -8 57 -65 118 -96 118 -60 0 39 -43 104 -93 139 -29
21 -67 51 -84 68 l-33 30 0 -62z"/>
<path d="M1705 3242 c64 -101 128 -239 161 -347 35 -120 44 -309 20 -438 -34
-180 -120 -375 -273 -616 -48 -75 -122 -192 -166 -261 -190 -301 -256 -498
-228 -685 23 -155 92 -276 245 -430 55 -55 75 -73 44 -40 -176 193 -250 353
-250 540 -1 193 77 376 318 745 234 357 317 524 360 715 25 114 23 275 -5 390
-27 111 -109 283 -185 390 -78 108 -99 127 -41 37z"/>
<path d="M2945 3215 c-38 -13 -75 -46 -75 -66 0 -5 14 -2 32 7 17 9 59 18 92
20 34 1 50 1 36 -2 -57 -11 -119 -36 -135 -54 -15 -17 -15 -19 2 -29 16 -9 14
-10 -11 -11 l-29 0 47 -41 c26 -23 54 -55 62 -73 l15 -31 -33 37 c-33 37 -93
78 -115 78 -8 0 -9 -10 -1 -37 15 -56 34 -79 102 -124 67 -45 103 -88 217
-261 321 -492 376 -932 159 -1296 -120 -202 -302 -375 -645 -614 -88 -61 -207
-145 -265 -187 -58 -41 -124 -81 -148 -89 -33 -11 -47 -24 -63 -53 -17 -34
-24 -39 -53 -39 -29 0 -42 -9 -81 -52 -41 -47 -46 -57 -41 -88 3 -19 -1 -53
-9 -75 -8 -22 -14 -51 -14 -65 0 -25 0 -25 9 -3 8 19 15 22 39 17 22 -5 34 -1
47 15 10 12 29 21 42 21 45 0 78 27 108 89 33 68 53 82 73 52 7 -12 21 -21 31
-21 24 0 34 29 17 49 -20 23 -11 113 11 109 9 -2 20 -18 24 -35 5 -21 19 -38
38 -48 56 -29 103 -14 126 41 12 29 12 39 0 68 -8 20 -10 39 -5 47 5 8 9 25 9
38 0 16 4 21 14 18 8 -3 20 1 27 10 11 13 10 18 -6 30 -20 14 -20 15 4 34 31
26 38 24 46 -11 10 -48 61 -72 110 -54 24 10 46 60 39 89 -5 22 -3 25 20 25
21 0 26 5 26 24 0 13 -7 27 -16 30 -19 7 -44 -10 -44 -29 0 -10 -5 -11 -25 -2
-14 7 -25 14 -25 17 0 3 24 21 53 42 181 125 392 320 494 456 76 100 145 235
179 348 22 75 27 113 31 239 4 163 3 174 -58 357 -61 187 -164 376 -314 577
-69 93 -72 100 -73 153 0 72 -27 133 -79 179 l-41 37 48 4 c26 3 78 19 115 36
37 18 79 32 94 32 l26 1 -28 24 c-30 27 -114 55 -161 55 -17 -1 -49 -7 -71
-15z m-385 -2655 c0 -5 -5 -10 -11 -10 -5 0 -7 5 -4 10 3 6 8 10 11 10 2 0 4
-4 4 -10z m-133 -97 c-9 -9 -20 -13 -24 -9 -4 4 1 14 11 22 25 18 35 8 13 -13z"/>
<path d="M1341 2596 c-1 -14 -4 -16 -14 -7 -11 8 -17 3 -30 -24 -10 -20 -12
-35 -6 -35 5 0 28 -9 51 -20 35 -17 39 -17 26 -2 -18 20 -13 42 10 43 14 0 13
2 -3 8 -11 4 -23 19 -26 32 -5 18 -7 19 -8 5z"/>
<path d="M1751 2594 c0 -11 3 -14 6 -6 3 7 2 16 -1 19 -3 4 -6 -2 -5 -13z"/>
<path d="M1301 2494 c0 -11 3 -14 6 -6 3 7 2 16 -1 19 -3 4 -6 -2 -5 -13z"/>
<path d="M125 2445 c-26 -13 -29 -48 -5 -63 14 -9 20 -9 20 -1 0 6 7 8 16 5
12 -5 15 -2 10 11 -4 9 -1 20 6 25 10 6 9 8 -4 8 -9 0 -18 6 -20 13 -2 10 -8
10 -23 2z"/>
<path d="M1831 2414 c0 -11 3 -14 6 -6 3 7 2 16 -1 19 -3 4 -6 -2 -5 -13z"/>
<path d="M2868 2250 c-14 -346 -147 -647 -507 -1148 -199 -276 -287 -402 -305
-437 -17 -30 -17 -30 1 -5 10 13 111 150 225 303 300 401 390 545 483 762 74
174 106 312 112 485 3 80 4 154 1 165 -2 11 -7 -45 -10 -125z"/>
<path d="M197 1223 c-9 -16 -6 -107 5 -120 16 -20 45 -16 62 9 20 29 20 33 -3
55 -10 10 -21 27 -23 38 -3 20 -32 33 -41 18z"/>
<path d="M127 1193 c-15 -14 -7 -43 12 -43 26 0 36 17 21 35 -14 16 -23 19
-33 8z"/>
<path d="M130 1085 c0 -8 7 -15 15 -15 8 0 15 7 15 15 0 8 -7 15 -15 15 -8 0
-15 -7 -15 -15z"/>
<path d="M221 1066 c-14 -17 -7 -36 14 -36 22 0 29 20 13 36 -13 13 -16 13
-27 0z"/>
<path d="M70 1046 c0 -9 7 -16 16 -16 9 0 14 5 12 12 -6 18 -28 21 -28 4z"/>
<path d="M3256 1053 c-11 -11 -6 -23 9 -23 8 0 15 4 15 9 0 13 -16 22 -24 14z"/>
<path d="M201 986 c-16 -20 -3 -46 24 -46 13 0 26 7 29 16 7 19 -10 44 -29 44
-7 0 -18 -6 -24 -14z"/>
<path d="M294 955 c-8 -21 2 -45 19 -45 20 0 40 27 33 45 -7 19 -45 20 -52 0z"/>
<path d="M3160 946 c0 -9 7 -16 16 -16 9 0 14 5 12 12 -6 18 -28 21 -28 4z"/>
<path d="M348 869 c-22 -12 -23 -42 -2 -60 31 -26 70 25 44 56 -14 17 -19 18
-42 4z"/>
<path d="M3116 873 c-11 -11 -6 -23 9 -23 8 0 15 4 15 9 0 13 -16 22 -24 14z"/>
<path d="M2972 854 c-12 -8 -22 -24 -22 -35 0 -13 -7 -19 -24 -19 -26 0 -56
-23 -56 -44 0 -7 9 -21 20 -31 17 -15 24 -16 45 -7 14 6 25 18 25 27 0 10 10
15 29 15 16 0 36 3 44 6 9 3 16 -3 20 -16 8 -32 52 -24 52 10 0 20 -6 26 -27
28 -18 2 -25 8 -22 17 6 14 -37 65 -53 65 -5 0 -19 -7 -31 -16z"/>
<path d="M250 840 c0 -5 5 -10 10 -10 6 0 10 5 10 10 0 6 -4 10 -10 10 -5 0
-10 -4 -10 -10z"/>
<path d="M232 798 c-30 -30 3 -77 40 -57 30 16 16 69 -17 69 -6 0 -16 -5 -23
-12z"/>
<path d="M360 746 c0 -9 5 -16 10 -16 6 0 10 4 10 9 0 6 -4 13 -10 16 -5 3
-10 -1 -10 -9z"/>
<path d="M285 710 c-4 -6 -3 -16 3 -22 6 -6 12 -6 17 2 4 6 3 16 -3 22 -6 6
-12 6 -17 -2z"/>
<path d="M483 704 c-8 -21 13 -42 28 -27 13 13 5 43 -11 43 -6 0 -13 -7 -17
-16z"/>
<path d="M2904 655 c-4 -9 -2 -21 4 -27 16 -16 47 -5 47 17 0 26 -42 34 -51
10z"/>
<path d="M407 653 c-4 -3 -7 -19 -7 -34 0 -37 31 -55 63 -37 12 6 31 12 42 12
13 1 21 9 23 24 3 18 -1 22 -22 22 -14 0 -28 5 -31 10 -7 11 -58 14 -68 3z"/>
<path d="M555 639 c-4 -12 -2 -26 4 -32 17 -17 13 -27 -13 -27 -37 0 -76 -37
-76 -71 0 -45 34 -72 81 -66 36 5 39 3 39 -19 0 -60 51 -114 107 -114 36 0 38
-2 22 -31 -23 -43 18 -87 65 -69 21 8 26 16 26 46 0 27 -5 37 -20 41 -26 7
-26 9 10 50 43 48 42 108 -1 157 -39 46 -87 56 -138 30 -20 -10 -39 -20 -42
-22 -9 -4 -4 92 6 107 10 17 -14 41 -41 41 -14 0 -25 -8 -29 -21z"/>
<path d="M3060 635 c0 -9 5 -15 11 -13 6 2 11 8 11 13 0 5 -5 11 -11 13 -6 2
-11 -4 -11 -13z"/>
<path d="M758 583 c24 -29 66 -73 94 -98 l51 -46 -39 -33 c-34 -30 -39 -39
-39 -78 0 -58 25 -94 74 -109 31 -9 47 -9 70 0 22 10 34 10 51 1 33 -18 73 12
68 51 -5 34 -7 34 40 9 69 -36 69 -36 39 -60 -51 -41 -26 -110 41 -110 40 0
67 37 58 76 -6 23 -5 25 11 18 115 -51 340 -110 456 -119 l62 -5 -95 25 c-268
73 -532 188 -710 310 -95 65 -151 108 -210 162 l-65 58 43 -52z"/>
<path d="M2906 563 c-11 -11 -6 -23 9 -23 8 0 15 4 15 9 0 13 -16 22 -24 14z"/>
<path d="M2832 541 c4 -13 18 -16 19 -4 0 4 -5 9 -11 12 -7 2 -11 -2 -8 -8z"/>
<path d="M392 531 c-20 -12 -10 -46 14 -49 25 -4 40 24 23 44 -13 16 -19 17
-37 5z"/>
<path d="M2732 498 c-21 -21 -14 -57 14 -70 23 -11 29 -10 45 10 35 44 -20 99
-59 60z"/>
<path d="M2634 465 c-8 -21 2 -45 19 -45 21 0 38 25 31 44 -8 20 -43 21 -50 1z"/>
<path d="M2612 358 c-18 -18 -14 -46 7 -58 38 -20 71 13 51 51 -12 21 -40 25
-58 7z"/>
<path d="M2450 255 c0 -8 5 -15 10 -15 6 0 10 7 10 15 0 8 -4 15 -10 15 -5 0
-10 -7 -10 -15z"/>
<path d="M1042 174 c-30 -21 -29 -59 3 -80 23 -15 27 -15 50 0 32 21 33 59 3
80 -12 9 -25 16 -28 16 -3 0 -16 -7 -28 -16z"/>
<path d="M1868 149 c-36 -21 -12 -89 32 -89 10 0 26 7 34 16 44 44 -12 105
-66 73z"/>
<path d="M2244 145 c-9 -23 3 -45 26 -45 25 0 37 25 20 45 -16 19 -39 19 -46
0z"/>
<path d="M1412 118 c6 -18 28 -21 28 -4 0 9 -7 16 -16 16 -9 0 -14 -5 -12 -12z"/>
<path d="M1337 104 c-16 -16 -6 -35 16 -32 12 2 22 10 22 18 0 16 -26 25 -38
14z"/>
<path d="M1563 73 c-18 -7 -16 -38 3 -53 12 -11 18 -10 32 4 25 25 -2 63 -35
49z"/>
<path d="M1236 54 c-9 -22 17 -49 39 -40 10 3 15 15 13 28 -4 29 -42 37 -52
12z"/>
<path d="M1662 58 c6 -18 28 -21 28 -4 0 9 -7 16 -16 16 -9 0 -14 -5 -12 -12z"/>
<path d="M1474 29 c-10 -17 13 -36 27 -22 12 12 4 33 -11 33 -5 0 -12 -5 -16
-11z"/>
</g>
</svg>
