<?xml version="1.0"?>
<!-- Uploaded to: SVG Repo, www.svgrepo.com, Generator: SVG Repo Mixer Tools -->
<svg fill="none" stroke="currentColor" stroke-width="5" width="800px" height="800px" viewBox="0 0 512 512" data-name="Layer 1" id="Layer_1" xmlns="http://www.w3.org/2000/svg">
  <title/>
  <path d="M391.37,28.21l-.08-.13c-2-3.1-3.19-4.9-3.3-5a6,6,0,0,0-10.8,3.1c-4.77,78.82-35.79,109.49-195.29,193C121.37,250.88,85.74,288.11,76,329.8c-10.32,44.11,12.59,76.29,13.57,77.64a6.38,6.38,0,0,0,1.44,1.4l0,0C74.84,451.6,81.15,486,81.29,486.67A6,6,0,0,0,93,484.33c-.48-2.44-5.8-32.07,7.71-69.35a182.32,182.32,0,0,0,94.36,25.8A206.29,206.29,0,0,0,243.29,435c68.22-16.41,129.24-66.33,167.41-137C476.48,176.28,407.79,54.28,391.37,28.21ZM87.65,332.3c9-38.09,42.58-72.6,99.77-102.56,141.18-74,185.39-109.42,197.91-172.1,12.56,81.52-6.05,163.64-160.53,227.66C151.18,315.81,114.49,358,96.51,395.92,91.22,386.38,80.56,362.3,87.65,332.3Zm312.56-40C363.65,360,305.44,407.77,240.5,423.37c-48.26,11.55-95.83,4.43-135.17-19.72,16.36-36.08,51.21-77.14,124-107.33C384.63,232,408.74,149.6,398.69,67,421.09,115.26,448,204,400.21,292.31Z"/>
</svg>
