<?xml version="1.0"?>
<!-- Uploaded to: SVG Repo, www.svgrepo.com, Generator: SVG Repo Mixer Tools -->
<svg xmlns="http://www.w3.org/2000/svg" width="800px" height="800px" viewBox="0 0 512 512" data-name="Layer 1" id="Layer_1">
  <title/>
  <path 
    d="M474.47,229a6,6,0,0,0-5.65-4.75c-56.4-1.66-101,13.15-131.83,44.46-16.46,16.73-26.92,36-33.67,54.23V294.75c.44-6.78,6.62-123.9-68.78-200.34-45-45.61-109.49-66.58-191.86-62.23A6,6,0,0,0,37.13,37c-.82,4.31-19.31,106.35,44.2,183.05,43.33,52.34,114.1,79.24,210.07,80.35v86.14c0,1.64,0,3,0,4v83.9a6,6,0,1,0,11.92,0V398.73a285.14,285.14,0,0,0,44.43,4c41.42,0,73.52-11.47,95.75-34.31C492.37,318.27,475.22,232.62,474.47,229ZM90.58,212.55C38,149.12,45.41,64.39,48.14,43.85,124.78,40.58,184.36,60.57,226,102.73c51.81,52.48,63,127.53,65.13,166.26-67-125.45-162.78-165.85-167.06-167.61a6,6,0,0,0-4.5,11c1,.44,103,43.75,168,176.06C197.35,286.75,131,261.32,90.58,212.55ZM435,360.12c-26.38,27.09-69.23,36.14-127.22,27.32,11.69-15.83,44.58-55.18,111.24-100.76a6,6,0,0,0-6.74-9.85C353,317.32,320.1,352.62,304.29,372.3c2.45-23.76,11.12-64.71,41.27-95.3,27.51-27.89,66.91-42.14,118-40.93C466.35,254.12,473.36,320.72,435,360.12Z"
    fill="none" 
    stroke="currentColor" 
    stroke-width="10" />
</svg>
