<?xml version="1.0" ?><!-- Uploaded to: SVG Repo, www.svgrepo.com, Generator: SVG Repo Mixer Tools -->
<svg width="800px" height="800px" viewBox="0 0 64 64" data-name="Layer 1" id="Layer_1" xmlns="http://www.w3.org/2000/svg"><defs><style>.cls-1{fill:currentColor;}</style></defs><title/><path class="cls-1" d="M10.89,27.2a.5.5,0,1,0-.64-.31A.51.51,0,0,0,10.89,27.2Z"/><path class="cls-1" d="M53.13,6.64a.5.5,0,0,0,.34-.94.49.49,0,0,0-.64.3A.5.5,0,0,0,53.13,6.64Z"/><path class="cls-1" d="M62,5.57,47,.18A3,3,0,0,0,43.11,2l-1,2.82a1,1,0,0,0-1.28.61L40.15,7.3a1,1,0,0,0,.6,1.28l-.67,1.88h0a1,1,0,0,0-1.28.61L38.12,13a1,1,0,0,0,.61,1.28l-1.19,3.32A28.13,28.13,0,0,0,32,17a25.81,25.81,0,0,0-13.59,3.66,2.82,2.82,0,0,0-1.26.14L2,26A3,3,0,0,0,.17,29.84l1,2.84h0A1,1,0,0,0,.52,34l.66,1.89a1,1,0,0,0,.94.67,1.26,1.26,0,0,0,.33,0l.65,1.89h0a1,1,0,0,0-.62,1.27l.66,1.89a1,1,0,0,0,.94.67,1,1,0,0,0,.33,0h0L11.26,62a3,3,0,0,0,2.84,2,3.09,3.09,0,0,0,1-.16L30.2,58.61a3,3,0,0,0,1.86-3.81l-2.74-7.94c.88.08,1.77.14,2.68.14a25.39,25.39,0,0,0,14.74-4.41l1.79.64a2.92,2.92,0,0,0,1,.17,3,3,0,0,0,2.83-2l11.46-32A3,3,0,0,0,62,5.57ZM46.27,2.06,61.34,7.45a1,1,0,0,1,.62.76L60.7,7.76a2.89,2.89,0,0,0-2.5.33,1.93,1.93,0,0,1-1.71.28L49.43,5.85c-.68-.25-.88-.71-1.14-1.31A2.89,2.89,0,0,0,46.58,2.7l-1.27-.46A1,1,0,0,1,46.27,2.06ZM2,28.66a1,1,0,0,1,.63-.74l11.88-4.1a12.24,12.24,0,0,0-.81,1l-.22.32c-.2.27-.39.55-.56.83s-.2.32-.29.49-.27.51-.39.77l0,.05L7.51,28.89a1.9,1.9,0,0,1-1.7-.3,3.42,3.42,0,0,0-1.64-.52,2.54,2.54,0,0,0-.86.16ZM27.1,46.58l3.07,8.87a1,1,0,0,1-.62,1.27L14.42,61.94a1,1,0,0,1-.76,0,1,1,0,0,1-.51-.57L2.22,29.66l1.42-.49a1.91,1.91,0,0,1,1.7.3,2.89,2.89,0,0,0,2.49.37l3.93-1.36-.12.37a3.15,3.15,0,0,0-.11.44c-.08.31-.15.62-.2.93,0,.14-.05.28-.07.43A12.24,12.24,0,0,0,11.17,32a11.08,11.08,0,0,0,.54,3.43,13.33,13.33,0,0,0,3.23,5.19,3.37,3.37,0,0,1,.29.37,2.32,2.32,0,0,1,.38,1.51l-.56,5a.75.75,0,0,0,0,.15,1.09,1.09,0,0,0,0,.18s0,0,0,0a1.18,1.18,0,0,0,.26.54h0a1.07,1.07,0,0,0,.23.2h0a1.35,1.35,0,0,0,.3.14H16a.93.93,0,0,0,.23,0h0l.15,0,.14,0a.79.79,0,0,0,.3-.12l4.87-2.78.23-.1A2.16,2.16,0,0,1,23,45.61a1.63,1.63,0,0,1,.45.09c.61.19,1.24.37,1.88.52.33.08.67.14,1,.21S26.85,46.54,27.1,46.58ZM28,44.71h0a25.34,25.34,0,0,1-3.91-.91,4.25,4.25,0,0,0-3.39.37l-3.49,2,.38-3.44a4.3,4.3,0,0,0-1.22-3.49A10.37,10.37,0,0,1,13.17,32a8.42,8.42,0,0,1,.1-1.33c0-.15.06-.29.09-.44a8.26,8.26,0,0,1,.2-.86c0-.13.09-.24.13-.37.11-.3.21-.6.35-.9a2.12,2.12,0,0,1,.11-.21,11.48,11.48,0,0,1,.56-1l0,0a14.43,14.43,0,0,1,4.4-4.28l.05,0A23.83,23.83,0,0,1,32,19a25.89,25.89,0,0,1,6.15.73c.38.09.76.18,1.12.29l.25.08,1,.34.42.16.83.32.6.28.6.28a4.33,4.33,0,0,0,4.08-.09l2.7-1.55-.58,5.24a3.58,3.58,0,0,0,0,.65,4.27,4.27,0,0,0,.17,1l.06.23v0a5.38,5.38,0,0,0,.24.55A9.33,9.33,0,0,1,50.83,32a8.52,8.52,0,0,1-.09,1.24c0,.23-.09.45-.14.68a4.64,4.64,0,0,1-.11.51,9.3,9.3,0,0,1-.3.89,2.6,2.6,0,0,1-.1.25c-.14.34-.31.68-.49,1l0,.06a13.68,13.68,0,0,1-3.6,4l0,0A23.21,23.21,0,0,1,32,45,27.52,27.52,0,0,1,28,44.71Zm22.46-4a1,1,0,0,1-1.28.61l-.66-.24c.2-.18.37-.37.55-.55l.25-.26c.34-.37.66-.74.95-1.12l0,0a15.06,15.06,0,0,0,.86-1.28s0-.11.08-.16c.21-.37.4-.73.57-1.11.06-.13.11-.27.16-.4.12-.31.24-.61.33-.93,0-.15.1-.31.14-.47s.14-.63.2-.95c0-.14.06-.29.07-.44a10.85,10.85,0,0,0,.1-1.4,11.4,11.4,0,0,0-1.4-5.42,2.11,2.11,0,0,1-.23-1.2s0-.05,0-.07L52,18.48a.75.75,0,0,0,0-.15,1.09,1.09,0,0,0,0-.18s0,0,0,0a1.2,1.2,0,0,0-.26-.53l0,0a1.3,1.3,0,0,0-.22-.19h0s0,0,0,0a1.66,1.66,0,0,0-.27-.13h0a1.19,1.19,0,0,0-.94.11l-4.09,2.33a2,2,0,0,1-.52.22,2.42,2.42,0,0,1-.93,0,2.37,2.37,0,0,1-.73-.22c-.62-.31-1.27-.58-1.92-.84l-.4-.16c-.67-.25-1.35-.47-2-.67l0,0L44.83,3.13l1.41.51c.68.24.88.71,1.14,1.3a2.89,2.89,0,0,0,1.71,1.85l7.07,2.53A2.86,2.86,0,0,0,58.65,9a1.93,1.93,0,0,1,1.71-.28l1.41.5Z" fill="currentColor"/><path class="cls-1" d="M6.5,19V17a.5.5,0,0,0-1,0v2a.5.5,0,0,0,1,0Z" fill="currentColor"/><path class="cls-1" d="M4,20.5a.47.47,0,0,0,.35-.15.48.48,0,0,0,0-.7l-1-1a.49.49,0,0,0-.7.7l1,1A.47.47,0,0,0,4,20.5Z" fill="currentColor"/><path class="cls-1" d="M38,2.5a.47.47,0,0,0,.35-.15.48.48,0,0,0,0-.7l-1-1a.48.48,0,0,0-.7,0,.48.48,0,0,0,0,.7l1,1A.47.47,0,0,0,38,2.5Z" fill="currentColor"/><path class="cls-1" d="M34.5,4a.5.5,0,0,0,.5.5h2a.5.5,0,0,0,0-1H35A.5.5,0,0,0,34.5,4Z"/><path class="cls-1" d="M32,25.5h9a.5.5,0,0,0,0-1H32a.5.5,0,0,0,0,1Z" fill="currentColor"/><path class="cls-1" d="M45,27.5H32a.5.5,0,0,0,0,1H45a.5.5,0,0,0,0-1Z" fill="currentColor"/><path class="cls-1" d="M36,30.5H32a.5.5,0,0,0,0,1h4a.5.5,0,0,0,0-1Z" fill="currentColor"/><path class="cls-1" d="M42,30.5H40a.5.5,0,0,0,0,1h2a.5.5,0,0,0,0-1Z" fill="currentColor"/><circle class="cls-1" cx="21.5" cy="37.5" r="0.5"/><circle class="cls-1" cx="23.5" cy="37.5" r="0.5"/><circle class="cls-1" cx="25.5" cy="37.5" r="0.5"/><circle class="cls-1" cx="27.5" cy="37.5" r="0.5"/><circle class="cls-1" cx="29.5" cy="37.5" r="0.5"/></svg>