<?xml version="1.0" encoding="utf-8"?>

<!DOCTYPE svg PUBLIC "-//W3C//DTD SVG 1.1//EN" "http://www.w3.org/Graphics/SVG/1.1/DTD/svg11.dtd">
<!-- Uploaded to: SVG Repo, www.svgrepo.com, Generator: SVG Repo Mixer Tools -->
<svg height="800px" width="800px" version="1.1" id="_x32_" xmlns="http://www.w3.org/2000/svg" xmlns:xlink="http://www.w3.org/1999/xlink" 
	 viewBox="0 0 512 512"  xml:space="preserve">
<style type="text/css"> 
</style>
<g>
	<path class="st0" d="M114.236,362.195L4.26,472.171L0.004,512l39.829-4.257l109.976-109.968
		c-6.226-5.388-12.402-11.07-18.452-17.128C125.307,374.58,119.617,368.429,114.236,362.195z" fill="currentColor" />
	<path class="st0" d="M495.6,132.806c-11.38-22.432-28.173-45.469-49.55-66.854c-28.55-28.474-59.899-48.887-89.068-59.06
		c-14.614-5.053-28.768-7.6-42.159-6.721c-13.299,0.855-26.304,5.548-35.916,15.21c-5.363,5.346-9.293,11.866-11.614,18.787
		c-3.519,10.45-3.687,21.545-1.936,32.874c1.283,8.069,3.595,16.374,6.679,24.904l-68.052,58.634
		c-24.125-12.36-47.639-20.12-69.426-22.223c-12.276-1.157-24.067-0.494-35.028,2.506c-10.944,3-21.066,8.505-29.162,16.608
		c-12.226,12.193-18.284,28.693-19.424,46.156c-1.692,26.296,6.511,55.793,21.922,86.362c15.477,30.527,38.472,62.094,67.759,91.398
		c39.101,39.042,82.08,66.922,121.524,80.648c19.743,6.846,38.69,10.19,56.236,9.024c17.455-1.14,33.956-7.206,46.148-19.424
		c8.128-8.112,13.642-18.285,16.633-29.271c4.484-16.533,3.738-34.818-0.695-54.041c-3.746-16.14-10.316-33.042-19.106-50.22
		l56.74-65.722c13.031,4.449,25.751,6.812,37.818,6.552c7.642-0.184,15.066-1.424,21.996-3.988
		c6.922-2.564,13.374-6.503,18.695-11.841c9.653-9.629,14.364-22.617,15.218-35.924C513.106,177.102,506.905,155.29,495.6,132.806z
		 M351.904,404.345c-1.852,6.654-4.751,11.739-8.832,15.838c-6.066,6.033-14.573,9.729-26.748,10.6
		c-18.109,1.341-43.382-4.852-70.591-18.712c-27.25-13.785-56.48-34.952-83.655-62.137c-36.276-36.209-61.759-76.196-73.449-110.017
		c-5.882-16.894-8.262-32.171-7.407-44.228c0.88-12.185,4.567-20.682,10.608-26.748c4.072-4.072,9.142-6.972,15.762-8.816
		c9.863-2.748,23.304-2.731,38.974,0.914c12.15,2.773,25.6,7.726,39.636,14.589l-25.298,21.922l-0.905,3.385
		c-0.494,1.734-2.849,12.712,2.523,30.385c5.337,17.706,18.226,41.916,47.245,70.918c29.002,29.019,53.212,41.906,70.901,47.253
		c17.69,5.363,28.667,3.008,30.411,2.514l3.376-0.906l21.939-25.29c9.762,19.977,15.544,38.748,17.027,54.318
		C354.343,389.546,353.722,397.734,351.904,404.345z M332.504,295.123l0.218,0.184l-30.251,34.877
		c-3.301,0.05-9.276-0.419-17.832-3.318c-13.499-4.617-33.502-15.452-58.784-40.717c-26.958-26.966-37.475-47.924-41.547-61.399
		c-2.036-6.746-2.472-11.665-2.488-14.682c0-0.217,0.009-0.352,0.016-0.536l33.393-28.968l0.185,0.209l75.3-64.893
		c11.037,20.111,26.413,40.625,45.595,59.815c19.206,19.198,39.737,34.591,59.89,45.628L332.504,295.123z M481.564,195.127
		c-0.603,8.011-2.924,13.022-6.402,16.525c-2.028,2.02-4.508,3.612-7.784,4.836c-4.902,1.827-11.673,2.656-19.902,1.776
		c-7.651-0.812-16.509-3.134-25.902-6.938c-22.249-9.436-46.248-28.776-69.175-51.72c-19.274-19.24-34.248-39.947-44.162-59.262
		l-4.206-9.871c-6.05-14.086-9.193-26.455-9.394-35.497c-0.126-4.542,0.41-8.203,1.391-11.078c0.988-2.875,2.312-5.028,4.332-7.056
		c3.502-3.477,8.514-5.798,16.525-6.402c11.892-0.896,29.481,3.286,48.594,13.04c19.148,9.687,39.863,24.653,59.12,43.926
		c25.717,25.651,43.726,54.008,51.854,77.564C480.55,176.725,482.134,187.2,481.564,195.127z" fill="currentColor" />
</g>
</svg>