<?xml version="1.0" encoding="utf-8"?><!-- Uploaded to: SVG Repo, www.svgrepo.com, Generator: SVG Repo Mixer Tools -->
<svg width="800px" height="800px" viewBox="0 0 400 400" fill="none" xmlns="http://www.w3.org/2000/svg">
<path d="M70.2557 281.074C69.953 284.241 66.8589 304.605 71.8706 309.293C136 317.5 315.501 309.293 360.829 309.293C364.487 305.447 362.871 292.329 362.555 288.48C357.694 229.696 362.555 137.376 361.024 95.1291C357.238 84.9174 347.197 85.0073 343.253 85.2688C330.357 86.1349 317.426 85.7399 304.513 85.9568C295.963 86.1002 185.847 87.4686 177.289 87.3581C157.003 87.1033 88.0004 85.2688 76.8706 95.1291C63.6105 106.877 70.0212 195.296 70.2557 230.464C70.3127 239.018 51.4455 243.284 44.2489 244.879C42.4058 245.292 40.5721 245.731 38.7474 246.218C47.3793 252.874 66.7809 255.369 70.8706 266.341" stroke="#000000" stroke-opacity="0.9" stroke-width="16" stroke-linecap="round" stroke-linejoin="round"/>
</svg>