<?xml version="1.0" encoding="utf-8"?><!-- Uploaded to: SVG Repo, www.svgrepo.com, Generator: SVG Repo Mixer Tools -->
<svg width="800px" height="800px" viewBox="0 0 400 400" fill="none" xmlns="http://www.w3.org/2000/svg">
<path d="M62.9422 230.032C62.9422 230.032 64.0928 221.674 60.282 220.5C51.8553 217.904 37.4245 212.265 36.2103 211.955C35.8088 211.854 35.4034 211.759 35 211.658C35.3865 211.347 35.7794 211.045 36.162 210.735C37.0165 210.044 37.8449 209.317 38.6766 208.595C40.1865 207.285 44.8792 203.301 46.3336 202.329C47.9839 201.227 58.8367 195.134 59.3668 194.965C59.6932 194.873 59.9968 194.737 60.282 194.558C61.0654 194.082 61.5061 193.417 61.8044 192.567C62.0936 191.754 61.9558 185.632 61.8246 184.792C61.5087 181.987 61.4525 160.396 61.241 157.582C61.134 156.169 61.0347 154.757 60.9864 153.342C60.9486 152.252 63.8842 149.04 65.0991 149.086C67.0653 149.163 69.0316 149.202 70.9978 149.278C164.306 152.848 255 146.001 351.808 148.118C354.398 148.226 356.986 148.326 359.58 148.362C360.799 148.377 365.233 151.52 365.371 153.019C365.307 187.5 366.114 211.294 365.368 239.649C365.32 241.543 365.047 243.435 365.307 245.327C366 250.378 355.237 249.6 351.752 249.429C261.601 244.93 169 245.327 76.4442 250.836C74.0679 251.047 75.574 251.376 69.3071 251.376C63.0401 251.376 63.0401 248.447 62.9422 246.911" stroke="#000000" stroke-opacity="0.9" stroke-width="16" stroke-linecap="round" stroke-linejoin="round"/>
</svg>