<?xml version="1.0" encoding="iso-8859-1"?>
<!-- Uploaded to: SVG Repo, www.svgrepo.com, Generator: SVG Repo Mixer Tools -->
<svg height="800px" width="800px" version="1.1" id="Layer_1" xmlns="http://www.w3.org/2000/svg" xmlns:xlink="http://www.w3.org/1999/xlink" 
	 viewBox="0 0 512.002 512.002" xml:space="preserve">
<circle style="fill:#FF80AA;" cx="256.001" cy="256" r="256"/>
<g>
	<path style="fill:#FF6472;" d="M213.741,297.7l-16.144,13.686l-27.858,26.845l162.29,162.29
		c20.602-6.399,40.083-15.341,58.092-26.44L213.741,297.7z"/>
	<path style="fill:#FF6472;" d="M145.828,346.046l-14.522,12.24l-14.026,18.647l135.021,135.021
		c1.233,0.017,2.463,0.047,3.699,0.047c17.374,0,34.34-1.739,50.743-5.037L145.828,346.046z"/>
	<path style="fill:#FF6472;" d="M512.001,256c0-3.11-0.076-6.201-0.184-9.283l-82.43-82.429l-1.189,0.681L392.65,128.96
		l-7.351,15.486l28.756,28.613l-147.666,40.988l-86.761,32.494l220.825,220.825C467.803,421.245,512.001,343.79,512.001,256z"/>
</g>
<path style="fill:#E6F3FF;" d="M402.754,146.025c-4.865-16.674-20.256-28.86-38.5-28.86c-1.812,0-3.593,0.131-5.341,0.364
	c-10.835-13.331-27.357-21.852-45.873-21.852c-21.289,0-39.943,11.262-50.345,28.15c-2.822-0.605-5.746-0.931-8.749-0.931
	c-15.081,0-28.282,8.035-35.562,20.059c-32.587,0.057-58.987,26.49-58.987,59.09c0,30.734,23.466,55.98,53.457,58.82
	c8.135,14.277,23.485,23.912,41.093,23.912c14.124,0,26.793-6.203,35.456-16.022c8.663,9.819,21.332,16.022,35.456,16.022
	c18.489,0,34.487-10.619,42.258-26.084c5.337,1.584,10.985,2.448,16.836,2.448c32.637,0,59.094-26.457,59.094-59.094
	C443.045,175.985,426.168,153.881,402.754,146.025z"/>
<path style="fill:#CFDBE6;" d="M402.754,146.025c-4.865-16.674-20.256-28.858-38.5-28.858c-1.812,0-3.593,0.131-5.341,0.364
	c-10.835-13.329-27.357-21.852-45.873-21.852c-1.208,0-2.407,0.047-3.596,0.119v186.399c4.832,1.669,10.016,2.581,15.415,2.581
	c18.487,0,34.487-10.619,42.256-26.084c5.337,1.584,10.985,2.448,16.836,2.448c32.637,0,59.094-26.457,59.094-59.094
	C443.045,175.985,426.168,153.881,402.754,146.025z"/>
<path style="fill:#FC6F58;" d="M252.691,186.954c0-15.67,12.703-28.374,28.376-28.374s28.375,12.703,28.375,28.374
	c0-15.67,12.703-28.374,28.375-28.374c15.672,0,28.375,12.703,28.375,28.374c0,27.133-56.751,59.585-56.751,59.585
	S252.691,215.614,252.691,186.954z"/>
<path style="fill:#F1543F;" d="M366.193,186.954c0-15.67-12.705-28.374-28.375-28.374c-15.669,0-28.37,12.698-28.375,28.363v59.595
	C309.454,246.531,366.193,214.083,366.193,186.954z"/>
<g>
	<circle style="fill:#E6F3FF;" cx="192.837" cy="319.164" r="29.96"/>
	<circle style="fill:#E6F3FF;" cx="131.311" cy="361.262" r="21.052"/>
</g>
<g>
	<path style="fill:#CFDBE6;" d="M192.844,289.199c16.546,0,29.96,13.414,29.96,29.96c0,16.546-13.414,29.96-29.96,29.96V289.199z"/>
	<path style="fill:#CFDBE6;" d="M131.306,340.209c11.628,0,21.052,9.426,21.052,21.052c0,11.626-9.426,21.052-21.052,21.052V340.209
		z"/>
</g>
</svg>