<?xml version="1.0" encoding="iso-8859-1"?>
<svg fill="none" stroke="currentColor" stroke-width="5" height="800px" width="800px" version="1.1" id="Layer_1" xmlns="http://www.w3.org/2000/svg" xmlns:xlink="http://www.w3.org/1999/xlink" viewBox="3 0 500 590" xml:space="preserve">
  <g>
    <g>
      <g>
        <path d="M341.333,0c-50.261,0-96.96,21.653-129.493,59.755c-20.928-11.2-44.181-17.088-67.84-17.088
          c-79.403,0-144,64.597-144,144s64.597,144,144,144h1.237C158.165,362.88,188.864,384,224,384
          c32.512,0,62.016-18.795,76.245-47.659c13.419,3.307,27.2,4.992,41.088,4.992c94.101,0,170.667-76.565,170.667-170.667
          S435.435,0,341.333,0z " />
          <!--  M149.333,384c-23.531,0-42.667,19.136-42.667,42.667s19.136,42.667,42.667,42.667c23.531,0,42.667-19.136,42.667-42.667
          S172.864,384,149.333,384z     -->

        <path d="M149.333,448C137.557,448,128,438.421,128,426.667s9.557-21.333,21.333-21.333
          s21.333,9.579,21.333,21.333S161.109,448,149.333,448z" />
        <!-- M53.333,448c-17.643,0-32,14.357-32,32c0,17.643,14.357,32,32,32c17.643,0,32-14.357,32-32
          C85.333,462.357,70.976,448,53.333,448z -->
        <path d="M53.333,490.667c-5.867,0-10.667-4.779-10.667-10.667c0-5.888,4.8-10.667,10.667-10.667
          C59.2,469.333,64,474.112,64,480C64,485.888,59.2,490.667,53.333,490.667z" />
      </g>
    </g>
  </g>
</svg> 