<svg xmlns="http://www.w3.org/2000/svg" viewBox="108.2 32.1 339.5 707.9" width="340" height="708"><title>Gecko</title><path fill="#0d2433" d="M 140.02,41.41 L 138.06,42.27 L 136.18,43.41 L 134.38,44.80 L 132.74,46.40 L 131.25,48.18 L 129.95,50.06 L 128.85,52.02 L 127.95,54.00 L 127.25,56.00 L 126.74,58.00 L 126.38,60.00 L 126.18,62.00 L 126.06,64.00 L 126.02,66.00 L 126.00,68.00 L 126.00,70.00 L 126.00,72.00 L 125.98,74.00 L 125.94,76.00 L 125.84,78.00 L 125.68,80.00 L 125.44,82.00 L 125.15,84.00 L 124.83,86.00 L 124.48,88.00 L 124.10,90.00 L 123.66,92.00 L 123.12,94.00 L 122.43,96.00 L 121.62,98.00 L 120.69,100.00 L 119.71,102.00 L 118.77,104.00 L 117.94,106.00 L 117.25,108.00 L 116.74,110.00 L 116.40,112.00 L 116.24,114.00 L 116.22,116.00 L 116.35,118.00 L 116.64,120.00 L 117.07,122.00 L 117.65,124.00 L 118.40,126.00 L 119.33,127.98 L 120.40,129.94 L 121.63,131.84 L 122.99,133.68 L 124.42,135.44 L 125.86,137.15 L 127.26,138.85 L 128.59,140.56 L 129.86,142.32 L 131.07,144.16 L 132.26,146.06 L 133.47,148.02 L 134.75,150.00 L 136.08,152.00 L 137.49,153.98 L 139.01,155.94 L 140.62,157.84 L 142.34,159.68 L 144.16,161.42 L 146.06,163.09 L 148.02,164.69 L 150.00,166.22 L 152.00,167.70 L 154.00,169.14 L 156.00,170.53 L 158.00,171.84 L 160.00,173.09 L 162.00,174.27 L 164.00,175.39 L 166.00,176.45 L 168.00,177.49 L 170.00,178.50 L 172.00,179.50 L 174.00,180.50 L 176.00,181.50 L 178.00,182.51 L 180.00,183.55 L 182.00,184.61 L 184.00,185.73 L 186.00,186.91 L 188.00,188.18 L 190.00,189.54 L 191.98,191.02 L 193.94,192.62 L 195.84,194.34 L 197.66,196.16 L 199.36,198.06 L 200.93,200.02 L 202.35,202.00 L 203.60,204.00 L 204.67,206.00 L 205.60,208.00 L 206.35,210.00 L 206.93,212.00 L 207.36,214.00 L 207.66,216.00 L 207.84,218.00 L 207.94,220.00 L 207.97,222.00 L 207.94,224.00 L 207.84,226.00 L 207.68,228.00 L 207.42,230.00 L 207.09,232.00 L 206.69,234.00 L 206.24,236.00 L 205.76,238.00 L 205.30,240.00 L 204.85,242.00 L 204.42,244.00 L 203.98,246.00 L 203.52,248.00 L 202.98,249.98 L 202.30,251.92 L 201.44,253.76 L 200.35,255.44 L 199.04,256.88 L 197.50,258.03 L 195.78,258.88 L 193.92,259.44 L 191.98,259.76 L 190.00,259.92 L 188.00,259.98 L 186.00,260.00 L 184.00,259.98 L 182.02,259.92 L 180.10,259.76 L 178.30,259.44 L 176.74,258.88 L 175.52,258.03 L 174.75,256.88 L 174.46,255.44 L 174.67,253.78 L 175.33,252.00 L 176.30,250.21 L 177.50,248.48 L 178.85,246.88 L 180.22,245.41 L 181.54,244.00 L 182.74,242.59 L 183.71,241.14 L 184.37,239.60 L 184.64,238.02 L 184.48,236.48 L 183.86,235.12 L 182.82,234.05 L 181.44,233.36 L 179.84,233.12 L 178.16,233.36 L 176.54,234.05 L 175.10,235.14 L 173.90,236.56 L 172.94,238.24 L 172.16,240.08 L 171.44,241.98 L 170.67,243.84 L 169.76,245.52 L 168.67,246.88 L 167.44,247.76 L 166.16,248.06 L 164.94,247.76 L 163.92,246.88 L 163.17,245.52 L 162.72,243.84 L 162.56,241.97 L 162.62,240.00 L 162.78,238.00 L 162.91,236.02 L 162.88,234.08 L 162.56,232.26 L 161.87,230.62 L 160.83,229.30 L 159.50,228.37 L 158.00,227.92 L 156.48,227.97 L 155.10,228.51 L 153.98,229.47 L 153.20,230.75 L 152.78,232.24 L 152.72,233.86 L 152.96,235.50 L 153.42,237.17 L 154.00,238.85 L 154.59,240.56 L 155.10,242.32 L 155.44,244.13 L 155.54,245.90 L 155.36,247.54 L 154.86,248.88 L 154.03,249.76 L 152.90,250.06 L 151.52,249.76 L 150.00,248.88 L 148.46,247.52 L 147.02,245.86 L 145.73,244.05 L 144.56,242.24 L 143.44,240.56 L 142.27,239.14 L 140.98,238.05 L 139.54,237.36 L 138.00,237.12 L 136.48,237.36 L 135.12,238.05 L 134.05,239.14 L 133.36,240.54 L 133.12,242.16 L 133.36,243.86 L 134.05,245.54 L 135.14,247.12 L 136.56,248.59 L 138.24,250.00 L 140.05,251.41 L 141.86,252.86 L 143.52,254.40 L 144.88,255.97 L 145.76,257.46 L 146.06,258.74 L 145.76,259.71 L 144.88,260.30 L 143.52,260.51 L 141.84,260.38 L 139.97,260.00 L 138.00,259.42 L 136.00,258.75 L 134.00,258.08 L 132.00,257.50 L 130.02,257.12 L 128.10,257.04 L 126.30,257.34 L 124.74,258.05 L 123.52,259.12 L 122.77,260.48 L 122.53,262.00 L 122.83,263.52 L 123.65,264.88 L 124.88,265.97 L 126.42,266.74 L 128.18,267.18 L 130.06,267.36 L 132.02,267.39 L 134.00,267.39 L 136.00,267.42 L 137.97,267.55 L 139.84,267.82 L 141.52,268.24 L 142.88,268.82 L 143.76,269.57 L 144.06,270.48 L 143.76,271.54 L 142.88,272.67 L 141.52,273.78 L 139.84,274.78 L 137.97,275.63 L 136.02,276.27 L 134.06,276.77 L 132.18,277.25 L 130.40,277.79 L 128.82,278.53 L 127.49,279.55 L 126.51,280.85 L 125.97,282.34 L 125.92,283.94 L 126.37,285.49 L 127.30,286.82 L 128.61,287.79 L 130.19,288.32 L 131.92,288.34 L 133.70,287.86 L 135.44,286.98 L 137.15,285.81 L 138.85,284.50 L 140.56,283.15 L 142.32,281.89 L 144.16,280.77 L 146.06,279.86 L 148.02,279.17 L 150.00,278.77 L 152.00,278.64 L 154.00,278.74 L 156.00,278.98 L 158.00,279.28 L 160.00,279.52 L 162.00,279.63 L 164.00,279.58 L 166.00,279.36 L 168.00,278.99 L 170.00,278.53 L 172.00,278.02 L 174.00,277.54 L 176.00,277.17 L 178.00,276.94 L 180.00,276.90 L 182.00,277.01 L 184.00,277.22 L 186.00,277.46 L 188.00,277.68 L 190.00,277.84 L 192.00,277.94 L 194.00,277.98 L 196.00,278.02 L 198.00,278.05 L 200.00,278.10 L 202.00,278.16 L 204.00,278.22 L 206.00,278.22 L 208.00,278.14 L 210.00,277.97 L 212.00,277.68 L 214.00,277.31 L 216.00,276.94 L 218.00,276.62 L 220.00,276.42 L 221.98,276.40 L 223.94,276.62 L 225.82,277.14 L 227.62,277.97 L 229.26,279.12 L 230.75,280.56 L 232.05,282.24 L 233.15,284.08 L 234.05,286.02 L 234.77,288.00 L 235.33,290.00 L 235.78,292.00 L 236.14,294.00 L 236.50,296.00 L 236.83,298.00 L 237.15,300.00 L 237.44,302.00 L 237.68,304.00 L 237.84,306.00 L 237.94,308.00 L 237.98,310.00 L 238.00,312.00 L 238.00,314.00 L 238.00,316.00 L 238.00,318.00 L 238.02,320.00 L 238.06,322.00 L 238.16,324.00 L 238.32,326.00 L 238.56,328.00 L 238.85,330.00 L 239.15,332.00 L 239.44,334.00 L 239.68,336.00 L 239.84,338.00 L 239.94,340.00 L 239.98,342.00 L 240.00,344.00 L 240.00,346.00 L 240.00,348.00 L 240.00,350.00 L 240.00,352.00 L 240.00,354.00 L 239.98,356.00 L 239.94,358.00 L 239.84,360.00 L 239.68,362.00 L 239.44,364.00 L 239.15,366.00 L 238.85,368.00 L 238.56,370.00 L 238.30,372.00 L 238.10,374.00 L 237.90,376.00 L 237.68,378.00 L 237.38,380.00 L 236.98,382.00 L 236.45,384.00 L 235.76,386.00 L 234.91,387.98 L 233.89,389.94 L 232.66,391.82 L 231.22,393.58 L 229.60,395.14 L 227.82,396.42 L 225.95,397.33 L 224.05,397.79 L 222.16,397.79 L 220.34,397.33 L 218.62,396.42 L 217.02,395.14 L 215.54,393.58 L 214.18,391.82 L 212.91,389.94 L 211.73,387.98 L 210.61,386.00 L 209.55,384.00 L 208.53,382.00 L 207.55,380.00 L 206.61,378.00 L 205.71,376.00 L 204.85,374.00 L 204.00,372.00 L 203.15,370.00 L 202.30,368.00 L 201.46,366.00 L 200.62,364.00 L 199.87,362.00 L 199.22,360.00 L 198.67,358.00 L 198.22,356.00 L 197.84,354.00 L 197.44,352.00 L 196.99,350.00 L 196.45,348.02 L 195.76,346.06 L 194.93,344.16 L 193.97,342.32 L 192.90,340.56 L 191.78,338.85 L 190.72,337.15 L 189.79,335.44 L 189.06,333.68 L 188.54,331.84 L 188.26,329.94 L 188.14,327.98 L 188.18,326.00 L 188.32,324.00 L 188.56,322.00 L 188.83,320.00 L 189.07,318.02 L 189.20,316.08 L 189.12,314.24 L 188.72,312.56 L 187.97,311.14 L 186.88,310.05 L 185.52,309.36 L 184.00,309.12 L 182.48,309.36 L 181.12,310.05 L 180.03,311.14 L 179.28,312.56 L 178.88,314.24 L 178.80,316.08 L 178.93,318.02 L 179.17,320.00 L 179.42,322.00 L 179.60,323.97 L 179.60,325.84 L 179.38,327.52 L 178.88,328.88 L 178.10,329.76 L 177.06,330.06 L 175.84,329.76 L 174.56,328.88 L 173.31,327.52 L 172.18,325.86 L 171.17,324.03 L 170.24,322.18 L 169.28,320.42 L 168.21,318.86 L 166.94,317.58 L 165.47,316.67 L 163.84,316.21 L 162.16,316.21 L 160.56,316.67 L 159.20,317.58 L 158.21,318.85 L 157.68,320.34 L 157.68,321.95 L 158.19,323.58 L 159.14,325.14 L 160.42,326.59 L 161.92,328.00 L 163.50,329.41 L 165.07,330.88 L 166.53,332.45 L 167.76,334.08 L 168.64,335.68 L 169.07,337.14 L 168.98,338.30 L 168.34,339.12 L 167.20,339.55 L 165.70,339.60 L 163.97,339.30 L 162.14,338.74 L 160.32,337.95 L 158.56,337.02 L 156.85,336.06 L 155.15,335.18 L 153.46,334.50 L 151.76,334.14 L 150.08,334.19 L 148.51,334.67 L 147.18,335.58 L 146.21,336.85 L 145.68,338.34 L 145.68,339.94 L 146.21,341.49 L 147.20,342.85 L 148.58,343.94 L 150.24,344.72 L 152.08,345.20 L 154.02,345.49 L 156.00,345.68 L 158.00,345.87 L 159.97,346.16 L 161.84,346.62 L 163.52,347.25 L 164.88,348.05 L 165.76,348.99 L 166.06,350.02 L 165.76,351.06 L 164.88,352.05 L 163.52,352.91 L 161.84,353.62 L 159.97,354.14 L 158.00,354.50 L 156.02,354.77 L 154.08,355.07 L 152.24,355.52 L 150.56,356.22 L 149.14,357.26 L 148.05,358.61 L 147.36,360.18 L 147.12,361.84 L 147.36,363.46 L 148.05,364.86 L 149.12,365.95 L 150.50,366.64 L 152.08,366.90 L 153.76,366.70 L 155.46,366.13 L 157.15,365.25 L 158.85,364.18 L 160.56,363.01 L 162.32,361.89 L 164.13,360.91 L 165.90,360.19 L 167.55,359.81 L 168.94,359.86 L 169.92,360.35 L 170.38,361.30 L 170.32,362.61 L 169.73,364.19 L 168.69,365.92 L 167.36,367.70 L 165.89,369.44 L 164.40,371.15 L 163.07,372.85 L 162.03,374.54 L 161.36,376.26 L 161.12,377.97 L 161.36,379.60 L 162.05,381.04 L 163.12,382.19 L 164.48,382.93 L 166.00,383.18 L 167.52,382.93 L 168.91,382.19 L 170.11,381.02 L 171.10,379.54 L 171.94,377.81 L 172.72,375.94 L 173.57,374.02 L 174.53,372.16 L 175.65,370.48 L 176.91,369.12 L 178.24,368.24 L 179.55,367.94 L 180.82,368.24 L 181.97,369.12 L 182.99,370.48 L 183.94,372.16 L 184.83,374.03 L 185.70,376.00 L 186.56,378.00 L 187.44,380.00 L 188.30,382.00 L 189.15,384.00 L 189.98,386.00 L 190.80,388.00 L 191.60,390.00 L 192.40,392.00 L 193.20,394.00 L 194.00,396.00 L 194.78,398.00 L 195.55,400.00 L 196.29,402.00 L 196.99,404.00 L 197.66,406.00 L 198.35,408.00 L 199.06,410.00 L 199.82,412.00 L 200.66,414.00 L 201.55,416.00 L 202.46,418.00 L 203.39,420.00 L 204.27,422.00 L 205.09,424.00 L 205.82,426.00 L 206.46,428.00 L 206.98,430.00 L 207.38,432.00 L 207.66,434.00 L 207.84,436.00 L 207.94,438.00 L 207.98,440.00 L 208.00,442.00 L 208.00,444.00 L 208.00,446.00 L 207.98,448.00 L 207.94,450.00 L 207.84,452.00 L 207.66,454.00 L 207.36,456.00 L 206.91,458.00 L 206.29,459.98 L 205.44,461.94 L 204.35,463.82 L 203.04,465.62 L 201.50,467.28 L 199.78,468.82 L 197.92,470.22 L 195.98,471.55 L 194.00,472.85 L 192.00,474.16 L 190.00,475.54 L 188.00,477.02 L 186.00,478.62 L 184.00,480.34 L 182.00,482.16 L 180.02,484.06 L 178.06,486.02 L 176.16,488.00 L 174.34,490.00 L 172.62,492.00 L 171.02,494.00 L 169.54,496.00 L 168.18,498.00 L 166.91,500.00 L 165.73,502.00 L 164.62,504.00 L 163.60,506.00 L 162.62,508.00 L 161.71,510.00 L 160.85,512.00 L 160.02,514.00 L 159.22,516.00 L 158.45,518.00 L 157.71,520.00 L 157.02,522.00 L 156.40,524.00 L 155.82,526.00 L 155.33,528.00 L 154.90,530.00 L 154.51,532.00 L 154.16,534.00 L 153.84,536.00 L 153.50,538.00 L 153.17,540.00 L 152.85,542.00 L 152.56,544.00 L 152.32,546.00 L 152.16,548.00 L 152.06,550.00 L 152.02,552.00 L 152.00,554.00 L 152.00,556.00 L 152.00,558.00 L 152.02,560.00 L 152.06,562.00 L 152.16,564.00 L 152.32,566.00 L 152.56,568.00 L 152.85,570.00 L 153.17,572.00 L 153.50,574.00 L 153.84,576.00 L 154.18,578.00 L 154.56,580.00 L 154.99,582.00 L 155.47,584.00 L 156.02,586.00 L 156.59,588.00 L 157.17,590.00 L 157.76,592.00 L 158.40,594.00 L 159.07,596.00 L 159.81,598.00 L 160.61,600.00 L 161.46,602.00 L 162.30,604.00 L 163.15,606.00 L 164.00,608.00 L 164.85,610.00 L 165.71,612.00 L 166.62,614.00 L 167.60,616.00 L 168.62,618.00 L 169.73,620.00 L 170.90,622.00 L 172.11,624.00 L 173.38,626.00 L 174.69,628.00 L 176.00,630.00 L 177.33,632.00 L 178.69,634.00 L 180.05,636.00 L 181.42,638.00 L 182.85,640.00 L 184.30,642.00 L 185.78,644.00 L 187.31,646.00 L 188.90,648.00 L 190.51,650.00 L 192.16,652.00 L 193.84,654.00 L 195.50,656.00 L 197.17,658.00 L 198.85,660.00 L 200.56,662.00 L 202.32,664.00 L 204.16,666.00 L 206.06,667.98 L 208.02,669.94 L 210.00,671.84 L 212.00,673.68 L 214.00,675.44 L 216.00,677.15 L 218.00,678.83 L 220.00,680.50 L 222.00,682.16 L 224.00,683.84 L 226.00,685.50 L 228.00,687.15 L 230.00,688.78 L 232.00,690.40 L 234.00,691.98 L 236.00,693.54 L 238.00,695.06 L 240.00,696.53 L 242.00,697.94 L 244.00,699.30 L 246.00,700.62 L 248.00,701.90 L 250.00,703.15 L 252.00,704.38 L 254.00,705.60 L 256.00,706.80 L 258.00,707.98 L 260.00,709.15 L 262.00,710.29 L 264.00,711.38 L 266.00,712.40 L 268.00,713.38 L 270.00,714.29 L 272.00,715.15 L 274.00,716.00 L 276.00,716.85 L 278.00,717.70 L 280.00,718.56 L 282.00,719.44 L 284.00,720.29 L 286.00,721.10 L 288.00,721.89 L 290.00,722.62 L 292.00,723.30 L 294.00,723.95 L 296.00,724.58 L 298.00,725.15 L 300.00,725.70 L 302.00,726.22 L 304.00,726.70 L 306.00,727.15 L 308.00,727.58 L 310.00,728.00 L 312.00,728.40 L 314.00,728.78 L 316.00,729.14 L 318.00,729.46 L 320.00,729.74 L 322.00,730.00 L 324.00,730.26 L 326.00,730.54 L 328.00,730.85 L 330.00,731.15 L 332.00,731.44 L 334.00,731.68 L 336.00,731.84 L 338.00,731.94 L 340.00,731.98 L 342.00,732.00 L 344.00,732.00 L 346.00,732.00 L 348.00,732.00 L 350.00,731.98 L 352.00,731.94 L 354.00,731.84 L 356.00,731.68 L 358.00,731.44 L 360.00,731.15 L 362.00,730.85 L 364.00,730.54 L 366.00,730.26 L 368.00,730.00 L 370.00,729.74 L 372.00,729.46 L 374.00,729.15 L 376.00,728.83 L 378.00,728.50 L 380.00,728.16 L 382.00,727.84 L 384.00,727.50 L 386.00,727.15 L 388.00,726.78 L 390.00,726.40 L 392.00,726.00 L 394.00,725.58 L 396.00,725.15 L 398.00,724.70 L 400.00,724.22 L 402.00,723.70 L 404.00,723.15 L 406.00,722.58 L 408.00,721.95 L 410.00,721.31 L 412.00,720.67 L 414.00,720.00 L 416.00,719.31 L 418.00,718.62 L 420.00,717.89 L 422.00,717.09 L 424.00,716.22 L 426.00,715.28 L 427.98,714.22 L 429.94,713.07 L 431.82,711.82 L 433.60,710.46 L 435.20,708.98 L 436.59,707.38 L 437.73,705.66 L 438.59,703.84 L 439.20,701.94 L 439.58,699.98 L 439.74,698.00 L 439.70,696.00 L 439.42,694.00 L 438.88,692.02 L 438.03,690.06 L 436.88,688.16 L 435.44,686.34 L 433.76,684.64 L 431.92,683.07 L 429.98,681.65 L 428.00,680.40 L 426.00,679.31 L 424.00,678.34 L 422.00,677.49 L 420.00,676.74 L 418.00,676.02 L 416.00,675.33 L 414.00,674.69 L 412.00,674.05 L 410.00,673.42 L 408.00,672.85 L 406.00,672.30 L 404.00,671.78 L 402.00,671.30 L 400.00,670.85 L 398.00,670.42 L 396.00,670.00 L 394.00,669.60 L 392.00,669.22 L 390.00,668.86 L 388.00,668.56 L 386.00,668.32 L 384.00,668.16 L 382.00,668.06 L 380.00,668.00 L 378.00,667.94 L 376.00,667.84 L 374.00,667.68 L 372.00,667.44 L 370.00,667.15 L 368.00,666.85 L 366.00,666.54 L 364.00,666.26 L 362.00,666.00 L 360.00,665.73 L 358.00,665.39 L 356.00,664.99 L 354.00,664.51 L 352.00,663.94 L 350.00,663.31 L 348.00,662.67 L 346.00,662.00 L 344.00,661.31 L 342.00,660.62 L 340.00,659.89 L 338.00,659.10 L 336.00,658.27 L 334.00,657.38 L 332.00,656.40 L 330.00,655.38 L 328.00,654.27 L 326.00,653.09 L 324.00,651.82 L 322.00,650.46 L 320.00,648.98 L 318.00,647.38 L 316.00,645.66 L 314.00,643.84 L 312.00,641.94 L 310.02,639.98 L 308.06,638.00 L 306.16,636.00 L 304.34,634.00 L 302.62,632.00 L 301.02,630.00 L 299.54,628.00 L 298.18,626.00 L 296.93,624.00 L 295.78,622.00 L 294.72,620.00 L 293.76,618.00 L 292.86,616.00 L 292.02,614.00 L 291.22,612.00 L 290.45,610.00 L 289.71,608.00 L 289.02,606.00 L 288.40,604.00 L 287.82,602.00 L 287.33,600.00 L 286.90,598.00 L 286.51,596.00 L 286.16,594.00 L 285.84,592.00 L 285.50,590.00 L 285.17,588.00 L 284.85,586.00 L 284.56,584.00 L 284.32,582.00 L 284.16,580.00 L 284.06,578.00 L 284.02,576.00 L 283.98,574.00 L 283.94,572.00 L 283.84,570.00 L 283.68,568.00 L 283.44,566.00 L 283.15,564.00 L 282.85,562.00 L 282.56,560.00 L 282.32,558.00 L 282.16,556.00 L 282.06,554.00 L 282.00,552.00 L 281.94,550.00 L 281.84,548.00 L 281.68,546.00 L 281.44,544.00 L 281.15,542.00 L 280.83,540.00 L 280.50,538.00 L 280.16,536.00 L 279.84,534.00 L 279.49,532.00 L 279.10,530.00 L 278.69,528.00 L 278.24,526.00 L 277.74,524.00 L 277.25,522.00 L 276.75,520.00 L 276.24,518.00 L 275.70,516.00 L 275.14,514.00 L 274.53,512.00 L 273.86,510.00 L 273.14,508.00 L 272.38,506.00 L 271.62,504.00 L 270.88,502.00 L 270.22,500.00 L 269.70,498.00 L 269.36,496.00 L 269.26,494.00 L 269.42,492.00 L 269.87,490.00 L 270.62,488.02 L 271.66,486.08 L 272.96,484.22 L 274.50,482.50 L 276.22,480.96 L 278.08,479.65 L 280.02,478.54 L 282.00,477.65 L 284.00,476.93 L 286.00,476.32 L 288.00,475.76 L 290.00,475.25 L 292.00,474.75 L 294.00,474.26 L 296.00,473.74 L 298.00,473.25 L 300.00,472.75 L 302.00,472.24 L 304.00,471.70 L 306.00,471.14 L 308.00,470.53 L 310.00,469.84 L 312.00,469.09 L 314.00,468.27 L 316.00,467.38 L 318.00,466.40 L 320.00,465.38 L 322.00,464.27 L 324.00,463.09 L 326.00,461.82 L 328.00,460.48 L 330.00,459.04 L 332.00,457.54 L 334.00,455.98 L 336.00,454.42 L 338.00,452.85 L 340.00,451.31 L 342.00,449.82 L 344.00,448.42 L 346.00,447.07 L 348.00,445.82 L 350.00,444.67 L 352.00,443.65 L 354.00,442.77 L 356.00,442.11 L 358.00,441.73 L 360.00,441.70 L 362.00,442.03 L 364.00,442.74 L 366.00,443.78 L 368.00,445.10 L 369.98,446.64 L 371.94,448.32 L 373.84,450.10 L 375.68,451.89 L 377.44,453.63 L 379.15,455.26 L 380.85,456.75 L 382.56,458.03 L 384.32,459.09 L 386.16,459.87 L 388.06,460.38 L 390.02,460.62 L 392.00,460.69 L 394.00,460.66 L 396.00,460.70 L 398.00,460.96 L 400.00,461.52 L 401.98,462.38 L 403.92,463.57 L 405.78,464.98 L 407.52,466.53 L 409.12,468.14 L 410.59,469.76 L 412.00,471.25 L 413.41,472.53 L 414.86,473.49 L 416.40,474.03 L 417.98,474.08 L 419.50,473.63 L 420.82,472.70 L 421.79,471.39 L 422.32,469.82 L 422.32,468.16 L 421.79,466.53 L 420.80,465.04 L 419.42,463.74 L 417.76,462.62 L 415.92,461.60 L 414.02,460.59 L 412.16,459.54 L 410.48,458.38 L 409.12,457.15 L 408.24,455.92 L 407.94,454.78 L 408.24,453.81 L 409.12,453.07 L 410.48,452.61 L 412.16,452.40 L 414.03,452.40 L 416.00,452.58 L 418.00,452.83 L 420.00,453.07 L 421.98,453.20 L 423.92,453.12 L 425.74,452.72 L 427.36,451.97 L 428.64,450.88 L 429.47,449.52 L 429.76,448.00 L 429.47,446.48 L 428.64,445.12 L 427.36,444.03 L 425.74,443.28 L 423.92,442.88 L 421.98,442.80 L 420.00,442.93 L 418.00,443.18 L 416.00,443.50 L 414.00,443.82 L 412.03,444.08 L 410.16,444.26 L 408.48,444.27 L 407.12,444.05 L 406.24,443.54 L 405.94,442.72 L 406.24,441.62 L 407.12,440.34 L 408.48,438.99 L 410.16,437.68 L 412.03,436.48 L 413.98,435.41 L 415.92,434.40 L 417.76,433.38 L 419.42,432.26 L 420.80,430.98 L 421.79,429.52 L 422.32,427.94 L 422.32,426.34 L 421.79,424.85 L 420.82,423.58 L 419.49,422.67 L 417.94,422.21 L 416.30,422.21 L 414.70,422.67 L 413.17,423.58 L 411.71,424.85 L 410.29,426.35 L 408.83,427.98 L 407.30,429.58 L 405.70,430.98 L 404.06,432.03 L 402.51,432.61 L 401.17,432.62 L 400.14,432.08 L 399.52,431.04 L 399.36,429.58 L 399.63,427.86 L 400.27,425.97 L 401.17,424.00 L 402.18,422.00 L 403.10,420.02 L 403.81,418.06 L 404.14,416.18 L 404.05,414.40 L 403.49,412.82 L 402.51,411.49 L 401.20,410.51 L 399.68,409.97 L 398.06,409.92 L 396.51,410.37 L 395.17,411.30 L 394.11,412.62 L 393.38,414.26 L 392.96,416.08 L 392.77,418.02 L 392.66,420.00 L 392.53,422.00 L 392.29,423.97 L 391.86,425.84 L 391.22,427.52 L 390.40,428.88 L 389.44,429.76 L 388.40,430.06 L 387.34,429.76 L 386.34,428.88 L 385.44,427.52 L 384.69,425.84 L 384.10,423.97 L 383.66,422.00 L 383.33,420.02 L 382.98,418.08 L 382.50,416.24 L 381.78,414.58 L 380.74,413.20 L 379.39,412.21 L 377.82,411.68 L 376.16,411.68 L 374.53,412.21 L 373.04,413.17 L 371.73,414.43 L 370.56,415.84 L 369.44,417.20 L 368.27,418.34 L 366.96,419.18 L 365.46,419.73 L 363.76,420.02 L 361.92,420.14 L 359.98,420.24 L 358.00,420.37 L 356.00,420.58 L 354.00,420.85 L 352.00,421.14 L 350.00,421.36 L 348.00,421.44 L 346.00,421.28 L 344.02,420.82 L 342.10,420.02 L 340.30,418.88 L 338.72,417.44 L 337.44,415.76 L 336.54,413.92 L 336.03,411.98 L 335.89,410.00 L 336.06,408.00 L 336.48,406.00 L 337.04,404.00 L 337.71,402.00 L 338.45,400.00 L 339.22,398.00 L 340.00,396.00 L 340.80,394.00 L 341.60,392.00 L 342.38,390.00 L 343.15,388.00 L 343.90,386.00 L 344.62,384.00 L 345.31,382.00 L 346.00,380.00 L 346.67,378.00 L 347.31,376.00 L 347.95,374.00 L 348.58,372.00 L 349.15,370.00 L 349.70,368.00 L 350.22,366.00 L 350.69,364.00 L 351.09,362.00 L 351.44,360.00 L 351.74,358.00 L 352.00,356.00 L 352.26,354.00 L 352.54,352.00 L 352.85,350.00 L 353.15,348.00 L 353.44,346.00 L 353.68,344.00 L 353.84,342.00 L 353.94,340.00 L 353.97,338.00 L 353.94,336.00 L 353.84,334.00 L 353.68,332.00 L 353.44,330.00 L 353.15,328.00 L 352.85,326.00 L 352.54,324.00 L 352.26,322.00 L 352.00,320.00 L 351.74,318.00 L 351.46,316.00 L 351.14,314.00 L 350.78,312.00 L 350.40,310.00 L 350.00,308.00 L 349.58,306.00 L 349.15,304.00 L 348.70,302.00 L 348.22,300.00 L 347.70,298.00 L 347.15,296.00 L 346.58,294.00 L 345.95,292.00 L 345.31,290.00 L 344.67,288.00 L 344.00,286.00 L 343.31,284.00 L 342.62,282.00 L 341.90,280.00 L 341.15,278.00 L 340.38,276.00 L 339.60,274.00 L 338.78,272.00 L 337.94,270.00 L 337.04,268.00 L 336.08,266.00 L 335.04,264.00 L 333.95,262.00 L 332.83,260.00 L 331.70,258.00 L 330.56,256.00 L 329.44,254.00 L 328.29,252.00 L 327.09,250.00 L 325.84,248.00 L 324.53,246.00 L 323.14,244.00 L 321.70,242.00 L 320.22,240.00 L 318.70,238.00 L 317.15,236.00 L 315.58,234.00 L 314.00,232.00 L 312.40,230.00 L 310.78,228.00 L 309.14,226.00 L 307.44,224.00 L 305.68,222.00 L 303.84,220.00 L 301.95,218.00 L 300.05,216.00 L 298.16,214.00 L 296.34,212.00 L 294.62,210.00 L 293.01,208.00 L 291.49,206.00 L 290.06,204.00 L 288.70,202.00 L 287.39,200.00 L 286.16,198.00 L 285.01,196.00 L 283.95,194.00 L 283.01,192.00 L 282.16,190.00 L 281.39,188.00 L 280.70,186.00 L 280.05,184.00 L 279.42,182.00 L 278.85,180.00 L 278.30,178.00 L 277.78,176.00 L 277.30,174.00 L 276.85,172.00 L 276.42,170.00 L 276.02,168.00 L 275.66,166.00 L 275.39,164.00 L 275.26,162.00 L 275.34,160.00 L 275.66,158.00 L 276.27,156.00 L 277.15,154.00 L 278.26,152.00 L 279.54,150.00 L 280.96,148.00 L 282.46,146.00 L 284.02,144.00 L 285.60,142.00 L 287.20,140.00 L 288.80,138.00 L 290.40,136.00 L 292.00,134.00 L 293.60,132.00 L 295.22,130.00 L 296.86,128.02 L 298.56,126.06 L 300.32,124.18 L 302.16,122.38 L 304.06,120.72 L 306.00,119.17 L 307.94,117.71 L 309.84,116.29 L 311.68,114.85 L 313.44,113.34 L 315.15,111.79 L 316.85,110.22 L 318.56,108.74 L 320.32,107.39 L 322.16,106.27 L 324.06,105.42 L 326.02,104.86 L 328.00,104.56 L 330.00,104.50 L 332.00,104.61 L 334.00,104.78 L 335.98,104.91 L 337.92,104.88 L 339.76,104.56 L 341.42,103.87 L 342.80,102.82 L 343.79,101.44 L 344.32,99.84 L 344.32,98.18 L 343.79,96.61 L 342.80,95.30 L 341.42,94.37 L 339.76,93.90 L 337.92,93.89 L 335.98,94.27 L 334.00,94.93 L 332.00,95.70 L 330.00,96.42 L 328.03,96.98 L 326.16,97.26 L 324.48,97.22 L 323.12,96.80 L 322.24,96.02 L 321.94,94.90 L 322.24,93.52 L 323.12,92.00 L 324.48,90.46 L 326.14,89.02 L 327.95,87.73 L 329.76,86.56 L 331.44,85.44 L 332.86,84.27 L 333.95,82.98 L 334.64,81.52 L 334.88,79.94 L 334.64,78.34 L 333.95,76.86 L 332.88,75.65 L 331.52,74.83 L 329.98,74.53 L 328.40,74.77 L 326.86,75.52 L 325.41,76.74 L 324.00,78.30 L 322.59,80.06 L 321.14,81.86 L 319.60,83.52 L 318.02,84.88 L 316.48,85.76 L 315.10,86.06 L 313.98,85.76 L 313.20,84.88 L 312.78,83.52 L 312.74,81.84 L 313.01,79.97 L 313.52,78.00 L 314.14,76.00 L 314.75,74.02 L 315.17,72.06 L 315.26,70.19 L 314.94,68.46 L 314.19,66.98 L 313.04,65.81 L 311.62,65.07 L 310.05,64.82 L 308.50,65.07 L 307.12,65.81 L 306.03,66.98 L 305.28,68.46 L 304.88,70.19 L 304.78,72.06 L 304.86,74.02 L 305.01,76.00 L 305.10,78.00 L 305.04,79.97 L 304.77,81.84 L 304.29,83.52 L 303.60,84.88 L 302.74,85.76 L 301.76,86.06 L 300.70,85.76 L 299.63,84.88 L 298.61,83.52 L 297.68,81.84 L 296.88,79.97 L 296.19,78.02 L 295.54,76.06 L 294.82,74.19 L 293.94,72.46 L 292.80,70.98 L 291.41,69.81 L 289.82,69.07 L 288.16,68.82 L 286.56,69.07 L 285.18,69.81 L 284.14,70.96 L 283.52,72.38 L 283.36,73.97 L 283.63,75.58 L 284.29,77.14 L 285.25,78.59 L 286.42,80.00 L 287.66,81.41 L 288.91,82.88 L 290.03,84.46 L 290.93,86.13 L 291.49,87.78 L 291.63,89.28 L 291.30,90.50 L 290.50,91.30 L 289.28,91.63 L 287.76,91.49 L 286.06,90.93 L 284.30,90.05 L 282.56,88.98 L 280.85,87.82 L 279.15,86.75 L 277.46,85.87 L 275.74,85.30 L 274.03,85.10 L 272.40,85.36 L 270.96,86.05 L 269.81,87.12 L 269.07,88.48 L 268.82,90.00 L 269.07,91.52 L 269.81,92.90 L 270.98,94.05 L 272.46,94.94 L 274.19,95.62 L 276.06,96.14 L 278.02,96.64 L 280.00,97.17 L 281.98,97.79 L 283.92,98.53 L 285.74,99.39 L 287.38,100.40 L 288.70,101.58 L 289.63,102.94 L 290.08,104.50 L 290.05,106.22 L 289.55,108.08 L 288.67,110.02 L 287.50,112.00 L 286.16,114.00 L 284.69,116.00 L 283.15,118.00 L 281.58,120.00 L 280.00,122.00 L 278.40,124.00 L 276.80,126.00 L 275.20,128.00 L 273.60,130.00 L 272.00,131.98 L 270.40,133.94 L 268.78,135.84 L 267.14,137.66 L 265.44,139.36 L 263.68,140.91 L 261.84,142.29 L 259.94,143.42 L 257.98,144.27 L 256.02,144.80 L 254.08,144.94 L 252.22,144.66 L 250.50,143.95 L 248.96,142.86 L 247.65,141.44 L 246.56,139.76 L 245.71,137.92 L 245.09,135.98 L 244.64,134.00 L 244.32,132.00 L 244.10,130.00 L 243.90,128.00 L 243.70,126.00 L 243.44,124.00 L 243.14,122.00 L 242.78,120.00 L 242.40,118.00 L 241.98,116.00 L 241.54,114.00 L 241.06,112.00 L 240.53,110.00 L 239.94,108.00 L 239.31,106.00 L 238.67,104.00 L 238.00,102.00 L 237.31,100.00 L 236.61,98.00 L 235.84,96.00 L 234.99,94.00 L 234.05,92.00 L 232.99,90.00 L 231.86,88.00 L 230.67,86.00 L 229.47,84.00 L 228.34,82.00 L 227.30,80.00 L 226.34,78.00 L 225.47,76.00 L 224.67,74.00 L 223.84,72.00 L 222.93,70.00 L 221.89,68.02 L 220.66,66.06 L 219.22,64.18 L 217.60,62.40 L 215.82,60.78 L 213.94,59.34 L 211.98,58.11 L 210.00,57.09 L 208.00,56.24 L 206.00,55.55 L 204.00,55.04 L 202.00,54.69 L 200.00,54.50 L 198.00,54.46 L 196.00,54.56 L 194.00,54.69 L 192.00,54.77 L 190.00,54.70 L 188.00,54.45 L 186.00,53.95 L 184.00,53.26 L 182.00,52.42 L 180.00,51.49 L 178.00,50.50 L 176.00,49.50 L 174.00,48.50 L 172.00,47.50 L 170.00,46.51 L 168.00,45.55 L 166.00,44.61 L 164.00,43.73 L 162.00,42.91 L 160.00,42.18 L 158.00,41.54 L 156.00,41.02 L 154.00,40.62 L 152.00,40.34 L 150.00,40.18 L 148.00,40.13 L 146.00,40.19 L 144.00,40.40 L 142.00,40.80 Z"/></svg>