<?xml version="1.0" encoding="UTF-8"?>
<svg xmlns="http://www.w3.org/2000/svg" viewBox="0 0 447 609" width="447" height="609">
  <path fill="#000000" d="M 64.00,93.71 L 60.43,96.14 L 59.29,100.00 L 60.43,104.00 L 61.00,108.00 L 60.71,112.00 L 60.14,116.00 L 59.86,120.00 L 58.00,122.14 L 55.14,120.00 L 52.71,116.00 L 50.14,112.00 L 48.43,108.00 L 47.71,104.00 L 45.71,100.57 L 42.00,99.29 L 38.29,100.57 L 36.29,104.00 L 37.43,107.86 L 41.00,111.29 L 44.43,115.00 L 47.00,119.00 L 49.57,123.00 L 50.00,126.57 L 47.00,127.29 L 43.00,125.86 L 39.00,124.14 L 35.00,122.29 L 31.00,119.14 L 27.00,117.29 L 23.29,118.57 L 21.29,122.00 L 22.00,125.86 L 25.00,128.43 L 29.00,128.57 L 33.00,128.71 L 37.00,130.14 L 41.00,131.71 L 45.00,133.29 L 46.71,135.86 L 44.00,138.00 L 40.00,139.29 L 36.00,140.43 L 32.00,141.43 L 28.00,141.29 L 24.00,141.43 L 20.86,144.00 L 20.57,148.00 L 23.14,151.14 L 27.00,151.86 L 31.00,149.86 L 35.00,147.14 L 39.00,145.86 L 43.00,144.71 L 47.00,143.57 L 51.00,142.57 L 55.00,143.86 L 59.00,146.00 L 63.00,147.71 L 67.00,151.00 L 70.43,155.00 L 73.57,159.00 L 76.57,163.00 L 79.57,167.00 L 83.00,170.00 L 87.00,171.57 L 91.00,173.29 L 95.00,176.14 L 98.29,180.00 L 100.71,184.00 L 102.00,188.00 L 102.71,192.00 L 103.14,196.00 L 103.71,200.00 L 103.43,204.00 L 103.00,208.00 L 103.00,212.00 L 103.00,216.00 L 103.00,220.00 L 103.00,224.00 L 103.14,228.00 L 103.71,232.00 L 104.00,236.00 L 104.29,240.00 L 104.86,244.00 L 105.43,248.00 L 106.14,252.00 L 106.71,256.00 L 107.57,260.00 L 108.57,264.00 L 109.57,268.00 L 110.71,272.00 L 111.86,276.00 L 113.00,280.00 L 114.29,284.00 L 115.71,288.00 L 117.00,292.00 L 118.57,296.00 L 120.00,300.00 L 121.57,304.00 L 123.00,308.00 L 124.43,312.00 L 126.00,316.00 L 127.29,320.00 L 128.86,324.00 L 130.29,328.00 L 131.71,332.00 L 133.14,336.00 L 134.71,340.00 L 136.14,344.00 L 137.57,348.00 L 138.57,352.00 L 139.57,356.00 L 140.14,360.00 L 140.43,364.00 L 139.57,368.00 L 137.57,372.00 L 134.71,376.00 L 131.00,379.57 L 127.00,382.57 L 123.00,385.43 L 119.00,386.86 L 115.00,385.71 L 111.00,385.43 L 107.86,388.00 L 107.00,392.00 L 106.57,396.00 L 106.14,400.00 L 106.86,404.00 L 107.29,407.86 L 105.00,408.86 L 101.00,406.00 L 98.29,402.00 L 95.86,398.71 L 92.00,397.86 L 88.57,399.57 L 87.14,403.00 L 88.43,406.86 L 92.00,408.86 L 96.00,410.43 L 100.00,413.43 L 104.00,416.71 L 107.00,420.14 L 105.86,422.57 L 102.00,423.00 L 98.00,423.00 L 94.00,423.00 L 90.00,422.14 L 86.00,420.14 L 82.00,420.14 L 79.14,423.00 L 79.00,427.00 L 81.29,430.00 L 85.00,430.86 L 89.00,429.71 L 93.00,429.00 L 97.00,429.00 L 101.00,429.00 L 105.00,429.14 L 107.29,431.14 L 105.00,434.29 L 101.00,437.00 L 97.00,439.86 L 93.00,441.71 L 89.00,442.57 L 86.00,445.14 L 85.29,449.00 L 87.29,452.43 L 91.00,453.71 L 94.86,451.86 L 97.71,448.00 L 101.00,444.71 L 105.00,442.00 L 109.00,439.14 L 112.57,438.14 L 113.29,441.00 L 112.00,445.00 L 110.86,449.00 L 109.57,453.00 L 107.00,456.57 L 104.57,460.00 L 104.57,464.00 L 107.14,467.00 L 111.00,467.57 L 114.43,465.00 L 115.43,461.00 L 115.14,457.00 L 116.00,453.00 L 117.29,449.00 L 118.71,445.00 L 120.14,441.00 L 123.00,437.57 L 127.00,435.14 L 130.00,432.00 L 131.57,428.00 L 131.29,424.00 L 129.57,420.00 L 127.29,416.00 L 125.71,412.00 L 125.43,408.00 L 128.00,405.43 L 132.00,405.00 L 136.00,405.00 L 140.00,405.00 L 144.00,404.57 L 148.00,404.00 L 152.00,403.71 L 156.00,403.00 L 160.00,402.00 L 164.00,400.57 L 168.00,399.00 L 172.00,397.43 L 176.00,396.00 L 180.00,394.71 L 184.00,393.57 L 188.00,392.71 L 192.00,391.71 L 196.00,390.14 L 200.00,389.14 L 203.43,390.43 L 203.86,394.00 L 201.86,398.00 L 199.86,402.00 L 198.29,406.00 L 197.14,410.00 L 196.29,414.00 L 195.43,418.00 L 195.00,422.00 L 195.00,426.00 L 195.00,430.00 L 195.00,434.00 L 195.43,438.00 L 196.00,442.00 L 196.57,446.00 L 197.43,450.00 L 198.43,454.00 L 199.71,458.00 L 201.00,462.00 L 202.29,466.00 L 203.86,470.00 L 205.71,474.00 L 207.71,478.00 L 209.71,482.00 L 211.86,486.00 L 214.14,490.00 L 216.43,494.00 L 219.00,498.00 L 221.43,502.00 L 224.14,506.00 L 227.00,510.00 L 229.86,514.00 L 232.86,518.00 L 235.86,522.00 L 238.86,526.00 L 242.14,530.00 L 245.43,534.00 L 249.00,538.00 L 253.00,542.00 L 257.00,546.00 L 261.00,549.57 L 265.00,553.00 L 269.00,556.43 L 273.00,559.43 L 277.00,562.29 L 281.00,565.00 L 285.00,567.43 L 289.00,569.71 L 293.00,571.71 L 297.00,573.71 L 301.00,575.71 L 305.00,577.71 L 309.00,579.43 L 313.00,581.00 L 317.00,582.29 L 321.00,583.57 L 325.00,584.57 L 329.00,585.57 L 333.00,586.43 L 337.00,587.14 L 341.00,587.71 L 345.00,588.29 L 349.00,588.86 L 353.00,589.00 L 357.00,589.00 L 361.00,589.00 L 365.00,588.57 L 369.00,587.86 L 373.00,587.29 L 377.00,586.43 L 381.00,585.43 L 385.00,584.43 L 389.00,583.29 L 393.00,582.00 L 397.00,580.29 L 401.00,578.14 L 405.00,575.57 L 409.00,572.00 L 413.00,568.00 L 416.86,564.00 L 420.14,560.00 L 423.00,556.00 L 425.14,552.00 L 426.43,548.00 L 427.00,544.00 L 426.14,540.00 L 423.71,536.00 L 420.00,532.71 L 416.00,531.00 L 412.00,530.14 L 408.00,530.00 L 404.00,530.29 L 400.00,530.86 L 396.00,531.43 L 392.00,532.14 L 388.00,532.71 L 384.00,533.43 L 380.00,534.14 L 376.00,534.71 L 372.00,535.00 L 368.00,535.00 L 364.00,535.00 L 360.00,535.00 L 356.00,534.86 L 352.00,534.29 L 348.00,533.29 L 344.00,532.00 L 340.00,530.29 L 336.00,528.29 L 332.00,526.00 L 328.00,523.29 L 324.00,520.43 L 320.00,517.00 L 316.00,513.00 L 312.14,509.00 L 308.86,505.00 L 306.00,501.00 L 303.29,497.00 L 300.86,493.00 L 298.71,489.00 L 296.86,485.00 L 295.14,481.00 L 293.57,477.00 L 292.00,473.00 L 290.71,469.00 L 289.57,465.00 L 288.43,461.00 L 287.43,457.00 L 286.29,453.00 L 285.14,449.00 L 284.00,445.00 L 282.71,441.00 L 281.29,437.00 L 280.00,433.00 L 278.29,429.00 L 276.57,425.00 L 274.57,421.00 L 272.14,417.00 L 269.71,413.00 L 266.86,409.00 L 263.71,405.00 L 260.00,401.00 L 256.00,397.14 L 252.00,394.00 L 248.00,391.29 L 244.00,388.86 L 240.00,386.86 L 236.00,385.29 L 232.00,384.14 L 228.00,383.29 L 224.00,382.57 L 220.86,380.00 L 220.43,376.00 L 221.86,372.00 L 224.00,368.00 L 227.00,364.00 L 230.14,360.00 L 233.14,356.00 L 236.00,352.00 L 238.29,348.00 L 240.29,344.00 L 242.29,340.00 L 244.57,336.00 L 247.00,332.00 L 249.71,328.00 L 252.71,324.00 L 256.14,320.00 L 259.57,316.00 L 263.00,312.00 L 267.00,308.29 L 271.00,305.86 L 275.00,306.43 L 279.00,309.57 L 283.00,312.71 L 287.00,316.14 L 289.86,320.00 L 292.29,323.43 L 296.00,324.71 L 299.71,323.43 L 301.57,320.00 L 300.43,316.14 L 297.00,313.57 L 293.00,312.14 L 289.00,309.43 L 285.00,306.29 L 281.43,302.86 L 281.43,300.00 L 285.00,299.71 L 289.00,300.00 L 293.00,300.00 L 297.00,300.14 L 301.00,301.71 L 305.00,302.86 L 308.57,300.86 L 309.86,297.00 L 308.43,293.57 L 305.00,291.71 L 301.00,292.43 L 297.00,293.86 L 293.00,294.00 L 289.00,293.86 L 285.00,293.29 L 282.00,291.57 L 283.14,288.71 L 287.00,286.00 L 291.00,283.14 L 295.00,281.14 L 299.00,280.14 L 302.29,277.86 L 303.14,274.00 L 300.86,270.43 L 297.00,269.14 L 293.43,271.14 L 290.57,275.00 L 287.00,278.29 L 283.00,281.00 L 279.00,283.71 L 275.86,283.57 L 275.71,280.00 L 277.00,276.00 L 278.29,272.00 L 280.43,268.00 L 283.43,264.00 L 284.57,260.00 L 282.71,256.57 L 279.00,255.14 L 275.14,256.43 L 273.14,260.00 L 273.43,264.00 L 273.00,268.00 L 271.71,272.00 L 270.57,276.00 L 269.00,280.00 L 266.43,281.14 L 264.29,278.00 L 263.00,274.00 L 261.71,270.00 L 260.57,266.00 L 260.71,262.00 L 260.14,258.00 L 257.00,255.43 L 253.00,255.86 L 250.00,259.00 L 250.00,263.00 L 252.86,267.00 L 255.43,271.00 L 257.00,275.00 L 258.29,279.00 L 259.71,283.00 L 259.86,287.00 L 258.29,291.00 L 256.43,295.00 L 254.29,299.00 L 251.00,303.00 L 247.57,307.00 L 244.00,311.00 L 240.00,314.57 L 236.00,317.29 L 232.00,319.71 L 228.00,321.71 L 224.00,323.43 L 220.00,324.57 L 216.00,324.86 L 212.00,324.00 L 208.00,322.00 L 204.00,318.86 L 200.29,315.00 L 197.00,311.00 L 194.00,307.00 L 191.57,303.00 L 189.00,299.00 L 186.57,295.00 L 184.14,291.00 L 181.71,287.00 L 179.29,283.00 L 177.29,279.00 L 175.29,275.00 L 173.29,271.00 L 171.57,267.00 L 170.00,263.00 L 168.71,259.00 L 167.43,255.00 L 166.43,251.00 L 165.43,247.00 L 164.43,243.00 L 163.57,239.00 L 163.00,235.00 L 162.43,231.00 L 162.00,227.00 L 162.00,223.00 L 162.14,219.00 L 162.86,215.00 L 164.57,211.00 L 168.00,207.57 L 172.00,205.71 L 176.00,205.14 L 180.00,206.00 L 184.00,206.71 L 188.00,206.00 L 192.00,205.00 L 196.00,204.14 L 200.00,203.29 L 204.00,202.43 L 208.00,201.71 L 212.00,201.86 L 216.00,203.14 L 220.00,204.43 L 224.00,204.00 L 228.00,201.71 L 232.00,198.86 L 236.00,198.00 L 240.00,198.00 L 244.00,198.00 L 248.00,198.00 L 252.00,198.43 L 256.00,200.14 L 260.00,200.43 L 263.00,197.86 L 263.71,194.00 L 261.71,190.57 L 258.00,189.29 L 254.00,190.71 L 250.00,192.00 L 246.00,192.00 L 242.00,192.00 L 238.00,192.00 L 234.86,190.57 L 236.00,187.43 L 240.00,184.57 L 244.00,181.57 L 248.00,179.00 L 252.00,177.86 L 255.43,175.86 L 256.57,172.00 L 254.71,168.43 L 251.00,167.00 L 247.29,168.43 L 244.43,172.00 L 241.00,175.71 L 237.00,178.86 L 233.00,181.86 L 229.43,182.86 L 228.71,180.00 L 229.86,176.00 L 231.00,172.00 L 232.43,168.00 L 235.00,164.00 L 237.29,160.00 L 236.43,156.00 L 233.00,153.43 L 229.14,154.00 L 226.57,157.00 L 226.43,161.00 L 226.57,165.00 L 225.57,169.00 L 224.29,173.00 L 223.00,177.00 L 220.86,179.71 L 218.43,178.00 L 216.86,174.00 L 215.29,170.00 L 213.86,166.00 L 213.57,162.00 L 213.57,158.00 L 211.00,154.86 L 207.00,154.29 L 203.86,156.29 L 202.57,160.00 L 204.29,163.71 L 207.14,167.14 L 209.00,171.00 L 210.57,175.00 L 212.00,179.00 L 212.00,182.57 L 209.00,182.86 L 205.00,180.29 L 201.00,177.86 L 197.29,174.86 L 194.43,171.14 L 191.00,169.14 L 187.00,169.86 L 184.43,173.00 L 184.86,177.00 L 188.00,179.57 L 192.00,180.29 L 196.00,182.00 L 200.00,184.71 L 204.00,187.29 L 206.71,190.29 L 205.00,192.71 L 201.00,193.71 L 197.00,194.43 L 193.00,195.00 L 189.00,194.86 L 185.29,192.86 L 182.71,189.00 L 180.71,185.00 L 178.71,181.00 L 176.71,177.00 L 174.29,173.00 L 171.43,169.00 L 168.71,165.00 L 166.00,161.00 L 163.43,157.00 L 161.00,153.00 L 158.71,149.00 L 156.43,145.00 L 154.00,141.00 L 150.86,137.00 L 147.00,133.57 L 143.00,131.57 L 139.00,131.00 L 135.00,131.57 L 131.00,133.57 L 127.00,136.71 L 123.00,140.14 L 119.00,143.43 L 115.00,146.29 L 111.00,149.00 L 107.00,151.29 L 103.00,153.57 L 99.00,155.71 L 95.00,157.71 L 91.00,159.00 L 87.00,158.29 L 83.00,155.00 L 79.14,151.00 L 75.71,147.00 L 73.00,143.00 L 72.00,139.00 L 71.57,135.00 L 71.43,131.00 L 74.00,127.00 L 78.00,123.00 L 81.43,119.00 L 85.00,115.71 L 88.86,113.71 L 91.43,110.86 L 91.57,107.00 L 89.00,103.86 L 85.00,103.43 L 81.86,106.00 L 80.14,110.00 L 77.29,114.00 L 73.86,118.00 L 70.00,121.57 L 66.86,121.57 L 66.14,118.00 L 66.71,114.00 L 67.00,110.00 L 67.86,106.00 L 70.00,102.00 L 70.43,98.00 L 67.86,94.57 Z M 155.00,20.57 L 154.00,20.86 L 153.00,21.29 L 152.00,21.86 L 151.00,22.57 L 150.00,23.29 L 149.00,24.14 L 148.00,25.00 L 147.14,26.00 L 146.29,27.00 L 145.43,28.00 L 144.57,29.00 L 143.86,30.00 L 143.14,31.00 L 142.43,32.00 L 141.57,33.00 L 140.86,34.00 L 140.14,35.00 L 139.43,36.00 L 138.57,37.00 L 137.71,38.00 L 137.00,39.00 L 136.29,40.00 L 135.43,41.00 L 134.57,42.00 L 133.86,43.00 L 133.14,44.00 L 132.43,45.00 L 131.57,46.00 L 130.86,47.00 L 130.14,48.00 L 129.57,49.00 L 128.86,50.00 L 128.29,51.00 L 127.71,52.00 L 127.29,53.00 L 126.71,54.00 L 126.29,55.00 L 125.71,56.00 L 125.29,57.00 L 124.86,58.00 L 124.43,59.00 L 124.00,60.00 L 123.71,61.00 L 123.43,62.00 L 123.29,63.00 L 123.00,64.00 L 122.71,65.00 L 122.57,66.00 L 122.43,67.00 L 122.29,68.00 L 122.14,69.00 L 122.00,70.00 L 122.14,71.00 L 122.29,72.00 L 122.43,73.00 L 122.57,74.00 L 122.71,75.00 L 123.00,76.00 L 123.29,77.00 L 123.43,78.00 L 123.71,79.00 L 124.00,80.00 L 124.29,81.00 L 124.71,82.00 L 125.14,83.00 L 125.57,84.00 L 126.14,85.00 L 126.57,86.00 L 127.14,87.00 L 127.86,88.00 L 128.57,89.00 L 129.29,90.00 L 130.14,91.00 L 131.00,92.00 L 132.00,92.86 L 133.00,93.71 L 134.00,94.57 L 135.00,95.29 L 136.00,96.00 L 137.00,96.57 L 138.00,97.14 L 139.00,97.71 L 140.00,98.29 L 141.00,98.71 L 142.00,99.14 L 143.00,99.57 L 144.00,100.00 L 145.00,100.29 L 146.00,100.57 L 147.00,100.71 L 148.00,100.86 L 149.00,101.00 L 150.00,101.00 L 151.00,101.00 L 152.00,101.00 L 153.00,101.00 L 154.00,101.00 L 155.00,101.00 L 156.00,101.00 L 157.00,101.00 L 158.00,101.00 L 159.00,100.86 L 160.00,100.71 L 161.00,100.57 L 162.00,100.29 L 163.00,100.00 L 164.00,99.57 L 165.00,99.14 L 166.00,98.71 L 167.00,98.29 L 168.00,97.71 L 169.00,97.29 L 170.00,96.71 L 171.00,96.14 L 172.00,95.43 L 173.00,94.71 L 174.00,93.86 L 175.00,93.00 L 176.00,92.00 L 176.86,91.00 L 177.71,90.00 L 178.57,89.00 L 179.29,88.00 L 180.00,87.00 L 180.57,86.00 L 181.14,85.00 L 181.71,84.00 L 182.14,83.00 L 182.57,82.00 L 183.00,81.00 L 183.29,80.00 L 183.57,79.00 L 183.71,78.00 L 184.00,77.00 L 184.29,76.00 L 184.43,75.00 L 184.57,74.00 L 184.71,73.00 L 184.86,72.00 L 185.00,71.00 L 185.00,70.00 L 185.00,69.00 L 184.86,68.00 L 184.71,67.00 L 184.57,66.00 L 184.43,65.00 L 184.29,64.00 L 184.00,63.00 L 183.71,62.00 L 183.57,61.00 L 183.29,60.00 L 183.00,59.00 L 182.71,58.00 L 182.29,57.00 L 182.00,56.00 L 181.71,55.00 L 181.29,54.00 L 181.00,53.00 L 180.57,52.00 L 180.14,51.00 L 179.71,50.00 L 179.29,49.00 L 178.71,48.00 L 178.29,47.00 L 177.71,46.00 L 177.29,45.00 L 176.71,44.00 L 176.29,43.00 L 175.71,42.00 L 175.29,41.00 L 174.71,40.00 L 174.29,39.00 L 173.86,38.00 L 173.43,37.00 L 173.00,36.00 L 172.57,35.00 L 172.14,34.00 L 171.71,33.00 L 171.29,32.00 L 170.71,31.00 L 170.29,30.00 L 169.71,29.00 L 169.14,28.00 L 168.57,27.00 L 168.00,26.00 L 167.29,25.00 L 166.57,24.14 L 165.71,23.29 L 164.86,22.57 L 164.00,21.86 L 163.00,21.29 L 162.00,20.86 L 161.00,20.57 L 160.00,20.29 L 159.00,20.14 L 158.00,20.00 L 157.00,20.14 L 156.00,20.29 Z"/>
</svg>