<svg xmlns="http://www.w3.org/2000/svg" xmlns:xlink="http://www.w3.org/1999/xlink" version="1.1" x="0px" y="0px" viewBox="0 0 90 112.5" enable-background="new 0 0 90 90" xml:space="preserve"><path d="M48.701,30.904c0.818,0.068,1.781,0.6,2.475,1.088c7.322,5.182,11.572,8.396,18.037,13.09c1.254,0.906,1.244,3.031,0,3.957  c-6.309,4.678-11.021,8.188-18.037,13.082c-1.271,0.893-2.963,1.727-3.959,0c-0.254-2.441-0.479-4.898-0.641-7.373  c-0.078,0.021-0.156,0.041-0.234,0.057c-6.988,1.406-13.332,1.746-22.494,0.656c-2.984-0.348-4.104-3.869-4.104-8.688  c0-4.813,1.113-8.947,4.104-8.688l22.494,1.969c0.031,0,0.063,0.01,0.094,0.016c0.146-2.656,0.396-5.344,0.781-8.078  c0.193-0.723,0.621-1.031,1.146-1.082C48.473,30.893,48.588,30.893,48.701,30.904z M37.088,10.357  c2.656-0.172,3.563,3.932,0.682,4.707c-7.943,2.127-16.016,5.861-20.125,12.98c-1.197,2.068-3.725,0.604-2.838-0.928  c4.744-8.219,12.563-14.213,21.723-16.668C36.723,10.398,36.91,10.367,37.088,10.357z M44.4,8.576h0.004  c1.297,0.053,2.418,0.943,2.75,2.197c0.428,1.59-0.516,3.215-2.098,3.637c-1.584,0.426-3.215-0.518-3.637-2.1  c-0.422-1.584,0.516-3.209,2.1-3.637C43.807,8.602,44.104,8.564,44.4,8.576z M44.947,3.629c-22.859,0-41.387,18.525-41.387,41.385  C3.557,67.873,22.088,86.398,44.947,86.398s41.385-18.525,41.385-41.385S67.801,3.629,44.947,3.629z"/><text x="0" y="105" fill="#000000" font-size="5px" font-weight="bold" font-family="'Helvetica Neue', Helvetica, Arial-Unicode, Arial, Sans-serif">Created by Cuputo</text><text x="0" y="110" fill="#000000" font-size="5px" font-weight="bold" font-family="'Helvetica Neue', Helvetica, Arial-Unicode, Arial, Sans-serif">from the Noun Project</text></svg>