<svg xmlns="http://www.w3.org/2000/svg" data-name="Layer 1" viewBox="0 0 100 125" x="0px" y="0px"><path d="M53.41895,62.82959c-.51172,0-1.02344-.19531-1.41406-.58594l-10.83789-10.83838c-.78125-.78076-.78125-2.04736,0-2.82812l10.82031-10.8208c.78125-.78125,2.04688-.78125,2.82812,0,.78125,.78076,.78125,2.04736,0,2.82812l-9.40625,9.40674,9.42383,9.42432c.78125,.78076,.78125,2.04736,0,2.82812-.39062,.39062-.90234,.58594-1.41406,.58594Zm28.58105-12.82959c0-17.64502-14.35547-32-32-32S18,32.35498,18,50s14.35547,32,32,32,32-14.35498,32-32Zm-4,0c0,15.43945-12.56055,28-28,28s-28-12.56055-28-28,12.56055-28,28-28,28,12.56055,28,28Z"/><text x="0" y="115" fill="#000000" font-size="5px" font-weight="bold" font-family="'Helvetica Neue', Helvetica, Arial-Unicode, Arial, Sans-serif">Created by fjayv0</text><text x="0" y="120" fill="#000000" font-size="5px" font-weight="bold" font-family="'Helvetica Neue', Helvetica, Arial-Unicode, Arial, Sans-serif">from the Noun Project</text></svg>