<svg xmlns="http://www.w3.org/2000/svg" viewBox="0 0 64 80" x="0px" y="0px"><g><path d="M54.3,22.774c0-6-7.631-10.817-16.4-9.64-1.47-2.127-4.452-3.468-7.833-3.468-3.648,0-6.818,1.564-8.135,3.951C14.918,14.181,9.7,18.3,9.7,23.354a8.036,8.036,0,0,0,2.543,5.677A6.261,6.261,0,0,0,9.7,33.864c0,4.019,4.563,7.29,10.172,7.29a13.031,13.031,0,0,0,6.088-1.441c2.129,2.4,5.822,3.864,9.891,3.864,6.461,0,11.718-3.746,11.718-8.349a6.455,6.455,0,0,0-1.137-3.6C51.238,30.017,54.3,26.6,54.3,22.774Zm-9.152,7.165a1,1,0,0,0-.628.534c-.088.186-.19.367-.293.547a1,1,0,0,0,.1,1.15,4.662,4.662,0,0,1,1.235,3.058c0,3.5-4.36,6.349-9.718,6.349-3.768,0-7.233-1.468-8.831-3.743a1,1,0,0,0-1.366-.261,10.657,10.657,0,0,1-5.782,1.581c-4.429,0-8.172-2.423-8.172-5.29a4.757,4.757,0,0,1,2.667-3.88,1,1,0,0,0,.107-1.644A6.491,6.491,0,0,1,11.7,23.354c0-4.05,4.8-7.467,10.937-7.779a1,1,0,0,0,.877-.625c.779-1.933,3.477-3.284,6.559-3.284,2.918,0,5.5,1.211,6.434,3.015a1,1,0,0,0,1.054.527,17.563,17.563,0,0,1,2.89-.247c6.535,0,11.851,3.505,11.851,7.813C52.3,25.874,49.493,28.687,45.149,29.939Z"/><path d="M38.516,15.871a1,1,0,0,0,.1,2c.072-.008,7.078-.289,9.622,3.926a1,1,0,1,0,1.713-1.033C46.784,15.52,38.847,15.854,38.516,15.871Z"/><path d="M23.518,41.577c-3.159,0-5.542,1.531-5.542,3.561S20.359,48.7,23.518,48.7s5.542-1.531,5.542-3.561S26.677,41.577,23.518,41.577Zm0,5.122c-2.162,0-3.542-.924-3.542-1.561s1.38-1.561,3.542-1.561,3.542.924,3.542,1.561S25.68,46.7,23.518,46.7Z"/><path d="M16.689,48.73c-2.393,0-4.2,1.2-4.2,2.8s1.8,2.8,4.2,2.8,4.2-1.2,4.2-2.8S19.08,48.73,16.689,48.73Zm0,3.6c-1.417,0-2.2-.6-2.2-.8s.779-.8,2.2-.8,2.2.6,2.2.8S18.106,52.333,16.689,52.333Z"/></g><text x="0" y="79" fill="#000000" font-size="5px" font-weight="bold" font-family="'Helvetica Neue', Helvetica, Arial-Unicode, Arial, Sans-serif">Created by Alum Design</text><text x="0" y="84" fill="#000000" font-size="5px" font-weight="bold" font-family="'Helvetica Neue', Helvetica, Arial-Unicode, Arial, Sans-serif">from the Noun Project</text></svg>