<?xml version="1.0" encoding="iso-8859-1"?>
<!-- Uploaded to: SVG Repo, www.svgrepo.com, Generator: SVG Repo Mixer Tools -->
<svg height="800px" width="800px" version="1.1" id="Layer_1" xmlns="http://www.w3.org/2000/svg" xmlns:xlink="http://www.w3.org/1999/xlink" 
	 viewBox="0 0 512 512" xml:space="preserve">
<path style="fill:#414752;" d="M428.528,501.208L294.512,391.464h-184.32C49.44,391.464,0,341,0,279.016V123.24
	c0-62,49.44-112.448,110.192-112.448h291.616C462.56,10.792,512,61.24,512,123.24V279c0,52.192-35.008,96.752-83.488,109.04v113.168
	H428.528z M110.192,42.792C67.088,42.792,32,78.888,32,123.24V279c0,44.352,35.072,80.448,78.192,80.448h195.744l90.576,74.192
	v-73.104l14.144-1.664c39.536-4.624,69.344-38.96,69.344-79.856V123.24c0-44.352-35.072-80.448-78.208-80.448
	C401.792,42.792,110.192,42.792,110.192,42.792z"/>
</svg>