<?xml version="1.0" encoding="iso-8859-1"?>
<!-- Uploaded to: SVG Repo, www.svgrepo.com, Generator: SVG Repo Mixer Tools -->
<svg fill="currentColor" height="800px" width="800px" version="1.1" id="Layer_1" xmlns="http://www.w3.org/2000/svg" xmlns:xlink="http://www.w3.org/1999/xlink" 
	 viewBox="0 0 510.913 510.913" xml:space="preserve">
<g transform="translate(1 1)">
	<g>
		<g>
			<path d="M495.73,429.165l-18.863-18.863l0.898-0.898l-51.2-51.2l-0.898,0.898l-16.168-16.168c-6.288-7.186-17.965-7.186-25.151,0
				l-43.726-42.338c22.421-31.029,35.642-69.147,35.642-110.364C376.263,86.035,291.828,1.6,187.632,1.6S-1,86.035-1,190.232
				s84.435,188.632,188.632,188.632c43.73,0,83.976-14.878,115.964-39.841l43.026,41.638c-7.186,7.186-7.186,17.965,0,25.151
				l16.251,16.086l-0.083,0.083l51.2,51.2l0.345-0.345l20.314,20.107c8.084,8.982,19.761,13.474,31.439,13.474c0,0,0.898,0,0,0.898
				c12.575-0.898,24.253-6.288,32.337-15.27C514.593,474.976,513.695,447.13,495.73,429.165z M388.839,422.877l37.726-37.726
				l25.151,25.151l-37.726,37.726L388.839,422.877z M16.965,190.232c0-94.316,77.249-170.667,170.667-170.667
				c94.316,0,170.667,76.351,170.667,170.667s-76.351,170.667-170.667,170.667S16.965,284.548,16.965,190.232z M358.298,393.235
				c3.593-3.593,5.389-8.084,5.389-12.576c0-4.491-1.796-8.982-5.389-12.575l-41.319-40.421c4.491-4.491,8.982-8.982,12.576-12.575
				l42.218,40.421c7.186,7.186,17.965,7.186,25.151,0l16.168,16.168l-38.175,38.175L358.298,393.235z M485.849,480.365
				c-5.389,5.389-12.575,8.982-19.761,8.982c-8.084,0-14.372-2.695-19.761-8.084l-20.211-20.211l38.175-38.175l18.863,18.863
				C493.933,452.52,494.832,469.586,485.849,480.365z" fill="currentColor"/>
			<path d="M290.93,199.214l15.27,23.354c1.797,1.796,4.491,3.593,7.186,3.593c1.797,0,3.593-0.898,4.491-1.797
				c4.491-2.695,5.389-8.084,2.695-12.575l-20.66-30.54h-32.296c-1.224-12.574-3.666-23.214-6.661-32.115l19.196-12.797h15.27
				c5.389,0,8.982-3.593,8.982-8.982c0-5.389-3.593-8.982-8.982-8.982H275.66l-21.628,14.419
				c-3.789-7.243-7.662-12.559-10.709-16.215c-0.601-0.901-1.308-1.692-2.076-2.392c-1.214-9.886-6.671-19.824-15.669-30.165
				l13.254-13.254c3.593-3.593,3.593-8.982,0-12.575c-3.593-3.593-8.982-3.593-12.575,0L212.406,72.04
				c-15.295-9.554-34.615-9.47-49.301,0.247L149.007,58.19c-3.593-3.593-8.982-3.593-12.575,0c-3.593,3.593-3.593,8.982,0,12.575
				l13.531,13.531c-9.16,10.099-14.571,19.896-15.893,30.045c-0.789,0.609-1.514,1.313-2.129,2.235
				c-2.984,3.58-6.76,8.758-10.473,15.773l-20.965-13.977h-20.66c-5.389,0-8.982,3.593-8.982,8.982c0,5.389,3.593,8.982,8.982,8.982
				h15.27l19.196,12.797c-2.995,8.902-5.437,19.541-6.661,32.115H75.351l-21.558,30.54c-2.695,4.491-1.796,9.881,2.695,12.575
				c1.796,0.898,3.593,1.797,5.389,1.797c2.695,0,5.389-1.797,7.186-3.593l15.27-23.354h22.456c0,0.636-0.446,19.761,13.347,44.912
				H101.4l-20.66,30.54c-2.695,4.491-1.797,9.881,2.695,12.575c1.797,0.898,3.593,1.797,5.39,1.797c2.695,0,5.389-1.797,7.186-3.593
				l15.27-23.354h20.664c3.867,5.008,8.323,10.124,13.469,15.27l5.39,5.389c9.881,9.881,23.354,15.27,36.828,15.27
				s26.947-5.39,36.828-15.27l5.389-5.389c5.257-5.135,9.777-10.25,13.7-15.27h20.433l15.27,23.354
				c1.797,1.796,4.491,3.593,7.186,3.593c1.797,0,3.593-0.898,4.491-1.797c4.491-2.695,5.389-8.084,2.695-12.575l-20.66-30.54
				h-17.534c13.027-23.801,13.042-42.411,13.042-44.912H290.93z M206.495,89.628c10.779,10.779,17.067,20.66,17.067,27.846
				c0,0.387-0.127,2.321-0.656,5.11c-0.05,0.253-0.099,0.507-0.155,0.771c-0.006,0.029-0.012,0.058-0.018,0.088
				c-1.219,5.724-3.884,13.795-9.643,20.248c-0.014,0.016-0.028,0.031-0.042,0.046c-0.395,0.441-0.804,0.874-1.229,1.298
				c-0.042,0.042-0.086,0.082-0.127,0.123c-0.411,0.406-0.833,0.806-1.272,1.194c-0.038,0.034-0.079,0.065-0.117,0.099
				c-1.199,1.05-2.516,2.021-3.937,2.908c-0.278,0.173-0.548,0.351-0.835,0.517c-0.295,0.171-0.606,0.328-0.911,0.491
				c-0.347,0.185-0.693,0.372-1.053,0.547c-0.3,0.146-0.613,0.28-0.922,0.418c-0.387,0.172-0.776,0.342-1.177,0.501
				c-0.312,0.124-0.633,0.24-0.954,0.356c-0.423,0.152-0.852,0.298-1.29,0.435c-0.325,0.102-0.654,0.2-0.988,0.293
				c-0.461,0.129-0.932,0.247-1.41,0.359c-0.336,0.079-0.672,0.158-1.017,0.228c-0.509,0.104-1.033,0.191-1.561,0.275
				c-0.337,0.054-0.668,0.113-1.013,0.158c-0.592,0.078-1.206,0.134-1.821,0.187c-0.303,0.026-0.595,0.063-0.904,0.083
				c-0.934,0.06-1.89,0.096-2.877,0.096c-0.972,0-1.915-0.033-2.836-0.092c-0.296-0.019-0.576-0.055-0.867-0.079
				c-0.615-0.052-1.229-0.105-1.821-0.182c-0.333-0.043-0.652-0.102-0.978-0.153c-0.526-0.082-1.051-0.166-1.559-0.267
				c-0.343-0.069-0.674-0.149-1.008-0.226c-0.463-0.107-0.924-0.216-1.372-0.338c-0.352-0.097-0.695-0.202-1.038-0.308
				c-0.398-0.123-0.792-0.249-1.177-0.384c-0.371-0.13-0.736-0.267-1.095-0.408c-0.319-0.125-0.633-0.254-0.943-0.388
				c-0.406-0.175-0.807-0.354-1.198-0.543c-0.217-0.104-0.43-0.213-0.642-0.322c-0.467-0.24-0.93-0.483-1.376-0.741
				c-0.077-0.045-0.152-0.091-0.229-0.136c-13.937-8.245-17.121-25.32-17.792-31.362c0-8.084,6.288-17.965,17.067-28.744
				c5.389-4.491,12.575-7.186,18.863-7.186S201.105,85.137,206.495,89.628z M217.274,264.786l-5.389,5.389
				c-13.474,13.474-35.032,13.474-48.505,0l-5.389-5.389c-33.235-33.235-33.235-63.775-33.235-65.572
				c0-20.732,3.516-36.624,7.781-48.304c0.101-0.067,0.202-0.134,0.304-0.201c0.835-1.392,1.323-2.869,1.468-4.327
				c1.298-3.1,2.629-5.848,3.921-8.249c6.193,15.483,18.399,29.621,38.902,33.235c0.051,0.009,0.101,0.018,0.152,0.027
				c2.029,0.352,4.139,0.599,6.332,0.736c0.253,0.016,0.507,0.031,0.763,0.044c1.068,0.054,2.147,0.091,3.254,0.091
				c1.107,0,2.188-0.037,3.256-0.091c0.254-0.013,0.507-0.028,0.759-0.044c2.202-0.137,4.32-0.386,6.356-0.74
				c0.035-0.006,0.07-0.013,0.105-0.019c20.519-3.606,32.732-17.75,38.928-33.24c6.288,11.677,13.474,30.54,13.474,61.081
				C250.509,200.112,251.407,230.653,217.274,264.786z" fill="currentColor"/>
		</g>
	</g>
</g>
</svg>