<?xml version="1.0" encoding="iso-8859-1"?>
<!-- Uploaded to: SVG Repo, www.svgrepo.com, Generator: SVG Repo Mixer Tools -->
<!DOCTYPE svg PUBLIC "-//W3C//DTD SVG 1.1//EN" "http://www.w3.org/Graphics/SVG/1.1/DTD/svg11.dtd">
<svg fill="#000000" height="800px" width="800px" version="1.1" id="Capa_1" xmlns="http://www.w3.org/2000/svg" xmlns:xlink="http://www.w3.org/1999/xlink" 
	 viewBox="0 0 339.811 339.811" xml:space="preserve">
<path d="M302.548,210.247c4.339-2.652,15.863-9.697,28.667-58.429c3.539-13.469,11.362-46.241,7.596-59.625
	c-2.41-8.563-9.708-14.315-18.162-14.315h-40.355l2.032-20.89l0.016-0.337c0-8.268-3.865-23.905-18.491-23.905H50.266
	c-15.138,0-19.137,14.519-19.137,22.195v0.168l15.954,164.844c1.208,13.707,4.896,25.435,11.011,35.147H25.981
	C11.655,255.101,0,266.757,0,281.083s11.655,25.981,25.981,25.981h261.506c14.326,0,25.981-11.655,25.981-25.981
	s-11.655-25.981-25.981-25.981h-31.505c5.339-8.675,9.006-19.504,10.295-33.01C276.324,220.621,290.894,217.371,302.548,210.247z
	 M276.888,112.878h26.841c-1.103,7.299-3.055,17.306-6.138,29.175c-5.844,22.492-11.659,35.385-14.305,38.918
	c-3.874,2.152-8.737,3.727-13.494,4.854L276.888,112.878z M229.537,157.948c-11.662,17.73-61.848,59.887-72.725,59.887
	c-10.654,0-61.296-42.313-72.877-59.887c-5.799-8.799-9.916-18.511-9.231-31.269c1.207-22.599,19.682-41.254,42.303-41.254
	c23.258,0,36.804,24.816,39.731,24.816c3.34,0,17.464-24.816,39.721-24.816c22.625,0,41.1,18.655,42.308,41.254
	C239.449,139.438,235.349,149.109,229.537,157.948z" />
</svg>