<?xml version="1.0" encoding="iso-8859-1"?>


<svg fill="#000000" height="800px" width="800px" version="1.1" id="Capa_1" xmlns="http://www.w3.org/2000/svg" xmlns:xlink="http://www.w3.org/1999/xlink" 
	 viewBox="0 0 394.382 394.382" xml:space="preserve">
<g>
	<path d="M170.519,107.736c1.022,0.695,2.222,1.063,3.47,1.063h0.015c3.41,0,6.184-2.772,6.184-6.181
		c0-0.59-0.083-1.173-0.245-1.735c-3.516-15.401-1.852-27.804,4.947-36.863c8.039-10.709,11.599-24.452,9.523-36.759
		c-1.833-10.911-7.698-19.979-16.952-26.217c-2.066-1.402-4.915-1.392-6.976,0.026c-2.107,1.449-3.094,3.999-2.514,6.506
		c3.798,16.204,0.343,26.473-8.32,42.058c-5.407,9.727-7.616,20.652-6.219,30.766C155.015,91.84,160.932,101.298,170.519,107.736z" fill="currentColor"
		/>
	<path d="M220.694,105.121c0.968,0.659,2.098,1.008,3.268,1.008h0.007c3.211,0,5.823-2.612,5.823-5.823
		c0-0.544-0.076-1.084-0.227-1.607c-2.665-11.718-1.42-21.117,3.701-27.941c6.438-8.575,9.288-19.592,7.624-29.467
		c-1.478-8.792-6.205-16.102-13.669-21.138c-1.94-1.31-4.567-1.326-6.576,0.04c-1.961,1.361-2.9,3.832-2.346,6.113
		c2.893,12.339,0.24,20.195-6.402,32.141c-4.328,7.785-6.094,16.538-4.971,24.644C208.199,92.312,212.969,99.936,220.694,105.121z" fill="currentColor"
		/>
	<path d="M320.6,162.422l-6.604-25.205c-1.864-7.115-9.087-12.69-16.443-12.69H96.83c-7.356,0-14.579,5.575-16.443,12.69
		l-6.604,25.205c-0.969,3.697-0.31,7.392,1.808,10.136s5.524,4.318,9.345,4.318h4.689l17.839,197.022
		c1.022,11.294,11.081,20.483,22.422,20.483h134.611c11.341,0,21.399-9.189,22.422-20.483l17.839-197.022h4.689
		c3.821,0,7.228-1.574,9.345-4.318S321.569,166.12,320.6,162.422z M228.006,292.922c-20.199,24.766-50.398,33.638-67.421,19.739
		c-12.914-10.552-14.502-31.118-5.735-51.264c2.821-6.405,6.615-12.823,11.484-18.768c2.1-2.612,4.41-4.922,6.72-7.179
		c3.018-2.914,6.195-5.63,9.476-7.94c7.691-5.381,15.789-8.767,23.585-10.198c10.407-1.955,20.304-0.42,27.64,5.578
		C250.816,236.789,248.204,268.117,228.006,292.922z" fill="currentColor"/>
	<path d="M223.459,240.238c-1.532-0.663-4.713-1.774-8.809-1.774c-5.612,0-11.037,2.111-15.683,6.103
		c-4.57,3.92-8.526,9.813-11.757,17.509c-1.405,3.339-2.511,6.436-3.474,9.733c-4.354,12.137-10.543,13.764-11.744,13.967
		c-2.795,0.474-4.083,2.461-4.357,4.163c-0.336,2.088,0.72,4.169,2.619,5.175c1.225,0.652,4.542,2.168,8.893,2.169c0,0,0,0,0.001,0
		c6.92,0,16.651-3.682,23.712-21.212l0.926-2.306c7.382-18.389,8.516-21.215,18.976-23.925c2.13-0.549,3.675-2.366,3.844-4.521
		C226.776,243.133,225.542,241.139,223.459,240.238z" fill="currentColor"/>
</g>
</svg>