<?xml version="1.0" encoding="iso-8859-1"?>
<!-- Uploaded to: SVG Repo, www.svgrepo.com, Generator: SVG Repo Mixer Tools -->
<svg fill="#000000" height="800px" width="800px" version="1.1" id="Layer_1" xmlns="http://www.w3.org/2000/svg" xmlns:xlink="http://www.w3.org/1999/xlink" 
	 viewBox="0 0 512 512" xml:space="preserve">
<g transform="translate(1 1)">
	<g>
		<path d="M501.857,53.857h-14.019l-42.667-51.2C443.343-0.086,440.6-1,437.857-1H264.143c-2.743,0-5.486,1.829-8.229,4.571
			l-33.524,50.286h-13.105c-5.486,0-9.143,3.657-9.143,9.143v27.429H63c-2.743,0-5.486,1.829-8.229,4.571l-33.524,50.286H8.143
			c-5.486,0-9.143,3.657-9.143,9.143V191c0,5.486,3.657,9.143,9.143,9.143H18.52l11.374,75.828
			c-1.987,1.196-3.796,2.756-5.294,4.629c-3.657,3.657-5.486,10.057-4.571,15.543l14.629,88.686
			c1.425,7.126,6.192,13.123,12.983,15.43l13.531,88.798C63,501.857,73.971,511,86.771,511h135.314c12.8,0,23.771-9.143,25.6-21.943
			l12.406-86.845l2.222,13.703c0.914,5.486,2.743,21.943,20.114,21.943h146.286c17.371,0,19.2-16.457,20.114-21.943l12.768-88.527
			c7.444-2.132,13.004-8.626,13.746-17.53L489.971,203.8c0.914-5.486-0.914-10.971-4.571-15.543
			c-1.467-1.834-3.231-3.367-5.168-4.553l11.248-74.99h10.377c5.486,0,9.143-3.657,9.143-9.143V63
			C511,57.514,507.343,53.857,501.857,53.857z M269.629,17.286H434.2l30.171,36.571H244.943L269.629,17.286z M218.429,72.143h9.143
			h256h9.143v18.286h-9.143H236.714h-18.286V72.143z M291.571,163.571v17.371h-9.143c-1.368,0-2.651,0.333-3.806,0.914H26.429
			h-9.143v-18.286h9.143h256H291.571z M68.486,108.714h140.8h23.162l30.476,36.571H43.8L68.486,108.714z M271.457,200.143
			l-10.971,73.143H47.457L37.4,200.143H271.457z M38.314,293.4v-0.914c0-0.914,0.914-0.914,0.914-0.914h0.914h228.571h0.914
			l0.914,0.914l-1.33,8.976l-13.299,80.624c0,0,0,0.914-0.914,0.914h-2.743H55.686h-1.829c-0.914,0-1.829-0.914-0.914-0.914
			L38.314,293.4z M230.314,486.314c-0.914,3.657-3.657,6.4-7.314,6.4H86.771c-3.657,0-7.314-2.743-7.314-6.4l-12.8-85.029h176.457
			L230.314,486.314z M429.629,413.171c0,4.571-0.914,6.4-1.829,6.4H281.514c0,0-0.914-0.914-1.829-6.4l-4.227-30.433l9.005-54.596
			h157.964L429.629,413.171z M471.686,201.971l-14.629,106.057c0,0.914,0,1.829-0.914,1.829H287.481l2.262-13.714
			c0.184-1.105,0.252-2.209,0.221-3.306c0.116-4.671-1.667-9.245-4.792-13.151c-0.914-1.829-3.657-3.657-5.486-4.571l10.971-74.971
			h10.057h169.143c0,0,0.001,0,0.001,0h0.913l0.914,0.914C471.686,201.057,471.686,201.057,471.686,201.971z M462.68,180.943
			H309.857v-26.514c0-5.486-3.657-9.143-9.143-9.143h-14.019l-30.476-36.571h217.295L462.68,180.943z"/>
	</g>
</g>
</svg>