<?xml version="1.0" encoding="iso-8859-1"?>
<!-- Uploaded to: SVG Repo, www.svgrepo.com, Generator: SVG Repo Mixer Tools -->
<svg height="800px" width="800px" version="1.1" id="Layer_1" xmlns="http://www.w3.org/2000/svg" xmlns:xlink="http://www.w3.org/1999/xlink" 
	 viewBox="0 0 512.001 512.001" xml:space="preserve">
<path style="fill:#415E5C;" d="M441.455,156.889h-28.335V126.99H39.574v147.982c0,81.39,65.85,147.982,146.333,147.982h80.882
	c62.631,0,116.398-40.333,137.168-96.583h37.498c38.899,0,70.545-31.669,70.545-70.596v-28.291
	C512,188.558,480.354,156.889,441.455,156.889z M488.369,255.776c0,25.926-21.047,47.019-46.915,47.019h-30.958
	c1.714-9.019,2.623-18.318,2.623-27.823v-94.507h28.335c25.868,0,46.915,21.092,46.915,47.018V255.776z"/>
<path style="fill:#5B7F81;" d="M162.697,350.776H81.815c-7.635,0-15.137-0.602-22.466-1.756
	c-12.562-21.813-19.775-47.118-19.775-74.047V126.99H309.03v75.804C309.029,284.184,243.175,350.776,162.697,350.776z"/>
<path d="M441.455,156.889h-19.43V126.99c0-4.917-3.986-8.904-8.904-8.904H238.077c8.157-15.393,12.803-33.371,13.046-51.457
	c0.354-26.246-8.337-49.001-24.471-64.07c-3.826-3.575-9.834-3.377-13.417,0.441s-3.386,9.811,0.442,13.387
	c12.187,11.383,18.744,29.136,18.462,49.988c-0.254,18.816-6.145,37.389-16.268,51.712h-46.515
	c8.156-15.393,12.8-33.371,13.044-51.457c0.354-26.246-8.334-49-24.465-64.07c-3.828-3.575-9.834-3.379-13.418,0.44
	c-3.583,3.818-3.386,9.811,0.441,13.387c12.184,11.384,18.739,29.137,18.459,49.989c-0.253,18.817-6.144,37.39-16.264,51.712H39.574
	c-4.917,0-8.904,3.987-8.904,8.904v147.982c0,86.508,69.639,156.887,155.237,156.887h80.882c32.095,0,65.792-12.115,94.886-34.113
	c25.509-19.288,45.074-44.317,56.005-71.374h23.777c38.899,0,70.545-31.669,70.545-70.597v-28.291
	C512,188.558,480.354,156.889,441.455,156.889z M266.788,414.051h-80.882c-75.778,0-137.429-62.391-137.429-139.078V135.894h86.478
	c-8.852,15.865-14.014,34.451-14.484,53.019c-0.669,26.421,8.027,49.44,24.487,64.816c1.831,1.711,4.161,2.558,6.486,2.558
	c2.534,0,5.062-1.006,6.931-2.997c3.583-3.819,3.385-9.813-0.442-13.387c-26.72-24.96-22.187-74.583-0.455-104.007h46.198
	c-8.851,15.865-14.011,34.451-14.481,53.019c-0.67,26.421,8.024,49.439,24.48,64.815c1.831,1.711,4.161,2.558,6.487,2.558
	c2.533,0,5.062-1.006,6.931-2.996c3.583-3.819,3.387-9.811-0.441-13.387c-26.713-24.961-22.183-74.584-0.456-104.008h178.019v20.99
	l-0.075,154.672C385.729,368.187,324.415,414.051,266.788,414.051z M488.369,255.776c0,25.926-21.045,47.019-46.915,47.019h-19.501
	l0.059-122.33h19.442c25.868,0,46.915,21.092,46.915,47.019L488.369,255.776L488.369,255.776z M478.184,502.53
	c0,5.23-4.25,9.471-9.493,9.471H9.492C4.25,512.001,0,507.76,0,502.53s4.25-9.471,9.492-9.471H468.69
	C473.934,493.059,478.184,497.3,478.184,502.53z"/>
</svg>