<?xml version="1.0" encoding="iso-8859-1"?>
<!-- Uploaded to: SVG Repo, www.svgrepo.com, Generator: SVG Repo Mixer Tools -->
<svg fill="#000000" height="800px" width="800px" version="1.1" id="Layer_1" xmlns="http://www.w3.org/2000/svg" xmlns:xlink="http://www.w3.org/1999/xlink" 
	 viewBox="0 0 512.466 512.466" xml:space="preserve">
<g transform="translate(1)">
	<g>
		<g>
			<path d="M493.431,116.027c-0.713-1.392-1.801-2.49-3.178-3.222C477.983,101.09,461.4,93.857,443.2,93.857h-8.533
				c-98.987,0-179.2,80.213-179.2,179.2c0,17.728,6.854,33.928,18.035,46.097c0.713,1.392,1.801,2.489,3.177,3.222
				c12.271,11.715,28.854,18.948,47.054,18.948h8.533c98.987,0,179.2-80.213,179.2-179.2
				C511.466,144.397,504.613,128.196,493.431,116.027z M434.666,110.924h8.533c13.045,0,24.985,4.951,34.051,13.058
				c-1.924,46.76-40.556,80.809-93.785,80.809c-52.735,0-96.667,36.463-108.058,85.106c-1.854-5.281-2.876-10.945-2.876-16.84
				C272.533,183.457,345.066,110.924,434.666,110.924z M332.266,324.257h-8.533c-13.046,0-24.987-4.951-34.054-13.06
				c1.944-49.511,42.985-89.34,93.787-89.34c54.612,0,96.79-31.071,107.991-76.77c1.898,5.337,2.943,11.069,2.943,17.036
				C494.4,251.724,421.866,324.257,332.266,324.257z"/>
			<path d="M104.426,283.297c10.24,4.267,20.48,6.827,30.72,6.827c6.493,0,12.985-0.882,19.269-2.583
				c1.083-0.078,2.152-0.403,3.128-0.926c17.234-5.479,32.592-17.216,41.604-34.038l4.267-7.68
				c21.333-41.813,24.747-88.747,9.387-133.12c-16.213-46.08-50.347-82.773-95.573-104.107c-16.901-8.245-35.589-9.102-52.323-4.054
				c-1.775,0.054-3.494,0.616-4.881,1.643c-15.851,6.025-29.505,17.509-37.516,33.131l-4.267,7.68
				c-21.333,41.813-24.747,88.747-9.387,133.12C24.213,225.271,58.346,261.964,104.426,283.297z M195.733,116.897
				c13.653,40.107,11.093,82.773-8.533,120.32l-4.267,7.68c-5.901,11.41-15.979,19.907-27.716,24.508
				c-21.1-11.21-36.475-29.487-42.257-50.962c-6.827-23.04-1.707-47.787,11.947-69.12c0,0,0.853,0,0.853-0.853
				c21.303-47.748,5.927-100.553-35.237-131.201c6.636,0.534,12.834,2.156,19.024,4.907
				C150.506,41.804,181.226,75.084,195.733,116.897z M33.6,52.897l4.267-6.827c5.428-11.941,15.347-20.424,26.896-25.021
				c46.504,22.963,66.526,74.639,45.637,120.594c-16.213,24.747-21.333,55.467-13.653,82.773
				c5.399,19.196,16.287,35.856,31.76,48.509c-5.857-0.673-11.688-2.296-17.254-4.989c-40.96-19.627-71.68-52.907-86.187-94.72
				C11.413,133.111,13.973,90.444,33.6,52.897z"/>
			<path d="M284.48,363.511l-5.973-5.973c-75.093-69.973-191.147-66.56-259.413,5.973C6.92,376.495-0.605,392.568-0.581,409.525
				c-0.602,1.881-0.571,3.855,0.253,5.62c1.498,17.504,9.06,32.679,21.981,44.792l5.973,5.973
				c35.84,30.72,81.92,46.08,127.147,46.08c48.64,0,96.427-17.92,132.267-52.907c12.8-13.653,20.48-30.72,19.627-48.64
				C305.813,392.524,298.133,375.457,284.48,363.511z M30.186,375.457c61.44-65.707,167.253-68.267,235.52-5.12l6.827,5.973
				c9.76,8.946,15.631,20.222,16.161,33.081c-40.929,36.809-86.432,34.865-127.094-6.627
				C119.374,360.538,69.819,356.3,21.177,390.03C23.452,384.787,26.499,379.882,30.186,375.457z M38.72,453.111l-5.973-5.973
				c-9.52-8.727-15.345-19.669-16.118-32.135c47.348-41.26,92.218-41.098,133.025-0.291c24.747,24.747,52.053,37.547,79.36,37.547
				c18.333,0,36.666-5.692,54.372-17.384c-2.411,4.498-5.519,8.637-9.146,12.264C211.946,508.577,106.133,511.137,38.72,453.111z"/>
		</g>
	</g>
</g>
</svg>