<?xml version="1.0" encoding="iso-8859-1"?>
<!-- Uploaded to: SVG Repo, www.svgrepo.com, Generator: SVG Repo Mixer Tools -->
<svg fill="#000000" height="800px" width="800px" version="1.1" id="Layer_1" xmlns="http://www.w3.org/2000/svg" xmlns:xlink="http://www.w3.org/1999/xlink" 
	 viewBox="0 0 512 512" xml:space="preserve">
<g>
	<g>
		<path d="M501.801,426.923h-2.951V203.687h1.931c5.632,0,10.199-4.567,10.199-10.199v-51.613c0-5.632-4.567-10.199-10.199-10.199
			H243.984c11.433-8.2,21.223-18.553,28.772-30.46c2.528,0.576,5.121,0.882,7.722,0.882c19.121,0,34.677-15.556,34.677-34.677
			S299.6,32.743,280.478,32.743H81.594c-5.632,0-10.199,4.567-10.199,10.199c0,36.525,18.039,68.914,45.673,88.733H11.219
			c-5.632,0-10.199,4.567-10.199,10.199v51.613c0,5.632,4.567,10.199,10.199,10.199h1.931v223.236h-2.951
			C4.567,426.923,0,431.49,0,437.122v31.936c0,5.632,4.567,10.199,10.199,10.199h491.602c5.632,0,10.199-4.567,10.199-10.199
			v-31.936C512,431.49,507.433,426.923,501.801,426.923z M288.884,55.903c3.552,2.6,5.873,6.788,5.873,11.517
			c0,7.149-5.285,13.069-12.15,14.102C285.688,73.398,287.825,64.814,288.884,55.903z M92.375,53.141h176.3
			c-5.075,44.141-42.672,78.534-88.151,78.534C135.047,131.675,97.45,97.283,92.375,53.141z M21.418,152.074h469.163v31.215H21.418
			V152.074z M440.099,263.633H337.928c-5.632,0-10.199,4.567-10.199,10.199v153.091H33.548V203.687h444.905v223.236h-28.155V273.832
			C450.298,268.2,445.731,263.633,440.099,263.633z M359.175,344.555h-11.048v-60.524h81.771v142.892h-81.771v-61.969h11.048
			c5.632,0,10.199-4.567,10.199-10.199C369.374,349.122,364.807,344.555,359.175,344.555z M491.602,458.859H20.398v-11.537h471.203
			V458.859z"/>
	</g>
</g>
<g>
	<g>
		<path d="M455.271,216.091H354.117c-5.632,0-10.199,4.567-10.199,10.199c0,5.632,4.567,10.199,10.199,10.199h101.154
			c5.632,0,10.199-4.567,10.199-10.199C465.47,220.658,460.903,216.091,455.271,216.091z"/>
	</g>
</g>
<g>
	<g>
		<path d="M322.761,216.091h-8.093c-5.632,0-10.199,4.567-10.199,10.199c0,5.632,4.567,10.199,10.199,10.199h8.093
			c5.632,0,10.199-4.566,10.199-10.199C332.96,220.658,328.393,216.091,322.761,216.091z"/>
	</g>
</g>
<g>
	<g>
		<path d="M291.404,250.484H73.925c-5.632,0-10.199,4.567-10.199,10.199v103.175c0,5.632,4.567,10.199,10.199,10.199h217.479
			c5.632,0,10.199-4.567,10.199-10.199V260.683C301.603,255.051,297.035,250.484,291.404,250.484z M84.124,270.882h75.46
			l-75.46,75.46C84.124,346.342,84.124,270.882,84.124,270.882z M105.657,353.659l75.889-75.889l75.889,75.889H105.657z
			 M281.204,348.58l-77.698-77.698h77.698V348.58z"/>
	</g>
</g>
</svg>