<?xml version="1.0" encoding="iso-8859-1"?>
<!-- Uploaded to: SVG Repo, www.svgrepo.com, Generator: SVG Repo Mixer Tools -->
<svg fill="#000000" height="800px" width="800px" version="1.1" id="Layer_1" xmlns="http://www.w3.org/2000/svg" xmlns:xlink="http://www.w3.org/1999/xlink" 
	 viewBox="0 0 512 512" xml:space="preserve">
<g>
	<g>
		<path d="M325.32,70.113c-14.105-14.105-36.974-14.105-51.079,0L256,88.356l-18.243-18.241c-14.105-14.105-36.974-14.105-51.077,0
			c-14.105,14.105-14.105,36.974,0,51.077l69.32,69.32l69.32-69.32C339.425,107.087,339.425,84.218,325.32,70.113z"/>
	</g>
</g>
<g>
	<g>
		<path d="M89.302,244.093C40.061,244.093,0,284.154,0,333.396c0,49.241,40.061,89.302,89.302,89.302v29.767h142.884V244.093H89.302
			z M89.302,386.977c-29.545,0-53.581-24.037-53.581-53.581c0-29.545,24.037-53.581,53.581-53.581V386.977z"/>
	</g>
</g>
<g>
	<g>
		<path d="M422.698,244.093H279.814v208.372h142.884v-29.767c49.241,0,89.302-40.061,89.302-89.302
			C512,284.154,471.939,244.093,422.698,244.093z M422.698,386.977V279.814c29.546,0,53.581,24.037,53.581,53.581
			C476.279,362.94,452.244,386.977,422.698,386.977z"/>
	</g>
</g>
</svg>