<?xml version="1.0" encoding="iso-8859-1"?>
<!-- Uploaded to: SVG Repo, www.svgrepo.com, Generator: SVG Repo Mixer Tools -->
<!DOCTYPE svg PUBLIC "-//W3C//DTD SVG 1.1//EN" "http://www.w3.org/Graphics/SVG/1.1/DTD/svg11.dtd">
<svg fill="currentColor" version="1.1" id="Capa_1" xmlns="http://www.w3.org/2000/svg" xmlns:xlink="http://www.w3.org/1999/xlink" 
	 width="800px" height="800px" viewBox="0 0 533.37 533.37"
	 xml:space="preserve">
<g>
	<g id="Layer_2_18_">
		<path d="M122.147,21.336c-1.798,1.932-1.702,4.954,0.22,6.761l25.446,23.772c0.163,0.153,0.364,0.211,0.536,0.335l2.983,64.843
			l37.246,10.949c-12.326,20.751-21.506,44.982-21.506,71.48c0,37.905,31.729,69.987,64.385,100.989l-43.213,14.994l4.887,65.618
			l-35.601-6.226c-2.572-0.449-5.078,1.271-5.527,3.892c-0.459,2.602,1.281,5.078,3.882,5.537l28.688,5.011l-32.044,12.938
			c-2.448,0.995-3.634,3.777-2.639,6.226c0.755,1.865,2.553,2.993,4.437,2.993c0.593,0,1.205-0.115,1.798-0.344l32.331-13.054
			l-18.178,25.905c-1.521,2.161-0.995,5.145,1.167,6.655c0.832,0.593,1.798,0.87,2.745,0.87c1.501,0,2.983-0.707,3.911-2.037
			l24.652-35.123c0-0.009,0.01-0.019,0.01-0.019l0.727-0.928l0.01-0.755l0.029-1.913l1.004-62.529l60.444,4.877
			c20.875,21.821,36.777,43.939,36.777,68.037c0,70.122-78.89,132.278-78.89,132.278s130.681-32.675,130.681-155.391
			c0-37.265-20.015-61.841-43.003-83.978l6.312-44.715c12.049,1.281,34.291,2.448,45.909,2.438c4.265,0,15.329-1.664,16.878-1.894
			l28.582-2.907c2.62-0.268,4.543-2.61,4.266-5.24c-0.259-2.629-2.688-4.513-5.24-4.274l-28.602,2.907l18.618-25.675
			c1.539-2.143,1.062-5.126-1.062-6.675c-2.133-1.55-5.116-1.09-6.685,1.062l-18.235,25.149l-0.603-29.481
			c-0.048-2.63-2.219-5.087-4.877-4.963c-2.64,0.048-4.733,1.683-4.686,4.322l0.707,35.572c-13.339-1.339-34.606-3.452-49.648-5.059
			l-3.557-0.344l-27.109,32.637c-21.104-20.474-38.642-42.524-38.642-74.559c0-8.071,0.478-15.396,1.186-22.319
			c0.306-3.031,0.679-5.948,1.1-8.769l16.17,15.328l67.951-21.611l25.226,10.691c0.612,0.258,1.224,0.383,1.855,0.383
			c1.854,0,3.624-1.091,4.389-2.917c1.033-2.429-0.105-5.23-2.534-6.264l-18.034-7.631l26.966-12.354
			c2.4-1.1,3.452-3.939,2.353-6.34c-1.1-2.41-3.959-3.452-6.331-2.362l-24.948,11.428l8.435-17.892
			c1.128-2.391,0.104-5.24-2.286-6.369c-2.371-1.138-4.217-0.096-5.336,2.286l-12.574,28.84v0.02l-59.583,18.599l-14.382-33.383
			c5.269-14.372,11.829-24.308,17.442-30.771c15.911,3.911,35.906,0.517,53.979-10.777c29.549-18.465,42.63-50.834,29.214-72.292
			c-13.406-21.459-48.233-23.888-77.781-5.422c-22.376,13.98-35.276,35.936-34.415,55.08c-9.668,8.051-23.055,20.636-35.888,36.738
			l-44.523,3.959l-2.754-59.574l24.757-26.354c1.807-1.922,1.721-4.953-0.201-6.761c-1.922-1.797-4.943-1.721-6.76,0.211
			L155.54,37.009l-1.224-31.087c-0.124-2.64-2.41-4.562-4.982-4.284c-2.639,0.105-4.686,2.926-4.581,5.565l1.205,29.806
			l-17.05-15.902C126.977,19.309,123.955,19.404,122.147,21.336z M323.744,43.961c5.556-3.471,12.097-3.012,14.621,1.023
			s0.058,10.117-5.489,13.588c-5.556,3.472-12.097,3.013-14.621-1.022C315.73,53.514,318.188,47.423,323.744,43.961z
			 M304.619,15.273c5.556-3.471,12.097-3.012,14.621,1.023s0.058,10.117-5.489,13.588c-5.556,3.472-12.097,3.013-14.621-1.022
			C296.605,24.826,299.063,18.735,304.619,15.273z"/>
	</g>
</g>
</svg>