<?xml version="1.0" encoding="iso-8859-1"?>
<!-- Uploaded to: SVG Repo, www.svgrepo.com, Generator: SVG Repo Mixer Tools -->
<svg version="1.1" id="Layer_1" xmlns="http://www.w3.org/2000/svg" xmlns:xlink="http://www.w3.org/1999/xlink" 
	 viewBox="0 0 512 512" xml:space="preserve">
<circle style="fill:#C1321F;" cx="256" cy="256" r="256"/>
<g>
	<path style="fill:#A82116;" d="M500.579,331.829L381.845,213.095l-78.276,48.524l-5.835-5.835l-9.426,7.509L176.531,151.518
		l-11.036,3.06L280.46,269.543L130.155,389.279l122.68,122.68c1.055,0.012,2.107,0.04,3.165,0.04
		C370.984,512,468.258,436.191,500.579,331.829z"/>
	<path style="fill:#A82116;" d="M340.404,114.469l-14.108-14.405l-3.213,4.956l12.588,12.588l-13.143,10.907l-17.136,0.515
		L502.32,325.96c6.304-22.235,9.68-45.704,9.68-69.96c0-1.51-0.031-3.013-0.057-4.517L360.934,100.149L340.404,114.469z"/>
</g>
<rect x="130.155" y="213.092" style="fill:#FFD15D;" width="251.69" height="176.183"/>
<rect x="256" y="213.092" style="fill:#F9B54C;" width="125.845" height="176.183"/>
<polygon style="fill:#F4E3C3;" points="130.155,213.095 256,313.772 381.845,213.095 256,112.419 "/>
<polygon style="fill:#FED8B2;" points="256,112.421 256,313.772 381.845,213.095 "/>
<path style="fill:#FD5790;" d="M256,313.772c0,0,33.233-26.588,66.279-53.024c-3.469-14.853-16.786-25.919-32.696-25.919
	c-18.548,0-33.585,15.036-33.585,33.585c0-18.548-15.036-33.585-33.585-33.585c-15.91,0-29.225,11.066-32.696,25.919L256,313.772z"
	/>
<path style="fill:#C75163;" d="M289.585,234.83c-18.544,0-33.578,15.031-33.583,33.575v45.368
	c0.012-0.009,33.239-26.591,66.279-53.024C318.81,245.896,305.493,234.83,289.585,234.83z"/>
<path style="fill:#E6F3FF;" d="M146.832,163.519c0-9.544,7.737-17.282,17.282-17.282s17.282,7.737,17.282,17.282
	c0-9.544,7.737-17.282,17.282-17.282s17.282,7.737,17.282,17.282c0,16.525-34.563,36.292-34.563,36.292
	S146.832,180.976,146.832,163.519z"/>
<path style="fill:#CFDBE6;" d="M181.395,163.519c0-9.544,7.737-17.282,17.282-17.282s17.282,7.737,17.282,17.282
	c0,16.525-34.563,36.292-34.563,36.292v-36.292H181.395z"/>
<path style="fill:#E6F3FF;" d="M296.944,112.419c0-9.544,7.737-17.282,17.282-17.282c9.545,0,17.28,7.739,17.28,17.282
	c0-9.544,7.737-17.282,17.282-17.282c9.545,0,17.282,7.737,17.282,17.282c0,16.525-34.563,36.292-34.563,36.292
	S296.944,129.876,296.944,112.419z"/>
<path style="fill:#CFDBE6;" d="M331.507,112.419c0-9.544,7.737-17.282,17.282-17.282c9.545,0,17.282,7.737,17.282,17.282
	c0,16.525-34.563,36.292-34.563,36.292v-36.292H331.507z"/>
</svg>