<?xml version="1.0" ?>
<svg fill="currentColor" width="800px" height="800px" viewBox="0 0 512 512" data-name="Layer 1" id="Layer_1" xmlns="http://www.w3.org/2000/svg" xmlns:xlink="http://www.w3.org/1999/xlink">
  <title />
  <g stroke="currentColor" stroke-width="12" fill="none">
    <path d="M458.36,92.55a0,0,0,0,1,0,0,5.37,5.37,0,0,0-.45-.81,5.8,5.8,0,0,0-4.68-3.28h0A5.65,5.65,0,0,0,447,93a7.17,7.17,0,0,0-.21.76c0,.05,0,.09,0,.13C441.38,159,410.38,178.29,359,210.33c-27.07,16.89-60.76,37.91-98.23,70.82-47.43,41.65-68.28,79.3-62,111.88,6.15,31.82,36.1,48.44,48.57,54.08a156.52,156.52,0,0,0-5.18,39.3,6,6,0,0,0,6,5.81h.16a6,6,0,0,0,5.81-6.12,146.18,146.18,0,0,1,4.65-35.58c82.5,14.37,143.51,0,181.28-42.74C526.3,310.15,461.17,101.4,458.36,92.55ZM254.07,427.3c-1.2,2.78-2.17,5.54-3.15,8.3-11.3-5.38-35.55-19.63-40.41-44.82-5.43-28.14,14.13-62,58.12-100.65,36.76-32.29,70-53,96.68-69.67,39.86-24.87,69.45-43.39,84-81.68-3.18,41.4-22.4,107.07-100.4,171C285.61,361.58,269.1,392.4,254.07,427.3Zm177-27.4c-34.61,39.21-91.45,52.37-168.82,39.12.82-2.33,1.74-4.68,2.75-7C276.91,404.4,290.38,373.09,356.5,319,431.55,257.5,454.81,195,460.57,151.28,474.38,220.25,486.73,337,431.1,399.9Z" />
    <path d="M210.76,156.37C201.33,122,162.91,91,117.32,81.08,56.73,67.92,53,27.15,52.9,25.35A5.89,5.89,0,0,0,52,22.69a3.57,3.57,0,0,0-.3-.38A5.91,5.91,0,0,0,48.51,20s0-.05-.09-.06-.12,0-.19,0a5.38,5.38,0,0,0-1.65-.21,6,6,0,0,0-2.4.7l-.11.09a6,6,0,0,0-2.72,3.15s0,0,0,0C39.65,28.53.88,141.28,60.7,201.92c45.49,46.11,98.53,35.67,116.53,30.3,4,17.59,2.2,29.61,2,30.72a6,6,0,0,0,4.89,6.87,5.79,5.79,0,0,0,1,.07A6,6,0,0,0,191,265c.23-1.34,2.55-16.86-3.1-38.78C214.92,199.39,215.47,173.57,210.76,156.37ZM69.18,193.54C32.89,156.75,37.36,96,44.54,59.12c6.77,23.33,24.41,55.45,68.79,86.63,36.42,25.6,53.15,53.14,60.65,75.09C158.74,225.73,111.11,236,69.18,193.54Zm114.69,19.81C175.14,190,157.09,161.94,120.19,136c-37.52-26.37-54.45-53-62-73.33C69,74.7,86.34,86.55,114.77,92.73c40.79,8.86,76.32,37,84.48,66.79C204.31,178,199,196.41,183.87,213.35Z" />
  </g>
</svg>
