<?xml version="1.0" standalone="no"?> 
<svg version="1.0" xmlns="http://www.w3.org/2000/svg"
 width="1654.000000pt" height="1654.000000pt" viewBox="0 0 1654.000000 1654.000000"
 preserveAspectRatio="xMidYMid meet">

<g transform="translate(0.000000,1654.000000) scale(0.100000,-0.100000)"
fill="currentColor" stroke="none">
<path d="M10720 15409 c-290 -16 -713 -64 -870 -99 l-45 -9 51 4 c28 3 116 12
195 20 522 52 1134 44 1619 -20 978 -131 1830 -477 2510 -1021 726 -580 1265
-1433 1490 -2357 87 -358 114 -589 114 -982 1 -400 -29 -656 -119 -1020 -240
-971 -800 -1834 -1571 -2417 -461 -349 -1016 -610 -1587 -748 -714 -172 -1309
-158 -1991 47 -247 74 -707 253 -842 329 -139 77 -313 234 -547 494 -67 74
-234 250 -371 390 -297 303 -476 502 -598 664 l-89 118 28 31 c125 133 451
252 789 287 60 7 181 26 269 43 205 39 411 48 537 22 169 -34 307 -104 443
-225 144 -127 248 -159 341 -105 58 34 88 85 89 151 0 42 -5 58 -23 77 -35 37
-104 63 -228 87 -227 44 -246 49 -328 97 -98 58 -151 109 -165 160 -17 59 -13
134 7 173 58 109 283 172 677 190 210 9 284 20 340 47 111 55 140 179 70 298
-33 57 -124 140 -168 154 -88 29 -181 -19 -352 -180 -103 -98 -140 -126 -208
-158 -103 -50 -179 -70 -287 -77 -75 -5 -89 -3 -118 15 -18 12 -40 38 -49 59
-35 82 23 216 227 527 140 212 214 349 225 416 10 58 -39 156 -102 204 -79 60
-207 84 -270 51 -78 -40 -108 -152 -138 -511 -29 -360 -71 -488 -172 -531 -66
-28 -122 -15 -148 36 -49 94 -99 385 -114 661 -10 173 -23 243 -58 295 -28 44
-172 71 -226 43 -75 -38 -113 -121 -104 -225 6 -75 36 -142 162 -354 47 -80
95 -174 105 -209 35 -113 23 -220 -31 -265 -74 -63 -132 -23 -282 194 -61 87
-104 120 -159 120 -32 0 -47 -8 -88 -46 -86 -80 -104 -187 -47 -273 38 -58 96
-87 253 -127 203 -52 282 -97 335 -188 57 -101 28 -253 -60 -312 -83 -54 -296
-91 -759 -129 -616 -51 -827 -107 -970 -259 -79 -83 -96 -129 -96 -256 0 -124
21 -215 90 -385 106 -259 234 -449 466 -691 43 -45 78 -84 78 -88 0 -3 -21 4
-47 18 -27 13 -113 47 -193 76 -81 29 -228 95 -335 149 -427 220 -667 391
-940 672 -150 155 -234 263 -287 369 -32 62 -38 85 -38 137 0 79 24 110 123
157 90 43 184 63 354 76 152 11 203 22 289 60 140 63 261 166 538 459 116 123
274 294 350 380 182 204 314 333 389 382 53 35 67 39 121 39 73 0 122 -13 282
-74 164 -61 192 -65 231 -32 59 50 67 159 18 264 -33 71 -69 88 -146 67 -30
-7 -76 -23 -103 -34 -181 -78 -373 -80 -392 -4 -13 51 78 169 186 242 87 59
153 93 338 175 200 88 246 115 267 155 47 92 -34 231 -152 260 -107 27 -151
-5 -382 -289 -150 -185 -243 -280 -303 -309 -58 -28 -83 -27 -115 5 -22 22
-25 32 -21 78 5 64 43 141 163 330 180 285 198 383 84 465 -21 16 -62 35 -90
41 -61 15 -173 9 -215 -11 -49 -24 -56 -63 -59 -349 -1 -140 -8 -279 -14 -309
-17 -84 -55 -159 -86 -171 -39 -15 -99 -12 -144 6 -44 17 -57 40 -116 195 -65
168 -124 257 -192 286 -43 17 -117 17 -152 -2 -64 -33 -111 -116 -111 -197 0
-89 28 -115 200 -187 148 -62 210 -130 210 -232 0 -95 -65 -168 -165 -183 -31
-5 -61 1 -140 30 -238 86 -326 101 -395 66 -47 -23 -71 -70 -77 -145 -12 -167
107 -210 382 -137 73 19 132 29 150 26 120 -23 162 -140 113 -319 -41 -152
-186 -399 -286 -487 -51 -45 -172 -110 -262 -140 -240 -81 -590 -91 -848 -24
-147 38 -239 88 -377 204 -126 106 -180 140 -255 158 -63 15 -212 29 -435 42
-286 16 -349 25 -430 64 -131 62 -228 174 -324 378 -63 132 -105 253 -186 541
-119 420 -176 574 -264 716 -380 613 -1176 1010 -2411 1202 -199 31 -421 32
-535 1 -292 -80 -420 -264 -385 -555 28 -233 127 -501 334 -902 125 -242 182
-339 297 -510 272 -403 587 -700 953 -900 125 -68 219 -105 529 -209 420 -140
567 -215 703 -358 167 -177 221 -388 196 -775 -15 -223 -27 -320 -92 -723 -51
-317 -90 -606 -90 -672 0 -23 -5 -41 -13 -44 -8 -3 -44 6 -81 20 -134 51 -281
152 -398 274 -187 196 -279 406 -281 642 -2 191 33 283 160 420 114 125 134
157 127 199 -9 47 -26 81 -59 111 -22 21 -37 25 -84 25 -108 0 -131 -34 -186
-276 -39 -170 -66 -228 -119 -253 -75 -35 -168 -12 -208 53 -21 33 -23 47 -22
156 1 94 9 160 38 303 20 101 36 208 36 239 0 52 -3 59 -38 93 -50 47 -105 73
-167 77 -68 5 -105 -19 -140 -91 -35 -72 -33 -88 45 -294 115 -307 118 -413
12 -475 -46 -27 -124 -33 -176 -13 -81 31 -127 102 -195 298 -49 143 -80 204
-123 244 -67 63 -174 70 -230 14 -24 -25 -28 -36 -28 -88 0 -101 36 -157 230
-356 92 -94 175 -186 184 -203 21 -42 20 -81 -3 -120 -28 -45 -117 -113 -149
-113 -43 0 -186 26 -352 64 -220 51 -318 48 -356 -8 -20 -32 -21 -121 -1 -168
37 -86 96 -95 291 -43 215 57 305 57 387 2 28 -19 39 -39 67 -117 29 -82 32
-105 29 -171 -4 -93 -24 -132 -90 -176 -25 -17 -84 -44 -129 -59 -117 -38
-184 -72 -213 -106 -35 -41 -36 -103 -5 -174 14 -33 24 -42 50 -48 116 -23
205 22 317 158 142 173 158 184 309 215 234 48 481 48 607 1 90 -34 194 -115
337 -264 295 -309 387 -389 496 -438 115 -50 226 -62 273 -29 62 45 111 173
177 470 89 403 155 542 284 600 68 31 143 28 216 -9 48 -24 99 -70 277 -254
363 -375 684 -647 1082 -918 685 -467 1402 -770 2217 -938 319 -65 433 -109
536 -205 161 -149 195 -336 227 -1250 21 -573 36 -772 76 -983 46 -239 116
-385 210 -432 93 -48 152 -54 509 -54 184 0 484 2 665 4 363 5 431 -2 534 -54
99 -51 164 -212 111 -278 -45 -58 -167 -78 -480 -78 -211 0 -296 -13 -336 -51
-12 -12 -37 -48 -55 -82 -64 -120 -37 -200 79 -233 75 -22 110 -14 299 66 200
85 263 103 373 102 95 0 179 -25 224 -67 33 -30 33 -49 1 -92 -40 -51 -129
-106 -395 -243 -481 -249 -535 -298 -485 -441 38 -107 95 -152 191 -150 113 1
169 46 406 331 192 232 287 320 343 320 37 0 77 -32 98 -78 16 -37 20 -67 20
-142 0 -108 -11 -179 -59 -402 -43 -199 -43 -226 -2 -273 49 -57 100 -78 198
-83 100 -5 133 6 155 49 32 62 23 154 -50 479 -35 154 -45 365 -21 436 22 67
69 122 130 150 65 30 92 30 138 -1 74 -50 145 -185 242 -455 103 -288 114
-314 152 -359 47 -55 100 -81 164 -81 47 0 55 4 101 46 82 78 142 229 125 318
-9 47 -82 123 -320 332 -253 221 -356 357 -356 467 0 120 100 177 308 177 202
-1 369 -41 564 -137 161 -79 230 -103 291 -103 33 0 46 6 76 38 73 77 111 246
77 337 -36 92 -116 123 -272 105 -49 -5 -150 -19 -224 -31 -161 -26 -377 -30
-460 -10 -86 21 -177 74 -280 162 -187 161 -266 209 -401 244 -143 38 -227 45
-604 55 -409 11 -562 25 -701 65 -87 26 -237 97 -282 135 l-23 19 15 98 c14
94 29 240 41 408 3 44 12 249 20 455 28 696 44 799 139 893 46 46 137 93 218
112 35 8 180 24 323 35 1144 88 1961 239 2757 509 496 168 1008 415 1388 671
674 452 1207 1064 1584 1817 400 800 591 1738 536 2623 -61 958 -380 1843
-928 2575 -787 1051 -1933 1644 -3457 1789 -360 35 -844 45 -1195 25z"/>
</g>
</svg>
