<?xml version="1.0" encoding="iso-8859-1"?>
<!-- Uploaded to: SVG Repo, www.svgrepo.com, Generator: SVG Repo Mixer Tools -->
<svg fill="#000000" version="1.1" id="Layer_1" xmlns="http://www.w3.org/2000/svg" xmlns:xlink="http://www.w3.org/1999/xlink" 
	 viewBox="0 0 512 512" xml:space="preserve">
<g>
	<g>
		<path d="M256.845,123.489c-26.413,0-47.903,21.488-47.903,47.902c0,26.413,21.488,47.903,47.903,47.903
			c26.413,0,47.903-21.489,47.903-47.903C304.747,144.977,283.258,123.489,256.845,123.489z M256.846,203.652
			c-17.79,0-32.261-14.473-32.261-32.261s14.472-32.261,32.261-32.261c17.789,0,32.261,14.472,32.261,32.261
			C289.107,189.179,274.634,203.652,256.846,203.652z"/>
	</g>
</g>
<g>
	<g>
		<path d="M353.04,283.816c-13.152,0-23.853,10.701-23.853,23.853s10.701,23.853,23.853,23.853s23.853-10.701,23.853-23.853
			S366.193,283.816,353.04,283.816z M353.04,315.88c-4.528,0-8.212-3.684-8.212-8.212s3.684-8.212,8.212-8.212
			s8.212,3.684,8.212,8.212C361.252,312.197,357.568,315.88,353.04,315.88z"/>
	</g>
</g>
<g>
	<g>
		<path d="M160.648,283.815c-13.152,0-23.853,10.701-23.853,23.853c0,13.154,10.701,23.853,23.853,23.853
			c13.154,0.001,23.854-10.7,23.854-23.853C184.503,294.516,173.802,283.815,160.648,283.815z M160.649,315.88
			c-4.529,0.001-8.212-3.683-8.212-8.212c0-4.528,3.684-8.212,8.212-8.212c4.529,0,8.213,3.684,8.213,8.212
			C168.862,312.197,165.178,315.88,160.649,315.88z"/>
	</g>
</g>
<g>
	<g>
		<rect x="225.238" y="235.353" width="15.642" height="15.642"/>
	</g>
</g>
<g>
	<g>
		<rect x="248.179" y="235.353" width="16.684" height="15.642"/>
	</g>
</g>
<g>
	<g>
		<rect x="273.206" y="235.353" width="15.642" height="15.642"/>
	</g>
</g>
<g>
	<g>
		<path d="M429.708,274.981H388.01c-8.748-9.353-21.184-15.214-34.97-15.214c-13.786,0-26.221,5.861-34.969,15.214h-4.509
			c20.415-38.218,39.283-79.936,39.283-103.589c0-52.935-43.065-96-96-96c-52.935,0-96.001,43.065-96.001,96
			c0,23.653,18.868,65.371,39.283,103.589h-4.508c-8.748-9.353-21.184-15.214-34.97-15.214c-13.785,0-26.221,5.861-34.969,15.214
			H84.03L0,417.767v18.842h512v-18.803L429.708,274.981z M353.04,275.408c17.789,0,32.261,14.472,32.261,32.261
			c0,12.409-17.778,43.827-32.261,66.101c-14.482-22.274-32.261-53.692-32.261-66.101C320.78,289.88,335.252,275.408,353.04,275.408
			z M176.486,171.391c0-44.309,36.049-80.359,80.359-80.359s80.359,36.049,80.359,80.359c0,27.389-32.532,89.435-59.772,135.915
			h-41.175C209.018,260.825,176.486,198.78,176.486,171.391z M268.121,322.948c-4.056,6.709-7.867,12.874-11.276,18.292
			c-3.41-5.418-7.22-11.583-11.277-18.292H268.121z M160.649,275.408c17.789,0,32.261,14.472,32.261,32.261
			c0,12.409-17.778,43.827-32.261,66.101c-14.482-22.274-32.26-53.692-32.26-66.101C128.388,289.88,142.859,275.408,160.649,275.408
			z M16.265,420.968l76.709-130.346h22.918c-2.025,5.3-3.146,11.044-3.146,17.047c0,23.886,37.223,78.464,41.468,84.608l6.435,9.316
			l6.435-9.316c4.244-6.144,41.468-60.723,41.468-84.608c0-6.003-1.12-11.747-3.146-17.047h3.148v-0.199
			c20.422,36.688,40.028,66.983,41.733,69.606l6.558,10.09l6.557-10.09c1.702-2.618,21.24-32.809,41.622-69.407h3.261
			c-2.025,5.3-3.146,11.044-3.146,17.047c0,23.886,37.223,78.464,41.468,84.608l6.435,9.316l6.435-9.316
			c4.244-6.144,41.468-60.723,41.468-84.608c0-6.003-1.12-11.747-3.146-17.047h22.87l75.101,130.346H16.265z"/>
	</g>
</g>
</svg>