<?xml version="1.0" encoding="iso-8859-1"?>
<!-- Uploaded to: SVG Repo, www.svgrepo.com, Generator: SVG Repo Mixer Tools -->
<svg version="1.1" id="Layer_1" xmlns="http://www.w3.org/2000/svg" xmlns:xlink="http://www.w3.org/1999/xlink" 
	 viewBox="0 0 512 512" xml:space="preserve">
<polygon style="fill:#00A99D;" points="425.188,283.323 504.701,419.897 504.701,428.268 8.342,428.268 8.342,419.897 
	88.502,283.323 "/>
<polygon style="fill:#007F76;" points="320.975,283.323 264.864,419.897 264.864,428.268 8.342,428.268 8.342,419.897 
	88.502,283.323 "/>
<polygon style="fill:#00A99D;" points="64.453,331.29 240.812,331.29 208.747,283.323 88.502,283.323 "/>
<path style="fill:#22B573;" d="M160.649,267.587c-22.136,0-40.082,17.945-40.082,40.082c0,22.136,40.082,80.163,40.082,80.163
	s40.082-58.027,40.082-80.163C200.73,285.532,182.785,267.587,160.649,267.587z M160.649,323.702
	c-8.854,0-16.033-7.178-16.033-16.033c0-8.855,7.178-16.033,16.033-16.033s16.033,7.177,16.033,16.033
	C176.682,316.523,169.503,323.702,160.649,323.702z"/>
<polygon style="fill:#00A99D;" points="40.404,371.958 200.73,371.958 176.682,428.268 8.342,428.268 8.342,419.897 "/>
<path style="fill:#22B573;" d="M256.845,83.211c-48.701,0-88.18,39.479-88.18,88.18s88.18,184.375,88.18,184.375
	s88.18-135.676,88.18-184.375S305.545,83.211,256.845,83.211z M256.845,211.473c-22.137,0-40.082-17.945-40.082-40.082
	s17.945-40.082,40.082-40.082s40.082,17.945,40.082,40.082S278.982,211.473,256.845,211.473z"/>
<path style="fill:#1A8856;" d="M216.439,171.391c0-22.137,19.227-40.082,40.082-40.082V83.211c-49.01,0-88.18,39.479-88.18,88.18
	s88.18,184.376,88.18,184.376V211.473C235.666,211.473,216.439,193.528,216.439,171.391z"/>
<g>
	<polygon style="fill:#FFFFFF;" points="232.796,315.649 256.845,355.729 280.894,315.649 	"/>
	<circle style="fill:#FFFFFF;" cx="160.649" cy="307.669" r="16.033"/>
</g>
<polygon style="fill:#007F76;" points="304.489,428.268 304.489,419.897 320.975,371.958 476.791,371.958 504.701,419.897 
	504.701,428.268 "/>
<circle style="fill:#FFFFFF;" cx="353.04" cy="307.669" r="16.033"/>
<path style="fill:#1A8856;" d="M144.554,307.669c0-8.855,7.69-16.033,16.033-16.033v-24.049c-21.898,0-40.082,17.945-40.082,40.082
	c0,22.136,40.082,80.163,40.082,80.163v-64.13C152.244,323.702,144.554,316.523,144.554,307.669z"/>
<path style="fill:#22B573;" d="M353.041,267.587c-22.137,0-40.082,17.945-40.082,40.082c0,22.136,40.082,80.163,40.082,80.163
	s40.082-58.027,40.082-80.163C393.122,285.532,375.177,267.587,353.041,267.587z M353.041,323.702
	c-8.854,0-16.033-7.178-16.033-16.033c0-8.855,7.178-16.033,16.033-16.033s16.033,7.177,16.033,16.033
	C369.074,316.523,361.895,323.702,353.041,323.702z"/>
<path style="fill:#1A8856;" d="M337.466,307.669c0-8.855,6.648-16.033,16.033-16.033v-24.049c-21.898,0-40.082,17.945-40.082,40.082
	c0,22.136,40.082,80.163,40.082,80.163v-64.13C344.114,323.702,337.466,316.523,337.466,307.669z"/>
<circle style="fill:#FFFFFF;" cx="256.845" cy="171.39" r="40.082"/>
<path d="M256.845,219.293c-26.413,0-47.903-21.488-47.903-47.903c0-26.413,21.488-47.902,47.903-47.902
	c26.413,0,47.903,21.488,47.903,47.902S283.258,219.293,256.845,219.293z M256.845,139.131c-17.789,0-32.261,14.472-32.261,32.261
	c0,17.789,14.472,32.261,32.261,32.261c17.789,0,32.261-14.472,32.261-32.261S274.633,139.131,256.845,139.131z"/>
<path d="M353.04,331.523c-13.152,0-23.853-10.701-23.853-23.853s10.701-23.853,23.853-23.853c13.152,0,23.853,10.701,23.853,23.853
	S366.194,331.523,353.04,331.523z M353.04,299.456c-4.528,0-8.212,3.684-8.212,8.212c0,4.529,3.684,8.212,8.212,8.212
	c4.528,0,8.212-3.684,8.212-8.212S357.569,299.456,353.04,299.456z"/>
<path d="M160.649,331.523c-13.152,0-23.853-10.701-23.853-23.853s10.701-23.853,23.853-23.853c13.154,0,23.854,10.701,23.854,23.853
	C184.502,320.822,173.802,331.523,160.649,331.523z M160.649,299.456c-4.528,0-8.212,3.684-8.212,8.212
	c0,4.529,3.684,8.212,8.212,8.212c4.529,0,8.213-3.684,8.213-8.212C168.861,303.141,165.177,299.456,160.649,299.456z"/>
<g>
	<rect x="225.238" y="235.353" style="fill:#FFFFFF;" width="15.642" height="15.642"/>
	<rect x="248.179" y="235.353" style="fill:#FFFFFF;" width="16.684" height="15.642"/>
	<rect x="273.206" y="235.353" style="fill:#FFFFFF;" width="15.642" height="15.642"/>
</g>
<path d="M429.708,274.98h-41.697c-8.748-9.353-21.184-15.214-34.97-15.214s-26.221,5.861-34.969,15.214h-4.509
	c20.415-38.217,39.283-79.936,39.283-103.589c0-52.935-43.065-96.001-96.001-96.001s-96.001,43.065-96.001,96.001
	c0,23.653,18.868,65.371,39.283,103.589h-4.508c-8.748-9.353-21.184-15.214-34.97-15.214c-13.785,0-26.221,5.861-34.969,15.214
	H84.03L0,417.767v18.842h512v-18.803L429.708,274.98z M353.04,275.408c17.789,0,32.261,14.472,32.261,32.261
	c0,12.409-17.778,43.827-32.261,66.101c-14.482-22.274-32.261-53.692-32.261-66.101C320.78,289.88,335.252,275.408,353.04,275.408z
	 M256.845,91.032c44.31,0,80.359,36.049,80.359,80.359c0,27.389-32.532,89.435-59.772,135.915h-41.175
	c-27.239-46.48-59.772-108.525-59.772-135.915C176.486,127.081,212.534,91.032,256.845,91.032z M268.121,322.948
	c-4.056,6.709-7.867,12.874-11.276,18.292c-3.41-5.418-7.22-11.583-11.277-18.292H268.121z M160.649,275.408
	c17.789,0,32.261,14.472,32.261,32.261c0,12.409-17.778,43.827-32.261,66.101c-14.482-22.274-32.26-53.692-32.26-66.101
	C128.388,289.88,142.859,275.408,160.649,275.408z M16.265,420.968l76.709-130.346h22.918c-2.025,5.3-3.146,11.044-3.146,17.047
	c0,23.886,37.223,78.464,41.468,84.608l6.435,9.316l6.435-9.316c4.244-6.144,41.468-60.723,41.468-84.608
	c0-6.003-1.12-11.747-3.146-17.047h3.148v-0.199c20.422,36.688,40.028,66.983,41.733,69.606l6.558,10.09l6.557-10.09
	c1.702-2.618,21.24-32.809,41.622-69.407h3.261c-2.025,5.3-3.146,11.044-3.146,17.047c0,23.886,37.223,78.464,41.468,84.608
	l6.435,9.316l6.435-9.316c4.244-6.144,41.468-60.723,41.468-84.608c0-6.003-1.12-11.747-3.146-17.047h22.87l75.101,130.346H16.265z"
	/>
</svg>