<?xml version="1.0" encoding="iso-8859-1"?>
<!-- Uploaded to: SVG Repo, www.svgrepo.com, Generator: SVG Repo Mixer Tools -->
<!DOCTYPE svg PUBLIC "-//W3C//DTD SVG 1.1//EN" "http://www.w3.org/Graphics/SVG/1.1/DTD/svg11.dtd">
<svg fill="currentColor" version="1.1" id="Capa_1" xmlns="http://www.w3.org/2000/svg" xmlns:xlink="http://www.w3.org/1999/xlink" 
	 width="800px" height="800px" viewBox="0 0 476.553 476.553"
	 xml:space="preserve">
<g>
	<g>
		<path d="M476.553,122.604c0-54.988-44.578-99.564-99.566-99.564c-48.828,0-89.442,35.15-97.931,81.527H131.725
			C59.092,104.567,0,163.659,0,236.292c0,72.635,59.092,131.727,131.725,131.727h62.956v70.158c0,6.225,3.717,11.783,9.469,14.168
			c1.87,0.771,3.847,1.168,5.862,1.168c4.099,0,7.937-1.582,10.808-4.457l81.6-81.037h6.959
			c72.635,0,131.727-59.093,131.727-131.728c0-11.742-1.561-23.125-4.467-33.963C460.871,184.169,476.553,155.217,476.553,122.604z
			 M376.986,48.04c41.115,0,74.566,33.449,74.566,74.564c0,41.115-33.451,74.564-74.566,74.564s-74.564-33.449-74.564-74.564
			C302.422,81.489,335.871,48.04,376.986,48.04z"/>
		<path d="M334.848,133.108h31.637v31.637c0,5.801,4.701,10.502,10.502,10.502s10.502-4.701,10.502-10.502v-31.637h31.637
			c5.803,0,10.504-4.703,10.504-10.502c0-5.801-4.701-10.504-10.504-10.504h-31.637V80.465c0-5.799-4.701-10.502-10.502-10.502
			s-10.502,4.703-10.502,10.502v31.637h-31.637c-5.801,0-10.502,4.703-10.502,10.504
			C324.346,128.405,329.047,133.108,334.848,133.108z"/>
	</g>
</g>
</svg>