<?xml version="1.0" encoding="iso-8859-1"?>
<!-- Uploaded to: SVG Repo, www.svgrepo.com, Generator: SVG Repo Mixer Tools -->
<svg fill="#000000" height="800px" width="800px" version="1.1" id="Layer_1" xmlns="http://www.w3.org/2000/svg" xmlns:xlink="http://www.w3.org/1999/xlink" 
	 viewBox="0 0 512 512" xml:space="preserve">
<g>
	<g>
		<path d="M384,0H128c-15.71,0-28.444,12.735-28.444,28.444v455.111C99.556,499.265,112.29,512,128,512h256
			c15.71,0,28.444-12.735,28.444-28.444V28.444C412.444,12.735,399.71,0,384,0z M276.113,461.003
			c-5.373,5.372-12.516,8.33-20.113,8.33c-15.687-0.006-28.444-12.766-28.444-28.444c0-15.684,12.76-28.444,28.444-28.444
			s28.444,12.76,28.444,28.444C284.447,448.482,281.488,455.629,276.113,461.003z M369.778,369.778H142.222V56.889h227.556V369.778z
			" />
	</g>
</g>
<g>
	<g>
		<path d="M304.879,180.877c-13.744-13.744-35.981-13.312-48.879-0.414c-12.898-12.898-35.135-13.332-48.879,0.414
			c-13.301,13.301-14.087,35.216,0,49.301L256,279.058l48.88-48.88C318.966,216.092,318.18,194.176,304.879,180.877z" />
	</g>
</g>
</svg>