<?xml version="1.0" encoding="utf-8"?>

<!DOCTYPE svg PUBLIC "-//W3C//DTD SVG 1.1//EN" "http://www.w3.org/Graphics/SVG/1.1/DTD/svg11.dtd">
<!-- Uploaded to: SVG Repo, www.svgrepo.com, Generator: SVG Repo Mixer Tools -->
<svg height="800px" width="800px" version="1.1" id="_x32_" xmlns="http://www.w3.org/2000/svg" xmlns:xlink="http://www.w3.org/1999/xlink" 
	 viewBox="0 0 512 512"  xml:space="preserve">
<style type="text/css">
	.st0{fill:#ffffff;}
</style>
<g>
	<path class="st0" d="M98.715,369.376l-97.028,97.02L0,512l45.603-1.688l97.02-97.02c-7.614-6.725-15.196-13.783-22.665-21.252
		C112.49,384.572,105.425,376.991,98.715,369.376z"/>
	<path class="st0" d="M446.021,65.979C387.878,7.853,317.914-16.443,289.735,11.744c-15.688,15.672-15.074,44.312-1.477,76.625
		l-88.3,76.56c-55.728-31.15-107.774-37.642-133.911-11.506c-39.168,39.168-5.426,136.398,75.349,217.18
		c80.782,80.775,178.013,114.517,217.173,75.357c26.144-26.144,19.653-78.19-11.498-133.911l76.576-88.3
		c32.305,13.589,60.936,14.194,76.608-1.478C528.442,194.085,504.155,124.121,446.021,65.979z"/>
</g>
</svg>