<?xml version="1.0" standalone="no"?>
<!DOCTYPE svg PUBLIC "-//W3C//DTD SVG 20010904//EN"
 "http://www.w3.org/TR/2001/REC-SVG-20010904/DTD/svg10.dtd">
<svg version="1.0" xmlns="http://www.w3.org/2000/svg"
 width="2508.000000pt" height="2672.000000pt" viewBox="0 0 2508.000000 2672.000000"
 preserveAspectRatio="xMidYMid meet">

<g transform="translate(0.000000,2672.000000) scale(0.100000,-0.100000)"
fill="#000000" stroke="none">
<path d="M5300 25485 c-288 -53 -507 -187 -738 -453 -35 -40 -80 -81 -101 -91
-42 -22 -158 -59 -386 -126 -654 -189 -1604 -546 -1872 -703 -316 -185 -502
-484 -609 -976 -26 -122 -26 -127 -9 -146 10 -11 30 -20 43 -20 27 0 522 -123
1057 -264 176 -46 394 -103 485 -126 3090 -796 4829 -1324 5324 -1617 109 -64
227 -183 291 -293 102 -176 277 -589 389 -920 62 -185 167 -556 197 -700 138
-651 174 -909 166 -1205 -6 -223 -16 -293 -82 -575 -75 -321 -71 -410 24 -605
56 -113 107 -184 242 -335 52 -58 139 -159 193 -225 54 -66 141 -165 195 -220
53 -56 123 -135 156 -175 33 -41 103 -122 156 -180 52 -58 135 -150 184 -205
90 -102 398 -435 560 -605 50 -52 118 -126 150 -165 33 -38 103 -115 155 -170
53 -55 113 -120 134 -145 22 -25 130 -142 241 -260 111 -118 235 -253 275
-300 39 -47 111 -126 158 -175 99 -103 117 -123 296 -330 71 -82 143 -163 158
-180 16 -16 73 -81 126 -144 162 -191 368 -425 397 -451 15 -14 64 -65 108
-115 137 -154 359 -396 431 -472 46 -48 73 -70 85 -66 12 3 13 2 3 -4 -9 -7
-3 -20 26 -54 42 -47 233 -311 287 -395 67 -104 150 -282 128 -273 -4 2 -87
45 -183 96 -203 107 -200 105 -520 233 -135 54 -333 138 -440 188 -107 49
-233 104 -280 122 -47 18 -135 55 -196 81 -100 43 -254 104 -509 202 -49 19
-139 56 -200 82 -60 26 -139 58 -175 70 -117 41 -142 52 -151 66 -7 12 -9 12
-9 0 0 -9 -7 -11 -21 -8 -31 8 -235 -39 -297 -69 -171 -83 -313 -270 -343
-451 -13 -81 1 -535 26 -833 8 -96 15 -215 15 -265 0 -49 7 -173 15 -275 9
-102 20 -282 25 -400 6 -118 15 -260 20 -315 5 -55 14 -197 20 -315 9 -201 18
-349 55 -880 16 -219 35 -625 32 -670 -1 -14 2 -111 7 -216 8 -179 7 -194 -11
-235 -54 -121 -154 -175 -288 -157 -66 9 -413 121 -675 218 -166 62 -863 288
-929 301 -51 11 -64 10 -124 -10 -176 -59 -257 -179 -176 -261 39 -38 73 -56
231 -119 68 -27 196 -81 284 -119 528 -230 695 -301 834 -352 168 -62 210 -81
229 -104 19 -23 8 -32 -67 -57 -37 -12 -110 -41 -162 -65 -52 -23 -203 -81
-335 -127 -132 -47 -289 -106 -350 -132 -60 -25 -173 -68 -250 -95 -77 -27
-162 -58 -190 -70 -27 -12 -102 -41 -165 -65 -63 -24 -151 -59 -195 -78 -44
-19 -121 -49 -172 -66 -109 -36 -217 -89 -256 -125 -41 -38 -50 -71 -31 -112
45 -95 229 -109 509 -38 123 31 454 127 805 232 146 44 348 103 450 131 102
29 259 75 350 103 194 59 183 57 187 38 5 -25 -188 -255 -422 -505 -77 -82
-174 -188 -215 -235 -41 -47 -118 -132 -171 -190 -53 -58 -122 -136 -154 -175
-32 -38 -84 -97 -116 -130 -100 -103 -269 -318 -279 -355 -24 -86 -5 -115 77
-114 103 1 194 61 567 379 314 267 587 520 1101 1020 338 328 427 406 443 391
4 -4 6 -40 5 -79 -4 -115 -30 -253 -127 -672 -83 -361 -159 -734 -160 -783 0
-47 3 -57 27 -78 103 -88 292 -19 358 130 19 44 40 121 149 551 39 154 104
397 145 540 41 143 96 346 124 450 27 105 72 273 99 375 65 243 87 342 117
535 84 546 104 946 110 2204 2 507 7 867 13 873 5 5 20 3 38 -7 16 -8 189 -93
384 -188 195 -96 459 -228 585 -294 127 -66 347 -180 490 -253 407 -208 565
-293 643 -343 39 -26 104 -58 143 -72 39 -13 87 -34 108 -47 35 -23 48 -30
154 -77 48 -22 57 -37 35 -59 -9 -9 -8 -12 5 -12 9 0 21 -8 26 -18 7 -10 11
-12 11 -4 0 9 7 11 20 7 11 -4 20 -2 20 4 0 6 8 8 18 5 13 -5 14 -4 3 4 -7 5
-22 7 -32 5 -10 -3 -19 0 -19 6 0 6 -4 11 -10 11 -5 0 -6 -8 -3 -18 6 -15 5
-15 -10 -3 -19 15 -14 31 11 31 28 0 94 -21 88 -27 -8 -8 109 -49 160 -57 128
-19 359 -27 439 -14 157 24 246 50 304 89 32 21 61 39 64 39 3 0 19 -30 36
-66 17 -36 85 -161 152 -277 268 -467 488 -931 615 -1300 76 -222 144 -541
146 -689 5 -381 -5 -496 -64 -732 -45 -181 -138 -418 -229 -581 -32 -58 -57
-111 -53 -116 3 -5 0 -8 -8 -7 -7 2 -12 -5 -12 -14 1 -10 -3 -15 -9 -11 -6 4
-8 0 -4 -11 5 -11 3 -15 -5 -10 -8 5 -9 2 -5 -9 4 -10 2 -16 -6 -14 -7 1 -12
-6 -12 -15 0 -9 -4 -20 -9 -25 -5 -5 -6 -2 -2 7 4 8 0 6 -8 -5 -9 -11 -14 -25
-12 -32 3 -7 0 -15 -6 -19 -7 -5 -8 -2 -3 6 6 9 4 11 -4 6 -7 -5 -10 -14 -7
-22 3 -8 0 -13 -7 -11 -7 1 -12 -6 -12 -15 0 -10 -7 -23 -15 -30 -12 -11 -12
-10 0 6 10 13 10 17 3 12 -7 -4 -18 -16 -24 -28 -9 -16 -8 -19 3 -12 10 6 11
5 2 -7 -181 -236 -345 -425 -418 -484 -20 -16 -76 -66 -125 -111 -106 -97
-422 -341 -592 -457 -68 -46 -203 -130 -299 -187 -96 -57 -238 -140 -315 -185
-77 -46 -200 -117 -273 -159 -713 -409 -1475 -609 -2681 -706 -676 -54 -1516
-52 -2256 5 -688 54 -1515 197 -2145 371 -542 150 -1017 321 -1493 535 -594
268 -1153 603 -1704 1022 -522 397 -1077 963 -1460 1489 -368 505 -489 704
-705 1161 -135 284 -197 436 -276 677 -165 500 -236 865 -273 1405 -11 159 -8
685 6 930 l5 90 -44 -89 c-74 -149 -157 -420 -185 -601 -40 -255 -55 -520 -41
-713 47 -662 145 -1139 362 -1757 234 -665 611 -1346 1042 -1880 246 -304 488
-560 771 -810 227 -202 293 -256 540 -441 520 -391 1166 -805 1815 -1164 239
-133 782 -401 987 -489 203 -86 584 -231 748 -284 690 -224 1255 -345 2580
-551 690 -108 1629 -207 2539 -268 471 -31 1120 -31 1396 1 553 63 930 147
1440 319 461 156 698 256 1145 479 351 176 332 166 595 326 320 196 469 302
710 503 394 329 742 728 1104 1267 396 591 648 1085 771 1517 92 324 163 806
167 1132 1 87 4 162 8 168 10 17 86 -154 249 -560 218 -544 376 -930 396 -970
48 -94 108 -133 205 -132 78 0 141 23 175 64 32 38 29 57 -32 233 -25 72 -82
238 -128 370 -45 132 -126 357 -180 500 -53 143 -106 293 -116 334 -18 72 -25
131 -14 131 3 0 28 -11 56 -26 80 -40 272 -180 474 -345 72 -58 173 -137 225
-174 52 -38 201 -148 330 -245 367 -275 558 -412 785 -563 224 -149 335 -208
439 -234 79 -19 114 -9 142 42 18 33 18 34 -11 77 -53 82 -514 519 -835 793
-63 53 -153 135 -200 180 -47 45 -170 155 -273 245 -179 154 -247 225 -247
257 0 12 12 13 68 8 118 -12 372 -55 527 -90 83 -18 202 -43 265 -55 111 -21
233 -46 650 -131 225 -45 441 -83 585 -100 90 -11 108 -11 168 6 37 10 75 24
85 32 16 12 15 13 -3 7 -20 -7 -20 -7 0 9 12 9 22 11 26 5 9 -14 59 49 59 75
0 12 -21 41 -49 68 -47 45 -107 72 -243 107 -35 10 -37 9 -48 -22 -7 -17 -20
-47 -30 -66 -10 -19 -25 -59 -35 -87 l-17 -53 -50 0 c-35 0 -48 4 -45 13 2 7
17 11 34 10 17 -2 35 3 41 10 14 18 53 133 50 148 -2 8 7 15 19 17 22 3 39 30
26 42 -4 4 -107 35 -228 70 -121 34 -301 86 -400 115 -99 29 -234 67 -300 85
-66 17 -235 65 -375 106 -637 188 -700 209 -700 232 0 18 121 94 232 145 51
24 145 75 208 114 111 67 392 228 610 347 293 162 441 261 455 306 7 22 -22
83 -59 123 -55 60 -191 102 -281 87 -98 -16 -208 -67 -895 -412 -516 -259
-701 -347 -718 -343 -69 17 -137 51 -180 90 -72 65 -82 109 -132 575 -16 157
-43 404 -59 550 -17 146 -44 393 -61 550 -17 157 -35 323 -40 370 -5 47 -14
146 -20 220 -6 74 -22 225 -35 335 -13 110 -29 259 -35 330 -6 72 -22 238 -35
370 -14 132 -43 424 -65 650 -44 444 -63 552 -111 650 -64 131 -204 250 -354
302 -71 25 -94 28 -205 28 -114 0 -130 -2 -180 -26 -30 -14 -93 -60 -140 -102
-47 -42 -123 -109 -170 -149 -47 -40 -123 -111 -170 -158 -47 -47 -98 -92
-115 -100 -46 -23 -225 -200 -225 -223 0 -31 -93 65 -248 257 -300 371 -297
368 -758 861 -279 299 -446 465 -574 571 -47 38 -127 105 -178 147 -100 83
-166 121 -228 133 -63 11 -123 47 -219 129 -49 43 -137 116 -195 164 -58 47
-170 140 -250 206 -80 67 -201 166 -270 220 -69 54 -177 142 -240 195 -63 53
-144 118 -180 146 -181 137 -547 451 -700 600 -52 51 -160 139 -240 196 -80
57 -282 218 -449 358 -167 140 -350 294 -408 342 -381 319 -1020 968 -1222
1243 -140 189 -309 463 -407 658 -93 187 -114 242 -208 525 -139 421 -230 793
-209 851 7 19 5 37 -8 68 -23 53 -47 168 -55 263 l-7 73 89 -7 89 -6 -61 24
c-107 42 -122 53 -133 94 -8 32 -27 152 -46 295 -4 28 -1 39 10 43 9 4 64 1
123 -5 168 -17 374 -24 337 -10 -16 6 -55 11 -85 11 -51 0 -52 1 -15 7 39 6
37 7 -105 60 -221 82 -266 104 -285 141 -15 29 -48 230 -39 239 14 15 571 -30
721 -58 25 -5 41 -5 36 -1 -11 12 -263 119 -458 195 -198 77 -286 120 -319
154 -28 29 -52 111 -62 206 l-7 62 89 17 c160 29 294 38 649 45 193 4 328 9
300 10 -27 2 -61 7 -75 11 -23 7 -22 8 10 10 21 1 -32 15 -130 35 -427 87
-863 190 -897 211 -14 9 -32 47 -56 121 -52 156 -77 245 -72 253 3 4 21 10 42
13 21 3 76 12 123 20 47 9 148 25 225 37 77 12 219 35 315 51 227 37 801 117
968 135 34 4 65 11 68 16 3 5 -9 6 -28 3 -21 -4 -30 -3 -23 4 6 5 24 11 40 13
17 2 -105 6 -270 10 -165 4 -376 12 -470 18 -93 6 -309 19 -480 30 -170 11
-328 21 -350 23 l-40 2 0 107 c0 58 3 109 7 113 3 4 161 33 350 65 189 32 395
68 458 79 420 75 842 147 1005 171 105 15 170 28 146 29 -53 1 -49 8 10 20 27
5 -180 9 -536 10 -777 2 -1146 18 -1178 50 -6 6 -12 46 -15 89 l-4 79 33 20
c19 11 81 39 139 61 58 23 204 80 325 128 292 114 590 226 750 281 214 72 331
118 313 121 -9 2 -90 -10 -180 -27 -89 -16 -242 -41 -338 -55 -181 -27 -528
-80 -925 -141 -274 -42 -594 -85 -628 -85 -28 0 -37 20 -37 83 0 62 60 107
310 232 63 32 192 99 285 150 360 196 465 250 681 350 332 154 345 171 62 79
-195 -62 -400 -121 -758 -219 -135 -36 -333 -91 -440 -122 -403 -114 -521
-146 -742 -203 -125 -32 -229 -55 -232 -52 -3 3 -6 28 -6 57 0 47 3 54 43 92
23 22 92 78 152 123 61 46 187 145 280 220 173 138 252 198 405 307 47 34 96
73 110 88 l25 27 -25 -7 c-14 -4 -113 -52 -220 -106 -107 -53 -220 -107 -250
-119 -113 -44 -880 -364 -1000 -417 -172 -76 -275 -113 -314 -113 -18 0 -72
14 -121 30 -405 137 -1283 322 -2015 425 -497 70 -480 66 -570 135 -268 206
-460 321 -652 388 -189 67 -413 88 -588 57z m635 -1095 c-3 -5 -12 -10 -18
-10 -7 0 -6 4 3 10 19 12 23 12 15 0z m3368 -1388 c108 -53 180 -128 237 -245
52 -108 70 -189 70 -317 0 -135 -20 -225 -71 -328 -105 -214 -328 -327 -551
-281 -187 39 -332 197 -388 424 -19 76 -22 107 -17 200 7 128 25 202 73 301
63 129 167 225 293 271 56 20 81 23 167 21 96 -3 106 -6 187 -46z m189 -3964
c-9 -9 -15 -9 -24 0 -9 9 -7 12 12 12 19 0 21 -3 12 -12z m125 -455 c-9 -9
-19 -14 -23 -11 -10 10 6 28 24 28 15 0 15 -1 -1 -17z m57 -242 c7 -10 -22
-37 -30 -28 -9 8 3 37 15 37 5 0 12 -4 15 -9z m186 -311 c0 -5 -4 -10 -10 -10
-5 0 -10 5 -10 10 0 6 5 10 10 10 6 0 10 -4 10 -10z m250 -124 c0 -3 -4 -8
-10 -11 -5 -3 -10 -1 -10 4 0 6 5 11 10 11 6 0 10 -2 10 -4z m150 -196 c0 -5
-5 -10 -11 -10 -5 0 -7 5 -4 10 3 6 8 10 11 10 2 0 4 -4 4 -10z m280 -40 c0
-5 -5 -10 -11 -10 -5 0 -7 5 -4 10 3 6 8 10 11 10 2 0 4 -4 4 -10z m-540 -424
c0 -28 -19 -44 -30 -26 -11 17 0 50 16 50 8 0 14 -10 14 -24z m1020 -61 c0
-16 -6 -25 -15 -25 -9 0 -15 9 -15 25 0 16 6 25 15 25 9 0 15 -9 15 -25z m132
8 c28 -8 10 -23 -28 -23 -22 0 -34 5 -34 13 0 20 12 28 29 21 9 -3 24 -9 33
-11z m-232 -304 c0 -6 -4 -7 -10 -4 -5 3 -10 11 -10 16 0 6 5 7 10 4 6 -3 10
-11 10 -16z m110 -29 c0 -5 -7 -10 -15 -10 -8 0 -15 5 -15 10 0 6 7 10 15 10
8 0 15 -4 15 -10z m130 -30 c0 -5 -7 -10 -15 -10 -8 0 -15 5 -15 10 0 6 7 10
15 10 8 0 15 -4 15 -10z m-298 -112 c-7 -7 -12 -8 -12 -2 0 14 12 26 19 19 2
-3 -1 -11 -7 -17z m-76 -65 c-10 -10 -19 5 -10 18 6 11 8 11 12 0 2 -7 1 -15
-2 -18z m499 -113 c0 -22 -29 -18 -33 3 -3 14 1 18 15 15 10 -2 18 -10 18 -18z
m-384 -57 c-9 -16 -10 -14 -11 12 0 21 3 26 11 18 8 -8 8 -16 0 -30z m204 28
c3 -5 1 -12 -5 -16 -5 -3 -10 1 -10 9 0 18 6 21 15 7z m-75 -26 c0 -16 -27
-32 -37 -22 -3 4 -3 13 0 22 8 20 37 20 37 0z m594 -67 c-13 -23 -37 -48 -46
-48 -13 0 -9 22 9 42 18 20 48 25 37 6z m-838 -115 c-11 -11 -19 6 -11 24 8
17 8 17 12 0 3 -10 2 -21 -1 -24z m709 -82 c-3 -6 -11 -11 -17 -11 -6 0 -6 6
2 15 14 17 26 13 15 -4z m-465 -42 c0 -5 -4 -9 -10 -9 -5 0 -10 7 -10 16 0 8
5 12 10 9 6 -3 10 -10 10 -16z m458 -48 c3 -8 -1 -12 -9 -9 -7 2 -15 10 -17
17 -3 8 1 12 9 9 7 -2 15 -10 17 -17z m-420 -50 c3 -8 -1 -12 -9 -9 -7 2 -15
10 -17 17 -3 8 1 12 9 9 7 -2 15 -10 17 -17z m237 -22 c-4 -5 -13 -9 -22 -9
-13 0 -13 3 -3 15 13 15 35 11 25 -6z m385 -14 c0 -8 -7 -15 -15 -15 -16 0
-20 12 -8 23 11 12 23 8 23 -8z m-830 -55 c0 -5 -4 -10 -10 -10 -5 0 -10 5
-10 10 0 6 5 10 10 10 6 0 10 -4 10 -10z m550 -116 c0 -8 -4 -14 -10 -14 -5 0
-10 9 -10 21 0 11 5 17 10 14 6 -3 10 -13 10 -21z m-309 -7 c-13 -13 -26 -3
-16 12 3 6 11 8 17 5 6 -4 6 -10 -1 -17z m674 -7 c-3 -5 -11 -10 -16 -10 -6 0
-7 5 -4 10 3 6 11 10 16 10 6 0 7 -4 4 -10z m-505 -120 c0 -5 -2 -10 -4 -10
-3 0 -8 5 -11 10 -3 6 -1 10 4 10 6 0 11 -4 11 -10z m-932 -22 c14 -14 16 -28
2 -28 -5 0 -14 9 -20 20 -12 22 -1 27 18 8z m510 -12 c3 -13 -1 -17 -14 -14
-11 2 -20 11 -22 22 -3 13 1 17 14 14 11 -2 20 -11 22 -22z m1012 -6 c0 -5 -4
-10 -10 -10 -5 0 -10 5 -10 10 0 6 5 10 10 10 6 0 10 -4 10 -10z m-464 -61 c3
-6 1 -16 -5 -22 -9 -9 -14 -8 -21 3 -9 15 -4 30 10 30 5 0 12 -5 16 -11z m354
-139 c0 -5 -4 -10 -10 -10 -5 0 -10 5 -10 10 0 6 5 10 10 10 6 0 10 -4 10 -10z
m-235 -30 c-5 -8 -11 -8 -17 -2 -6 6 -7 16 -3 22 5 8 11 8 17 2 6 -6 7 -16 3
-22z m-565 -6 c0 -8 -7 -14 -15 -14 -15 0 -21 21 -9 33 10 9 24 -2 24 -19z
m1545 -4 c-3 -5 -13 -10 -21 -10 -8 0 -14 5 -14 10 0 6 9 10 21 10 11 0 17 -4
14 -10z m-1395 -36 c0 -8 -4 -14 -10 -14 -5 0 -10 9 -10 21 0 11 5 17 10 14 6
-3 10 -13 10 -21z m130 -5 c0 -11 -4 -17 -10 -14 -5 3 -10 13 -10 21 0 8 5 14
10 14 6 0 10 -9 10 -21z m760 -19 c0 -11 -7 -20 -15 -20 -18 0 -19 12 -3 28
16 16 18 15 18 -8z m737 -17 c4 -12 -35 -29 -44 -19 -8 8 18 37 30 33 6 -2 12
-8 14 -14z m-2052 -43 c-3 -5 -10 -10 -16 -10 -5 0 -9 5 -9 10 0 6 7 10 16 10
8 0 12 -4 9 -10z m423 -48 c2 -7 -3 -12 -12 -12 -9 0 -16 7 -16 16 0 17 22 14
28 -4z m284 -14 c-15 -15 -26 -4 -18 18 5 13 9 15 18 6 9 -9 9 -15 0 -24z
m208 22 c0 -5 -4 -10 -10 -10 -5 0 -10 5 -10 10 0 6 5 10 10 10 6 0 10 -4 10
-10z m280 -39 c0 -6 -4 -13 -10 -16 -5 -3 -10 1 -10 9 0 9 5 16 10 16 6 0 10
-4 10 -9z m400 -15 c0 -8 -4 -17 -9 -21 -12 -7 -24 12 -16 25 9 15 25 12 25
-4z m-1460 -70 c0 -3 -4 -8 -10 -11 -5 -3 -10 -1 -10 4 0 6 5 11 10 11 6 0 10
-2 10 -4z m400 -32 c0 -9 -5 -14 -12 -12 -18 6 -21 28 -4 28 9 0 16 -7 16 -16z
m808 -12 c2 -7 -6 -12 -17 -12 -21 0 -27 11 -14 24 9 9 26 2 31 -12z m552 -27
c0 -8 -9 -15 -20 -15 -11 0 -20 7 -20 15 0 8 9 15 20 15 11 0 20 -7 20 -15z
m-1175 -44 c3 -5 1 -12 -5 -16 -5 -3 -10 1 -10 9 0 18 6 21 15 7z m-380 -11
c-3 -5 -13 -10 -21 -10 -8 0 -14 5 -14 10 0 6 9 10 21 10 11 0 17 -4 14 -10z
m769 -31 c-3 -5 -10 -7 -15 -3 -5 3 -7 10 -3 15 3 5 10 7 15 3 5 -3 7 -10 3
-15z m402 -6 c-10 -10 -19 5 -10 18 6 11 8 11 12 0 2 -7 1 -15 -2 -18z m-1216
-3 c0 -5 -2 -10 -4 -10 -3 0 -8 5 -11 10 -3 6 -1 10 4 10 6 0 11 -4 11 -10z
m280 -31 c0 -5 -4 -9 -10 -9 -5 0 -10 7 -10 16 0 8 5 12 10 9 6 -3 10 -10 10
-16z m835 1 c-3 -5 -10 -10 -16 -10 -5 0 -9 5 -9 10 0 6 7 10 16 10 8 0 12 -4
9 -10z m-445 -76 c0 -8 -5 -12 -10 -9 -6 4 -8 11 -5 16 9 14 15 11 15 -7z
m710 -31 c0 -10 -32 -43 -42 -43 -5 0 -1 11 8 25 15 23 34 33 34 18z m-538
-105 c-9 -9 -15 -9 -24 0 -10 10 -10 15 2 22 20 12 38 -6 22 -22z m256 21 c-2
-6 -8 -10 -13 -10 -5 0 -11 4 -13 10 -2 6 4 11 13 11 9 0 15 -5 13 -11z m-650
-21 c18 -18 14 -38 -7 -38 -23 0 -35 15 -27 35 7 18 18 19 34 3z m172 -18 c0
-11 -7 -20 -15 -20 -8 0 -15 9 -15 20 0 11 7 20 15 20 8 0 15 -9 15 -20z
m1190 -75 c19 -23 -1 -40 -30 -25 -17 9 -19 14 -9 26 15 18 23 18 39 -1z
m-840 -40 c0 -8 -7 -15 -15 -15 -16 0 -20 12 -8 23 11 12 23 8 23 -8z m2161
-18 c-13 -13 -26 -3 -16 12 3 6 11 8 17 5 6 -4 6 -10 -1 -17z m-1586 -57 c9
-15 -14 -40 -31 -33 -22 8 -18 43 5 43 11 0 23 -5 26 -10z m580 -10 c0 -10
-12 -16 -32 -18 -35 -3 -41 6 -21 26 17 17 53 11 53 -8z m-911 1 c9 -13 -19
-32 -38 -25 -17 6 -20 16 -9 27 9 10 41 9 47 -2z m-400 -40 c9 -15 -23 -36
-36 -23 -5 5 -7 15 -4 21 9 13 33 14 40 2z m-244 -121 c8 -5 11 -12 7 -16 -4
-4 -15 0 -24 9 -18 18 -8 23 17 7z m1324 1 c9 -14 -4 -40 -25 -52 -27 -14 -37
16 -14 41 20 22 31 25 39 11z m-916 -23 c-6 -18 -28 -21 -28 -4 0 9 7 16 16
16 9 0 14 -5 12 -12z m1352 -8 c0 -23 -32 -43 -62 -38 -34 5 -32 26 4 42 46
20 58 19 58 -4z m-590 -135 c0 -8 -9 -15 -20 -15 -20 0 -26 11 -13 23 12 13
33 7 33 -8z m-603 -16 c14 -14 6 -39 -12 -39 -12 0 -25 21 -25 41 0 13 24 11
37 -2z m593 -69 c0 -5 -7 -10 -15 -10 -8 0 -15 5 -15 10 0 6 7 10 15 10 8 0
15 -4 15 -10z m415 -20 c27 -29 4 -60 -43 -59 -20 0 -30 3 -22 6 17 6 40 32
40 45 0 20 -41 6 -50 -18 -6 -14 -14 -22 -20 -19 -17 11 -11 28 17 51 30 23
53 22 78 -6z m440 20 c3 -6 3 -19 0 -30 -7 -23 -43 -27 -51 -5 -12 29 35 61
51 35z m-1325 -115 c0 -8 -7 -15 -15 -15 -8 0 -15 7 -15 15 0 8 7 15 15 15 8
0 15 -7 15 -15z m338 -52 c2 -8 -5 -13 -17 -13 -21 0 -35 13 -24 24 10 10 36
3 41 -11z m1322 -38 c-7 -8 -19 -15 -26 -15 -8 0 -14 7 -14 15 0 10 10 15 26
15 22 0 25 -2 14 -15z m-1513 -37 c-3 -8 -6 -5 -6 6 -1 11 2 17 5 13 3 -3 4
-12 1 -19z m993 6 c0 -24 -19 -54 -35 -54 -21 0 -26 15 -15 44 11 29 50 37 50
10z m-1025 -24 c0 -8 -8 -16 -17 -18 -13 -2 -18 3 -18 18 0 15 5 20 18 18 9
-2 17 -10 17 -18z m1368 -17 c2 -5 7 -25 11 -45 l7 -37 -30 15 c-30 15 -47 45
-36 64 7 12 42 14 48 3z m-1023 -43 c0 -5 -6 -10 -14 -10 -8 0 -18 5 -21 10
-3 6 3 10 14 10 12 0 21 -4 21 -10z m1368 -18 c4 -28 -24 -41 -44 -20 -20 20
-7 50 20 46 13 -2 22 -12 24 -26z m-1323 -1 c-3 -6 -11 -11 -17 -11 -6 0 -6 6
2 15 14 17 26 13 15 -4z m-197 -57 c-2 -1 -15 0 -30 3 -24 5 -26 8 -16 26 l11
21 19 -24 c10 -12 17 -24 16 -26z m-388 -14 c0 -5 -4 -10 -10 -10 -5 0 -10 5
-10 10 0 6 5 10 10 10 6 0 10 -4 10 -10z m2020 -5 c9 -11 10 -19 2 -27 -14
-14 -32 -1 -32 23 0 23 13 25 30 4z m540 -19 c0 -3 -4 -8 -10 -11 -5 -3 -10
-1 -10 4 0 6 5 11 10 11 6 0 10 -2 10 -4z m-2390 -16 c0 -5 -4 -10 -10 -10 -5
0 -10 5 -10 10 0 6 5 10 10 10 6 0 10 -4 10 -10z m515 -50 c0 -7 -6 -15 -12
-17 -8 -3 -13 4 -13 17 0 13 5 20 13 18 6 -3 12 -11 12 -18z m-390 -6 c-9 -9
-19 -13 -23 -10 -3 4 0 11 8 16 24 15 33 11 15 -6z m1103 4 c19 -19 14 -38 -9
-38 -29 0 -59 18 -59 35 0 18 51 20 68 3z m-1088 -28 c0 -5 -5 -10 -11 -10 -5
0 -7 5 -4 10 3 6 8 10 11 10 2 0 4 -4 4 -10z m160 -36 c0 -24 -17 -15 -22 11
-4 20 -3 23 8 14 8 -6 14 -18 14 -25z m142 -6 c-13 -13 -32 -2 -32 18 0 12 4
13 21 3 14 -7 18 -14 11 -21z m1156 4 c5 -30 -24 -39 -48 -17 -26 23 -25 33 3
38 33 6 42 2 45 -21z m-1009 -8 c-15 -18 -22 -13 -13 10 3 9 10 13 16 10 5 -3
4 -12 -3 -20z m81 -43 c0 -11 -4 -23 -10 -26 -5 -3 -10 2 -10 12 0 15 -2 16
-10 3 -11 -17 -13 -10 -4 14 9 23 34 20 34 -3z m-606 -6 c-6 -16 -24 -21 -24
-7 0 11 11 22 21 22 5 0 6 -7 3 -15z m553 1 c-3 -7 0 -19 6 -25 6 -6 9 -11 6
-11 -3 0 -14 10 -25 22 -10 12 -13 18 -6 14 6 -4 12 -2 12 3 0 6 3 11 6 11 3
0 4 -6 1 -14z m-477 -16 c0 -5 -2 -10 -4 -10 -3 0 -8 5 -11 10 -3 6 -1 10 4
10 6 0 11 -4 11 -10z m90 -5 c-7 -9 -15 -13 -19 -10 -3 3 1 10 9 15 21 14 24
12 10 -5z m1170 -30 c11 -13 8 -15 -19 -15 -30 0 -39 9 -24 23 11 11 30 8 43
-8z m415 5 c11 -18 -5 -31 -26 -20 -11 6 -17 15 -14 21 8 12 32 12 40 -1z
m318 -35 c-7 -21 -13 -19 -13 6 0 11 4 18 10 14 5 -3 7 -12 3 -20z m-1445 -23
c2 -7 -3 -12 -12 -12 -9 0 -16 7 -16 16 0 17 22 14 28 -4z m35 -29 c-7 -2 -19
-2 -25 0 -7 3 -2 5 12 5 14 0 19 -2 13 -5z m152 -2 c3 -5 1 -12 -5 -16 -5 -3
-10 1 -10 9 0 18 6 21 15 7z m549 -12 c38 -22 48 -49 19 -49 -20 0 -63 38 -63
57 0 17 3 17 44 -8z m846 11 c0 -5 -4 -10 -10 -10 -5 0 -10 5 -10 10 0 6 5 10
10 10 6 0 10 -4 10 -10z m-2035 -11 c-4 -5 -15 -9 -25 -9 -10 0 -24 -8 -30
-17 -11 -17 -11 -17 -6 -1 3 10 -1 21 -9 25 -8 5 4 9 31 10 25 1 42 -3 39 -8z
m235 1 c0 -5 -2 -10 -4 -10 -3 0 -8 5 -11 10 -3 6 -1 10 4 10 6 0 11 -4 11
-10z m1410 -20 c0 -5 -8 -10 -17 -10 -15 0 -16 2 -3 10 19 12 20 12 20 0z
m-895 -39 c3 -6 -4 -15 -16 -21 -17 -10 -24 -9 -38 5 -15 17 -15 17 1 12 10
-3 20 -2 23 3 8 13 22 13 30 1z m1365 -11 c0 -5 -4 -10 -10 -10 -5 0 -10 5
-10 10 0 6 5 10 10 10 6 0 10 -4 10 -10z m-2090 -45 c0 -8 -2 -15 -4 -15 -2 0
-6 7 -10 15 -3 8 -1 15 4 15 6 0 10 -7 10 -15z m385 5 c3 -5 -1 -10 -9 -10 -9
0 -16 5 -16 10 0 6 4 10 9 10 6 0 13 -4 16 -10z m1415 1 c0 -5 -7 -11 -15 -15
-15 -5 -20 5 -8 17 9 10 23 9 23 -2z m-1185 -11 c-3 -5 -10 -10 -16 -10 -5 0
-9 5 -9 10 0 6 7 10 16 10 8 0 12 -4 9 -10z m819 4 c21 -8 20 -40 -1 -48 -9
-4 -23 0 -31 8 -13 12 -13 18 -2 30 14 18 13 18 34 10z m-1211 -40 c-3 -15
-20 -15 -26 0 -4 9 0 13 11 12 9 -2 16 -7 15 -12z m1507 -24 c0 -5 -4 -10 -10
-10 -5 0 -10 5 -10 10 0 6 5 10 10 10 6 0 10 -4 10 -10z m-974 -22 c27 -27 30
-38 9 -38 -8 0 -15 7 -15 16 0 10 -6 14 -15 10 -10 -4 -15 1 -15 14 0 26 7 25
36 -2z m-301 -9 c-10 -15 -25 -10 -19 6 4 8 10 12 15 9 5 -3 7 -10 4 -15z
m1165 -15 c0 -8 -4 -12 -10 -9 -5 3 -10 10 -10 16 0 5 5 9 10 9 6 0 10 -7 10
-16z m380 2 c0 -11 -19 -15 -25 -6 -3 5 1 10 9 10 9 0 16 -2 16 -4z m170 -6
c0 -5 -5 -10 -11 -10 -5 0 -7 5 -4 10 3 6 8 10 11 10 2 0 4 -4 4 -10z m-1550
-86 c0 -8 -4 -12 -10 -9 -5 3 -10 10 -10 16 0 5 5 9 10 9 6 0 10 -7 10 -16z
m238 -32 c2 -7 -1 -12 -6 -12 -14 0 -42 29 -42 42 0 13 42 -14 48 -30z m187
28 c10 -16 -16 -43 -28 -31 -11 11 -2 41 12 41 5 0 13 -5 16 -10z m765 -20 c0
-21 -24 -28 -35 -10 -8 14 3 30 21 30 8 0 14 -9 14 -20z m240 -10 c0 -5 -4
-10 -10 -10 -5 0 -10 5 -10 10 0 6 5 10 10 10 6 0 10 -4 10 -10z m280 0 c0 -5
-2 -10 -4 -10 -3 0 -8 5 -11 10 -3 6 -1 10 4 10 6 0 11 -4 11 -10z m-1783 -6
c-3 -3 -12 -4 -19 -1 -8 3 -5 6 6 6 11 1 17 -2 13 -5z m540 -10 c-3 -3 -12 -4
-19 -1 -8 3 -5 6 6 6 11 1 17 -2 13 -5z m443 -24 c0 -28 -27 -45 -45 -30 -20
17 -19 48 3 52 26 6 42 -2 42 -22z m-570 -5 c0 -8 -4 -15 -10 -15 -5 0 -7 7
-4 15 4 8 8 15 10 15 2 0 4 -7 4 -15z m-209 -22 c-8 -15 -10 -15 -11 -2 0 17
10 32 18 25 2 -3 -1 -13 -7 -23z m369 2 c0 -8 -2 -15 -4 -15 -2 0 -6 7 -10 15
-3 8 -1 15 4 15 6 0 10 -7 10 -15z m899 -21 c-14 -18 -24 -11 -15 11 3 9 11
13 16 10 8 -5 7 -11 -1 -21z m-1724 -4 c-3 -5 -10 -10 -16 -10 -5 0 -9 5 -9
10 0 6 7 10 16 10 8 0 12 -4 9 -10z m341 -17 c-7 -7 -26 7 -26 19 0 6 6 6 15
-2 9 -7 13 -15 11 -17z m1524 2 c0 -8 -4 -15 -10 -15 -5 0 -10 7 -10 15 0 8 5
15 10 15 6 0 10 -7 10 -15z m-1840 -35 c0 -5 -4 -10 -10 -10 -5 0 -10 5 -10
10 0 6 5 10 10 10 6 0 10 -4 10 -10z m660 -20 c0 -5 -7 -7 -15 -4 -8 4 -15 8
-15 10 0 2 7 4 15 4 8 0 15 -4 15 -10z m420 0 c0 -5 -4 -10 -10 -10 -5 0 -10
5 -10 10 0 6 5 10 10 10 6 0 10 -4 10 -10z m252 -5 c0 -5 -5 -11 -11 -13 -6
-2 -11 4 -11 13 0 9 5 15 11 13 6 -2 11 -8 11 -13z m-1298 -7 c-3 -4 -9 -8
-15 -8 -5 0 -9 4 -9 8 0 5 7 9 15 9 8 0 12 -4 9 -9z m193 -14 c-3 -3 -12 -4
-19 -1 -8 3 -5 6 6 6 11 1 17 -2 13 -5z m1263 -27 c0 -19 -27 -53 -35 -45 -12
12 4 58 20 58 8 0 15 -6 15 -13z m-560 -32 c0 -18 -39 -30 -52 -17 -6 6 -8 17
-5 25 7 18 57 11 57 -8z m1040 16 c0 -6 -4 -13 -10 -16 -5 -3 -10 1 -10 9 0 9
5 16 10 16 6 0 10 -4 10 -9z m120 -11 c0 -5 -5 -10 -11 -10 -5 0 -7 5 -4 10 3
6 8 10 11 10 2 0 4 -4 4 -10z m-209 -23 c-10 -9 -11 -8 -5 6 3 10 9 15 12 12
3 -3 0 -11 -7 -18z m-885 -9 c4 -6 -1 -17 -11 -25 -20 -14 -35 -3 -35 25 0 15
36 16 46 0z m-843 -13 c-3 -17 -27 -17 -48 0 -19 15 -18 15 15 13 19 -2 34 -7
33 -13z m935 -37 c-2 -6 -10 -14 -16 -16 -7 -2 -10 2 -6 12 7 18 28 22 22 4z
m159 -50 c-3 -8 -6 -5 -6 6 -1 11 2 17 5 13 3 -3 4 -12 1 -19z m-877 2 c0 -5
-5 -10 -11 -10 -5 0 -7 5 -4 10 3 6 8 10 11 10 2 0 4 -4 4 -10z m815 0 c3 -6
-1 -13 -10 -16 -19 -8 -30 0 -20 15 8 14 22 14 30 1z m-916 -37 c2 -1 -7 -7
-20 -12 -28 -10 -44 6 -27 26 8 11 14 11 27 1 9 -7 18 -14 20 -15z m541 12 c0
-8 -4 -15 -10 -15 -5 0 -10 7 -10 15 0 8 5 15 10 15 6 0 10 -7 10 -15z m398
-7 c-2 -6 -10 -14 -16 -16 -7 -2 -10 2 -6 12 7 18 28 22 22 4z m-598 -7 c0 -5
-7 -12 -16 -15 -14 -5 -15 -4 -4 9 14 17 20 19 20 6z m70 -7 c0 -8 -5 -12 -10
-9 -6 4 -8 11 -5 16 9 14 15 11 15 -7z m415 6 c3 -5 1 -10 -4 -10 -6 0 -11 5
-11 10 0 6 2 10 4 10 3 0 8 -4 11 -10z m3801 -11 c10 -17 -13 -36 -27 -22 -12
12 -4 33 11 33 5 0 12 -5 16 -11z m-3396 -14 c0 -8 -7 -15 -15 -15 -8 0 -15 7
-15 15 0 8 7 15 15 15 8 0 15 -7 15 -15z m390 1 c0 -3 -4 -8 -10 -11 -5 -3
-10 -1 -10 4 0 6 5 11 10 11 6 0 10 -2 10 -4z m-549 -59 c-10 -9 -11 -8 -5 6
3 10 9 15 12 12 3 -3 0 -11 -7 -18z m-985 -13 c-5 -13 -1 -15 19 -12 14 3 25
4 25 3 0 -1 -11 -12 -25 -25 l-25 -23 -9 24 c-5 15 -5 29 1 37 14 17 21 15 14
-4z m1304 -23 c0 -5 -7 -11 -15 -15 -15 -5 -20 5 -8 17 9 10 23 9 23 -2z
m4780 -21 c0 -20 -5 -30 -15 -30 -18 0 -18 1 -5 34 13 34 20 33 20 -4z m-5557
5 c-3 -9 -8 -14 -10 -11 -3 3 -2 9 2 15 9 16 15 13 8 -4z m42 -25 c-3 -5 -12
-10 -18 -10 -7 0 -6 4 3 10 19 12 23 12 15 0z m452 -23 c-7 -21 -25 -17 -29 7
-4 22 -3 24 14 15 11 -6 18 -15 15 -22z m-95 -9 c-7 -7 -12 -8 -12 -2 0 14 12
26 19 19 2 -3 -1 -11 -7 -17z m-837 -18 c3 -5 1 -10 -4 -10 -6 0 -11 5 -11 10
0 6 2 10 4 10 3 0 8 -4 11 -10z m5995 -4 c0 -18 -15 -36 -29 -36 -25 0 -33 11
-20 27 10 12 49 19 49 9z m-1510 -26 c0 -11 -7 -20 -15 -20 -15 0 -21 21 -8
33 12 13 23 7 23 -13z m1275 -1 c3 -4 1 -11 -5 -14 -11 -7 -40 11 -40 25 0 10
38 1 45 -11z m-5715 -10 c0 -24 -23 -21 -28 4 -2 10 3 17 12 17 10 0 16 -9 16
-21z m710 17 c0 -3 -4 -8 -10 -11 -5 -3 -10 -1 -10 4 0 6 5 11 10 11 6 0 10
-2 10 -4z m634 -12 c3 -8 2 -12 -4 -9 -6 3 -10 10 -10 16 0 14 7 11 14 -7z
m4484 -114 c8 -19 19 -43 24 -52 6 -13 5 -18 -6 -18 -8 0 -20 17 -26 38 -7 20
-16 41 -21 47 -5 5 -9 23 -8 40 l0 30 11 -25 c6 -14 17 -41 26 -60z m83 48 c6
-15 7 -37 0 -63 l-9 -40 -1 39 c-1 24 -7 44 -18 51 -9 7 -13 17 -9 23 11 18
25 14 37 -10z m-4781 2 c0 -5 -2 -10 -4 -10 -3 0 -8 5 -11 10 -3 6 -1 10 4 10
6 0 11 -4 11 -10z m-1053 -28 c7 -4 9 -13 5 -19 -5 -8 -14 -5 -31 8 -20 17
-21 19 -5 19 11 0 24 -4 31 -8z m388 -22 c0 -22 -29 -18 -33 3 -3 14 1 18 15
15 10 -2 18 -10 18 -18z m4335 10 c0 -5 -4 -10 -10 -10 -5 0 -10 5 -10 10 0 6
5 10 10 10 6 0 10 -4 10 -10z m911 -53 c-16 -16 -19 -5 -7 33 l10 35 4 -29 c2
-16 -1 -33 -7 -39z m-5151 18 c0 -8 -4 -15 -10 -15 -5 0 -10 7 -10 15 0 8 5
15 10 15 6 0 10 -7 10 -15z m4915 -6 c10 -15 -1 -23 -20 -15 -9 3 -13 10 -10
16 8 13 22 13 30 -1z m-4354 -32 c-13 -13 -26 -3 -16 12 3 6 11 8 17 5 6 -4 6
-10 -1 -17z m4425 -9 c4 -6 -2 -7 -17 -3 -35 10 -45 23 -15 18 15 -3 29 -10
32 -15z m-3829 -10 c-3 -8 -6 -5 -6 6 -1 11 2 17 5 13 3 -3 4 -12 1 -19z
m-1557 -14 c0 -19 -14 -18 -31 3 -10 11 -10 14 -1 9 7 -4 12 -2 12 4 0 6 5 8
10 5 6 -3 10 -13 10 -21z m5720 0 c0 -9 -5 -14 -12 -12 -18 6 -21 28 -4 28 9
0 16 -7 16 -16z m-5060 -26 c0 -6 -6 -5 -15 2 -8 7 -15 14 -15 16 0 2 7 1 15
-2 8 -4 15 -11 15 -16z m3868 -15 c5 -17 -26 -29 -40 -15 -6 6 -7 15 -3 22 9
14 37 9 43 -7z m-3693 -3 c3 -5 -1 -10 -9 -10 -9 0 -16 5 -16 10 0 6 4 10 9
10 6 0 13 -4 16 -10z m1475 -50 c0 -5 -9 -10 -20 -10 -11 0 -20 5 -20 10 0 6
9 10 20 10 11 0 20 -4 20 -10z m2500 -12 c0 -19 -18 -43 -25 -36 -9 9 4 48 16
48 5 0 9 -6 9 -12z m-3763 -14 c2 -5 -6 -10 -17 -11 -20 -2 -26 8 -13 21 9 8
26 3 30 -10z m4205 -19 c0 -5 -5 -11 -11 -13 -6 -2 -11 4 -11 13 0 9 5 15 11
13 6 -2 11 -8 11 -13z m218 -32 c0 -19 -18 -16 -30 6 -17 33 -12 46 10 26 11
-10 20 -24 20 -32z m166 11 c-4 -9 -9 -15 -11 -12 -3 3 -3 13 1 22 4 9 9 15
11 12 3 -3 3 -13 -1 -22z m-5031 -4 c3 -5 1 -10 -4 -10 -6 0 -11 5 -11 10 0 6
2 10 4 10 3 0 8 -4 11 -10z m1405 -5 c0 -16 -27 -32 -37 -22 -3 4 -3 13 0 22
8 20 37 20 37 0z m-1300 1 c0 -3 -4 -8 -10 -11 -5 -3 -10 -1 -10 4 0 6 5 11
10 11 6 0 10 -2 10 -4z m5064 -22 c10 -14 16 -29 14 -33 -2 -5 -13 7 -25 25
-12 19 -18 34 -14 34 5 0 16 -12 25 -26z m-3937 10 c-3 -3 -12 -4 -19 -1 -8 3
-5 6 6 6 11 1 17 -2 13 -5z m-3983 -20 c8 -22 8 -24 -8 -24 -18 0 -29 16 -21
30 9 15 22 12 29 -6z m7742 -5 c3 -6 2 -15 -4 -21 -6 -6 -11 -2 -15 11 -5 22
7 29 19 10z m-836 -13 c0 -16 -18 -31 -27 -22 -8 8 5 36 17 36 5 0 10 -6 10
-14z m1140 5 c0 -5 -7 -14 -15 -21 -12 -10 -15 -10 -15 2 0 8 3 18 7 21 9 10
23 9 23 -2z m58 -19 c2 -14 -2 -22 -12 -22 -19 0 -28 14 -20 35 9 21 28 14 32
-13z m-8220 6 c-2 -6 -10 -14 -16 -16 -7 -2 -10 2 -6 12 7 18 28 22 22 4z
m7962 2 c0 -5 -2 -10 -4 -10 -3 0 -8 5 -11 10 -3 6 -1 10 4 10 6 0 11 -4 11
-10z m-382 -52 c-6 -18 -28 -21 -28 -4 0 9 7 16 16 16 9 0 14 -5 12 -12z
m-6853 -24 c-3 -29 -25 -48 -39 -34 -10 10 18 60 33 60 5 0 8 -12 6 -26z
m7305 16 c0 -5 -4 -10 -10 -10 -5 0 -10 5 -10 10 0 6 5 10 10 10 6 0 10 -4 10
-10z m-3770 -15 c0 -8 -4 -15 -10 -15 -5 0 -7 7 -4 15 4 8 8 15 10 15 2 0 4
-7 4 -15z m3644 -15 c4 -5 5 -13 2 -19 -9 -14 -56 8 -56 26 0 15 35 10 54 -7z
m-5041 -23 c3 -8 -1 -14 -9 -14 -15 0 -18 9 -7 20 9 9 10 9 16 -6z m1007 3 c0
-5 -2 -10 -4 -10 -3 0 -8 5 -11 10 -3 6 -1 10 4 10 6 0 11 -4 11 -10z m364
-51 c-8 -14 -34 -11 -34 4 0 8 3 17 7 20 9 9 34 -13 27 -24z m-1539 11 c3 -5
1 -10 -4 -10 -6 0 -11 5 -11 10 0 6 2 10 4 10 3 0 8 -4 11 -10z m209 4 c9 -3
16 -10 16 -15 0 -14 -26 -10 -40 6 -13 16 -3 20 24 9z m1586 -25 c0 -10 -7
-19 -15 -19 -15 0 -21 31 -9 43 11 10 24 -3 24 -24z m3160 21 c0 -5 -4 -10
-10 -10 -5 0 -10 5 -10 10 0 6 5 10 10 10 6 0 10 -4 10 -10z m-6724 -27 c-6
-6 -36 9 -36 18 0 5 9 4 20 -3 10 -7 18 -14 16 -15z m1734 7 c0 -5 -7 -7 -15
-4 -8 4 -12 10 -9 15 6 11 24 2 24 -11z m5084 2 c2 -4 1 -14 -4 -21 -10 -17
-31 -5 -23 14 6 16 19 20 27 7z m-4777 -14 c-2 -7 -10 -12 -16 -10 -6 1 -11
-3 -11 -10 0 -6 -3 -8 -6 -5 -8 8 14 37 28 37 5 0 8 -6 5 -12z m4716 -22 c33
-25 16 -51 -28 -40 -36 9 -32 49 5 53 3 0 13 -6 23 -13z m-3352 -43 c12 -32
11 -53 -1 -53 -5 0 -10 9 -10 20 0 11 -9 28 -20 37 -26 22 -25 33 1 26 11 -3
25 -17 30 -30z m-4331 17 c0 -5 -5 -10 -11 -10 -5 0 -7 5 -4 10 3 6 8 10 11
10 2 0 4 -4 4 -10z m8345 0 c3 -5 -1 -10 -10 -10 -9 0 -13 5 -10 10 3 6 8 10
10 10 2 0 7 -4 10 -10z m-4872 -7 c-7 -2 -19 -2 -25 0 -7 3 -2 5 12 5 14 0 19
-2 13 -5z m567 -29 c0 -9 -5 -14 -12 -12 -18 6 -21 28 -4 28 9 0 16 -7 16 -16z
m3275 -14 c-3 -5 -10 -10 -16 -10 -5 0 -9 5 -9 10 0 6 7 10 16 10 8 0 12 -4 9
-10z m705 -22 c0 -11 -42 -38 -52 -32 -4 3 -8 14 -8 25 0 15 6 19 30 17 17 -1
30 -6 30 -10z m-4936 -13 c4 -11 -1 -15 -19 -15 -24 0 -32 10 -18 23 11 12 31
8 37 -8z m4726 0 c-10 -12 -16 -13 -26 -4 -20 16 -18 19 12 19 22 0 25 -2 14
-15z m247 -11 c8 -21 -13 -42 -28 -27 -13 13 -5 43 11 43 6 0 13 -7 17 -16z
m243 -3 c0 -11 -4 -23 -10 -26 -6 -4 -10 5 -10 19 0 14 5 26 10 26 6 0 10 -9
10 -19z m-3693 -17 c-9 -9 -28 6 -21 18 4 6 10 6 17 -1 6 -6 8 -13 4 -17z
m-1851 -11 c-10 -10 -19 5 -10 18 6 11 8 11 12 0 2 -7 1 -15 -2 -18z m-1966 7
c0 -5 -4 -10 -9 -10 -6 0 -13 5 -16 10 -3 6 1 10 9 10 9 0 16 -4 16 -10z
m3008 -12 c-6 -18 -28 -21 -28 -4 0 9 7 16 16 16 9 0 14 -5 12 -12z m-438 -27
c0 -4 -3 -11 -7 -14 -8 -9 -34 13 -28 24 6 9 35 1 35 -10z m3701 4 c0 -5 -9
-11 -21 -13 -20 -3 -27 8 -13 22 10 9 34 3 34 -9z m769 5 c0 -6 -7 -13 -15
-16 -20 -8 -48 3 -40 16 8 13 55 13 55 0z m-7590 -50 c0 -5 -4 -10 -9 -10 -6
0 -13 5 -16 10 -3 6 1 10 9 10 9 0 16 -4 16 -10z m4100 1 c0 -6 -4 -13 -10
-16 -5 -3 -10 1 -10 9 0 9 5 16 10 16 6 0 10 -4 10 -9z m3800 5 c0 -3 -4 -8
-10 -11 -5 -3 -10 -1 -10 4 0 6 5 11 10 11 6 0 10 -2 10 -4z m139 -5 c8 -5 9
-11 3 -15 -5 -3 -15 1 -22 9 -14 16 -3 20 19 6z m-721 -13 c-6 -18 -28 -21
-28 -4 0 9 7 16 16 16 9 0 14 -5 12 -12z m351 -17 c12 -21 5 -32 -15 -24 -16
6 -19 43 -4 43 5 0 14 -8 19 -19z m-3949 -16 c0 -8 -4 -15 -10 -15 -5 0 -10 7
-10 15 0 8 5 15 10 15 6 0 10 -7 10 -15z m-1055 -31 c-27 -25 -48 -24 -38 1 5
14 17 19 36 16 4 0 7 4 7 10 0 5 5 7 10 4 7 -4 1 -16 -15 -31z m1345 0 c0 -8
-4 -14 -10 -14 -5 0 -10 9 -10 21 0 11 5 17 10 14 6 -3 10 -13 10 -21z m-186
-15 c-3 -5 -10 -7 -15 -3 -5 3 -7 10 -3 15 3 5 10 7 15 3 5 -3 7 -10 3 -15z
m116 -29 c11 -7 9 -11 -14 -19 -29 -12 -46 -7 -46 11 0 5 7 7 16 4 8 -3 12 -2
9 4 -8 13 15 13 35 0z m3885 -10 c0 -7 -6 -15 -12 -17 -8 -3 -13 4 -13 17 0
13 5 20 13 18 6 -3 12 -11 12 -18z m225 -15 c0 -8 -4 -15 -9 -15 -5 0 -11 7
-15 15 -3 9 0 15 9 15 8 0 15 -7 15 -15z m-7660 -41 c0 -31 -23 -28 -28 4 -2
15 2 22 12 22 11 0 16 -9 16 -26z m7370 -9 c0 -7 -6 -18 -14 -24 -11 -9 -15
-6 -18 14 -3 13 -3 27 -1 29 9 8 33 -6 33 -19z m-5026 -3 c2 -4 -4 -9 -15 -9
-11 -1 -17 2 -14 8 7 11 22 12 29 1z m131 -2 c3 -5 1 -10 -4 -10 -6 0 -11 -9
-11 -20 0 -11 -5 -20 -11 -20 -6 0 -8 7 -5 16 4 9 1 23 -5 30 -9 11 -7 14 9
14 12 0 24 -4 27 -10z m805 0 c0 -5 -5 -10 -11 -10 -5 0 -7 5 -4 10 3 6 8 10
11 10 2 0 4 -4 4 -10z m-890 -21 c0 -5 -7 -9 -15 -9 -15 0 -20 12 -9 23 8 8
24 -1 24 -14z m4870 -5 c0 -9 -5 -14 -12 -12 -18 6 -21 28 -4 28 9 0 16 -7 16
-16z m-7462 -11 c-5 -25 -28 -28 -28 -4 0 12 6 21 16 21 9 0 14 -7 12 -17z
m3036 8 c3 -5 0 -11 -8 -14 -8 -3 -17 1 -20 9 -6 15 19 20 28 5z m-209 -21 c3
-5 1 -10 -4 -10 -6 0 -11 5 -11 10 0 6 2 10 4 10 3 0 8 -4 11 -10z m4759 -29
c-6 -6 -24 19 -24 34 1 6 7 1 15 -9 8 -11 12 -22 9 -25z m56 29 c0 -5 -7 -10
-15 -10 -8 0 -15 5 -15 10 0 6 7 10 15 10 8 0 15 -4 15 -10z m-4884 -37 c-7
-7 -26 7 -26 19 0 6 6 6 15 -2 9 -7 13 -15 11 -17z m279 -32 c3 -5 1 -12 -5
-16 -5 -3 -10 1 -10 9 0 18 6 21 15 7z m-380 -11 c3 -6 -1 -7 -9 -4 -18 7 -21
14 -7 14 6 0 13 -4 16 -10z m535 6 c0 -3 -4 -8 -10 -11 -5 -3 -10 -1 -10 4 0
6 5 11 10 11 6 0 10 -2 10 -4z m4650 -31 c0 -19 -4 -35 -9 -35 -6 0 -9 8 -9
18 0 9 -3 25 -7 35 -5 12 -3 17 9 17 12 0 16 -10 16 -35z m-7490 0 c0 -8 -4
-15 -10 -15 -5 0 -7 7 -4 15 4 8 8 15 10 15 2 0 4 -7 4 -15z m-330 1 c0 -3 -4
-8 -10 -11 -5 -3 -10 -1 -10 4 0 6 5 11 10 11 6 0 10 -2 10 -4z m3295 -6 c3
-5 -1 -10 -9 -10 -9 0 -16 5 -16 10 0 6 4 10 9 10 6 0 13 -4 16 -10z m4419
-13 c6 -9 7 -19 3 -23 -9 -9 -37 15 -37 33 0 18 20 12 34 -10z m-7544 3 c0 -5
-7 -10 -15 -10 -8 0 -15 5 -15 10 0 6 7 10 15 10 8 0 15 -4 15 -10z m7430 -21
c0 -11 -4 -17 -10 -14 -5 3 -10 15 -10 26 0 11 5 17 10 14 6 -3 10 -15 10 -26z
m340 11 c0 -5 -4 -10 -10 -10 -5 0 -10 5 -10 10 0 6 5 10 10 10 6 0 10 -4 10
-10z m33 -13 c3 -8 1 -20 -4 -28 -11 -19 -34 3 -26 25 8 20 23 21 30 3z m-483
-17 c0 -11 -4 -20 -10 -20 -5 0 -10 9 -10 20 0 11 5 20 10 20 6 0 10 -9 10
-20z m722 -65 c0 -5 -5 -11 -11 -13 -6 -2 -11 4 -11 13 0 9 5 15 11 13 6 -2
11 -8 11 -13z m-5122 -5 c0 -5 -2 -10 -4 -10 -3 0 -8 5 -11 10 -3 6 -1 10 4
10 6 0 11 -4 11 -10z m4470 0 c0 -5 -2 -10 -4 -10 -3 0 -8 5 -11 10 -3 6 -1
10 4 10 6 0 11 -4 11 -10z m445 -30 c3 -5 1 -10 -4 -10 -6 0 -11 5 -11 10 0 6
2 10 4 10 3 0 8 -4 11 -10z m-7635 -4 c0 -11 -19 -15 -25 -6 -3 5 1 10 9 10 9
0 16 -2 16 -4z m2638 -27 c-3 -8 -7 -3 -11 10 -4 17 -3 21 5 13 5 -5 8 -16 6
-23z m4852 10 c0 -5 -4 -9 -10 -9 -5 0 -10 7 -10 16 0 8 5 12 10 9 6 -3 10
-10 10 -16z m-30 -89 c0 -13 -7 -20 -20 -20 -23 0 -25 5 -7 25 17 20 27 18 27
-5z m-7645 -11 c12 -19 -5 -23 -22 -6 -16 16 -16 17 -1 17 9 0 20 -5 23 -11z
m2625 -27 c0 -15 -2 -15 -10 -2 -13 20 -13 33 0 25 6 -3 10 -14 10 -23z m4826
14 c28 -22 6 -41 -24 -20 -12 8 -22 19 -22 25 0 14 23 11 46 -5z m434 4 c0 -5
-7 -10 -15 -10 -8 0 -15 5 -15 10 0 6 7 10 15 10 8 0 15 -4 15 -10z m-4425
-10 c-3 -5 -10 -10 -16 -10 -5 0 -9 5 -9 10 0 6 7 10 16 10 8 0 12 -4 9 -10z
m215 -24 c0 -3 -4 -8 -10 -11 -5 -3 -10 -1 -10 4 0 6 5 11 10 11 6 0 10 -2 10
-4z m-135 -27 c11 -17 -1 -21 -15 -4 -8 9 -8 15 -2 15 6 0 14 -5 17 -11z
m-2795 -14 c0 -10 -11 -15 -35 -15 -54 0 -43 27 13 29 13 1 22 -5 22 -14z
m2115 -30 c-1 -19 -4 -37 -6 -39 -10 -11 -29 12 -35 42 -6 29 -4 32 18 32 21
0 24 -4 23 -35z m822 -1 c8 -21 -14 -67 -30 -61 -6 2 -12 13 -11 25 0 13 -4
18 -13 15 -18 -7 -16 2 3 21 20 20 43 20 51 0z m-714 -11 c8 -7 -25 -33 -35
-27 -4 3 -5 11 -1 19 5 16 25 20 36 8z m390 -33 c4 -16 2 -17 -12 -8 -9 6 -18
19 -18 30 -2 15 1 17 11 8 8 -6 16 -19 19 -30z m-3693 11 c0 -5 -7 -14 -15
-21 -13 -10 -15 -9 -15 9 0 12 6 21 15 21 8 0 15 -4 15 -9z m8313 -14 c-4 -7
-6 -24 -4 -39 3 -32 -5 -35 -30 -12 -18 16 -18 18 4 44 21 26 45 32 30 7z
m-5528 -7 c-3 -5 -10 -10 -16 -10 -5 0 -9 5 -9 10 0 6 7 10 16 10 8 0 12 -4 9
-10z m5373 -35 c1 -11 -2 -26 -7 -34 -12 -18 -51 3 -51 29 0 34 53 39 58 5z
m-4761 -1 c-3 -3 -12 -4 -19 -1 -8 3 -5 6 6 6 11 1 17 -2 13 -5z m184 -37
c-13 -13 -26 -3 -16 12 3 6 11 8 17 5 6 -4 6 -10 -1 -17z m407 -4 c-5 -25 -28
-28 -28 -4 0 12 6 21 16 21 9 0 14 -7 12 -17z m-203 -12 c3 -5 1 -12 -5 -16
-5 -3 -10 1 -10 9 0 18 6 21 15 7z m4113 -24 c2 -12 -3 -17 -17 -17 -12 0 -21
6 -21 13 0 31 32 34 38 4z m-4058 -56 c0 -15 5 -32 12 -39 9 -9 9 -12 0 -12
-6 0 -14 12 -18 28 -3 15 -8 35 -11 46 -3 12 -1 16 6 12 6 -4 11 -20 11 -35z
m-3920 8 c0 -5 -4 -9 -10 -9 -5 0 -10 7 -10 16 0 8 5 12 10 9 6 -3 10 -10 10
-16z m4052 4 c18 -16 26 -79 9 -69 -5 3 -7 14 -4 24 3 13 -4 22 -22 30 -14 7
-23 17 -20 22 9 14 16 13 37 -7z m-692 -12 c0 -5 10 -11 22 -13 27 -4 36 -35
14 -44 -9 -3 -27 -3 -41 0 -21 5 -23 10 -15 30 5 13 6 27 3 30 -4 3 -1 6 5 6
7 0 12 -4 12 -9z m4907 -13 c-3 -8 -6 -5 -6 6 -1 11 2 17 5 13 3 -3 4 -12 1
-19z m-147 2 c0 -5 -5 -10 -11 -10 -5 0 -7 5 -4 10 3 6 8 10 11 10 2 0 4 -4 4
-10z m-4957 -14 c6 -16 -11 -36 -30 -36 -17 0 -17 37 0 43 20 9 25 8 30 -7z
m-3403 -6 c0 -5 -7 -10 -15 -10 -8 0 -15 5 -15 10 0 6 7 10 15 10 8 0 15 -4
15 -10z m3514 -9 c3 -5 -1 -14 -8 -20 -16 -13 -32 2 -21 19 8 12 22 13 29 1z
m466 -26 c0 -8 -4 -15 -10 -15 -5 0 -10 7 -10 15 0 8 5 15 10 15 6 0 10 -7 10
-15z m-2486 -38 c-3 -9 -10 -17 -15 -17 -14 0 -22 27 -15 47 6 15 8 15 22 2 8
-9 12 -23 8 -32z m2916 -13 c0 -8 -4 -14 -9 -14 -11 0 -22 26 -14 34 9 9 23
-3 23 -20z m-3600 6 c0 -5 -4 -10 -9 -10 -6 0 -13 5 -16 10 -3 6 1 10 9 10 9
0 16 -4 16 -10z m3120 6 c0 -3 -4 -8 -10 -11 -5 -3 -10 -1 -10 4 0 6 5 11 10
11 6 0 10 -2 10 -4z m4553 -2 c11 -11 -3 -24 -18 -18 -8 4 -12 10 -9 15 6 11
18 12 27 3z m117 -30 c0 -28 -3 -35 -17 -32 -17 4 -19 21 -8 56 9 26 25 11 25
-24z m-5450 1 c0 -8 -4 -15 -10 -15 -5 0 -10 7 -10 15 0 8 5 15 10 15 6 0 10
-7 10 -15z m5170 -6 c0 -24 -23 -21 -28 4 -2 10 3 17 12 17 10 0 16 -9 16 -21z
m190 -15 c0 -8 -7 -14 -15 -14 -15 0 -21 21 -9 33 10 9 24 -2 24 -19z m-6730
-4 c0 -5 -4 -10 -10 -10 -5 0 -10 5 -10 10 0 6 5 10 10 10 6 0 10 -4 10 -10z
m192 -15 c0 -5 -5 -11 -11 -13 -6 -2 -11 4 -11 13 0 9 5 15 11 13 6 -2 11 -8
11 -13z m6713 6 c3 -5 1 -12 -5 -16 -5 -3 -10 1 -10 9 0 18 6 21 15 7z m-4505
-21 c0 -5 -7 -10 -15 -10 -8 0 -15 5 -15 10 0 6 7 10 15 10 8 0 15 -4 15 -10z
m-4070 -14 c0 -3 -4 -8 -10 -11 -5 -3 -10 -1 -10 4 0 6 5 11 10 11 6 0 10 -2
10 -4z m-180 -16 c0 -5 -4 -10 -9 -10 -6 0 -13 5 -16 10 -3 6 1 10 9 10 9 0
16 -4 16 -10z m8885 -10 c3 -5 2 -10 -4 -10 -5 0 -13 5 -16 10 -3 6 -2 10 4
10 5 0 13 -4 16 -10z m-5700 -10 c-3 -5 -10 -10 -16 -10 -5 0 -9 5 -9 10 0 6
7 10 16 10 8 0 12 -4 9 -10z m365 -92 c0 -16 -3 -19 -11 -11 -6 6 -8 16 -5 22
11 17 16 13 16 -11z m-1570 -29 c-7 -11 -14 -18 -17 -15 -3 3 0 12 7 21 18 21
23 19 10 -6z m1498 4 c2 -7 -4 -13 -13 -13 -9 0 -14 4 -11 9 4 5 0 12 -6 15
-7 3 -4 5 6 3 11 -1 21 -8 24 -14z m5830 -1 c3 -9 -2 -13 -14 -10 -9 1 -19 9
-22 16 -3 9 2 13 14 10 9 -1 19 -9 22 -16z m-5568 -22 c0 -16 -4 -30 -9 -30
-5 0 -8 12 -6 28 4 34 4 32 10 32 3 0 5 -13 5 -30z m-100 0 c0 -5 -7 -7 -15
-4 -8 4 -12 10 -9 15 6 11 24 2 24 -11z m-130 -15 c0 -8 -4 -15 -10 -15 -5 0
-10 7 -10 15 0 8 5 15 10 15 6 0 10 -7 10 -15z m57 -7 c-3 -8 -6 -5 -6 6 -1
11 2 17 5 13 3 -3 4 -12 1 -19z m-1607 -2 c0 -16 -18 -31 -27 -22 -8 8 5 36
17 36 5 0 10 -6 10 -14z m1720 10 c0 -3 -4 -8 -10 -11 -5 -3 -10 -1 -10 4 0 6
5 11 10 11 6 0 10 -2 10 -4z m-3686 -34 c2 -4 1 -14 -4 -21 -10 -17 -31 -5
-23 14 6 16 19 20 27 7z m3836 -2 c0 -5 -4 -10 -10 -10 -5 0 -10 5 -10 10 0 6
5 10 10 10 6 0 10 -4 10 -10z m4840 3 c-1 -19 -19 -35 -34 -30 -26 10 -19 37
9 37 14 0 25 -3 25 -7z m-121 -25 c5 -13 7 -27 4 -31 -8 -13 -33 14 -33 34 0
26 19 24 29 -3z m-5116 -16 c-3 -12 -9 -19 -14 -16 -5 3 -4 14 2 25 13 26 20
21 12 -9z m201 -22 c-6 -5 -24 21 -24 34 0 6 6 1 14 -10 8 -10 12 -21 10 -24z
m4815 26 c9 -11 6 -15 -16 -19 -33 -6 -38 -3 -30 18 8 19 31 20 46 1z m641 0
c0 -3 -4 -8 -10 -11 -5 -3 -10 -1 -10 4 0 6 5 11 10 11 6 0 10 -2 10 -4z
m-5540 -31 c0 -14 -4 -25 -10 -25 -5 0 -10 11 -10 25 0 14 5 25 10 25 6 0 10
-11 10 -25z m-496 -25 c-6 -6 -15 -6 -24 0 -13 9 -13 11 0 20 18 11 39 -5 24
-20z m693 8 c2 -18 0 -20 -7 -8 -12 18 -13 30 -2 30 4 0 9 -10 9 -22z m283 8
c0 -3 -4 -8 -10 -11 -5 -3 -10 -1 -10 4 0 6 5 11 10 11 6 0 10 -2 10 -4z
m-1080 -30 c0 -8 -7 -16 -15 -20 -17 -6 -18 -4 -9 18 8 20 24 21 24 2z m5895
-16 c3 -6 -1 -7 -9 -4 -18 7 -21 14 -7 14 6 0 13 -4 16 -10z m-5968 -37 c-9
-9 -20 -13 -24 -9 -4 4 -1 11 7 16 25 16 35 11 17 -7z m-56 -46 c-10 -9 -11
-8 -5 6 3 10 9 15 12 12 3 -3 0 -11 -7 -18z m5629 -13 c0 -17 -19 -29 -31 -17
-4 4 -6 18 -2 31 4 18 8 20 19 11 8 -6 14 -17 14 -25z m-8340 -25 c0 -5 -4 -9
-10 -9 -5 0 -10 7 -10 16 0 8 5 12 10 9 6 -3 10 -10 10 -16z m2215 -19 c-9
-14 -25 5 -25 30 0 12 3 12 16 -2 9 -9 13 -21 9 -28z m6335 14 c0 -8 -4 -14
-10 -14 -5 0 -10 9 -10 21 0 11 5 17 10 14 6 -3 10 -13 10 -21z m-2353 -12 c8
-5 -4 -13 -31 -23 -32 -11 -43 -12 -43 -3 0 7 7 10 15 6 11 -4 13 -1 7 8 -6
10 -4 12 8 7 10 -3 17 -2 17 3 0 12 11 13 27 2z m-3877 -34 c0 -10 31 -47 114
-140 14 -16 21 -28 16 -28 -14 0 -150 157 -150 174 0 10 5 14 10 11 6 -3 10
-11 10 -17z m350 7 c0 -8 -4 -15 -10 -15 -5 0 -7 7 -4 15 4 8 8 15 10 15 2 0
4 -7 4 -15z m3655 -5 c3 -6 -1 -7 -9 -4 -18 7 -21 14 -7 14 6 0 13 -4 16 -10z
m-1490 -59 c-3 -6 -11 -11 -17 -11 -6 0 -6 6 2 15 14 17 26 13 15 -4z m-1793
-23 c-15 -15 -26 -4 -18 18 5 13 9 15 18 6 9 -9 9 -15 0 -24z m-92 -4 c0 -8
-4 -14 -10 -14 -5 0 -10 9 -10 21 0 11 5 17 10 14 6 -3 10 -13 10 -21z m-255
-15 c11 -16 1 -19 -13 -3 -7 8 -8 14 -3 14 5 0 13 -5 16 -11z m225 -49 c0 -5
-5 -10 -11 -10 -5 0 -7 5 -4 10 3 6 8 10 11 10 2 0 4 -4 4 -10z m5520 -22 c0
-16 -3 -19 -11 -11 -6 6 -8 16 -5 22 11 17 16 13 16 -11z m-8373 -14 c6 -16
-15 -37 -28 -28 -10 6 1 44 12 44 6 0 12 -7 16 -16z m691 -11 c-5 -25 -28 -28
-28 -4 0 12 6 21 16 21 9 0 14 -7 12 -17z m1990 0 c-5 -25 -28 -28 -28 -4 0
12 6 21 16 21 9 0 14 -7 12 -17z m-2072 -22 c-4 -6 -14 -11 -22 -11 -12 0 -13
4 -3 21 7 14 14 18 21 11 6 -6 7 -15 4 -21z m2843 -10 c-15 -5 -22 6 -14 19 6
9 10 9 16 -1 5 -8 4 -15 -2 -18z m-441 -10 c3 -8 -1 -12 -9 -9 -7 2 -15 10
-17 17 -3 8 1 12 9 9 7 -2 15 -10 17 -17z m-80 -37 c10 -7 13 -17 7 -30 -5
-13 -9 -15 -12 -6 -3 6 -10 9 -16 5 -7 -4 -7 -1 1 9 9 11 10 18 2 23 -5 3 -10
14 -9 23 0 14 2 14 6 2 4 -8 13 -20 21 -26z m1332 26 c0 -5 -2 -10 -4 -10 -3
0 -8 5 -11 10 -3 6 -1 10 4 10 6 0 11 -4 11 -10z m-1427 -15 c-3 -9 -8 -14
-10 -11 -3 3 -2 9 2 15 9 16 15 13 8 -4z m5772 5 c3 -5 1 -10 -4 -10 -6 0 -11
5 -11 10 0 6 2 10 4 10 3 0 8 -4 11 -10z m-8715 -46 c0 -8 -9 -14 -20 -14 -19
0 -27 19 -14 33 10 9 34 -4 34 -19z m3148 -9 c9 -20 9 -23 -4 -18 -13 5 -34
34 -34 47 0 14 29 -8 38 -29z m942 5 c0 -5 -4 -10 -9 -10 -6 0 -13 5 -16 10
-3 6 1 10 9 10 9 0 16 -4 16 -10z m4550 0 c0 -5 -2 -10 -4 -10 -3 0 -8 5 -11
10 -3 6 -1 10 4 10 6 0 11 -4 11 -10z m-3683 -36 c8 -20 -13 -42 -27 -28 -12
12 -3 44 11 44 5 0 12 -7 16 -16z m3577 1 c-4 -8 -10 -12 -15 -9 -11 6 -2 24
11 24 5 0 7 -7 4 -15z m-4867 -17 c-3 -8 -6 -5 -6 6 -1 11 2 17 5 13 3 -3 4
-12 1 -19z m663 6 c0 -9 -5 -14 -12 -12 -18 6 -21 28 -4 28 9 0 16 -7 16 -16z
m4357 0 c-3 -3 -12 -4 -19 -1 -8 3 -5 6 6 6 11 1 17 -2 13 -5z m-8220 -36 c-3
-8 -6 -5 -6 6 -1 11 2 17 5 13 3 -3 4 -12 1 -19z m2708 12 c3 -5 2 -10 -4 -10
-5 0 -13 5 -16 10 -3 6 -2 10 4 10 5 0 13 -4 16 -10z m743 -8 c6 -18 -15 -14
-22 4 -4 10 -1 14 6 12 6 -2 14 -10 16 -16z m232 1 c0 -16 2 -16 11 -3 7 10 9
11 7 2 -2 -8 -7 -13 -11 -13 -4 1 -14 1 -22 1 -9 0 -12 6 -9 15 8 21 24 19 24
-2z m270 -9 c0 -14 -3 -14 -15 -4 -8 7 -15 14 -15 16 0 2 7 4 15 4 8 0 15 -7
15 -16z m-4025 -3 c6 -11 -29 -34 -38 -25 -3 3 -3 12 0 20 6 16 29 19 38 5z
m4055 -32 c0 -5 -4 -9 -10 -9 -5 0 -10 7 -10 16 0 8 5 12 10 9 6 -3 10 -10 10
-16z m-3885 1 c3 -5 1 -10 -4 -10 -6 0 -11 5 -11 10 0 6 2 10 4 10 3 0 8 -4
11 -10z m2965 0 c0 -5 -4 -10 -10 -10 -5 0 -10 5 -10 10 0 6 5 10 10 10 6 0
10 -4 10 -10z m186 -27 c-11 -11 -19 6 -11 24 8 17 8 17 12 0 3 -10 2 -21 -1
-24z m4834 15 c0 -12 -3 -18 -7 -14 -11 10 -12 36 -2 36 5 0 9 -10 9 -22z
m-4455 2 c8 -13 -5 -13 -25 0 -13 8 -13 10 2 10 9 0 20 -4 23 -10z m182 -22
c-2 -12 -10 -24 -17 -26 -9 -3 -11 1 -7 12 4 10 7 22 7 27 0 5 4 9 10 9 5 0 8
-10 7 -22z m-1027 -8 c0 -5 -4 -10 -10 -10 -5 0 -10 5 -10 10 0 6 5 10 10 10
6 0 10 -4 10 -10z m1150 -11 c0 -6 -4 -7 -10 -4 -5 3 -10 11 -10 16 0 6 5 7
10 4 6 -3 10 -11 10 -16z m275 12 c3 -5 1 -12 -4 -15 -5 -3 -11 1 -15 9 -6 16
9 21 19 6z m-875 -5 c0 -3 -4 -8 -10 -11 -5 -3 -10 -1 -10 4 0 6 5 11 10 11 6
0 10 -2 10 -4z m4880 0 c0 -2 -7 -7 -16 -10 -8 -3 -12 -2 -9 4 6 10 25 14 25
6z m-3964 -84 c-10 -10 -29 15 -21 28 6 9 10 8 17 -4 6 -10 7 -20 4 -24z
m-679 2 c-9 -9 -28 6 -21 18 4 6 10 6 17 -1 6 -6 8 -13 4 -17z m-3837 12 c0
-3 -4 -8 -10 -11 -5 -3 -10 -1 -10 4 0 6 5 11 10 11 6 0 10 -2 10 -4z m4210
-11 c7 -8 8 -15 2 -15 -5 0 -15 7 -22 15 -7 8 -8 15 -2 15 5 0 15 -7 22 -15z
m225 -15 c3 -5 -1 -10 -10 -10 -9 0 -13 5 -10 10 3 6 8 10 10 10 2 0 7 -4 10
-10z m4365 -4 c0 -2 -9 -6 -20 -9 -11 -3 -18 -1 -14 4 5 9 34 13 34 5z m-4648
-21 c0 -5 -5 -11 -11 -13 -6 -2 -11 4 -11 13 0 9 5 15 11 13 6 -2 11 -8 11
-13z m198 0 c0 -8 -2 -15 -4 -15 -2 0 -6 7 -10 15 -3 8 -1 15 4 15 6 0 10 -7
10 -15z m-432 -20 c-3 -3 -9 2 -12 12 -6 14 -5 15 5 6 7 -7 10 -15 7 -18z
m-672 0 c14 -13 14 -15 1 -15 -9 0 -17 -4 -19 -9 -1 -5 -11 2 -21 15 -18 23
-17 24 3 24 12 0 28 -7 36 -15z m195 -18 c-1 -4 -3 -7 -6 -7 -3 0 -9 0 -14 0
-5 0 -11 7 -14 14 -5 11 -1 13 14 7 11 -4 20 -10 20 -14z m-2931 -8 c0 -5 -7
-9 -15 -9 -9 0 -12 6 -9 15 6 15 24 11 24 -6z m3387 -21 c-3 -8 -6 -5 -6 6 -1
11 2 17 5 13 3 -3 4 -12 1 -19z m-3241 -26 c-4 -3 -14 2 -24 12 -16 18 -16 18
6 6 13 -6 21 -14 18 -18z m7744 23 c0 -2 -7 -8 -15 -15 -12 -10 -15 -10 -15 2
0 8 7 15 15 15 8 0 15 -1 15 -2z m-3637 -50 c2 -11 -92 -40 -101 -30 -12 11
58 45 86 42 7 -1 14 -6 15 -12z m-1078 -69 c20 -15 20 -15 -2 -16 -14 0 -23 6
-23 15 0 8 -4 15 -10 15 -5 0 -10 8 -10 17 0 16 1 16 13 0 6 -9 21 -23 32 -31z
m635 34 c0 -5 -2 -10 -4 -10 -3 0 -8 5 -11 10 -3 6 -1 10 4 10 6 0 11 -4 11
-10z m-4354 -36 c-5 -13 -10 -14 -18 -6 -6 6 -8 18 -4 28 5 13 10 14 18 6 6
-6 8 -18 4 -28z m214 0 c0 -18 -36 -18 -43 0 -8 20 13 38 30 25 7 -7 13 -18
13 -25z m3593 -4 c-5 -20 -21 -36 -27 -29 -2 2 0 14 5 27 10 27 29 29 22 2z
m327 -4 c0 -11 -19 -15 -25 -6 -3 5 1 10 9 10 9 0 16 -2 16 -4z m180 -5 c0 -5
-7 -11 -14 -14 -10 -4 -13 -1 -9 9 6 15 23 19 23 5z m-760 -21 c0 -5 -2 -10
-4 -10 -3 0 -8 5 -11 10 -3 6 -1 10 4 10 6 0 11 -4 11 -10z m877 2 c8 -5 9
-13 3 -22 -9 -14 -12 -12 -9 6 0 4 -5 11 -13 15 -7 5 -8 9 -3 9 6 0 15 -4 22
-8z m-477 -16 c0 -8 -4 -18 -10 -21 -5 -3 -10 3 -10 14 0 12 5 21 10 21 6 0
10 -6 10 -14z m-3512 -34 c3 -9 -3 -13 -19 -10 -12 1 -24 9 -27 16 -3 9 3 13
19 10 12 -1 24 -9 27 -16z m3282 3 c0 -8 -7 -15 -16 -15 -14 0 -14 3 -4 15 7
8 14 15 16 15 2 0 4 -7 4 -15z m-3060 -21 c0 -14 -3 -15 -17 -3 -10 7 -20 15
-22 16 -2 2 5 3 17 3 14 0 22 -6 22 -16z m7920 0 c0 -2 -13 -4 -30 -4 -16 0
-30 4 -30 8 0 5 14 7 30 4 17 -2 30 -6 30 -8z m-115 -4 c3 -5 -1 -10 -10 -10
-9 0 -13 5 -10 10 3 6 8 10 10 10 2 0 7 -4 10 -10z m158 3 c-7 -2 -19 -2 -25
0 -7 3 -2 5 12 5 14 0 19 -2 13 -5z m-8788 -24 c0 -7 -8 -15 -17 -17 -18 -3
-25 18 -11 32 10 10 28 1 28 -15z m454 -75 c17 -39 2 -50 -25 -19 -13 15 -21
32 -18 36 10 17 31 9 43 -17z m216 -14 c-3 -5 -10 -10 -16 -10 -5 0 -9 5 -9
10 0 6 7 10 16 10 8 0 12 -4 9 -10z m205 -10 c0 -5 -5 -10 -11 -10 -5 0 -7 5
-4 10 3 6 8 10 11 10 2 0 4 -4 4 -10z m-53 -26 c-3 -3 -12 -4 -19 -1 -8 3 -5
6 6 6 11 1 17 -2 13 -5z m-190 -74 c-6 -11 -15 -20 -19 -20 -13 0 -9 38 5 43
21 7 27 -3 14 -23z m-509 -12 c-2 -6 -10 -14 -16 -16 -7 -2 -10 2 -6 12 7 18
28 22 22 4z m686 -37 c4 -5 -3 -7 -14 -4 -23 6 -26 13 -6 13 8 0 17 -4 20 -9z
m-130 -27 c3 -8 2 -12 -4 -9 -6 3 -10 10 -10 16 0 14 7 11 14 -7z m-44 -34 c0
-5 -5 -10 -11 -10 -5 0 -7 5 -4 10 3 6 8 10 11 10 2 0 4 -4 4 -10z m8110 -4
c0 -3 -4 -8 -10 -11 -5 -3 -10 -1 -10 4 0 6 5 11 10 11 6 0 10 -2 10 -4z
m-7980 -26 c0 -5 -7 -10 -15 -10 -8 0 -15 5 -15 10 0 6 7 10 15 10 8 0 15 -4
15 -10z m-103 -16 c-3 -3 -12 -4 -19 -1 -8 3 -5 6 6 6 11 1 17 -2 13 -5z
m-147 -44 c0 -5 -4 -10 -10 -10 -5 0 -10 5 -10 10 0 6 5 10 10 10 6 0 10 -4
10 -10z m68 -247 c-10 -2 -26 -2 -35 0 -10 3 -2 5 17 5 19 0 27 -2 18 -5z
m-10208 -297 c0 -8 -4 -17 -8 -20 -13 -8 -35 11 -28 23 10 16 36 14 36 -3z
m18600 -96 c-8 -5 -19 -10 -25 -10 -5 0 -3 5 5 10 8 5 20 10 25 10 6 0 3 -5
-5 -10z m-8740 -40 c0 -5 -2 -10 -4 -10 -3 0 -8 5 -11 10 -3 6 -1 10 4 10 6 0
11 -4 11 -10z m8635 0 c-3 -5 -16 -15 -28 -21 -21 -10 -21 -9 2 10 25 23 36
27 26 11z m-105 -26 c0 -15 -27 -30 -36 -21 -3 3 -3 15 1 26 7 22 35 18 35 -5z
m337 -196 c-3 -8 -6 -5 -6 6 -1 11 2 17 5 13 3 -3 4 -12 1 -19z m-263 -95 c-7
-31 -12 -38 -18 -32 -7 7 6 59 15 59 5 0 6 -12 3 -27z m-114 7 c0 -5 -4 -10
-10 -10 -5 0 -10 5 -10 10 0 6 5 10 10 10 6 0 10 -4 10 -10z m-18282 -53 c2
-10 -3 -17 -12 -17 -18 0 -29 16 -21 31 9 14 29 6 33 -14z m18449 -109 c-3 -8
-6 -5 -6 6 -1 11 2 17 5 13 3 -3 4 -12 1 -19z m-10347 -57 c0 -11 -9 -26 -21
-35 -11 -8 -28 -24 -36 -36 -12 -17 -13 -23 -1 -37 12 -15 11 -15 -9 -4 -29
15 -30 54 -3 99 23 38 70 46 70 13z m12250 -121 c0 -5 -5 -10 -11 -10 -5 0 -7
5 -4 10 3 6 8 10 11 10 2 0 4 -4 4 -10z m835 -292 c39 -16 92 -36 119 -43 52
-15 63 -21 53 -32 -11 -10 -76 13 -188 67 -110 53 -102 57 16 8z m522 -24 c-3
-3 -12 -4 -19 -1 -8 3 -5 6 6 6 11 1 17 -2 13 -5z m133 -104 c0 -5 -11 -10
-24 -10 -14 0 -28 5 -31 10 -4 6 7 10 24 10 17 0 31 -4 31 -10z m56 -97 c-9
-9 -145 -5 -163 5 -14 8 -11 11 15 17 21 4 38 2 52 -8 31 -21 60 -9 78 32 l17
36 3 -39 c2 -21 1 -40 -2 -43z m99 7 c4 -6 -6 -10 -22 -10 -22 0 -25 2 -13 10
19 12 27 12 35 0z m-11920 -239 c63 -45 44 -69 -20 -26 -22 16 -53 27 -76 28
-44 1 -50 13 -16 27 31 13 65 4 112 -29z m-538 -87 c4 -11 -1 -22 -12 -30 -16
-12 -22 -12 -39 0 -12 7 -22 21 -24 30 -5 23 66 23 75 0z m9184 -25 c11 -5 17
-14 14 -20 -9 -14 -19 -11 -33 11 -14 23 -10 25 19 9z m-10257 -138 c-12 -9
-93 -41 -180 -70 -144 -48 -229 -85 -288 -126 -23 -17 -50 -20 -41 -6 9 15 87
56 181 94 128 53 314 117 314 110 0 -4 5 -2 12 5 7 7 14 12 18 12 3 -1 -5 -9
-16 -19z m8292 -200 c-8 -13 -36 -15 -36 -3 0 4 5 13 12 20 14 14 34 0 24 -17z
m3604 17 c0 -7 -7 -22 -15 -32 -22 -29 -40 -7 -19 22 17 24 34 29 34 10z
m-12746 -117 c-15 -15 -16 -13 -10 18 3 18 6 43 7 55 1 11 5 3 10 -18 8 -32 6
-43 -7 -55z m10141 79 c3 -6 -1 -13 -10 -16 -19 -8 -30 0 -20 15 8 14 22 14
30 1z m-9925 -56 c0 -14 -4 -23 -10 -19 -5 3 -10 15 -10 26 0 10 5 19 10 19 6
0 10 -12 10 -26z m12815 -23 c3 -5 19 -12 36 -16 21 -5 29 -12 27 -23 -5 -22
-47 -20 -82 4 -21 13 -24 19 -15 30 13 16 25 18 34 5z m-19555 -91 c-8 -5 -28
-9 -45 -9 -30 2 -30 2 5 9 51 11 57 11 40 0z m-118 -30 c-25 -24 -33 -25 -26
-6 3 8 13 17 22 19 10 3 19 5 21 6 3 0 -5 -8 -17 -19z m-107 -113 c0 -26 -20
-25 -23 2 -3 16 1 22 10 19 7 -3 13 -12 13 -21z m16765 4 c0 -12 -20 -25 -27
-18 -7 7 6 27 18 27 5 0 9 -4 9 -9z m3396 -62 c11 -23 13 -34 5 -42 -15 -15
-29 1 -37 41 -8 42 10 42 32 1z m-3596 -244 c0 -16 -27 -32 -37 -21 -7 7 16
36 28 36 5 0 9 -7 9 -15z m-236 -236 c-3 -5 -10 -7 -15 -3 -5 3 -7 10 -3 15 3
5 10 7 15 3 5 -3 7 -10 3 -15z m-645 -20 c-10 -20 -36 -35 -45 -27 -2 3 5 17
17 32 23 30 45 26 28 -5z m361 -203 c0 -16 -18 -31 -27 -22 -8 8 5 36 17 36 5
0 10 -6 10 -14z m-1396 -22 c22 -21 20 -24 -14 -24 -23 0 -30 4 -30 20 0 24
22 26 44 4z m792 -49 c-6 -16 -36 -21 -36 -6 0 5 8 17 17 27 18 18 30 6 19
-21z m394 -114 c0 -13 -28 -33 -41 -29 -8 3 -6 9 5 21 19 18 36 22 36 8z
m-15007 -54 c-3 -5 -12 -2 -20 6 -9 8 -12 20 -8 27 5 8 11 6 20 -7 7 -10 11
-22 8 -26z m14457 28 c0 -8 -7 -15 -15 -15 -16 0 -20 12 -8 23 11 12 23 8 23
-8z m290 -74 c0 -13 -28 -33 -41 -29 -8 3 -6 9 5 21 19 18 36 22 36 8z m-232
-89 c4 -14 -34 -16 -42 -3 -6 10 13 21 28 17 6 -1 12 -8 14 -14z m-204 -110
c-6 -9 -19 -18 -28 -20 -22 -5 -21 34 2 47 23 13 40 -4 26 -27z m-289 -33 c0
-8 -10 -15 -22 -17 -25 -4 -30 7 -11 26 15 15 33 10 33 -9z m195 -20 c0 -5 -7
-9 -15 -9 -15 0 -20 12 -9 23 8 8 24 -1 24 -14z m-1180 -159 c0 -5 -7 -10 -15
-10 -8 0 -15 5 -15 10 0 6 7 10 15 10 8 0 15 -4 15 -10z m-12047 -44 c7 -16
-1 -26 -20 -26 -7 0 -13 9 -13 20 0 23 25 27 33 6z m12747 -35 c0 -6 -4 -13
-10 -16 -5 -3 -10 1 -10 9 0 9 5 16 10 16 6 0 10 -4 10 -9z m-835 -31 c-3 -5
-10 -10 -16 -10 -5 0 -9 5 -9 10 0 6 7 10 16 10 8 0 12 -4 9 -10z m355 -4 c0
-3 -4 -8 -10 -11 -5 -3 -10 -1 -10 4 0 6 5 11 10 11 6 0 10 -2 10 -4z m440
-140 c0 -3 -4 -8 -10 -11 -5 -3 -10 -1 -10 4 0 6 5 11 10 11 6 0 10 -2 10 -4z
m-1200 -40 c0 -8 -4 -18 -10 -21 -5 -3 -10 3 -10 14 0 12 5 21 10 21 6 0 10
-6 10 -14z m1520 -1 c-7 -8 -17 -15 -22 -15 -11 0 14 29 26 30 5 0 3 -7 -4
-15z m-670 -4 c0 -6 -4 -13 -10 -16 -5 -3 -10 1 -10 9 0 9 5 16 10 16 6 0 10
-4 10 -9z m-240 -11 c0 -5 -4 -10 -10 -10 -5 0 -10 5 -10 10 0 6 5 10 10 10 6
0 10 -4 10 -10z m430 -25 c0 -8 -4 -15 -10 -15 -5 0 -10 7 -10 15 0 8 5 15 10
15 6 0 10 -7 10 -15z m-12440 -24 c0 -12 -20 -25 -27 -18 -7 7 6 27 18 27 5 0
9 -4 9 -9z m11150 -41 c0 -5 -9 -10 -21 -10 -11 0 -17 5 -14 10 3 6 13 10 21
10 8 0 14 -4 14 -10z m100 0 c0 -5 -2 -10 -4 -10 -3 0 -8 5 -11 10 -3 6 -1 10
4 10 6 0 11 -4 11 -10z m1780 -85 c0 -9 -9 -15 -25 -15 -24 0 -32 10 -18 23
12 13 43 7 43 -8z m-405 -44 c3 -5 1 -12 -4 -15 -12 -8 -41 3 -41 15 0 12 37
12 45 0z m-11985 -22 c0 -5 -7 -9 -15 -9 -8 0 -15 7 -15 15 0 9 6 12 15 9 8
-4 15 -10 15 -15z m11522 -11 c-15 -15 -26 -4 -18 18 5 13 9 15 18 6 9 -9 9
-15 0 -24z m-1202 3 c0 -6 -4 -13 -10 -16 -5 -3 -10 1 -10 9 0 9 5 16 10 16 6
0 10 -4 10 -9z m1390 5 c0 -11 -19 -15 -25 -6 -3 5 1 10 9 10 9 0 16 -2 16 -4z
m20 -86 c0 -5 -4 -10 -10 -10 -5 0 -10 5 -10 10 0 6 5 10 10 10 6 0 10 -4 10
-10z m-585 -29 c34 -43 19 -115 -26 -121 -31 -5 -39 1 -39 30 0 21 -9 39 -27
56 l-28 25 25 20 c32 24 70 21 95 -10z m-10745 -1 c0 -5 -9 -10 -21 -10 -11 0
-17 5 -14 10 3 6 13 10 21 10 8 0 14 -4 14 -10z m11685 -50 c0 -7 -6 -15 -12
-17 -8 -3 -13 4 -13 17 0 13 5 20 13 18 6 -3 12 -11 12 -18z m-1863 -60 c-12
-12 -22 -18 -22 -14 0 12 33 45 38 39 3 -3 -4 -14 -16 -25z m2004 15 c-10 -8
-23 -12 -28 -9 -14 9 2 24 25 24 21 -1 21 -1 3 -15z m-346 -49 c0 -8 -5 -18
-11 -22 -14 -8 -33 11 -25 25 10 16 36 13 36 -3z m-11730 -25 c13 -25 13 -31
-2 -31 -14 0 -48 30 -48 42 0 16 40 8 50 -11z m219 -87 c3 -16 1 -17 -13 -5
-19 16 -21 34 -3 29 6 -3 14 -13 16 -24z m388 -70 c-3 -3 -12 -4 -19 -1 -8 3
-5 6 6 6 11 1 17 -2 13 -5z m651 -202 c3 -9 -3 -13 -19 -10 -12 1 -24 9 -27
16 -3 9 3 13 19 10 12 -1 24 -9 27 -16z m10432 -7 c0 -8 -4 -15 -10 -15 -5 0
-10 7 -10 15 0 8 5 15 10 15 6 0 10 -7 10 -15z m315 -35 c3 -6 -1 -7 -9 -4
-18 7 -21 14 -7 14 6 0 13 -4 16 -10z m45 -35 c10 -12 10 -15 -4 -15 -9 0 -16
7 -16 15 0 8 2 15 4 15 2 0 9 -7 16 -15z m-10020 -32 c0 -24 -25 -9 -28 17 -3
21 -2 22 12 11 9 -7 16 -20 16 -28z m9060 28 c0 -6 -5 -13 -10 -16 -15 -9 -43
3 -35 15 8 13 45 13 45 1z m-200 -21 c0 -5 -5 -10 -11 -10 -5 0 -7 5 -4 10 3
6 8 10 11 10 2 0 4 -4 4 -10z m800 -15 c0 -8 -4 -15 -10 -15 -5 0 -10 7 -10
15 0 8 5 15 10 15 6 0 10 -7 10 -15z m-385 -6 c4 -6 5 -12 2 -15 -7 -7 -37 7
-37 17 0 13 27 11 35 -2z m11 -134 c-6 -16 -46 -21 -46 -6 0 6 10 17 22 26 24
16 35 7 24 -20z m-9126 -25 c0 -5 -4 -10 -9 -10 -6 0 -13 5 -16 10 -3 6 1 10
9 10 9 0 16 -4 16 -10z m197 4 c-3 -3 -12 -4 -19 -1 -8 3 -5 6 6 6 11 1 17 -2
13 -5z m-999 -28 c3 -12 -1 -17 -10 -14 -7 3 -15 13 -16 22 -3 12 1 17 10 14
7 -3 15 -13 16 -22z m10552 -92 c0 -8 -7 -14 -15 -14 -15 0 -21 21 -9 33 10 9
24 -2 24 -19z m-4440 -24 c0 -5 -4 -10 -10 -10 -5 0 -10 5 -10 10 0 6 5 10 10
10 6 0 10 -4 10 -10z m720 -19 c0 -6 -4 -13 -10 -16 -5 -3 -10 1 -10 9 0 9 5
16 10 16 6 0 10 -4 10 -9z m320 -1 c0 -5 -2 -10 -4 -10 -3 0 -8 5 -11 10 -3 6
-1 10 4 10 6 0 11 -4 11 -10z m-1160 -79 c0 -12 -20 -25 -27 -18 -7 7 6 27 18
27 5 0 9 -4 9 -9z m500 -6 c0 -8 -4 -15 -10 -15 -5 0 -10 7 -10 15 0 8 5 15
10 15 6 0 10 -7 10 -15z m3743 -15 l15 -29 -24 16 c-13 8 -24 22 -24 29 0 24
18 15 33 -16z m-497 -27 c-10 -10 -19 5 -10 18 6 11 8 11 12 0 2 -7 1 -15 -2
-18z m-3360 -10 c-10 -10 -19 5 -10 18 6 11 8 11 12 0 2 -7 1 -15 -2 -18z
m3934 -33 c17 -32 -6 -24 -31 11 -22 31 -22 31 -1 20 12 -6 26 -20 32 -31z
m-1850 16 c0 -3 -4 -8 -10 -11 -5 -3 -10 -1 -10 4 0 6 5 11 10 11 6 0 10 -2
10 -4z m-7845 -45 c3 -5 1 -13 -5 -16 -15 -9 -43 3 -35 15 8 13 32 13 40 1z
m5121 -38 c-10 -10 -19 5 -10 18 6 11 8 11 12 0 2 -7 1 -15 -2 -18z m-4139 1
c-3 -3 -12 -4 -19 -1 -8 3 -5 6 6 6 11 1 17 -2 13 -5z m5878 -19 c0 -11 -8
-21 -17 -23 -14 -3 -18 3 -18 23 0 20 4 26 18 23 9 -2 17 -12 17 -23z m2115
-10 c0 -14 -6 -25 -13 -25 -20 0 -25 9 -20 31 8 28 33 24 33 -6z m-490 -5 c0
-11 -4 -20 -9 -20 -14 0 -23 18 -16 30 10 17 25 11 25 -10z m711 -23 c-8 -8
-11 -7 -11 4 0 20 13 34 18 19 3 -7 -1 -17 -7 -23z m-3531 13 c0 -5 -4 -10 -9
-10 -6 0 -13 5 -16 10 -3 6 1 10 9 10 9 0 16 -4 16 -10z m-260 -25 c0 -8 -7
-15 -15 -15 -16 0 -20 12 -8 23 11 12 23 8 23 -8z m3898 -8 c3 -14 -1 -18 -20
-15 -12 2 -24 11 -26 21 -3 14 1 18 20 15 12 -2 24 -11 26 -21z m-2798 4 c0
-5 -6 -14 -14 -20 -11 -9 -16 -9 -21 0 -4 6 -1 15 6 20 18 11 29 11 29 0z
m-3070 -30 c0 -6 -4 -13 -10 -16 -5 -3 -10 1 -10 9 0 9 5 16 10 16 6 0 10 -4
10 -9z m1540 -21 c0 -5 -4 -10 -10 -10 -5 0 -10 5 -10 10 0 6 5 10 10 10 6 0
10 -4 10 -10z m820 0 c0 -5 -9 -10 -20 -10 -11 0 -20 5 -20 10 0 6 9 10 20 10
11 0 20 -4 20 -10z m-5331 -56 c3 -16 1 -17 -13 -5 -19 16 -21 34 -3 29 6 -3
14 -13 16 -24z m7681 11 c0 -16 -35 -21 -44 -6 -8 12 4 21 26 21 10 0 18 -7
18 -15z m470 0 c11 -13 10 -14 -4 -9 -9 3 -16 10 -16 15 0 13 6 11 20 -6z
m-1962 -26 c-2 -6 -8 -10 -13 -10 -5 0 -11 4 -13 10 -2 6 4 11 13 11 9 0 15
-5 13 -11z m320 -65 c-4 -23 -26 -30 -34 -10 -8 20 15 51 29 37 5 -5 7 -17 5
-27z m1691 12 c16 -30 6 -53 -15 -35 -15 12 -20 59 -6 59 5 0 14 -11 21 -24z
m-7459 -6 c0 -5 -4 -10 -10 -10 -5 0 -10 5 -10 10 0 6 5 10 10 10 6 0 10 -4
10 -10z m7680 -15 c0 -15 -18 -30 -27 -22 -2 3 -2 15 2 26 7 23 25 19 25 -4z
m-1060 8 c0 -5 -4 -15 -10 -23 -11 -18 -25 -7 -17 15 6 15 27 21 27 8z m1145
-38 c0 -16 -6 -30 -12 -32 -9 -3 -13 7 -13 32 0 25 4 35 13 33 6 -3 12 -17 12
-33z m-1771 17 c8 -13 -23 -52 -40 -52 -20 0 -18 37 4 49 21 13 29 13 36 3z
m1386 -17 c0 -8 -4 -15 -9 -15 -13 0 -22 16 -14 24 11 11 23 6 23 -9z m-5218
-30 c0 -5 -5 -11 -11 -13 -6 -2 -11 4 -11 13 0 9 5 15 11 13 6 -2 11 -8 11
-13z m4038 -60 c0 -16 -6 -25 -15 -25 -16 0 -19 9 -9 34 9 25 24 19 24 -9z
m131 -10 c0 -5 -9 -11 -21 -13 -20 -3 -27 8 -13 22 10 9 34 3 34 -9z m792 1
c8 -20 -20 -43 -35 -28 -8 8 -8 15 2 27 16 19 26 19 33 1z m-5953 0 c0 -2 -7
-6 -15 -10 -8 -3 -15 -1 -15 4 0 6 7 10 15 10 8 0 15 -2 15 -4z m4364 -25 c18
-33 12 -45 -15 -28 -20 12 -27 57 -9 57 5 0 16 -13 24 -29z m-3294 -77 c0 -14
-4 -23 -10 -19 -5 3 -10 15 -10 26 0 10 5 19 10 19 6 0 10 -12 10 -26z m20
-54 c6 -11 8 -20 6 -20 -3 0 -10 9 -16 20 -6 11 -8 20 -6 20 3 0 10 -9 16 -20z
m3335 2 c0 -18 -20 -15 -23 4 -3 10 1 15 10 12 7 -3 13 -10 13 -16z m818 -7
c1 -5 -6 -11 -15 -13 -11 -2 -18 3 -18 13 0 17 30 18 33 0z m-386 -11 c9 -23
-25 -48 -44 -33 -16 14 -17 36 0 42 23 10 38 7 44 -9z m573 -2 c0 -21 -18 -42
-37 -42 -20 0 -27 28 -13 45 18 21 50 19 50 -3z m295 8 c-3 -5 -14 -10 -23 -9
-14 0 -13 2 3 9 27 11 27 11 20 0z m-2575 -74 c0 -8 -5 -18 -11 -22 -14 -8
-33 11 -25 25 10 16 36 13 36 -3z m2488 -11 c7 -14 12 -29 12 -33 -1 -10 -40
38 -40 49 0 18 17 8 28 -16z m-3358 -6 c0 -6 -4 -7 -10 -4 -5 3 -10 11 -10 16
0 6 5 7 10 4 6 -3 10 -11 10 -16z m1750 -29 c0 -11 -7 -20 -15 -20 -15 0 -21
21 -8 33 12 13 23 7 23 -13z m-2805 0 c-3 -5 -13 -10 -21 -10 -8 0 -14 5 -14
10 0 6 9 10 21 10 11 0 17 -4 14 -10z m3898 3 c3 -5 8 -30 12 -58 l7 -50 -26
38 c-14 21 -26 44 -26 51 0 22 23 35 33 19z m-2497 -50 c-10 -10 -19 5 -10 18
6 11 8 11 12 0 2 -7 1 -15 -2 -18z m562 9 c2 -7 -3 -12 -12 -12 -9 0 -16 7
-16 16 0 17 22 14 28 -4z m-973 -3 c12 -19 -5 -23 -22 -6 -16 16 -16 17 -1 17
9 0 20 -5 23 -11z m605 -39 c0 -5 -4 -10 -10 -10 -5 0 -10 5 -10 10 0 6 5 10
10 10 6 0 10 -4 10 -10z m630 -16 c0 -8 -7 -14 -15 -14 -15 0 -21 21 -9 33 10
9 24 -2 24 -19z m-535 6 c3 -5 1 -10 -4 -10 -6 0 -11 5 -11 10 0 6 2 10 4 10
3 0 8 -4 11 -10z m2222 -72 c-3 -7 -5 -2 -5 12 0 14 2 19 5 13 2 -7 2 -19 0
-25z m-1870 -10 c-3 -8 -6 -5 -6 6 -1 11 2 17 5 13 3 -3 4 -12 1 -19z m-427 2
c0 -5 -5 -10 -11 -10 -5 0 -7 5 -4 10 3 6 8 10 11 10 2 0 4 -4 4 -10z m-470
-35 c7 -9 8 -15 2 -15 -5 0 -12 7 -16 15 -3 8 -4 15 -2 15 2 0 9 -7 16 -15z
m2314 -7 c8 -13 7 -21 -1 -29 -16 -16 -43 5 -43 33 0 24 28 21 44 -4z m-2099
-18 c3 -5 1 -10 -4 -10 -6 0 -11 5 -11 10 0 6 2 10 4 10 3 0 8 -4 11 -10z
m1684 -14 c15 -18 3 -46 -20 -46 -22 0 -34 22 -25 45 7 19 30 19 45 1z m-1489
-21 c0 -8 -8 -15 -17 -14 -11 0 -13 3 -5 6 6 2 10 9 6 14 -3 5 0 9 5 9 6 0 11
-7 11 -15z m216 -10 c14 -13 12 -15 -17 -15 -27 0 -30 2 -19 15 7 8 14 15 17
15 2 0 11 -7 19 -15z m-146 -5 c0 -5 -5 -10 -11 -10 -5 0 -7 5 -4 10 3 6 8 10
11 10 2 0 4 -4 4 -10z m50 0 c0 -5 -7 -10 -16 -10 -8 0 -12 5 -9 10 3 6 10 10
16 10 5 0 9 -4 9 -10z m200 0 c0 -5 -7 -10 -15 -10 -8 0 -15 5 -15 10 0 6 7
10 15 10 8 0 15 -4 15 -10z m465 -11 c0 -7 -8 -15 -17 -17 -18 -3 -25 18 -11
32 10 10 28 1 28 -15z"/>
<path d="M13213 23453 c9 -2 25 -2 35 0 9 3 1 5 -18 5 -19 0 -27 -2 -17 -5z"/>
<path d="M12828 22783 c6 -2 18 -2 25 0 6 3 1 5 -13 5 -14 0 -19 -2 -12 -5z"/>
<path d="M6700 20161 c0 -12 6 -21 16 -21 9 0 14 7 12 17 -5 25 -28 28 -28 4z"/>
<path d="M9237 19042 c-24 -26 -21 -34 11 -30 19 2 28 9 30 26 4 27 -18 29
-41 4z"/>
<path d="M9230 18806 c0 -17 34 -31 51 -21 6 5 4 12 -8 21 -24 18 -43 18 -43
0z"/>
<path d="M9057 18790 c-3 -11 -1 -20 4 -20 5 0 9 2 9 4 0 2 3 11 6 20 3 9 2
16 -4 16 -5 0 -12 -9 -15 -20z"/>
<path d="M7534 18686 c-8 -21 3 -49 16 -41 5 3 10 15 10 25 0 25 -18 36 -26
16z"/>
<path d="M8830 18570 c0 -5 5 -10 10 -10 6 0 10 5 10 10 0 6 -4 10 -10 10 -5
0 -10 -4 -10 -10z"/>
<path d="M9094 18559 c-3 -6 -2 -15 4 -21 7 -7 14 -3 21 11 10 17 9 21 -3 21
-8 0 -18 -5 -22 -11z"/>
<path d="M9276 18561 c-8 -12 21 -34 34 -26 8 5 8 11 -1 21 -13 16 -25 18 -33
5z"/>
<path d="M7916 18534 c-5 -14 -4 -15 9 -4 17 14 19 20 6 20 -5 0 -12 -7 -15
-16z"/>
<path d="M8931 18391 c-8 -5 -20 -7 -28 -4 -7 3 -13 -2 -13 -11 0 -20 0 -20
39 0 25 13 35 13 46 4 9 -7 15 -8 15 -2 0 5 -7 13 -16 16 -21 8 -26 7 -43 -3z"/>
<path d="M9327 18356 c10 -13 26 -29 36 -35 16 -10 16 -9 5 9 -7 11 -16 20
-20 20 -5 0 -8 7 -8 15 0 8 -7 15 -15 15 -14 0 -13 -3 2 -24z"/>
<path d="M7780 18346 c0 -7 7 -27 16 -42 15 -27 15 -27 10 -4 -3 14 -6 33 -6
43 0 9 -4 17 -10 17 -5 0 -10 -6 -10 -14z"/>
<path d="M9145 18320 c3 -5 8 -10 11 -10 2 0 4 5 4 10 0 6 -5 10 -11 10 -5 0
-7 -4 -4 -10z"/>
<path d="M8011 18298 c-1 -26 10 -48 25 -48 8 0 14 5 14 10 0 6 -5 10 -10 10
-6 0 -15 10 -20 23 -6 15 -9 17 -9 5z"/>
<path d="M8300 18285 c0 -8 5 -15 10 -15 6 0 10 7 10 15 0 8 -4 15 -10 15 -5
0 -10 -7 -10 -15z"/>
<path d="M7574 18277 c-8 -23 3 -50 19 -44 13 4 11 36 -4 51 -5 6 -11 3 -15
-7z"/>
<path d="M9356 18264 c-17 -12 -17 -14 -4 -14 9 0 20 5 23 11 11 17 2 18 -19
3z"/>
<path d="M8976 18231 c-3 -5 0 -14 7 -19 10 -8 13 -6 14 9 2 19 -11 26 -21 10z"/>
<path d="M8790 18181 c0 -5 5 -13 10 -16 6 -3 10 -2 10 4 0 5 -4 13 -10 16 -5
3 -10 2 -10 -4z"/>
<path d="M8351 18164 c0 -11 3 -14 6 -6 3 7 2 16 -1 19 -3 4 -6 -2 -5 -13z"/>
<path d="M8760 18160 c0 -17 17 -47 23 -40 2 3 -2 16 -10 30 -7 14 -13 18 -13
10z"/>
<path d="M7790 18141 c-20 -3 -30 -9 -24 -13 7 -4 29 -1 50 6 41 15 32 18 -26
7z"/>
<path d="M9100 18103 c0 -5 5 -15 10 -23 7 -12 9 -10 7 8 -1 19 -17 33 -17 15z"/>
<path d="M8560 18059 c0 -5 5 -7 10 -4 6 3 10 8 10 11 0 2 -4 4 -10 4 -5 0
-10 -5 -10 -11z"/>
<path d="M8137 18042 c4 -16 17 -19 53 -13 10 2 -22 25 -39 28 -14 2 -18 -2
-14 -15z"/>
<path d="M8075 18039 c-4 -6 -5 -13 -2 -16 7 -7 27 6 27 18 0 12 -17 12 -25
-2z"/>
<path d="M8580 18025 c0 -8 4 -15 10 -15 5 0 7 7 4 15 -4 8 -8 15 -10 15 -2 0
-4 -7 -4 -15z"/>
<path d="M7570 17990 c-13 -9 -13 -11 -1 -19 16 -10 51 3 51 19 0 13 -31 13
-50 0z"/>
<path d="M7940 17985 c-8 -9 -8 -15 -2 -15 12 0 26 19 19 26 -2 2 -10 -2 -17
-11z"/>
<path d="M7840 17980 c0 -5 9 -10 19 -10 11 0 23 5 26 10 4 6 -5 10 -19 10
-14 0 -26 -4 -26 -10z"/>
<path d="M8431 17954 c0 -11 3 -14 6 -6 3 7 2 16 -1 19 -3 4 -6 -2 -5 -13z"/>
<path d="M8245 17866 c-44 -26 -59 -56 -34 -72 7 -4 10 -1 7 7 -6 17 9 49 22
49 5 0 16 -12 23 -26 10 -19 16 -23 22 -14 5 8 1 16 -10 22 -14 8 -15 12 -4
19 23 14 -3 29 -26 15z"/>
<path d="M8175 17850 c-3 -5 -1 -10 4 -10 6 0 11 5 11 10 0 6 -2 10 -4 10 -3
0 -8 -4 -11 -10z"/>
<path d="M8037 17843 c-4 -3 -7 -11 -7 -17 0 -6 5 -5 12 2 6 6 9 14 7 17 -3 3
-9 2 -12 -2z"/>
<path d="M7836 17795 c9 -14 20 -25 24 -25 19 0 39 13 34 21 -3 5 -10 7 -15 4
-5 -4 -16 1 -25 9 -24 25 -36 19 -18 -9z"/>
<path d="M8030 17795 c0 -8 7 -15 15 -15 9 0 12 6 9 15 -4 8 -10 15 -15 15 -5
0 -9 -7 -9 -15z"/>
<path d="M7686 17767 c-15 -11 -16 -15 -3 -25 11 -10 17 -9 28 5 9 11 10 14 2
9 -7 -4 -13 -3 -13 3 0 5 6 12 13 14 6 3 7 6 1 6 -5 1 -18 -5 -28 -12z"/>
<path d="M7563 17736 c7 -14 15 -26 20 -26 13 0 7 17 -13 35 -19 17 -19 17 -7
-9z"/>
<path d="M8270 17616 c0 -15 18 -31 26 -23 7 7 -7 37 -17 37 -5 0 -9 -6 -9
-14z"/>
<path d="M8110 17595 c-6 -8 -9 -19 -5 -25 10 -17 25 -11 25 9 0 11 6 22 13
24 7 4 6 6 -4 6 -9 1 -22 -6 -29 -14z"/>
<path d="M7645 17570 c10 -11 20 -20 23 -20 3 0 -3 9 -13 20 -10 11 -20 20
-23 20 -3 0 3 -9 13 -20z"/>
<path d="M8295 17570 c3 -5 8 -10 11 -10 2 0 4 5 4 10 0 6 -5 10 -11 10 -5 0
-7 -4 -4 -10z"/>
<path d="M7860 17555 c-7 -8 -10 -21 -6 -30 6 -18 36 -9 36 11 0 8 5 14 11 14
5 0 7 5 4 10 -9 15 -31 12 -45 -5z"/>
<path d="M7680 17528 c0 -7 7 -22 15 -32 16 -21 18 -15 9 22 -7 23 -24 31 -24
10z"/>
<path d="M7705 17461 c-3 -5 -1 -12 5 -16 5 -3 10 1 10 9 0 18 -6 21 -15 7z"/>
<path d="M8270 17390 c8 -5 20 -10 25 -10 6 0 3 5 -5 10 -8 5 -19 10 -25 10
-5 0 -3 -5 5 -10z"/>
<path d="M8190 17371 c0 -10 19 -25 25 -20 1 2 -3 10 -11 17 -8 7 -14 8 -14 3z"/>
<path d="M7667 17284 c-113 -201 -536 -873 -654 -1037 -47 -66 -143 -205 -214
-309 -71 -104 -153 -219 -182 -256 -29 -37 -97 -129 -150 -204 -152 -214 -568
-742 -712 -903 -44 -49 -93 -106 -109 -125 -123 -154 -429 -469 -581 -599
-145 -124 -226 -152 -334 -116 -105 35 -166 91 -686 633 -381 397 -460 471
-550 514 -107 50 -207 29 -190 -40 15 -63 109 -191 445 -612 108 -135 231
-292 273 -350 43 -58 91 -121 107 -140 17 -19 30 -38 30 -42 0 -12 -34 -10
-47 3 -14 14 -486 101 -1458 268 -591 102 -644 108 -671 66 -11 -17 -15 -37
-11 -60 10 -59 42 -92 130 -134 86 -40 172 -66 502 -150 110 -28 378 -96 595
-151 396 -100 534 -143 527 -163 -5 -15 -66 -35 -177 -58 -52 -11 -284 -66
-515 -123 -231 -57 -526 -129 -655 -161 -292 -71 -383 -100 -421 -136 -40 -38
-38 -69 10 -112 79 -71 180 -90 331 -63 137 25 692 126 885 161 105 19 271 48
370 64 99 17 245 44 325 60 153 31 223 39 228 28 6 -17 -4 -27 -100 -104 -818
-649 -1048 -834 -1120 -903 -78 -74 -85 -100 -40 -142 42 -39 68 -49 147 -55
89 -7 126 8 312 128 217 139 639 397 828 507 99 58 263 154 365 215 262 156
307 174 294 120 -3 -16 -42 -111 -86 -213 -210 -488 -318 -779 -318 -859 0
-68 72 -146 144 -158 34 -5 40 -2 79 39 42 44 69 91 264 463 172 327 313 587
350 642 41 62 125 142 218 207 136 95 499 392 630 516 39 36 117 106 175 155
195 167 854 828 1126 1130 44 50 144 160 221 245 165 182 290 329 421 495 53
66 116 143 142 170 25 28 95 115 155 195 61 80 130 166 155 192 l46 48 -66 97
c-261 389 -414 643 -577 957 -80 155 -125 231 -139 236 -17 7 -26 -3 -67 -76z
m-102 -855 c11 -17 -1 -21 -15 -4 -8 9 -8 15 -2 15 6 0 14 -5 17 -11z m-295
-24 c-7 -8 -17 -15 -22 -15 -6 0 -5 7 2 15 7 8 17 15 22 15 6 0 5 -7 -2 -15z
m405 -35 c3 -5 1 -10 -4 -10 -6 0 -11 5 -11 10 0 6 2 10 4 10 3 0 8 -4 11 -10z
m-25 -79 c-1 -13 -3 -13 -15 3 -19 26 -19 42 0 26 8 -7 15 -20 15 -29z m168
21 c2 -7 -2 -10 -12 -6 -9 3 -16 11 -16 16 0 13 23 5 28 -10z m87 -152 c3 -5
2 -10 -4 -10 -5 0 -13 5 -16 10 -3 6 -2 10 4 10 5 0 13 -4 16 -10z m-165 -60
c0 -13 -1 -13 -10 0 -5 8 -10 22 -10 30 0 13 1 13 10 0 5 -8 10 -22 10 -30z
m44 -70 c21 -28 36 -53 34 -56 -4 -4 -37 39 -71 93 -19 30 2 9 37 -37z m204
-117 c2 -7 -4 -16 -12 -19 -19 -7 -49 14 -40 28 8 13 46 6 52 -9z m-910 -50
c5 -18 -10 -16 -34 2 -18 15 -18 15 5 13 14 -2 26 -9 29 -15z m-94 -1454 c-9
-15 -84 -49 -109 -49 -45 0 35 42 113 59 2 1 0 -4 -4 -10z m-146 -41 c-5 -13
-63 -31 -81 -25 -7 2 4 11 23 20 43 19 63 21 58 5z m-123 -28 c-27 -12 -43
-12 -25 0 8 5 22 9 30 9 10 0 8 -3 -5 -9z m-80 -20 c-3 -5 -18 -10 -33 -10
-21 0 -24 2 -12 10 20 13 53 13 45 0z m-195 -9 c0 -5 -7 -12 -16 -15 -22 -9
-24 -8 -24 9 0 8 9 15 20 15 11 0 20 -4 20 -9z m-450 -75 c0 -3 -4 -8 -10 -11
-5 -3 -10 -1 -10 4 0 6 5 11 10 11 6 0 10 -2 10 -4z m84 -22 c3 -8 2 -12 -4
-9 -6 3 -10 10 -10 16 0 14 7 11 14 -7z m36 -80 c0 -8 -5 -12 -10 -9 -6 4 -8
11 -5 16 9 14 15 11 15 -7z m-621 -110 c3 -15 1 -16 -11 -6 -8 6 -18 9 -21 5
-4 -3 -7 -2 -7 4 0 29 33 27 39 -3z m121 -11 c22 -19 26 -33 9 -33 -14 0 -39
25 -39 39 0 15 7 14 30 -6z m538 -8 c-3 -3 -9 2 -12 12 -6 14 -5 15 5 6 7 -7
10 -15 7 -18z m-356 -87 c-7 -7 -12 -8 -12 -2 0 14 12 26 19 19 2 -3 -1 -11
-7 -17z m-392 -42 c0 -20 -26 -40 -35 -26 -10 16 2 40 20 40 8 0 15 -6 15 -14z
m320 -6 c0 -13 -30 -13 -50 0 -11 7 -7 10 18 10 17 0 32 -4 32 -10z m-60 -14
c0 -3 -4 -8 -10 -11 -5 -3 -10 -1 -10 4 0 6 5 11 10 11 6 0 10 -2 10 -4z m140
-70 c0 -5 -7 -1 -15 10 -8 10 -14 24 -14 29 0 6 6 1 14 -9 8 -11 15 -24 15
-30z m-110 -18 c0 -4 -7 -5 -15 -2 -8 4 -15 18 -15 33 l1 26 14 -25 c8 -14 14
-28 15 -32z m217 0 c-3 -8 -6 -5 -6 6 -1 11 2 17 5 13 3 -3 4 -12 1 -19z m-12
-147 c10 -17 -12 -21 -25 -6 -10 12 -10 15 3 15 9 0 18 -4 22 -9z m-170 -121
c0 -9 -8 -14 -20 -12 -35 5 -46 12 -40 23 10 15 60 7 60 -11z m-498 -125 c3
-9 2 -19 -1 -23 -8 -8 -38 10 -44 26 -6 18 38 14 45 -3z m593 -55 c0 -5 -5
-10 -11 -10 -5 0 -7 5 -4 10 3 6 8 10 11 10 2 0 4 -4 4 -10z m-233 -116 c3 -8
1 -20 -6 -27 -14 -14 -47 15 -37 32 10 16 36 13 43 -5z"/>
<path d="M7972 17297 c-14 -40 -15 -47 -3 -47 9 0 26 69 19 76 -2 2 -10 -11
-16 -29z"/>
<path d="M8637 15852 c-4 -21 -31 -112 -61 -202 -30 -91 -73 -232 -96 -315
-23 -82 -66 -233 -97 -335 -59 -196 -206 -714 -274 -965 -22 -82 -89 -321
-149 -530 -60 -209 -138 -488 -174 -620 -36 -132 -105 -384 -155 -560 -115
-412 -263 -950 -311 -1135 -56 -212 -83 -279 -145 -355 -44 -54 -130 -104
-191 -111 -81 -10 -229 27 -774 194 -91 28 -219 65 -285 82 -66 18 -206 56
-312 86 -105 30 -211 57 -235 60 -54 8 -153 -16 -206 -50 -87 -54 -137 -146
-113 -205 20 -48 74 -76 276 -144 105 -36 325 -115 490 -177 165 -62 409 -148
542 -192 133 -43 245 -83 249 -89 3 -6 2 -15 -3 -20 -9 -9 -233 -112 -523
-241 -74 -33 -169 -75 -210 -95 -41 -19 -196 -87 -345 -150 -148 -63 -328
-146 -400 -183 -71 -37 -173 -85 -225 -105 -195 -76 -283 -134 -320 -210 -21
-43 -21 -47 -6 -70 33 -51 61 -60 181 -60 135 0 146 3 710 203 226 79 550 194
720 254 606 215 555 199 555 174 0 -16 -69 -111 -158 -215 -108 -128 -268
-326 -352 -436 -78 -101 -138 -177 -368 -458 -113 -138 -239 -306 -301 -401
-58 -89 -68 -139 -28 -150 67 -18 149 14 285 111 115 81 1238 1197 1472 1463
112 127 214 220 240 220 7 0 9 -7 6 -17 -4 -10 -14 -74 -22 -143 -18 -160 -32
-238 -104 -610 -32 -168 -73 -396 -91 -507 -31 -194 -32 -202 -15 -228 24 -36
79 -58 126 -50 57 10 154 59 179 91 45 57 77 166 141 479 23 110 66 304 97
430 30 127 75 313 98 415 71 307 256 926 388 1300 164 466 268 738 427 1125
34 83 104 254 155 380 163 406 225 556 300 735 71 168 325 773 398 950 19 47
43 107 53 134 9 28 28 60 41 72 l24 22 -24 39 c-14 21 -53 70 -87 108 -34 39
-103 124 -153 190 -50 66 -116 149 -147 185 -168 192 -536 662 -622 793 -28
42 -54 77 -58 77 -4 0 -10 -17 -13 -38z m847 -1087 c44 -34 58 -55 36 -55 -6
0 -20 11 -31 24 -12 14 -34 30 -50 36 -16 7 -26 16 -23 21 9 15 19 11 68 -26z
m-249 -411 c24 -25 10 -29 -16 -5 -13 12 -18 21 -12 21 7 0 19 -7 28 -16z
m221 -51 c-10 -10 -19 5 -10 18 6 11 8 11 12 0 2 -7 1 -15 -2 -18z m-126 -52
c5 -11 10 -28 10 -37 0 -16 -2 -16 -14 -4 -19 20 -30 60 -17 60 6 0 15 -9 21
-19z m-975 -21 c3 -5 1 -10 -4 -10 -6 0 -11 5 -11 10 0 6 2 10 4 10 3 0 8 -4
11 -10z m-541 -1652 c9 -36 7 -48 -9 -48 -16 0 -31 43 -20 59 10 18 22 13 29
-11z m-95 -1740 c19 -45 18 -68 -5 -68 -13 0 -46 88 -37 103 10 17 25 4 42
-35z m267 -175 c-7 -84 -10 -93 -28 -75 -9 9 -9 20 -1 45 7 17 15 49 19 70 11
63 17 41 10 -40z m19 -123 c17 -32 20 -60 7 -60 -8 0 -32 65 -32 84 0 14 10 4
25 -24z m-1760 -710 c-3 -5 -22 -10 -41 -10 -21 0 -33 4 -29 10 3 6 22 10 41
10 21 0 33 -4 29 -10z m-1251 -385 c-9 -14 -21 -25 -28 -25 -6 0 -24 -7 -40
-15 -48 -25 -39 -11 17 27 63 43 72 46 51 13z m14 -72 c-9 -10 -23 -34 -31
-53 -8 -19 -24 -44 -36 -54 -21 -19 -21 -19 -21 1 0 11 9 32 20 46 11 14 20
28 20 31 0 4 10 20 22 36 14 20 25 27 32 20 6 -6 4 -16 -6 -27z m-118 -102 c0
-10 -6 -24 -14 -30 -15 -13 -138 -41 -146 -34 -8 7 24 23 62 29 24 4 43 15 53
30 18 29 45 32 45 5z m1420 -349 c0 -4 -15 -16 -32 -26 -18 -10 -61 -46 -95
-80 -35 -33 -63 -58 -63 -56 0 12 128 139 155 153 36 19 35 19 35 9z m-270
-267 c0 -2 -5 -15 -11 -29 -8 -17 -25 -28 -55 -35 -52 -13 -54 -13 -54 -2 0 5
13 14 29 21 16 6 37 20 47 31 15 17 44 26 44 14z"/>
<path d="M9596 15792 c8 -18 20 -32 25 -32 16 0 10 16 -16 40 l-25 24 16 -32z"/>
<path d="M9437 15628 c-2 -7 0 -24 6 -38 l10 -25 7 30 c3 17 5 33 3 38 -6 11
-20 8 -26 -5z"/>
<path d="M10166 15580 c7 -42 19 -57 27 -36 3 8 0 21 -7 28 -7 8 -16 20 -19
28 -4 8 -4 -1 -1 -20z"/>
<path d="M9595 15590 c3 -5 8 -10 11 -10 2 0 4 5 4 10 0 6 -5 10 -11 10 -5 0
-7 -4 -4 -10z"/>
<path d="M9335 15438 c-2 -7 -6 -30 -10 -52 -5 -29 -3 -37 7 -34 7 3 14 19 16
37 2 18 10 35 19 38 12 5 12 7 1 14 -18 12 -28 11 -33 -3z"/>
<path d="M9685 15430 c-21 -5 -25 -9 -15 -13 35 -14 80 -6 80 14 0 10 -21 10
-65 -1z"/>
<path d="M9417 15424 c-14 -14 -7 -35 11 -32 9 2 17 10 17 17 0 16 -18 25 -28
15z"/>
<path d="M9940 15342 c0 -5 9 -12 21 -15 13 -3 19 -1 16 6 -5 15 -37 22 -37 9z"/>
<path d="M10280 15261 c0 -5 6 -13 13 -19 15 -13 42 1 33 17 -8 13 -46 15 -46
2z"/>
<path d="M9406 15222 c-8 -14 17 -84 32 -89 7 -3 19 0 25 6 9 9 7 16 -10 29
-16 12 -21 23 -17 40 5 16 2 22 -9 22 -9 0 -18 -4 -21 -8z"/>
<path d="M9522 15193 c-8 -15 -9 -24 -1 -28 15 -10 21 0 17 27 l-3 23 -13 -22z"/>
<path d="M9730 15180 c0 -19 4 -21 27 -15 30 7 39 13 32 19 -2 2 -16 7 -32 11
-23 6 -27 4 -27 -15z"/>
<path d="M9825 15035 c21 -17 45 -17 48 0 1 6 -14 11 -33 13 -33 2 -34 2 -15
-13z"/>
<path d="M9540 14980 c0 -11 2 -20 4 -20 2 0 11 -3 19 -6 10 -4 15 2 15 20 0
19 -6 26 -19 26 -12 0 -19 -7 -19 -20z"/>
<path d="M10056 14804 c-7 -18 0 -34 15 -34 12 0 12 37 0 44 -5 3 -12 -1 -15
-10z"/>
<path d="M10920 14163 c0 -10 4 -24 9 -32 12 -19 24 3 16 29 -8 25 -25 26 -25
3z"/>
<path d="M11175 13850 c-7 -23 2 -43 16 -35 12 8 12 55 0 55 -5 0 -12 -9 -16
-20z"/>
<path d="M10520 13820 c0 -5 6 -13 13 -17 7 -4 21 -21 31 -38 12 -18 21 -24
24 -17 2 7 -8 28 -23 47 -25 34 -45 45 -45 25z"/>
<path d="M11420 13815 c-10 -12 -10 -18 0 -30 20 -24 38 -18 32 10 -6 32 -16
39 -32 20z"/>
<path d="M11776 13805 c-3 -9 -6 -26 -5 -38 1 -16 4 -12 10 12 10 34 6 55 -5
26z"/>
<path d="M10902 13753 c2 -10 14 -19 26 -21 21 -3 22 -1 12 17 -13 26 -43 28
-38 4z"/>
<path d="M11857 13704 c-16 -13 -24 -24 -18 -24 17 0 61 23 61 31 0 18 -17 16
-43 -7z"/>
<path d="M10470 13646 c0 -2 8 -10 18 -17 15 -13 16 -12 3 4 -13 16 -21 21
-21 13z"/>
<path d="M10500 13606 c0 -2 8 -10 18 -17 15 -13 16 -12 3 4 -13 16 -21 21
-21 13z"/>
<path d="M11137 13594 c-12 -12 4 -24 33 -24 16 0 31 4 34 9 10 16 -52 30 -67
15z"/>
<path d="M11340 13594 c0 -10 42 -65 46 -61 9 9 -19 67 -32 67 -8 0 -14 -3
-14 -6z"/>
<path d="M10580 13515 c30 -30 57 -55 59 -55 3 0 -19 25 -49 55 -30 30 -57 55
-59 55 -3 0 19 -25 49 -55z"/>
<path d="M11564 13544 c-4 -17 -2 -29 7 -35 37 -24 67 20 32 46 -26 20 -32 18
-39 -11z"/>
<path d="M11850 13509 c0 -17 4 -20 23 -15 12 3 37 6 55 6 17 0 32 5 32 10 0
7 -13 8 -34 5 -19 -4 -43 -2 -55 4 -18 10 -21 9 -21 -10z"/>
<path d="M10761 13502 c-10 -19 2 -42 23 -42 6 0 5 5 -2 12 -8 8 -8 15 -1 24
7 8 7 14 0 18 -6 4 -15 -2 -20 -12z"/>
<path d="M11140 13400 c0 -5 5 -10 10 -10 6 0 10 5 10 10 0 6 -4 10 -10 10 -5
0 -10 -4 -10 -10z"/>
<path d="M11326 13375 c-20 -21 -21 -32 -1 -15 9 8 27 10 47 6 35 -7 28 7 -8
18 -14 4 -28 1 -38 -9z"/>
<path d="M11201 13363 c-7 -8 -10 -17 -7 -20 9 -9 29 13 25 25 -2 6 -10 3 -18
-5z"/>
<path d="M11856 13348 c-8 -25 -16 -78 -11 -78 2 0 15 4 29 10 28 10 36 40 11
40 -8 0 -12 6 -9 14 3 8 1 17 -5 21 -6 3 -13 0 -15 -7z"/>
<path d="M10770 13298 c41 -45 50 -53 50 -45 0 2 -21 23 -47 47 l-48 45 45
-47z"/>
<path d="M11365 13310 c-17 -18 -17 -20 -1 -20 9 0 19 7 23 15 9 25 -2 27 -22
5z"/>
<path d="M11550 13321 c0 -12 46 -41 65 -41 21 0 19 27 -4 40 -24 12 -61 13
-61 1z"/>
<path d="M10971 13278 c-10 -25 1 -44 18 -34 14 9 14 43 1 51 -6 3 -14 -4 -19
-17z"/>
<path d="M10930 13128 c24 -27 45 -48 47 -48 8 0 0 9 -44 50 l-48 45 45 -47z"/>
<path d="M11170 13145 c0 -8 9 -10 25 -7 14 2 25 6 25 7 0 1 -11 5 -25 7 -16
3 -25 1 -25 -7z"/>
<path d="M11342 13104 c-13 -24 -3 -54 19 -54 23 0 25 16 3 24 -10 4 -14 14
-11 26 6 24 1 26 -11 4z"/>
<path d="M11571 13107 c-19 -19 -14 -39 8 -28 16 9 18 8 14 -9 -6 -22 22 -29
30 -7 11 30 -31 65 -52 44z"/>
<path d="M11836 13093 c13 -52 25 -56 50 -17 15 22 15 27 3 35 -8 5 -24 9 -37
9 -19 0 -22 -4 -16 -27z m44 -8 c0 -8 -4 -17 -10 -20 -6 -4 -10 5 -10 20 0 15
4 24 10 20 6 -3 10 -12 10 -20z"/>
<path d="M11177 13075 c-4 -8 -3 -16 1 -19 4 -3 9 4 9 15 2 23 -3 25 -10 4z"/>
<path d="M11000 13045 c13 -14 26 -25 28 -25 3 0 -5 11 -18 25 -13 14 -26 25
-28 25 -3 0 5 -11 18 -25z"/>
<path d="M11075 12950 c25 -33 48 -60 51 -60 3 0 -16 27 -41 60 -25 33 -48 60
-51 60 -3 0 16 -27 41 -60z"/>
<path d="M11531 12940 c-1 -9 4 -21 11 -28 14 -14 92 -17 83 -3 -3 5 -21 7
-40 4 -30 -5 -36 -2 -44 18 -6 14 -10 17 -10 9z"/>
<path d="M11860 12910 c0 -13 18 -22 24 -11 3 5 -1 11 -9 15 -8 3 -15 1 -15
-4z"/>
<path d="M11846 12875 c-3 -8 -1 -15 4 -15 6 0 10 7 10 15 0 8 -2 15 -4 15 -2
0 -6 -7 -10 -15z"/>
<path d="M11199 12793 c38 -49 86 -104 108 -123 l38 -35 -41 45 c-22 25 -69
80 -103 123 -34 42 -64 77 -67 77 -2 0 27 -39 65 -87z"/>
<path d="M11360 12605 c13 -14 26 -25 28 -25 3 0 -5 11 -18 25 -13 14 -26 25
-28 25 -3 0 5 -11 18 -25z"/>
<path d="M11540 12413 c57 -62 105 -113 108 -113 6 0 -131 150 -174 190 -21
19 9 -16 66 -77z"/>
<path d="M11650 12286 c0 -2 8 -10 18 -17 15 -13 16 -12 3 4 -13 16 -21 21
-21 13z"/>
<path d="M15000 8627 c0 -2 15 -16 33 -33 l32 -29 -29 33 c-28 30 -36 37 -36
29z"/>
<path d="M15830 8585 c0 -8 5 -15 10 -15 6 0 10 7 10 15 0 8 -4 15 -10 15 -5
0 -10 -7 -10 -15z"/>
<path d="M15155 8460 c55 -55 102 -100 105 -100 2 0 -40 45 -95 100 -55 55
-102 100 -105 100 -2 0 40 -45 95 -100z"/>
<path d="M15413 8545 c0 -8 4 -12 9 -9 5 3 6 10 3 15 -9 13 -12 11 -12 -6z"/>
<path d="M15623 8553 c-10 -3 -10 -9 0 -24 16 -26 25 -24 23 6 -1 26 -3 27
-23 18z"/>
<path d="M15370 8541 c0 -6 5 -13 10 -16 6 -3 10 1 10 9 0 9 -4 16 -10 16 -5
0 -10 -4 -10 -9z"/>
<path d="M15990 8443 c0 -18 5 -33 10 -33 13 0 13 30 0 50 -7 11 -10 7 -10
-17z"/>
<path d="M15275 8330 c10 -11 20 -20 23 -20 3 0 -3 9 -13 20 -10 11 -20 20
-23 20 -3 0 3 -9 13 -20z"/>
<path d="M15595 8310 c-3 -6 1 -7 9 -4 18 7 21 14 7 14 -6 0 -13 -4 -16 -10z"/>
<path d="M15464 8294 c3 -9 6 -18 6 -20 0 -2 7 -4 15 -4 20 0 19 26 -1 34 -24
9 -27 8 -20 -10z"/>
<path d="M15832 8243 c2 -10 10 -18 18 -18 22 0 18 29 -3 33 -14 3 -18 -1 -15
-15z"/>
<path d="M15645 8240 c-3 -5 -2 -10 4 -10 5 0 13 5 16 10 3 6 2 10 -4 10 -5 0
-13 -4 -16 -10z"/>
<path d="M16313 8169 c-13 -13 -6 -39 9 -39 5 0 7 4 3 9 -3 5 -1 12 5 16 12 7
13 25 2 25 -4 0 -13 -5 -19 -11z"/>
<path d="M15620 8137 c0 -21 40 -49 58 -41 14 6 13 8 -5 11 -26 5 -29 13 -11
31 9 9 6 12 -15 12 -15 0 -27 -6 -27 -13z"/>
<path d="M16001 8104 c0 -11 3 -14 6 -6 3 7 2 16 -1 19 -3 4 -6 -2 -5 -13z"/>
<path d="M15830 8060 c0 -5 5 -10 10 -10 6 0 10 5 10 10 0 6 -4 10 -10 10 -5
0 -10 -4 -10 -10z"/>
<path d="M16335 8048 c-9 -22 4 -43 17 -30 7 7 7 16 0 29 -10 17 -11 17 -17 1z"/>
<path d="M16370 8036 c0 -2 7 -6 15 -10 8 -3 15 -1 15 4 0 6 -7 10 -15 10 -8
0 -15 -2 -15 -4z"/>
<path d="M15955 8020 c-19 -7 -19 -7 3 -14 26 -9 41 -1 26 13 -5 5 -18 5 -29
1z"/>
<path d="M15640 7885 c13 -14 26 -25 28 -25 3 0 -5 11 -18 25 -13 14 -26 25
-28 25 -3 0 5 -11 18 -25z"/>
<path d="M16024 7854 c-18 -14 -18 -14 6 -3 31 14 36 19 24 19 -6 0 -19 -7
-30 -16z"/>
<path d="M15840 7849 c1 -19 25 -49 39 -49 17 0 13 13 -14 39 -16 14 -25 18
-25 10z"/>
<path d="M16345 7850 c-8 -13 3 -30 20 -30 19 0 26 27 9 34 -21 8 -22 8 -29
-4z"/>
<path d="M16522 7802 c-14 -9 -6 -42 10 -42 6 0 6 6 -1 14 -10 11 -8 17 6 25
10 6 14 10 8 11 -5 0 -16 -4 -23 -8z"/>
<path d="M15780 7700 c6 -11 13 -20 16 -20 2 0 0 9 -6 20 -6 11 -13 20 -16 20
-2 0 0 -9 6 -20z"/>
<path d="M16560 7711 c0 -7 7 -19 15 -27 19 -20 19 -5 0 20 -9 11 -15 14 -15
7z"/>
<path d="M16350 7656 c0 -2 13 -6 29 -8 17 -2 28 -1 25 4 -5 8 -54 12 -54 4z"/>
<path d="M16021 7618 c1 -24 3 -27 6 -10 2 12 9 20 14 17 5 -3 6 1 3 9 -11 27
-24 17 -23 -16z"/>
<path d="M16058 7583 c5 -21 7 -23 10 -9 2 10 0 22 -6 28 -6 6 -7 0 -4 -19z"/>
<path d="M16001 7420 c15 -19 45 -68 69 -107 23 -40 44 -73 47 -73 13 0 -96
185 -117 199 l-25 16 26 -35z"/>
<path d="M16640 7441 c0 -15 25 -30 48 -28 31 2 27 13 -9 26 -38 13 -39 13
-39 2z"/>
<path d="M16387 7406 c-9 -7 -17 -16 -17 -19 0 -8 39 4 45 14 9 14 -10 18 -28
5z"/>
<path d="M16135 7200 c9 -16 18 -30 21 -30 2 0 -2 14 -11 30 -9 17 -18 30 -21
30 -2 0 2 -13 11 -30z"/>
<path d="M16476 7081 c-3 -4 3 -16 13 -25 16 -14 20 -15 30 -2 7 8 10 20 6 26
-8 12 -42 13 -49 1z"/>
<path d="M16251 7000 c14 -31 19 -36 19 -24 0 6 -7 19 -16 30 -14 18 -14 18
-3 -6z"/>
<path d="M15952 4371 l-24 -36 36 34 c41 40 40 38 24 38 -7 0 -24 -17 -36 -36z"/>
</g>
</svg>
