<?xml version="1.0" encoding="iso-8859-1"?>
<!-- Uploaded to: SVG Repo, www.svgrepo.com, Generator: SVG Repo Mixer Tools -->
<!DOCTYPE svg PUBLIC "-//W3C//DTD SVG 1.1//EN" "http://www.w3.org/Graphics/SVG/1.1/DTD/svg11.dtd">
<svg  height="800px" width="800px" version="1.1" id="Capa_1" xmlns="http://www.w3.org/2000/svg" xmlns:xlink="http://www.w3.org/1999/xlink" 
	 viewBox="0 0 131.919 131.919" xml:space="preserve">
<g>
	<path d="M131.783,57.813c-0.277-7.424-0.901-20.885-1.605-28.141c-0.068-0.753-1.605-1.378-4.271-1.883
		c-0.07-0.942-0.149-1.814-0.229-2.617C125.004,18.233,1.21,22.525,0.15,25.836C-0.385,40.04,0.646,50.864,1.171,63.215
		c0.327,7.702-0.853,16.821,5.095,22.808c0.763,0.773,1.615,1.457,2.537,2.062c0.546,0.852,1.19,1.675,1.954,2.438
		c1.457,1.457,3.221,2.607,5.173,3.499c0.01,3.757-0.406,7.502-4.024,9.595c-0.328,0.198-0.456,0.487-0.456,0.774
		c-0.456,0.614-0.208,1.684,0.732,1.565c2.519-0.317,4.977-0.832,7.386-1.467c-0.585,1.438-1.558,2.698-3.162,3.628
		c-0.338,0.199-0.456,0.476-0.466,0.773c-0.447,0.615-0.199,1.686,0.743,1.567c11.766-1.526,22.223-7.019,32.968-11.687
		c0.426-0.188,8.604-1.031,12.588-1.001c8.069,0.039,16.018,0.645,24.098,0.188c11.191-0.645,23.144,0.376,34.038-2.647
		c6.264-1.734,8.266-6.115,9.674-12.072C131.991,75,132.1,66.218,131.783,57.813z M123.22,79.897
		c-0.655,2.558-1.646,5.878-4.014,7.365c-5.224,3.291-12.499,3.271-18.447,3.499c-13.788,0.545-27.457,0.843-41.245,0.545
		c-3.836-0.079-14.264-0.03-17.188,2.021h0.079c-6.66,2.974-13.272,6.176-20.2,8.356c-0.674,0.219-1.349,0.417-2.032,0.595
		c-1.626,0.477-3.282,0.872-4.956,1.189c2.071-2.329,2.557-5.422,2.646-8.633c0.01-0.426,0.02-0.853,0.02-1.278
		c-0.049-0.436-0.098-0.882-0.129-1.318c-0.108-1.051-0.198-2.091-0.277-3.142c-0.881-0.218-1.764-0.446-2.636-0.704
		c-0.862-0.257-1.993-0.783-3.163-1.556c-2.032-1.318-4.164-3.33-5.125-5.739c-0.149-0.387-0.297-0.773-0.437-1.189
		c-5.005-14.274-4.38-43.941-3.112-51.345c0.992-5.789,118.272-7.523,120.097-1.824c0.069,0.208,0.128,0.426,0.187,0.644
		c0.219,0.744,0.406,1.537,0.575,2.37c1.447,7.235,1.15,17.236,1.447,23.59C125.716,62.154,125.429,71.323,123.22,79.897z"/>
	<path d="M39.329,52.106c-0.752,0.377-1.241,0.905-1.533,1.509c-0.415,0.078-0.757,0.378-0.696,0.93
		c0.308,2.771,0.427,6.086,3.794,6.679c1.479,0.261,3.144-0.052,4.109-1.277c1.012-1.283,0.858-3.041,0.416-4.511
		C44.606,52.741,42.107,50.71,39.329,52.106z" fill="transparent"/>
	<path d="M67.968,54.599c-0.242-2.054-2.227-3.542-4.407-3.578c-0.909-0.016-1.544,0.366-1.978,0.944
		c-0.455-0.542-1.511-0.561-1.735,0.333c-0.616,2.451,0.015,5.257,2.17,6.748c0.561,0.389,1.173,0.531,1.784,0.491
		c0.451,0.136,0.938,0.2,1.465,0.15c2.291-0.218,3.835-2.921,2.758-4.991C68.007,54.664,67.986,54.632,67.968,54.599z" fill="transparent"/>
	<path d="M83.672,50.9c-0.431-0.458-1.204-0.559-1.509,0.168c-0.956,2.279-1.81,4.986,0.692,6.581
		c1.71,1.091,4.619,1.262,6.225-0.101c1.846-1.564,1.526-4.511-0.163-6.026C87.462,50.218,85.166,49.666,83.672,50.9z" fill="transparent"/>
</g>
</svg>