<?xml version="1.0" encoding="iso-8859-1"?>
<!-- Uploaded to: SVG Repo, www.svgrepo.com, Generator: SVG Repo Mixer Tools -->
<svg fill="#000000" height="800px" width="800px" version="1.1" id="Layer_1" xmlns="http://www.w3.org/2000/svg" xmlns:xlink="http://www.w3.org/1999/xlink" 
	 viewBox="0 0 512 512" xml:space="preserve">
<g>
	<g>
		<g>
			<path d="M106.667,288C83.093,288,64,307.093,64,330.667c0,23.573,19.093,42.667,42.667,42.667
				c23.573,0,42.667-19.093,42.667-42.667C149.333,307.093,130.24,288,106.667,288z"/>
			<path d="M32,352c-17.664,0-32,14.336-32,32c0,17.664,14.336,32,32,32s32-14.336,32-32C64,366.336,49.664,352,32,352z"/>
			<path d="M212.267,245.333h54.4C331.349,245.333,384,192.704,384,128S331.349,10.667,266.667,10.667
				c-45.675,0-86.976,27.2-105.963,68.011C143.147,62.4,120.363,53.333,96,53.333c-52.928,0-96,43.072-96,96
				c0,52.928,43.072,96,96,96h11.733C112.683,269.653,134.251,288,160,288S207.317,269.653,212.267,245.333z"/>
			<path d="M480,437.333c-17.664,0-32,14.336-32,32c0,17.664,14.336,32,32,32c17.664,0,32-14.336,32-32
				C512,451.669,497.664,437.333,480,437.333z"/>
			<path d="M405.333,373.333c-23.573,0-42.667,19.093-42.667,42.667c0,23.573,19.093,42.667,42.667,42.667
				C428.907,458.667,448,439.573,448,416C448,392.427,428.907,373.333,405.333,373.333z"/>
			<path d="M404.267,330.667H416c52.928,0,96-43.072,96-96c0-52.885-42.965-95.893-97.707-95.893h-0.213
				c-5.227,0.085-9.621,3.968-10.368,9.131c-9.792,67.712-68.715,118.763-137.045,118.763H243.52c-2.304,0-4.544,0.747-6.4,2.133
				l-23.701,17.92c-5.141,5.291-11.264,9.877-18.219,13.611c-3.541,1.92-5.696,5.675-5.589,9.707
				c0.128,4.011,2.496,7.637,6.144,9.344c16.021,7.509,32.683,11.307,49.557,11.307h54.4c4.949,24.32,26.517,42.667,52.267,42.667
				C377.728,373.355,399.317,354.987,404.267,330.667z"/>
		</g>
	</g>
</g>
</svg>